<?xml version="1.0" encoding="UTF-8" standalone="no"?>
<svg
   xmlns:dc="http://purl.org/dc/elements/1.1/"
   xmlns:cc="http://creativecommons.org/ns#"
   xmlns:rdf="http://www.w3.org/1999/02/22-rdf-syntax-ns#"
   xmlns:svg="http://www.w3.org/2000/svg"
   xmlns="http://www.w3.org/2000/svg"
   xmlns:sodipodi="http://sodipodi.sourceforge.net/DTD/sodipodi-0.dtd"
   xmlns:inkscape="http://www.inkscape.org/namespaces/inkscape"
   width="40"
   height="40"
   viewBox="0 0 40 40"
   fill="none"
   version="1.1"
   id="svg19"
   sodipodi:docname="icon.svg"
   inkscape:version="0.92.4 (5da689c313, 2019-01-14)">
  <metadata
     id="metadata23">
    <rdf:RDF>
      <cc:Work
         rdf:about="">
        <dc:format>image/svg+xml</dc:format>
        <dc:type
           rdf:resource="http://purl.org/dc/dcmitype/StillImage" />
        <dc:title></dc:title>
      </cc:Work>
    </rdf:RDF>
  </metadata>
  <sodipodi:namedview
     pagecolor="#ffffff"
     bordercolor="#666666"
     borderopacity="1"
     objecttolerance="10"
     gridtolerance="10"
     guidetolerance="10"
     inkscape:pageopacity="0"
     inkscape:pageshadow="2"
     inkscape:window-width="1920"
     inkscape:window-height="1001"
     id="namedview21"
     showgrid="false"
     inkscape:zoom="5.9"
     inkscape:cx="21.949153"
     inkscape:cy="20"
     inkscape:window-x="-9"
     inkscape:window-y="-9"
     inkscape:window-maximized="1"
     inkscape:current-layer="svg19" />
  <g
     clip-path="url(#clip0_710_6227)"
     id="g12">
    <path
       d="M29.6 20.2273C29.6 19.5182 29.5364 18.8364 29.4182 18.1818H20V22.05H25.3818C25.15 23.3 24.4455 24.3591 23.3864 25.0682V27.5773H26.6182C28.5091 25.8364 29.6 23.2727 29.6 20.2273Z"
       fill="#4285F4"
       id="path4" />
    <path
       d="M20 30C22.7 30 24.9636 29.1045 26.6181 27.5773L23.3863 25.0682C22.4909 25.6682 21.3454 26.0227 20 26.0227C17.3954 26.0227 15.1909 24.2636 14.4045 21.9H11.0636V24.4909C12.7091 27.7591 16.0909 30 20 30Z"
       fill="#34A853"
       id="path6" />
    <path
       d="M14.4045 21.9C14.2045 21.3 14.0909 20.6591 14.0909 20C14.0909 19.3409 14.2045 18.7 14.4045 18.1V15.5091H11.0636C10.3864 16.8591 10 18.3864 10 20C10 21.6136 10.3864 23.1409 11.0636 24.4909L14.4045 21.9Z"
       fill="#FBBC04"
       id="path8" />
    <path
       d="M20 13.9773C21.4681 13.9773 22.7863 14.4818 23.8227 15.4727L26.6909 12.6045C24.9591 10.9909 22.6954 10 20 10C16.0909 10 12.7091 12.2409 11.0636 15.5091L14.4045 18.1C15.1909 15.7364 17.3954 13.9773 20 13.9773Z"
       fill="#E94235"
       id="path10" />
  </g>
  <defs
     id="defs17">
    <clipPath
       id="clip0_710_6227">
      <rect
         width="20"
         height="20"
         fill="white"
         transform="translate(10 10)"
         id="rect14" />
    </clipPath>
  </defs>
</svg>
