<svg xmlns="http://www.w3.org/2000/svg" xmlns:xlink="http://www.w3.org/1999/xlink" xmlns:xodm="http://www.corel.com/coreldraw/odm/2003" xml:space="preserve" version="1.1" style="shape-rendering:geometricPrecision;text-rendering:geometricPrecision;image-rendering:optimizeQuality;" viewBox="0 0 60000 75000" x="0px" y="0px" fill-rule="evenodd" clip-rule="evenodd"><defs><style type="text/css">
   
    .fil0 {fill:black;fill-rule:nonzero}
   
  </style></defs><g><path class="fil0" d="M3217.27 16711.3c1947.47,-1947.47 4658.27,-2865.88 7752.08,-2850.1 28.66,0.15 53.42,-10.38 73.13,-31.19 19.71,-20.81 28.9,-46.07 27.2,-74.69 -122.3,-2064.73 362.58,-3777.3 1531.49,-4946.21 2051.97,-2051.96 5779.09,-1996.36 10146.21,-247.64 2264.97,906.95 4711.75,2271.01 7188.83,4031.29 35.32,25.1 80.54,25.1 115.86,0 2477.08,-1760.27 4923.87,-3124.35 7188.84,-4031.3 4367.1,-1748.71 8094.23,-1804.32 10146.19,247.65 1168.91,1168.91 1653.84,2881.45 1531.49,4946.22 -1.7,28.61 7.5,53.88 27.21,74.69 19.72,20.82 44.45,31.34 73.13,31.19 3093.82,-15.83 5804.6,902.63 7752.07,2850.1 2819.49,2819.49 3482.65,7238.67 2275.56,12104.18 -1190.48,4798.56 -4204.98,10044.71 -8761.3,14601.04 -4556.33,4556.32 -9802.48,7570.82 -14601.04,8761.3 -3058.66,758.83 -8321.52,758.84 -11380.17,0.01 -4798.57,-1190.48 -10044.72,-4205 -14601.03,-8761.31 -4556.33,-4556.33 -7570.83,-9802.48 -8761.31,-14601.04 -1207.09,-4865.51 -543.94,-9284.68 2275.56,-12104.19zm8738.96 -2814.27c1086.53,72.24 2213.32,252.93 3365.22,538.71 2657.03,659.18 5451.27,1877.82 8189.65,3607.62 39.9,25.2 90.45,19.64 123.91,-13.64 1820.88,-1810.75 3699.18,-3426.15 5570.04,-4820.39 26.57,-19.81 40.73,-48.54 40.23,-81.68 -0.5,-33.14 -15.5,-61.43 -42.66,-80.43 -2330.28,-1630.3 -4624.21,-2897.49 -6750.58,-3748.95 -4065.37,-1627.89 -7482.64,-1731.98 -9288.17,73.54 -1020.5,1020.51 -1430.7,2556.05 -1300.77,4432.35 3.47,50.21 42.91,89.53 93.13,92.87zm3175.58 1309.69c-1042.34,-258.59 -2061.55,-427.63 -3044.96,-504.13 -31.57,-2.46 -59.77,8.61 -81.24,31.88 -21.48,23.27 -30.25,52.26 -25.28,83.53 188.2,1183.1 562.98,2475.91 1110,3841.98 891.95,2227.51 2240.21,4638.89 3984.06,7083.3 19.69,27.6 49.08,42.45 82.98,41.91 33.9,-0.53 62.81,-16.29 81.62,-44.5 1550.62,-2325.05 3461.52,-4696.62 5682,-6987.66 21.76,-22.46 31.27,-50.74 27.46,-81.78 -3.82,-31.03 -19.85,-56.18 -46.39,-72.71 -2604.68,-1622.25 -5252.75,-2767.24 -7770.25,-3391.82zm-4059.04 -550.26c-2929.4,-35.65 -5481.89,806.63 -7292.8,2617.54 -2608.54,2608.55 -3207.55,6755.67 -2067.28,11351.85 1156.89,4663.16 4099.31,9774.26 8553.03,14227.98 4453.71,4453.71 9564.81,7396.14 14227.97,8553.03 378.83,93.98 754.57,176.03 1126.64,246.13 48.81,9.2 96.19,-18.06 112.78,-64.88 16.58,-46.82 -3.07,-97.82 -46.79,-121.4 -772.78,-416.87 -1479.12,-937.28 -2106.28,-1564.44 -1673.06,-1673.06 -2586.54,-3909.52 -2800.77,-6468.15 -2.44,-29.13 -15.63,-53.29 -38.84,-71.06 -23.22,-17.78 -49.98,-24.2 -78.75,-18.95 -2744.83,500.51 -5020.59,100.92 -6465.54,-1344.04 -2051.97,-2051.97 -1996.36,-5779.09 -247.65,-10146.2 665.53,-1662.07 1577.27,-3422.09 2711.03,-5220.08 22.27,-35.31 20.87,-78.31 -3.66,-112.09 -1891.74,-2605.7 -3349.33,-5186.41 -4302.33,-7566.38 -597.82,-1492.95 -997.49,-2910.98 -1182.97,-4212.94 -7.01,-49.19 -48.1,-85.32 -97.79,-85.92zm13288.84 3941.92c1913.33,1288.8 3789.27,2827.07 5560.87,4598.67 0.31,0.31 0.63,0.62 0.92,0.92 38.95,38.97 102.51,38.97 141.46,0 0.29,-0.3 0.61,-0.61 0.92,-0.92 1771.61,-1771.6 3647.55,-3309.91 5560.88,-4598.68 25.74,-17.34 40.83,-42.76 43.7,-73.65 2.88,-30.9 -7.24,-58.67 -29.33,-80.46 -1830.74,-1806.47 -3715.76,-3410.97 -5587.67,-4786.77 -35.82,-26.32 -82.62,-26.32 -118.44,0 -1871.91,1375.79 -3756.93,2980.31 -5587.68,4786.77 -22.09,21.8 -32.21,49.56 -29.33,80.46 2.88,30.9 17.96,56.32 43.7,73.66zm4998.17 5161.37c-1785.2,-1785.2 -3676.05,-3327.57 -5601.32,-4609.47 -40.42,-26.91 -93.05,-21.35 -126.97,13.39 -2345.98,2402.53 -4343.97,4893.86 -5933.62,7322.66 -23.47,35.86 -22.07,80.42 3.63,114.72 1384.71,1848.4 2990.61,3705.6 4791.85,5506.84 187.4,187.4 375.42,372.59 563.95,555.7 23.72,23.03 54.23,32.45 86.8,26.78 32.59,-5.66 58.11,-24.85 72.66,-54.55 1455.23,-2972.37 3526.85,-5962.22 6154.64,-8726.59 37.29,-39.23 36.57,-101.13 -1.63,-139.47 -3.32,-3.33 -6.65,-6.67 -9.99,-10.01zm1257.08 149.49c2627.78,2764.37 4699.37,5754.21 6154.65,8726.58 14.54,29.7 40.08,48.89 72.66,54.55 32.57,5.66 63.08,-3.75 86.8,-26.78 188.52,-183.09 376.53,-368.28 563.92,-555.67 1801.29,-1801.29 3407.21,-3658.48 4791.88,-5506.86 25.7,-34.31 27.1,-78.85 3.63,-114.72 -1589.66,-2428.81 -3587.64,-4920.13 -5933.62,-7322.67 -33.92,-34.74 -86.55,-40.29 -126.97,-13.39 -1925.27,1281.9 -3816.12,2824.26 -5601.33,4609.47 -3.34,3.34 -6.67,6.68 -9.99,10.01 -38.2,38.34 -38.93,100.25 -1.63,139.48zm6599.07 9676.9c634.78,1422.9 1126.46,2835.85 1467.86,4211.95 399.71,1611.12 594.08,3173.19 573.18,4644.51 -0.69,48.86 33,90.34 80.98,99.62 2540.6,492.14 4617.4,169.22 5891.48,-1104.85 1805.52,-1805.53 1701.43,-5222.8 73.54,-9288.17 -608.13,-1518.7 -1428.33,-3122.89 -2441.43,-4764.73 -17.84,-28.92 -46.28,-45.7 -80.22,-47.37 -33.94,-1.66 -63.88,12.28 -84.46,39.32 -1355.23,1780.63 -2909.04,3563.96 -4639.21,5294.14 -272,271.99 -545.28,539.53 -819.62,802.67 -31.02,29.75 -39.61,73.66 -22.1,112.91zm696.88 4401.59c-304.84,-1228.77 -733.92,-2488.66 -1281.77,-3759.42 -13.25,-30.73 -38.32,-51.27 -71.05,-58.22 -32.74,-6.96 -63.99,1.62 -88.59,24.32 -1857.68,1713.9 -3755.85,3223.13 -5628.5,4501.47 -28.66,19.57 -44.23,49.7 -43.6,84.4 0.63,34.7 17.27,64.24 46.62,82.76 1757.03,1108.47 3474.86,1998.99 5095.34,2647.87 828.86,331.9 1630.73,600.33 2397.48,802.2 31.01,8.16 61.14,2.06 86.53,-17.52 25.39,-19.58 38.95,-47.18 38.93,-79.24 -0.69,-1340.15 -187.41,-2761.5 -551.39,-4228.62zm-1716.9 -4718.78c-1420.48,-2982.36 -3484.88,-5996.43 -6129.22,-8783.39 -19.59,-20.65 -44.09,-31.16 -72.56,-31.16 -28.46,0 -52.97,10.51 -72.56,31.16 -2644.34,2786.96 -4708.78,5801.03 -6129.21,8783.39 -19.06,40.01 -10.36,85.81 22.02,116.07 2021.37,1888.72 4092.11,3529.95 6124.17,4888.59 34.36,22.97 76.8,22.97 111.16,0 2032.07,-1358.59 4102.81,-2999.87 6124.18,-4888.59 32.38,-30.25 41.07,-76.06 22.02,-116.07zm3013.09 10165.17c-214.27,2558.6 -1127.71,4795.09 -2800.77,6468.16 -627.17,627.17 -1333.55,1147.55 -2106.34,1564.44 -43.71,23.58 -63.37,74.59 -46.78,121.4 16.59,46.82 63.96,74.06 112.77,64.87 372.09,-70.1 747.85,-152.15 1126.7,-246.14 4663.16,-1156.89 9774.26,-4099.31 14227.98,-8553.02 4453.71,-4453.72 7396.13,-9564.82 8553.02,-14227.98 1140.28,-4596.19 541.26,-8743.3 -2067.28,-11351.84 -1810.91,-1810.91 -4363.39,-2653.21 -7292.8,-2617.54 -49.71,0.6 -90.78,36.71 -97.79,85.92 -185.5,1301.97 -585.15,2719.97 -1182.96,4212.92 -953.01,2379.97 -2410.61,4960.68 -4302.34,7566.39 -24.53,33.78 -25.93,76.78 -3.66,112.09 1133.78,1798 2045.49,3558.01 2711.02,5220.07 1748.72,4367.12 1804.32,8094.24 -247.64,10146.21 -1444.96,1444.95 -3720.72,1844.53 -6465.54,1344.04 -28.76,-5.25 -55.54,1.17 -78.75,18.94 -23.21,17.78 -36.4,41.93 -38.84,71.07zm-3363.47 5905.46c1560.77,-1560.78 2401.87,-3672.51 2581.71,-6101.53 3.64,-49.02 -27.95,-92.6 -75.66,-104.45 -865.78,-215.01 -1771.05,-511.65 -2705.66,-885.89 -1778.21,-712.05 -3668.5,-1705.76 -5597.53,-2951.83 -33.78,-21.83 -74.74,-21.82 -108.52,0 -1929.02,1246.04 -3819.32,2239.79 -5597.54,2951.84 -934.6,374.24 -1839.83,670.8 -2705.65,885.88 -47.68,11.85 -79.28,55.44 -75.65,104.44 179.81,2429.04 1020.94,4540.76 2581.71,6101.53 3348.03,3348.03 8354.74,3348.06 11702.79,0.01zm-5062.3 -36130.25c1870.86,1394.26 3749.15,3009.64 5570.03,4820.39 33.46,33.28 84.01,38.84 123.91,13.64 2738.39,-1729.76 5532.62,-2948.43 8189.65,-3607.61 1151.91,-285.78 2278.68,-466.4 3365.23,-538.7 50.21,-3.34 89.64,-42.67 93.12,-92.87 129.98,-1876.33 -280.26,-3411.86 -1300.77,-4432.37 -1805.52,-1805.53 -5222.79,-1701.43 -9288.15,-73.55 -2126.37,851.46 -4420.31,2118.69 -6750.58,3748.96 -27.16,19 -42.17,47.29 -42.67,80.43 -0.5,33.14 13.65,61.87 40.23,81.68zm6284.05 5543.7c2220.48,2291.05 4131.37,4662.61 5682,6987.67 18.81,28.2 47.73,43.97 81.62,44.5 33.9,0.53 63.29,-14.31 82.98,-41.91 1743.85,-2444.42 3092.12,-4855.81 3984.07,-7083.32 547.01,-1366.07 921.76,-2658.81 1109.99,-3841.96 4.97,-31.27 -3.81,-60.26 -25.28,-83.53 -21.48,-23.27 -49.67,-34.33 -81.24,-31.88 -983.43,76.52 -2002.62,245.54 -3044.96,504.13 -2517.5,624.58 -5165.57,1769.57 -7770.25,3391.81 -26.54,16.53 -42.57,41.67 -46.39,72.71 -3.81,31.04 5.69,59.32 27.46,81.78zm-7921.91 19942.85c-1872.66,-1278.34 -3770.81,-2787.56 -5628.5,-4501.46 -24.6,-22.7 -55.85,-31.29 -88.59,-24.33 -32.74,6.95 -57.8,27.5 -71.05,58.23 -547.81,1270.75 -976.93,2530.64 -1281.77,3759.41 -363.98,1467.12 -550.66,2888.44 -551.4,4228.61 -0.02,32.06 13.54,59.66 38.93,79.24 25.39,19.58 55.53,25.69 86.54,17.52 766.79,-201.92 1568.61,-470.28 2397.46,-802.18 1620.48,-648.88 3338.31,-1539.43 5095.35,-2647.88 29.35,-18.52 46,-48.06 46.63,-82.76 0.63,-34.71 -14.93,-64.83 -43.6,-84.4zm-6395.13 -5222.65c-274.36,-263.13 -547.64,-530.69 -819.59,-802.64 -1730.18,-1730.19 -3284.01,-3513.53 -4639.24,-5294.17 -20.58,-27.04 -50.52,-40.98 -84.46,-39.31 -33.94,1.66 -62.38,18.45 -80.22,47.37 -1013.06,1641.84 -1833.31,3246.02 -2441.44,4764.73 -1627.88,4065.36 -1731.98,7482.63 73.55,9288.16 1274.07,1274.08 3350.86,1597.03 5891.48,1104.86 48,-9.28 81.68,-50.74 80.99,-99.63 -20.82,-1471.35 173.46,-3033.39 573.17,-4644.51 341.4,-1376.1 833.09,-2789.06 1467.86,-4211.95 17.51,-39.25 8.92,-83.16 -22.1,-112.91z"/></g><text x="0" y="60015" fill="#000000" font-size="5px" font-weight="bold" font-family="'Helvetica Neue', Helvetica, Arial-Unicode, Arial, Sans-serif"></text><text x="0" y="60020" fill="#000000" font-size="5px" font-weight="bold" font-family="'Helvetica Neue', Helvetica, Arial-Unicode, Arial, Sans-serif"></text></svg>