<?xml version="1.0" encoding="UTF-8" standalone="no"?>
<svg
   xmlns:dc="http://purl.org/dc/elements/1.1/"
   xmlns:cc="http://creativecommons.org/ns#"
   xmlns:rdf="http://www.w3.org/1999/02/22-rdf-syntax-ns#"
   xmlns:svg="http://www.w3.org/2000/svg"
   xmlns="http://www.w3.org/2000/svg"
   xmlns:sodipodi="http://sodipodi.sourceforge.net/DTD/sodipodi-0.dtd"
   xmlns:inkscape="http://www.inkscape.org/namespaces/inkscape"
   version="1.1"
   x="0px"
   y="0px"
   viewBox="0 0 100 125"
   style="enable-background:new 0 0 100 100;"
   xml:space="preserve"
   id="svg835"
   sodipodi:docname="icon.svg"
   inkscape:version="0.92.4 (5da689c313, 2019-01-14)"><metadata
     id="metadata841"><rdf:RDF><cc:Work
         rdf:about=""><dc:format>image/svg+xml</dc:format><dc:type
           rdf:resource="http://purl.org/dc/dcmitype/StillImage" /><dc:title></dc:title></cc:Work></rdf:RDF></metadata><defs
     id="defs839" /><sodipodi:namedview
     pagecolor="#000000"
     bordercolor="#666666"
     borderopacity="1"
     objecttolerance="10"
     gridtolerance="10"
     guidetolerance="10"
     inkscape:pageopacity="0"
     inkscape:pageshadow="2"
     inkscape:window-width="1920"
     inkscape:window-height="1001"
     id="namedview837"
     showgrid="false"
     inkscape:zoom="5.3400704"
     inkscape:cx="60.524741"
     inkscape:cy="63.750138"
     inkscape:window-x="-9"
     inkscape:window-y="-9"
     inkscape:window-maximized="1"
     inkscape:current-layer="svg835" /><text
     x="0"
     y="115"
     fill="#000000"
     font-size="5px"
     font-weight="bold"
     font-family="'Helvetica Neue', Helvetica, Arial-Unicode, Arial, Sans-serif"
     id="text831" />
<text
     x="0"
     y="120"
     fill="#000000"
     font-size="5px"
     font-weight="bold"
     font-family="'Helvetica Neue', Helvetica, Arial-Unicode, Arial, Sans-serif"
     id="text833" />
<path
     style="fill:#ffffff;fill-opacity:1;stroke:#ffffff;stroke-width:0.09363172;stroke-opacity:1"
     d="M 28.567775,67.899839 C 17.537951,66.231365 10.312537,63.852782 7.627314,61.006303 6.792837,60.121714 6.5643198,59.634062 6.5643198,58.73789 c 0,-0.895657 0.2285268,-1.383834 1.0608155,-2.266104 2.6317937,-2.78984 10.2384247,-5.323933 20.4562087,-6.814834 1.588673,-0.231807 1.80211,-0.229589 0.95459,0.0099 -2.350602,0.664284 -4.423542,1.429502 -6.179694,2.281212 -4.053517,1.965901 -6.22651,4.335478 -6.22651,6.789805 0,1.358697 0.59774,2.571624 1.915933,3.887787 2.049473,2.046318 5.219634,3.638758 10.068928,5.057842 1.063311,0.311164 1.047995,0.381932 -0.04682,0.21632 z"
     id="path843"
     inkscape:connector-curvature="0" /><path
     style="fill:#ffffff;fill-opacity:1;stroke:#ffffff;stroke-width:0.09363172;stroke-opacity:1"
     d="m 29.831803,66.924598 c -6.46146,-1.801355 -10.535896,-4.071537 -11.762769,-6.553947 -0.344463,-0.696973 -0.362539,-0.778138 -0.362539,-1.627905 0,-0.775964 0.03346,-0.965751 0.252737,-1.433678 1.051777,-2.244412 4.058542,-4.199549 9.06362,-5.893583 1.303909,-0.441325 4.199412,-1.244424 4.260096,-1.181583 0.0345,0.03572 0.508347,1.899697 0.484535,1.906 -0.0089,0.0024 -0.374371,0.304247 -0.812099,0.670855 -1.381013,1.156631 -2.439114,2.636812 -2.910019,4.070836 -0.321765,0.979857 -0.326422,2.728848 -0.0098,3.674032 0.53454,1.595635 1.474342,2.911696 2.962463,4.148519 0.414266,0.344308 0.764411,0.632167 0.778102,0.639685 0.01369,0.0075 -0.07524,0.430836 -0.197628,0.940702 -0.179553,0.748028 -0.256677,0.930827 -0.399419,0.946693 -0.09729,0.01081 -0.703578,-0.127168 -1.347296,-0.306626 z"
     id="path845"
     inkscape:connector-curvature="0" /><path
     style="fill:#ffffff;fill-opacity:1;stroke:#ffffff;stroke-width:0.09363172;stroke-opacity:1"
     d="M 37.696868,67.299646 C 36.462945,66.85953 34.23771,65.80824 33.419045,65.278632 L 32.933307,64.9644 33.303308,63.981267 c 0.357768,-0.95063 1.626207,-3.646095 1.899196,-4.035841 0.126749,-0.180961 0.179246,-0.124465 0.985513,1.060597 0.468398,0.688456 1.28787,1.799948 1.821049,2.469982 l 0.969415,1.218243 0.06663,1.516144 c 0.05361,1.219953 0.04275,1.515222 -0.05561,1.511428 -0.06723,-0.0026 -0.648916,-0.192572 -1.292633,-0.422174 z"
     id="path849"
     inkscape:connector-curvature="0" /><path
     style="fill:#ffffff;fill-opacity:1;stroke:#ffffff;stroke-width:0.09363172;stroke-opacity:1"
     d="m 34.471618,56.092794 c -0.438826,-0.888331 -0.96341,-2.057557 -1.165741,-2.59828 l -0.367875,-0.983133 0.483391,-0.314789 c 0.794783,-0.51757 3.21509,-1.653034 4.39866,-2.063589 0.608475,-0.211067 1.148026,-0.383758 1.199003,-0.383758 0.06002,0 0.06977,0.536168 0.02766,1.521515 l -0.06502,1.521516 -0.678791,0.842685 c -0.858138,1.065335 -2.187632,2.890521 -2.590937,3.556948 -0.169992,0.280897 -0.339093,0.511916 -0.37578,0.513377 -0.03669,0.0015 -0.425743,-0.724161 -0.864569,-1.612492 z"
     id="path851"
     inkscape:connector-curvature="0" /><path
     style="fill:#ffffff;fill-opacity:1;stroke:#ffffff;stroke-width:0.09363172;stroke-opacity:1"
     d="m 40.630177,50.82601 c 0.02577,-0.102995 0.116022,-0.511454 0.200554,-0.907685 l 0.153696,-0.720422 0.720422,-0.153696 c 0.396232,-0.08453 0.80469,-0.174782 0.907685,-0.200554 0.106681,-0.0267 -0.06285,0.179916 -0.393979,0.480138 -0.319684,0.289848 -0.818392,0.788556 -1.10824,1.108239 -0.300222,0.331126 -0.506833,0.500661 -0.480138,0.39398 z"
     id="path855"
     inkscape:connector-curvature="0" /><path
     style="fill:#ffffff;fill-opacity:1;stroke:#ffffff;stroke-width:0.09363172;stroke-opacity:1"
     d="m 41.564381,68.415194 -0.579994,-0.137499 -0.153676,-0.72033 c -0.08452,-0.396182 -0.175867,-0.804599 -0.202991,-0.907594 -0.03012,-0.114387 -0.01673,-0.150825 0.03442,-0.09363 0.04606,0.0515 0.501088,0.525508 1.011184,1.053357 1.023857,1.059491 1.021924,1.073792 -0.108943,0.805698 z"
     id="path857"
     inkscape:connector-curvature="0" /><path
     style="fill:#ffffff;fill-opacity:1;stroke:#ffffff;stroke-width:0.09363172;stroke-opacity:1"
     d="m 59.373221,67.613285 c 0.566137,-0.585519 1.041242,-1.058028 1.055789,-1.05002 0.0379,0.02086 -0.327756,1.636237 -0.382844,1.691324 -0.02525,0.02525 -0.313526,0.106396 -0.640623,0.180334 -0.327096,0.07394 -0.699783,0.158847 -0.828192,0.188687 -0.174697,0.0406 0.02566,-0.213744 0.79587,-1.010325 z"
     id="path859"
     inkscape:connector-curvature="0" /><path
     style="fill:#ffffff;fill-opacity:1;stroke:#ffffff;stroke-width:0.09363172;stroke-opacity:1"
     d="m 59.360907,49.863689 c -0.57291,-0.580774 -0.973186,-1.037328 -0.889501,-1.014565 0.08368,0.02276 0.478607,0.111054 0.877607,0.196203 0.603666,0.128825 0.733359,0.189118 0.77254,0.359143 0.239733,1.040296 0.332676,1.492293 0.309014,1.502771 -0.0154,0.0068 -0.49675,-0.462778 -1.06966,-1.043552 z"
     id="path861"
     inkscape:connector-curvature="0" /><path
     style="fill:#ffffff;fill-opacity:1;stroke:#ffffff;stroke-width:0.09363172;stroke-opacity:1"
     d="m 25.282132,48.721317 c 1.801271,-1.049353 3.824931,-2.45827 5.429704,-3.780279 0.355274,-0.292674 0.657293,-0.520794 0.671153,-0.506934 0.01386,0.01386 -0.03825,0.256882 -0.115795,0.540049 -0.07836,0.286127 -0.163562,1.121214 -0.191791,1.879768 l -0.0508,1.364919 -0.994337,0.119473 c -1.09223,0.131234 -4.855512,0.7024 -5.301791,0.80467 -0.16748,0.03838 0.0556,-0.13152 0.553652,-0.421666 z"
     id="path865"
     inkscape:connector-curvature="0" /><path
     style="fill:#ffffff;fill-opacity:1;stroke:#ffffff;stroke-width:0.09363172;stroke-opacity:1"
     d="m 36.352176,39.426347 c 0.03896,-0.06437 0.329997,-0.433047 0.64675,-0.819277 1.236932,-1.508246 2.646043,-3.54448 3.453678,-4.99073 0.195603,-0.35027 0.373946,-0.618549 0.396319,-0.596177 0.02237,0.02237 -0.10832,1.004172 -0.290428,2.181778 -0.182107,1.177605 -0.381537,2.572977 -0.443178,3.100825 l -0.112073,0.959726 -1.036148,0.0033 c -0.569882,0.0018 -1.373223,0.06417 -1.785202,0.138606 -0.918897,0.166026 -0.916864,0.165972 -0.829718,0.02198 z"
     id="path867"
     inkscape:connector-curvature="0" /><path
     style="fill:#ffffff;fill-opacity:1;stroke:#ffffff;stroke-width:0.09363172;stroke-opacity:1"
     d="M 30.624007,72.443767 C 29.0705,71.169296 27.124442,69.813322 25.43588,68.828785 l -0.800637,-0.466822 0.421342,0.05382 c 0.231739,0.0296 1.086516,0.158878 1.899505,0.28728 0.812988,0.128401 2.060567,0.306775 2.772396,0.396384 l 1.294234,0.162927 0.05828,1.26857 c 0.03205,0.697714 0.119131,1.542041 0.193502,1.876283 0.07437,0.334241 0.126146,0.616786 0.115055,0.627877 -0.01109,0.01109 -0.35559,-0.255011 -0.765554,-0.591338 z"
     id="path869"
     inkscape:connector-curvature="0" /><path
     style="fill:#ffffff;fill-opacity:1;stroke:#ffffff;stroke-width:0.09363172;stroke-opacity:1"
     d="m 40.757268,84.436679 c -0.525242,-1.101445 -2.59285,-4.137105 -3.876906,-5.692071 -0.33278,-0.40299 -0.585939,-0.751824 -0.562576,-0.775187 0.02336,-0.02336 0.411935,0.02195 0.863493,0.100695 0.451558,0.07874 1.268555,0.143173 1.81555,0.143173 h 0.994536 l 0.215606,1.642991 c 0.118583,0.903646 0.335934,2.367812 0.483001,3.253703 0.147068,0.885891 0.257617,1.620715 0.245666,1.632943 -0.01195,0.01223 -0.09222,-0.125584 -0.17837,-0.306247 z"
     id="path873"
     inkscape:connector-curvature="0" /><path
     style="fill:#ffffff;fill-opacity:1;stroke:#ffffff;stroke-width:0.09363172;stroke-opacity:1"
     d="m 41.535769,47.24395 c 0,-0.124213 0.50402,-1.572855 0.829866,-2.385179 0.357943,-0.892342 1.202982,-2.574319 1.620893,-3.22625 l 0.311377,-0.485738 0.983133,0.36846 c 1.069124,0.400688 4.215074,1.918363 4.210772,2.031368 -0.0015,0.03837 -0.23248,0.20884 -0.513377,0.378832 -0.666426,0.403305 -2.491612,1.732799 -3.556948,2.590937 l -0.842685,0.678791 -1.521516,0.06502 c -0.847516,0.03622 -1.521515,0.02902 -1.521515,-0.01624 z"
     id="path875"
     inkscape:connector-curvature="0" /><path
     style="fill:#ffffff;fill-opacity:1;stroke:#ffffff;stroke-width:0.09363172;stroke-opacity:1"
     d="m 40.793052,45.979019 c -0.01309,-0.341724 0.87598,-5.382038 0.965214,-5.471975 0.02219,-0.02237 1.484036,0.337138 1.520933,0.374035 0.01339,0.01339 -0.106268,0.234036 -0.265913,0.490318 -0.447379,0.718187 -1.324101,2.521595 -1.705892,3.508998 -0.48665,1.258596 -0.506582,1.301171 -0.514342,1.098624 z"
     id="path877"
     inkscape:connector-curvature="0" /><path
     style="fill:#ffffff;fill-opacity:1;stroke:#ffffff;stroke-width:0.09363172;stroke-opacity:1"
     d="m 42.940245,39.75601 c -0.489226,-0.12915 -0.90326,-0.247093 -0.920075,-0.262096 -0.05748,-0.05129 0.644244,-2.617087 1.074784,-3.929876 1.090822,-3.326098 2.248724,-5.684477 3.648202,-7.43054 0.735652,-0.917839 1.438511,-1.508351 2.283151,-1.918206 0.55282,-0.268251 0.690585,-0.295321 1.502963,-0.295321 0.849767,0 0.930932,0.01807 1.627905,0.362539 2.366714,1.169693 4.608505,5.040698 6.288331,10.858349 0.28379,0.982836 0.524217,1.93011 0.53428,2.105052 l 0.0183,0.318078 -0.926544,0.225145 -0.926543,0.225146 -0.135174,-0.192987 c -0.416241,-0.594268 -1.354873,-1.572219 -2.019046,-2.103623 -2.304408,-1.843754 -4.760275,-2.22974 -7.153006,-1.12423 -1.209985,0.559048 -2.404555,1.522971 -3.352604,2.705288 -0.308985,0.385337 -0.582857,0.698697 -0.608606,0.696356 -0.02575,-0.0023 -0.447092,-0.109925 -0.936318,-0.239074 z"
     id="path879"
     inkscape:connector-curvature="0" /><path
     style="fill:#ffffff;fill-opacity:1;stroke:#ffffff;stroke-width:0.09363172;stroke-opacity:1"
     d="m 41.260656,37.717568 c -0.0023,-0.102995 0.121872,-1.00667 0.275941,-2.008166 1.557249,-10.122627 3.979807,-17.284216 6.721713,-19.870791 0.88227,-0.832289 1.370447,-1.060816 2.266104,-1.060816 0.905769,0 1.523857,0.290238 2.343248,1.100329 2.617946,2.588232 4.946868,9.318073 6.456061,18.655965 0.35645,2.205471 0.511274,3.36906 0.423586,3.183479 -0.02433,-0.0515 -0.211199,-0.66665 -0.415258,-1.367007 -0.824046,-2.828235 -2.180892,-5.942933 -3.368613,-7.732799 -1.109995,-1.672735 -2.660692,-3.063478 -3.917177,-3.51312 -0.680594,-0.243557 -1.696444,-0.316218 -2.394603,-0.171281 -2.468182,0.512393 -4.866893,3.333654 -6.690043,7.868542 -0.46972,1.168376 -1.025331,2.802435 -1.464485,4.307059 -0.127759,0.437728 -0.234172,0.711601 -0.236474,0.608606 z"
     id="path881"
     inkscape:connector-curvature="0" /><path
     style="fill:#ffffff;fill-opacity:1;stroke:#ffffff;stroke-width:0.09363172;stroke-opacity:1"
     d="m 57.470573,47.244916 -0.965721,-0.03041 -0.957442,-0.775912 c -0.526593,-0.426752 -1.566718,-1.203599 -2.311389,-1.726327 -0.744671,-0.522728 -1.435566,-1.007825 -1.535324,-1.077993 -0.166247,-0.116936 -0.07252,-0.182791 1.123581,-0.789429 1.296282,-0.65745 2.546019,-1.206792 3.475523,-1.527723 l 0.485194,-0.167524 0.399132,0.671595 c 0.464544,0.781657 1.207147,2.261427 1.495559,2.980167 0.263211,0.655939 0.833374,2.316349 0.833374,2.426925 0,0.0476 -0.242272,0.07765 -0.538382,0.06679 -0.296111,-0.01086 -0.972958,-0.03343 -1.504105,-0.05016 z"
     id="path885"
     inkscape:connector-curvature="0" /><path
     style="fill:#ffffff;fill-opacity:1;stroke:#ffffff;stroke-width:0.09363172;stroke-opacity:1"
     d="m 59.946214,45.382229 c -0.42002,-1.148708 -1.190131,-2.810139 -1.71819,-3.706809 l -0.481357,-0.817367 0.344814,-0.09131 c 0.566037,-0.1499 1.180727,-0.278202 1.206996,-0.251933 0.110499,0.110499 0.98728,5.143873 0.944558,5.422463 -0.01563,0.101942 -0.145162,-0.140269 -0.296821,-0.55504 z"
     id="path887"
     inkscape:connector-curvature="0" /><path
     style="fill:#ffffff;fill-opacity:1;stroke:#ffffff;stroke-width:0.09363172;stroke-opacity:1"
     d="m 64.14783,39.483813 c -0.308984,-0.07087 -1.12847,-0.160186 -1.82108,-0.198491 l -1.259289,-0.06965 -0.254634,-1.872635 c -0.140049,-1.029949 -0.342319,-2.382926 -0.44949,-3.006617 -0.10717,-0.62369 -0.194855,-1.211181 -0.194855,-1.305536 0,-0.09436 0.331335,0.380311 0.736301,1.054813 1.036646,1.726616 2.306259,3.517733 3.451811,4.869668 0.271411,0.320309 0.493474,0.604715 0.493474,0.632014 0,0.05865 0.01414,0.06073 -0.702238,-0.10357 z"
     id="path889"
     inkscape:connector-curvature="0" /><path
     style="fill:#ffffff;fill-opacity:1;stroke:#ffffff;stroke-width:0.09363172;stroke-opacity:1"
     d="M 74.587768,48.856432 C 73.892552,48.738195 72.581692,48.544208 71.674745,48.425351 L 70.02575,48.209247 69.96995,46.89594 c -0.03069,-0.722319 -0.11763,-1.565765 -0.193201,-1.874325 -0.07557,-0.30856 -0.125673,-0.572748 -0.111337,-0.587084 0.01434,-0.01434 0.316695,0.217056 0.671908,0.514203 1.455156,1.217284 3.679546,2.775339 5.238214,3.669064 0.971463,0.557027 0.935464,0.565724 -0.987766,0.238634 z"
     id="path893"
     inkscape:connector-curvature="0" /><path
     style="fill:#ffffff;fill-opacity:1;stroke:#ffffff;stroke-width:0.09363172;stroke-opacity:1"
     d="m 67.845022,51.189947 c -0.747046,-0.472934 -2.412412,-1.275433 -3.650376,-1.759027 -0.592221,-0.231343 -0.991037,-0.422898 -0.886258,-0.425677 0.394985,-0.01047 5.344125,0.869342 5.44809,0.968517 0.02833,0.02703 -0.315244,1.458906 -0.36105,1.504713 -0.02018,0.02018 -0.267864,-0.109656 -0.550406,-0.288526 z"
     id="path895"
     inkscape:connector-curvature="0" /><path
     style="fill:#ffffff;fill-opacity:1;stroke:#ffffff;stroke-width:0.09363172;stroke-opacity:1"
     d="m 64.8562,56.46298 c -0.465861,-0.684728 -1.282894,-1.792712 -1.815627,-2.462186 l -0.968605,-1.217225 -0.06255,-1.517162 c -0.0344,-0.834439 -0.02855,-1.517162 0.01299,-1.517162 0.132803,0 1.916341,0.621025 2.546757,0.886777 1.032848,0.435396 3.561251,1.759189 3.55755,1.862621 -0.0036,0.101202 -0.736904,1.932451 -1.065223,2.660212 -0.426445,0.945271 -1.26022,2.549086 -1.325192,2.549086 -0.0182,0 -0.414246,-0.560232 -0.880108,-1.244961 z"
     id="path897"
     inkscape:connector-curvature="0" /><path
     style="fill:#ffffff;fill-opacity:1;stroke:#ffffff;stroke-width:0.09363172;stroke-opacity:1"
     d="m 62.009423,66.209374 0.06255,-1.517162 0.968605,-1.217226 c 0.532733,-0.669473 1.349766,-1.777457 1.815627,-2.462186 0.465862,-0.684728 0.861978,-1.244961 0.880258,-1.244961 0.06058,0 0.950393,1.717683 1.358119,2.621688 0.564221,1.250988 1.041121,2.558011 0.960399,2.632132 -0.2274,0.208802 -2.062165,1.18235 -3.037524,1.611745 -1.043872,0.459558 -2.774388,1.093132 -2.985731,1.093132 -0.04978,0 -0.059,-0.626916 -0.0223,-1.517162 z"
     id="path903"
     inkscape:connector-curvature="0" /><path
     style="fill:#ffffff;fill-opacity:1;stroke:#ffffff;stroke-width:0.09363172;stroke-opacity:1"
     d="m 69.626802,66.860442 c -0.05463,-0.218864 -0.164956,-0.644418 -0.245159,-0.945676 -0.14234,-0.534654 -0.141068,-0.551075 0.05326,-0.687191 0.600038,-0.420283 1.576095,-1.356366 2.109726,-2.023321 2.321511,-2.90153 2.321511,-6.031197 0,-8.932727 -0.53185,-0.66473 -1.509421,-1.602852 -2.104839,-2.019899 l -0.194204,-0.136025 0.231648,-0.912873 c 0.127406,-0.502081 0.253453,-0.934679 0.280104,-0.961331 0.06429,-0.06429 0.998674,0.170452 2.770527,0.696016 5.562278,1.649874 9.312952,3.863159 10.451925,6.167715 0.344876,0.697809 0.362539,0.777356 0.362539,1.63276 0,0.855405 -0.01766,0.934951 -0.362539,1.632761 -1.027151,2.078298 -4.204643,4.112699 -8.842879,5.661688 -1.380584,0.46106 -4.057006,1.226038 -4.289532,1.226038 -0.06669,0 -0.165949,-0.179071 -0.220582,-0.397935 z"
     id="path905"
     inkscape:connector-curvature="0" /><path
     style="fill:#ffffff;fill-opacity:1;stroke:#ffffff;stroke-width:0.09363172;stroke-opacity:1"
     d="m 72.783119,67.582658 c 2.987024,-0.873606 6.036273,-2.194608 7.861424,-3.405744 1.661503,-1.102543 3.047753,-2.638587 3.51435,-3.8941 0.293843,-0.790668 0.297455,-2.290871 0.0074,-3.066771 -1.089302,-2.913735 -5.196952,-5.518445 -11.689273,-7.412305 -1.309737,-0.382061 -1.248192,-0.400479 0.490477,-0.146786 11.530503,1.682443 19.713078,4.705417 21.259381,7.854075 0.369191,0.751764 0.367027,1.70635 -0.0056,2.465147 -1.404494,2.860129 -8.264034,5.618524 -18.326632,7.369604 -1.808996,0.314799 -4.13227,0.663807 -4.378453,0.657744 -0.0873,-0.0022 0.482821,-0.19154 1.266926,-0.420864 z"
     id="path907"
     inkscape:connector-curvature="0" /><path
     style="fill:#ffffff;fill-opacity:1;stroke:#ffffff;stroke-width:0.09363172;stroke-opacity:1"
     d="m 64.14783,68.061394 c 1.348448,-0.52905 2.63557,-1.138194 3.532547,-1.671814 l 0.723595,-0.430474 0.09145,0.345332 c 0.142783,0.539149 0.278826,1.180762 0.255341,1.204247 -0.09543,0.09542 -5.055866,0.972103 -5.442379,0.961852 -0.104779,-0.0028 0.27297,-0.186893 0.839442,-0.409143 z"
     id="path909"
     inkscape:connector-curvature="0" /><path
     style="fill:#ffffff;fill-opacity:1;stroke:#ffffff;stroke-width:0.09363172;stroke-opacity:1"
     d="m 69.662313,72.899689 c 0.182583,-0.602607 0.25704,-1.165967 0.306879,-2.321915 l 0.05671,-1.315374 1.294336,-0.162939 c 0.711885,-0.08962 1.95951,-0.267996 2.772498,-0.396397 2.605574,-0.41152 2.503215,-0.452596 1.056819,0.424097 -1.43272,0.868404 -3.626909,2.419776 -4.704586,3.326315 -0.398881,0.335537 -0.749329,0.610068 -0.778772,0.610068 -0.02944,0 -0.03119,-0.07373 -0.0039,-0.163855 z"
     id="path913"
     inkscape:connector-curvature="0" /><path
     style="fill:#ffffff;fill-opacity:1;stroke:#ffffff;stroke-width:0.09363172;stroke-opacity:1"
     d="m 60.168482,84.448702 c 0,-0.09645 0.08769,-0.685655 0.194855,-1.309346 0.107171,-0.62369 0.309427,-1.976668 0.449459,-3.006617 l 0.254603,-1.872634 1.306136,-0.06008 c 0.718375,-0.03305 1.530249,-0.110895 1.804164,-0.173 0.273915,-0.06211 0.517858,-0.09309 0.542096,-0.06885 0.02424,0.02424 -0.390334,0.588297 -0.921269,1.253466 -1.10883,1.389167 -2.308236,3.127615 -3.089233,4.477607 -0.297446,0.51415 -0.540811,0.855905 -0.540811,0.759456 z"
     id="path915"
     inkscape:connector-curvature="0" /><path
     style="fill:#ffffff;fill-opacity:1;stroke:#ffffff;stroke-width:0.09363172;stroke-opacity:1"
     d="m 58.810822,76.889987 c -0.20599,-0.048 -0.529927,-0.128962 -0.719859,-0.179909 l -0.345333,-0.09263 0.430474,-0.723595 c 0.53362,-0.896978 1.142764,-2.184099 1.671814,-3.532547 0.231844,-0.590926 0.405899,-0.930171 0.408333,-0.79587 0.0051,0.279868 -0.471141,3.134732 -0.739691,4.434406 -0.10492,0.507769 -0.190764,0.939646 -0.190764,0.959726 0,0.04554 -0.04996,0.03878 -0.514974,-0.06958 z"
     id="path917"
     inkscape:connector-curvature="0" /><path
     style="fill:#ffffff;fill-opacity:1;stroke:#ffffff;stroke-width:0.09363172;stroke-opacity:1"
     d="m 49.541281,91.475835 c -2.446577,-0.805144 -4.641991,-4.06237 -6.446327,-9.564093 -0.456491,-1.39192 -1.130427,-3.877527 -1.068205,-3.939749 0.04627,-0.04627 1.879181,-0.513799 1.894355,-0.483206 0.0061,0.01224 0.292748,0.361208 0.637056,0.775473 2.597516,3.125282 5.930116,4.048995 8.946442,2.47973 1.198103,-0.623322 2.713721,-1.959477 3.506448,-3.091253 l 0.1364,-0.194737 0.691238,0.181953 c 0.380181,0.100074 0.811442,0.208704 0.958358,0.241398 0.250934,0.05584 0.263213,0.08047 0.202638,0.406363 -0.135214,0.727457 -1.090627,3.889474 -1.551128,5.133581 -0.618192,1.670134 -1.689438,3.86565 -2.438574,4.997852 -0.823416,1.244463 -1.925867,2.315975 -2.855935,2.775782 -0.641513,0.317151 -0.821349,0.363502 -1.484103,0.38252 -0.432414,0.01241 -0.913913,-0.03094 -1.128663,-0.101614 z"
     id="path919"
     inkscape:connector-curvature="0" /><path
     style="fill:#ffffff;fill-opacity:1;stroke:#ffffff;stroke-width:0.09363172;stroke-opacity:1"
     d="m 55.767791,75.95916 c -0.952846,-0.358761 -3.646693,-1.626789 -4.037421,-1.900465 -0.184035,-0.128903 -0.155975,-0.159188 0.622479,-0.67184 1.007895,-0.663751 2.484857,-1.755418 3.414942,-2.524087 l 0.702238,-0.580364 1.529662,-0.06394 1.529663,-0.06394 -0.06608,0.300853 c -0.09653,0.439489 -0.726482,2.10822 -1.155784,3.06164 -0.32644,0.724979 -1.331143,2.569603 -1.496606,2.747754 -0.03298,0.03551 -0.502371,-0.102015 -1.043094,-0.305606 z"
     id="path923"
     inkscape:connector-curvature="0" /><path
     style="fill:#ffffff;fill-opacity:1;stroke:#ffffff;stroke-width:0.09363172;stroke-opacity:1"
     d="m 43.845527,75.605126 c -0.626496,-1.040735 -1.482449,-2.892016 -1.924735,-4.162875 -0.211763,-0.608474 -0.385023,-1.146979 -0.385023,-1.196677 0,-0.05696 0.562399,-0.06685 1.521515,-0.02676 l 1.521516,0.06359 0.702238,0.580262 c 0.872027,0.72056 2.210314,1.707541 3.347334,2.468644 0.476351,0.318862 0.866093,0.595975 0.866093,0.615805 0,0.154871 -3.383999,1.749968 -4.564031,2.151323 l -0.654035,0.222452 z"
     id="path925"
     inkscape:connector-curvature="0" /><path
     style="fill:#ffffff;fill-opacity:1;stroke:#ffffff;stroke-width:0.09363172;stroke-opacity:1"
     d="m 41.40865,75.243292 c -0.619989,-3.240417 -0.771457,-4.55887 -0.390254,-3.39696 0.293842,0.895631 1.21759,2.915922 1.75528,3.8389 0.336264,0.577218 0.481119,0.909925 0.412602,0.947674 -0.05807,0.03199 -0.337324,0.109409 -0.62056,0.172031 -0.283236,0.06262 -0.583748,0.132511 -0.667803,0.155309 -0.129318,0.03507 -0.204587,-0.229065 -0.489265,-1.716954 z"
     id="path929"
     inkscape:connector-curvature="0" /><path
     style="fill:#ffffff;fill-opacity:1;stroke:#ffffff;stroke-width:0.09363172;stroke-opacity:1"
     d="m 49.522,102.55256 c -0.677043,-0.26709 -1.764641,-1.30839 -2.473586,-2.36827 -2.246722,-3.358885 -4.198466,-9.880699 -5.511817,-18.417911 -0.337307,-2.192603 -0.344406,-2.444341 -0.03947,-1.39956 1.474596,5.052254 3.12395,8.365002 5.176085,10.396233 0.977955,0.967993 1.926744,1.548895 2.900512,1.775858 0.658758,0.15354 1.793151,0.07688 2.472534,-0.167096 1.258149,-0.451814 2.807625,-1.84173 3.917177,-3.513796 1.187721,-1.789865 2.544567,-4.904563 3.368613,-7.732799 0.204059,-0.700356 0.390925,-1.315509 0.415258,-1.367007 0.177864,-0.376427 -0.644074,4.739442 -1.173377,7.303275 -1.745148,8.453123 -4.254546,14.121433 -6.803819,15.368673 -0.7148,0.34972 -1.555826,0.39551 -2.248113,0.1224 z"
     id="path931"
     inkscape:connector-curvature="0" /><path
     style="fill:#ffffff;fill-opacity:1;stroke:#ffffff;stroke-width:0.09363172;stroke-opacity:1"
     d="m 32.475278,50.760968 -0.182529,-0.777644 0.66557,-0.161288 c 0.861693,-0.208815 4.479116,-0.823249 4.811013,-0.81717 0.16704,0.0031 -0.03596,0.111543 -0.587438,0.313923 -1.404047,0.515256 -3.372286,1.465134 -4.312727,2.081334 -0.209945,0.137562 -0.212583,0.133282 -0.393889,-0.639155 z"
     id="path935"
     inkscape:connector-curvature="0" /><path
     style="fill:#ffffff;fill-opacity:1;stroke:#ffffff;stroke-width:0.09363172;stroke-opacity:1"
     d="m 35.590154,68.15482 c -2.766778,-0.479192 -3.335019,-0.616336 -3.287167,-0.793354 0.02229,-0.08245 0.09176,-0.381643 0.154381,-0.664879 0.17159,-0.776091 0.172366,-0.776589 0.699359,-0.448311 0.719252,0.448041 2.52213,1.324589 3.510192,1.706634 0.489226,0.189165 0.97377,0.380851 1.076765,0.425971 0.370652,0.162372 -0.343819,0.08737 -2.15353,-0.226061 z"
     id="path939"
     inkscape:connector-curvature="0" /></svg>