<?xml version="1.0" encoding="UTF-8" standalone="no"?>
<!-- Created with Inkscape (http://www.inkscape.org/) -->

<svg
   xmlns:dc="http://purl.org/dc/elements/1.1/"
   xmlns:cc="http://creativecommons.org/ns#"
   xmlns:rdf="http://www.w3.org/1999/02/22-rdf-syntax-ns#"
   xmlns:svg="http://www.w3.org/2000/svg"
   xmlns="http://www.w3.org/2000/svg"
   xmlns:sodipodi="http://sodipodi.sourceforge.net/DTD/sodipodi-0.dtd"
   xmlns:inkscape="http://www.inkscape.org/namespaces/inkscape"
   width="64mm"
   height="64mm"
   viewBox="0 0 64 64"
   version="1.1"
   id="svg8"
   inkscape:version="0.92.4 (5da689c313, 2019-01-14)"
   sodipodi:docname="block-trashcan.svg">
  <defs
     id="defs2">
    <inkscape:perspective
       sodipodi:type="inkscape:persp3d"
       inkscape:vp_x="66.249205 : 55.210183 : 1"
       inkscape:vp_y="81.884987 : -4563.3647 : 0"
       inkscape:vp_z="-8.2642775 : 67.069501 : 1"
       inkscape:persp3d-origin="28.119024 : 109.81574 : 1"
       id="perspective71" />
  </defs>
  <sodipodi:namedview
     id="base"
     pagecolor="#000000"
     bordercolor="#666666"
     borderopacity="1.0"
     inkscape:pageopacity="0"
     inkscape:pageshadow="2"
     inkscape:zoom="2.0000001"
     inkscape:cx="230.15058"
     inkscape:cy="147.66553"
     inkscape:document-units="mm"
     inkscape:current-layer="svg8"
     showgrid="false"
     inkscape:window-width="1920"
     inkscape:window-height="1001"
     inkscape:window-x="-9"
     inkscape:window-y="-9"
     inkscape:window-maximized="1"
     inkscape:pagecheckerboard="false">
    <inkscape:grid
       type="xygrid"
       id="grid22" />
  </sodipodi:namedview>
  <metadata
     id="metadata5">
    <rdf:RDF>
      <cc:Work
         rdf:about="">
        <dc:format>image/svg+xml</dc:format>
        <dc:type
           rdf:resource="http://purl.org/dc/dcmitype/StillImage" />
        <dc:title></dc:title>
      </cc:Work>
    </rdf:RDF>
  </metadata>
  <g
     inkscape:label="frame"
     inkscape:groupmode="layer"
     id="layer1"
     transform="translate(0,-233)"
     style="display:none;opacity:1" />
  <g
     inkscape:groupmode="layer"
     id="layer2"
     inkscape:label="LOGO"
     style="display:none" />
  <g
     inkscape:groupmode="layer"
     id="layer3"
     inkscape:label="output"
     style="display:inline" />
  <path
     style="opacity:1;fill:#ffffff;fill-opacity:0.95530725;stroke:none;stroke-width:1.22524047;stroke-linecap:round;stroke-linejoin:round;stroke-miterlimit:4;stroke-dasharray:none;stroke-opacity:1;paint-order:normal"
     d="M -1.4856654,32 V -2.4744165 H 31.999994 65.485665 V 32 66.474416 H 31.999994 -1.4856654 Z M 41.762007,48.643511 c 0.24245,-0.163393 0.562674,-0.504511 0.711619,-0.758042 0.267375,-0.455155 0.271236,-0.620177 0.306328,-13.084011 l 0.03549,-12.623041 h 1.119941 c 1.085603,0 1.134652,-0.01348 1.599732,-0.439697 0.419485,-0.38443 0.487573,-0.533466 0.541657,-1.185747 0.06031,-0.72727 0.04856,-0.759345 -0.466219,-1.274137 L 45.082469,18.75075 H 41.309708 37.536946 V 16.775331 14.79991 l -0.384571,-0.430538 -0.384572,-0.430538 -5.317223,-0.04052 c -3.582428,-0.0273 -5.478254,0.0066 -5.810819,0.103936 -0.778344,0.227793 -0.890642,0.584659 -0.890642,2.830373 v 1.918129 h -3.703902 c -3.192153,0 -3.754387,0.02979 -4.068965,0.215619 -1.067833,0.630784 -1.067833,2.365646 0,2.99643 0.256959,0.151788 0.680963,0.215619 1.432298,0.215619 h 1.067284 v 12.49623 12.496234 l 0.296625,0.587163 c 0.163143,0.322939 0.498205,0.72112 0.744578,0.884849 l 0.447956,0.297691 h 10.178096 10.17808 z"
     id="path864"
     inkscape:connector-curvature="0" />
</svg>
