<?xml version="1.0" encoding="UTF-8" standalone="no"?>
<!-- Created with Inkscape (http://www.inkscape.org/) -->

<svg
   xmlns:dc="http://purl.org/dc/elements/1.1/"
   xmlns:cc="http://creativecommons.org/ns#"
   xmlns:rdf="http://www.w3.org/1999/02/22-rdf-syntax-ns#"
   xmlns:svg="http://www.w3.org/2000/svg"
   xmlns="http://www.w3.org/2000/svg"
   xmlns:sodipodi="http://sodipodi.sourceforge.net/DTD/sodipodi-0.dtd"
   xmlns:inkscape="http://www.inkscape.org/namespaces/inkscape"
   width="64mm"
   height="64mm"
   viewBox="0 0 64 64"
   version="1.1"
   id="svg8"
   inkscape:version="0.92.4 (5da689c313, 2019-01-14)"
   sodipodi:docname="chat.svg">
  <defs
     id="defs2">
    <inkscape:perspective
       sodipodi:type="inkscape:persp3d"
       inkscape:vp_x="66.249205 : 55.210183 : 1"
       inkscape:vp_y="81.884987 : -4563.3647 : 0"
       inkscape:vp_z="-8.2642775 : 67.069501 : 1"
       inkscape:persp3d-origin="28.119024 : 109.81574 : 1"
       id="perspective71" />
  </defs>
  <sodipodi:namedview
     id="base"
     pagecolor="#000000"
     bordercolor="#666666"
     borderopacity="1.0"
     inkscape:pageopacity="1"
     inkscape:pageshadow="2"
     inkscape:zoom="2.0000001"
     inkscape:cx="142.70406"
     inkscape:cy="61.825953"
     inkscape:document-units="mm"
     inkscape:current-layer="layer3"
     showgrid="true"
     inkscape:window-width="1920"
     inkscape:window-height="1001"
     inkscape:window-x="-9"
     inkscape:window-y="-9"
     inkscape:window-maximized="1"
     inkscape:pagecheckerboard="true">
    <inkscape:grid
       type="xygrid"
       id="grid22" />
  </sodipodi:namedview>
  <metadata
     id="metadata5">
    <rdf:RDF>
      <cc:Work
         rdf:about="">
        <dc:format>image/svg+xml</dc:format>
        <dc:type
           rdf:resource="http://purl.org/dc/dcmitype/StillImage" />
        <dc:title />
      </cc:Work>
    </rdf:RDF>
  </metadata>
  <g
     inkscape:label="frame"
     inkscape:groupmode="layer"
     id="layer1"
     transform="translate(0,-233)"
     style="display:none;opacity:1"
     sodipodi:insensitive="true" />
  <g
     inkscape:groupmode="layer"
     id="layer2"
     inkscape:label="LOGO"
     style="display:none">
    <path
       style="fill:none;stroke:#f1ffed;stroke-width:0.26458332px;stroke-linecap:butt;stroke-linejoin:miter;stroke-opacity:1"
       d="m 11.90625,22.989583 c 0,0 0,-3.96875 3.96875,-3.96875"
       id="path843"
       inkscape:connector-curvature="0" />
    <path
       style="fill:none;stroke:#f1ffed;stroke-width:0.26458332px;stroke-linecap:butt;stroke-linejoin:miter;stroke-opacity:1"
       d="m 51.593749,22.989583 c 0,0 0,-3.96875 -3.96875,-3.96875"
       id="path845"
       inkscape:connector-curvature="0" />
    <path
       style="fill:none;stroke:#f1ffed;stroke-width:0.26458332px;stroke-linecap:butt;stroke-linejoin:miter;stroke-opacity:1"
       d="m 11.90625,38.864582 c 0,0 0,3.96875 3.96875,3.96875"
       id="path847"
       inkscape:connector-curvature="0" />
    <path
       style="fill:none;stroke:#f1ffed;stroke-width:0.26458332px;stroke-linecap:butt;stroke-linejoin:miter;stroke-opacity:1"
       d="m 51.593749,38.864582 c 0,0 0,3.96875 -3.96875,3.96875"
       id="path849"
       inkscape:connector-curvature="0" />
    <path
       style="fill:none;stroke:#f1ffed;stroke-width:0.26458332px;stroke-linecap:butt;stroke-linejoin:miter;stroke-opacity:1"
       d="m 15.875,42.833332 26.458333,1e-6 c 0,0 -1.058333,5.291667 -6.614583,5.291667"
       id="path851"
       inkscape:connector-curvature="0"
       sodipodi:nodetypes="cc" />
    <path
       style="fill:none;stroke:#f1ffed;stroke-width:0.26458332px;stroke-linecap:butt;stroke-linejoin:miter;stroke-opacity:1"
       d="M 51.593749,38.864582 V 22.989583"
       id="path853"
       inkscape:connector-curvature="0" />
    <path
       style="fill:none;stroke:#f1ffed;stroke-width:0.26458332px;stroke-linecap:butt;stroke-linejoin:miter;stroke-opacity:1"
       d="M 47.624999,19.020833 H 15.875"
       id="path855"
       inkscape:connector-curvature="0" />
    <path
       style="fill:none;stroke:#f1ffed;stroke-width:0.26458332px;stroke-linecap:butt;stroke-linejoin:miter;stroke-opacity:1"
       d="M 11.90625,22.989583 V 38.864582"
       id="path857"
       inkscape:connector-curvature="0" />
    <path
       style="fill:none;stroke:#ffffff;stroke-width:0.26458332px;stroke-linecap:butt;stroke-linejoin:miter;stroke-opacity:1"
       d="m 47.724218,42.734113 c 0,0 -1.422135,5.390885 -12.005468,5.390885"
       id="path859"
       inkscape:connector-curvature="0"
       sodipodi:nodetypes="cc" />
  </g>
  <g
     inkscape:groupmode="layer"
     id="layer3"
     inkscape:label="output"
     style="display:inline">
    <path
       style="display:inline;opacity:1;fill:#ffffff;fill-opacity:1;stroke:#ffffff;stroke-width:4.00879431;stroke-miterlimit:4;stroke-dasharray:none;stroke-opacity:1"
       d="m 148.28744,179.25104 c 3.14792,-1.86223 6.09353,-4.64377 8.10936,-7.65768 1.83005,-2.73616 3.73646,-6.93854 4.14362,-9.13399 l 0.24483,-1.32013 -52.45257,-0.0941 -52.452571,-0.0941 -2.204162,-1.01807 c -2.398356,-1.10776 -4.873229,-3.46164 -6.032537,-5.73762 -1.889617,-3.70974 -1.839902,-2.70107 -1.835376,-37.23749 0.0034,-25.608032 0.09891,-32.374829 0.477115,-33.788567 1.16602,-4.358578 3.74606,-7.676638 7.244551,-9.316853 l 1.996856,-0.936195 63.803204,-0.09219 63.8032,-0.09219 2.21308,0.736467 c 3.98549,1.326286 6.99664,4.761753 8.30305,9.473097 0.60487,2.181346 0.64717,4.391767 0.64717,33.821881 0,34.30915 0.0462,33.44995 -2.02139,37.57407 -1.84702,3.68414 -5.77759,6.26733 -10.15888,6.67646 -2.27264,0.21222 -2.3669,0.25989 -2.86336,1.44807 -0.76639,1.83423 -3.37909,5.34818 -5.32988,7.16842 -3.76478,3.51283 -8.25373,6.01376 -14.5813,8.12367 -3.51204,1.17109 -10.96015,2.81924 -12.7403,2.81924 -0.30186,0 0.45697,-0.59501 1.68629,-1.32225 z"
       id="path905"
       inkscape:connector-curvature="0"
       transform="scale(0.26458333)" />
  </g>
</svg>
