<?xml version="1.0" encoding="UTF-8" standalone="no"?>
<svg
   xmlns:dc="http://purl.org/dc/elements/1.1/"
   xmlns:cc="http://creativecommons.org/ns#"
   xmlns:rdf="http://www.w3.org/1999/02/22-rdf-syntax-ns#"
   xmlns:svg="http://www.w3.org/2000/svg"
   xmlns="http://www.w3.org/2000/svg"
   xmlns:sodipodi="http://sodipodi.sourceforge.net/DTD/sodipodi-0.dtd"
   xmlns:inkscape="http://www.inkscape.org/namespaces/inkscape"
   version="1.1"
   x="0px"
   y="0px"
   viewBox="0 0 90 90"
   enable-background="new 0 0 100 100"
   xml:space="preserve"
   id="svg8"
   sodipodi:docname="connections-grid.svg"
   width="90"
   height="90"
   inkscape:version="0.92.4 (5da689c313, 2019-01-14)"><metadata
     id="metadata14"><rdf:RDF><cc:Work
         rdf:about=""><dc:format>image/svg+xml</dc:format><dc:type
           rdf:resource="http://purl.org/dc/dcmitype/StillImage" /><dc:title></dc:title></cc:Work></rdf:RDF></metadata><defs
     id="defs12" /><sodipodi:namedview
     pagecolor="#000000"
     bordercolor="#666666"
     borderopacity="1"
     objecttolerance="10"
     gridtolerance="10"
     guidetolerance="10"
     inkscape:pageopacity="0"
     inkscape:pageshadow="2"
     inkscape:window-width="1920"
     inkscape:window-height="1001"
     id="namedview10"
     showgrid="false"
     inkscape:zoom="1.888"
     inkscape:cx="45"
     inkscape:cy="32.5"
     inkscape:window-x="-9"
     inkscape:window-y="-9"
     inkscape:window-maximized="1"
     inkscape:current-layer="svg8" /><path
     d="m 79.410311,38.029661 c -1.543417,0 -2.964793,0.52324 -4.113638,1.395927 L 67.70897,31.740556 c 0.861634,-1.163581 1.378248,-2.603189 1.378248,-4.166403 0,-3.84391 -3.087752,-6.970339 -6.882063,-6.970339 -1.543417,0 -2.964792,0.52324 -4.113638,1.395926 l -7.587702,-7.685031 c 0.861634,-1.163582 1.378247,-2.603189 1.378247,-4.166404 0,-3.8439095 -3.087752,-6.9703389 -6.882062,-6.9703389 -3.795228,0 -6.882062,3.1264294 -6.882062,6.9703389 0,1.563215 0.516613,3.002822 1.378247,4.166404 l -7.587702,7.685031 c -1.148846,-0.871757 -2.570221,-1.395926 -4.113638,-1.395926 -3.795228,0 -6.882063,3.126429 -6.882063,6.970339 0,1.563214 0.516614,3.002822 1.378248,4.166403 l -7.587703,7.685032 c -1.148845,-0.872687 -2.570221,-1.395927 -4.113638,-1.395927 -3.7952276,0 -6.8820619,3.126429 -6.8820619,6.970339 0,3.84298 3.0868343,6.970339 6.8820619,6.970339 1.543417,0 2.964793,-0.52324 4.113638,-1.395927 l 7.587703,7.685032 c -0.861634,1.163581 -1.378248,2.603189 -1.378248,4.166403 0,3.842981 3.086835,6.970339 6.882063,6.970339 1.543417,0 2.964792,-0.52324 4.113638,-1.395926 l 7.587702,7.685031 c -0.861634,1.163582 -1.378247,2.603189 -1.378247,4.166404 0,3.84298 3.086834,6.970339 6.882062,6.970339 3.79431,0 6.882062,-3.127359 6.882062,-6.970339 0,-1.563215 -0.516613,-3.002822 -1.378247,-4.166404 l 7.587702,-7.685031 c 1.148846,0.872686 2.570221,1.395926 4.113638,1.395926 3.794311,0 6.882063,-3.127358 6.882063,-6.970339 0,-1.563214 -0.516614,-3.002822 -1.378248,-4.166403 l 7.587703,-7.685032 c 1.148845,0.872687 2.570221,1.395927 4.113638,1.395927 3.79431,0 6.882062,-3.127359 6.882062,-6.970339 0,-3.84391 -3.087752,-6.970339 -6.882062,-6.970339 z m 0,9.957362 c -1.626002,0 -2.949193,-1.340164 -2.949193,-2.987023 0,-1.646859 1.323191,-2.987023 2.949193,-2.987023 1.626002,0 2.949193,1.340164 2.949193,2.987023 0,1.646859 -1.323191,2.987023 -2.949193,2.987023 z M 65.154348,62.425847 c 0,1.646859 -1.323191,2.987023 -2.949193,2.987023 -1.626002,0 -2.949193,-1.340164 -2.949193,-2.987023 0,-1.646858 1.323191,-2.987022 2.949193,-2.987022 1.626002,0 2.949193,1.340164 2.949193,2.987022 z M 47.949193,79.851695 c 0,1.646859 -1.323191,2.987023 -2.949193,2.987023 -1.626002,0 -2.949193,-1.340164 -2.949193,-2.987023 0,-1.646859 1.323191,-2.987023 2.949193,-2.987023 1.626002,0 2.949193,1.340164 2.949193,2.987023 z M 27.794845,65.41287 c -1.626002,0 -2.949193,-1.340164 -2.949193,-2.987023 0,-1.646858 1.323191,-2.987022 2.949193,-2.987022 1.626002,0 2.949193,1.340164 2.949193,2.987022 0,1.646859 -1.323191,2.987023 -2.949193,2.987023 z M 10.589689,47.987023 c -1.6260016,0 -2.9491928,-1.340164 -2.9491928,-2.987023 0,-1.646859 1.3231912,-2.987023 2.9491928,-2.987023 1.626002,0 2.949193,1.340164 2.949193,2.987023 0,1.646859 -1.323191,2.987023 -2.949193,2.987023 z m 14.255963,-20.41287 c 0,-1.646859 1.323191,-2.987023 2.949193,-2.987023 1.626002,0 2.949193,1.340164 2.949193,2.987023 0,1.646858 -1.323191,2.987022 -2.949193,2.987022 -1.626002,0 -2.949193,-1.340164 -2.949193,-2.987022 z M 42.050807,10.148305 c 0,-1.6468587 1.323191,-2.9870225 2.949193,-2.9870225 1.626002,0 2.949193,1.3401638 2.949193,2.9870225 0,1.646859 -1.323191,2.987023 -2.949193,2.987023 -1.626002,0 -2.949193,-1.340164 -2.949193,-2.987023 z M 62.205155,24.58713 c 1.626002,0 2.949193,1.340164 2.949193,2.987023 0,1.646858 -1.323191,2.987022 -2.949193,2.987022 -1.626002,0 -2.949193,-1.340164 -2.949193,-2.987022 0,-1.646859 1.323191,-2.987023 2.949193,-2.987023 z m 10.402008,19.417506 h -3.597942 c -0.433111,-3.046503 -2.813387,-5.456382 -5.82039,-5.895048 v -3.644094 c 1.16261,-0.170076 2.230706,-0.632906 3.13088,-1.316 l 7.587703,7.685031 c -0.67536,0.910791 -1.133246,1.991659 -1.300251,3.170111 z M 51.803148,61.430483 c -0.433111,-3.045573 -2.813387,-5.456381 -5.82039,-5.895048 v -3.644093 c 1.16261,-0.170076 2.230706,-0.632907 3.13088,-1.316 l 7.587703,7.685031 c -0.674442,0.91172 -1.132329,1.992587 -1.299333,3.171039 h -3.59886 z m -17.205156,0 C 34.43007,60.25296 33.973101,59.171164 33.298659,58.259444 l 7.587703,-7.685032 c 0.900174,0.683094 1.967352,1.146854 3.13088,1.316 v 3.644094 c -3.00792,0.438666 -5.387279,2.849474 -5.82039,5.895048 h -3.59886 z m 3.59886,-32.860966 c 0.433111,3.046503 2.81247,5.456381 5.82039,5.895048 v 3.644093 c -1.16261,0.170076 -2.230706,0.632907 -3.13088,1.316 l -7.587703,-7.685031 c 0.674442,-0.91172 1.132329,-1.992587 1.299333,-3.171039 h 3.59886 z m 17.205156,0 c 0.167922,1.177523 0.624891,2.259319 1.299333,3.171039 l -7.587703,7.685032 c -0.900174,-0.683094 -1.967352,-1.146854 -3.13088,-1.316 v -3.644094 c 3.007003,-0.438666 5.387279,-2.848545 5.82039,-5.895048 h 3.59886 z M 65.154348,45 c 0,1.646859 -1.323191,2.987023 -2.949193,2.987023 -1.626002,0 -2.949193,-1.340164 -2.949193,-2.987023 0,-1.646859 1.323191,-2.987023 2.949193,-2.987023 1.626002,0 2.949193,1.340164 2.949193,2.987023 z m -14.650533,4.166404 c 0.674442,-0.91172 1.132328,-1.992588 1.299333,-3.17104 h 3.597942 c 0.433111,3.045574 2.813387,5.456382 5.820389,5.895048 v 3.644094 c -1.162609,0.170076 -2.230705,0.632906 -3.130879,1.316 z m -2.554622,13.259443 c 0,1.646859 -1.323191,2.987023 -2.949193,2.987023 -1.626002,0 -2.949193,-1.340164 -2.949193,-2.987023 0,-1.646858 1.323191,-2.987022 2.949193,-2.987022 1.626002,0 2.949193,1.340164 2.949193,2.987022 z m -16.04071,-5.574412 c -0.900174,-0.683093 -1.967353,-1.146853 -3.13088,-1.316 v -3.644093 c 3.00792,-0.438667 5.387278,-2.849475 5.820389,-5.895048 h 3.597943 c 0.167922,1.177522 0.624891,2.259319 1.299333,3.171039 z M 24.845652,45 c 0,-1.646859 1.323191,-2.987023 2.949193,-2.987023 1.626002,0 2.949193,1.340164 2.949193,2.987023 0,1.646859 -1.323191,2.987023 -2.949193,2.987023 -1.626002,0 -2.949193,-1.340164 -2.949193,-2.987023 z m 14.650533,-4.166404 c -0.674442,0.91172 -1.132328,1.992588 -1.299333,3.17104 H 34.59891 c -0.433111,-3.046503 -2.812469,-5.456382 -5.820389,-5.895048 v -3.644094 c 1.162609,-0.170076 2.230705,-0.632906 3.130879,-1.316 z m 2.554622,-13.259443 c 0,-1.646859 1.323191,-2.987023 2.949193,-2.987023 1.626002,0 2.949193,1.340164 2.949193,2.987023 0,1.646858 -1.323191,2.987022 -2.949193,2.987022 -1.626002,0 -2.949193,-1.340164 -2.949193,-2.987022 z m 16.04071,5.574412 c 0.900174,0.683093 1.967353,1.146853 3.13088,1.316 v 3.644093 c -3.007002,0.438667 -5.387278,2.848545 -5.820389,5.895048 H 51.804065 C 51.636143,42.826184 51.179174,41.744387 50.504732,40.832667 Z M 45,47.987023 c -1.626002,0 -2.949193,-1.340164 -2.949193,-2.987023 0,-1.646859 1.323191,-2.987023 2.949193,-2.987023 1.626002,0 2.949193,1.340164 2.949193,2.987023 0,1.646859 -1.323191,2.987023 -2.949193,2.987023 z M 55.402008,26.578788 H 51.804065 C 51.370954,23.532285 48.990678,21.122407 45.983676,20.68374 v -3.644093 c 1.16261,-0.170076 2.230706,-0.632907 3.13088,-1.316 l 7.587702,7.685031 c -0.675359,0.910791 -1.133246,1.991658 -1.30025,3.17011 z m -11.384766,-9.54007 v 3.644093 c -3.00792,0.438666 -5.387279,2.848545 -5.82039,5.895048 H 34.59891 c -0.167922,-1.177523 -0.624891,-2.259319 -1.299333,-3.17104 l 7.587703,-7.685031 c 0.899256,0.684023 1.966434,1.147783 3.129962,1.31693 z M 26.812086,34.464565 v 3.644093 c -3.00792,0.438667 -5.387278,2.848545 -5.820389,5.895048 h -3.597942 c -0.167923,-1.177522 -0.624892,-2.259319 -1.299334,-3.171039 l 7.587703,-7.685031 c 0.899256,0.684022 1.966435,1.147782 3.129962,1.316929 z m -9.419249,11.530799 h 3.597942 c 0.433111,3.045574 2.81247,5.456382 5.82039,5.895048 v 3.644094 c -1.16261,0.170076 -2.230706,0.632906 -3.13088,1.316 l -7.587703,-7.685031 c 0.67536,-0.910791 1.133246,-1.991659 1.300251,-3.170111 z m 17.205155,17.425848 h 3.597943 c 0.433111,3.045573 2.812469,5.456381 5.820389,5.895048 v 3.644093 c -1.16261,0.170076 -2.230706,0.632907 -3.13088,1.316 l -7.587702,-7.685031 c 0.675359,-0.910791 1.133246,-1.991658 1.30025,-3.17011 z m 11.384766,9.54007 v -3.644093 c 3.007003,-0.438666 5.387279,-2.849474 5.82039,-5.895048 h 3.597942 c 0.167922,1.177523 0.624891,2.259319 1.299333,3.17104 l -7.587703,7.685031 c -0.899256,-0.684023 -1.966434,-1.147783 -3.129962,-1.31693 z M 63.187914,55.535435 v -3.644093 c 3.007002,-0.438667 5.387278,-2.849475 5.820389,-5.895048 h 3.597942 c 0.167923,1.177522 0.624892,2.259319 1.299334,3.171039 l -7.587703,7.685031 C 65.41862,56.168342 64.351441,55.704582 63.187914,55.535435 Z"
     id="path2"
     inkscape:connector-curvature="0"
     style="stroke-width:0.92347467;fill:#ffffff" /><text
     x="-5"
     y="110"
     font-size="5px"
     font-weight="bold"
     id="text4"
     style="font-weight:bold;font-size:5px;font-family:'Helvetica Neue', Helvetica, Arial-Unicode, Arial, Sans-serif;fill:#000000" />
<text
     x="-5"
     y="115"
     font-size="5px"
     font-weight="bold"
     id="text6"
     style="font-weight:bold;font-size:5px;font-family:'Helvetica Neue', Helvetica, Arial-Unicode, Arial, Sans-serif;fill:#000000" />
</svg>