<?xml version="1.0" encoding="UTF-8" standalone="no"?>
<!-- Created with Inkscape (http://www.inkscape.org/) -->

<svg
   xmlns:dc="http://purl.org/dc/elements/1.1/"
   xmlns:cc="http://creativecommons.org/ns#"
   xmlns:rdf="http://www.w3.org/1999/02/22-rdf-syntax-ns#"
   xmlns:svg="http://www.w3.org/2000/svg"
   xmlns="http://www.w3.org/2000/svg"
   xmlns:sodipodi="http://sodipodi.sourceforge.net/DTD/sodipodi-0.dtd"
   xmlns:inkscape="http://www.inkscape.org/namespaces/inkscape"
   width="64mm"
   height="64mm"
   viewBox="0 0 64 64"
   version="1.1"
   id="svg8"
   inkscape:version="0.92.4 (5da689c313, 2019-01-14)"
   sodipodi:docname="delete_x.svg">
  <defs
     id="defs2">
    <inkscape:perspective
       sodipodi:type="inkscape:persp3d"
       inkscape:vp_x="66.249205 : 55.210183 : 1"
       inkscape:vp_y="81.884987 : -4563.3647 : 0"
       inkscape:vp_z="-8.2642775 : 67.069501 : 1"
       inkscape:persp3d-origin="28.119024 : 109.81574 : 1"
       id="perspective71" />
  </defs>
  <sodipodi:namedview
     id="base"
     pagecolor="#000000"
     bordercolor="#666666"
     borderopacity="1.0"
     inkscape:pageopacity="0"
     inkscape:pageshadow="2"
     inkscape:zoom="2.8284272"
     inkscape:cx="4.2990231"
     inkscape:cy="127.26911"
     inkscape:document-units="mm"
     inkscape:current-layer="layer3"
     showgrid="true"
     inkscape:window-width="1920"
     inkscape:window-height="1001"
     inkscape:window-x="-9"
     inkscape:window-y="-9"
     inkscape:window-maximized="1"
     inkscape:pagecheckerboard="false">
    <inkscape:grid
       type="xygrid"
       id="grid22" />
  </sodipodi:namedview>
  <metadata
     id="metadata5">
    <rdf:RDF>
      <cc:Work
         rdf:about="">
        <dc:format>image/svg+xml</dc:format>
        <dc:type
           rdf:resource="http://purl.org/dc/dcmitype/StillImage" />
        <dc:title />
      </cc:Work>
    </rdf:RDF>
  </metadata>
  <g
     inkscape:label="frame"
     inkscape:groupmode="layer"
     id="layer1"
     transform="translate(0,-233)"
     style="display:none;opacity:1">
    <path
       style="fill:#ffffff;stroke:#000000;stroke-width:0.26458332px;stroke-linecap:butt;stroke-linejoin:miter;stroke-opacity:1"
       d="M 31.75,234.82292 V 289.0625"
       id="path95"
       inkscape:connector-curvature="0" />
    <path
       style="fill:#ffffff;stroke:#000000;stroke-width:0.26458332px;stroke-linecap:butt;stroke-linejoin:miter;stroke-opacity:1"
       d="M 62.177083,234.82292 1.3229166,295.67708"
       id="path99"
       inkscape:connector-curvature="0" />
    <path
       style="display:inline;opacity:1;fill:#ffffff;stroke:#000000;stroke-width:0.26458332px;stroke-linecap:butt;stroke-linejoin:miter;stroke-opacity:1"
       d="M 62.177083,295.67708 1.3229166,234.82292"
       id="path97"
       inkscape:connector-curvature="0" />
  </g>
  <g
     inkscape:groupmode="layer"
     id="layer2"
     inkscape:label="LOGO"
     style="display:none">
    <path
       style="display:inline;opacity:1;fill:none;stroke:#000000;stroke-width:0.20357688px;stroke-linecap:butt;stroke-linejoin:miter;stroke-opacity:1"
       d="M 17.124422,15.985906 H 12.567709"
       id="path130"
       inkscape:connector-curvature="0"
       sodipodi:nodetypes="cc" />
    <path
       style="display:inline;opacity:1;fill:none;stroke:#000000;stroke-width:0.20357688px;stroke-linecap:butt;stroke-linejoin:miter;stroke-opacity:1"
       d="M 30.79456,30.537993 12.567709,45.090074"
       id="path138"
       inkscape:connector-curvature="0" />
    <path
       style="display:inline;opacity:1;fill:none;stroke:#000000;stroke-width:0.20947886px;stroke-linecap:butt;stroke-linejoin:miter;stroke-opacity:1"
       d="m 12.567709,45.090074 h 4.824754"
       id="path134"
       inkscape:connector-curvature="0" />
    <path
       style="display:inline;opacity:1;fill:none;stroke:#000000;stroke-width:0.20947888px;stroke-linecap:butt;stroke-linejoin:miter;stroke-opacity:1"
       d="m 48.753371,45.090074 h 4.824754"
       id="path136"
       inkscape:connector-curvature="0" />
    <path
       style="fill:none;stroke:#000000;stroke-width:0.20322435px;stroke-linecap:butt;stroke-linejoin:miter;stroke-opacity:1"
       d="m 12.567709,15.985906 18.09283,14.552083"
       id="path162"
       inkscape:connector-curvature="0" />
    <path
       style="fill:none;stroke:#000000;stroke-width:0.17771453px;stroke-linecap:butt;stroke-linejoin:miter;stroke-opacity:1"
       d="M 48.75337,45.090073 33.072917,32.25"
       id="path166"
       inkscape:connector-curvature="0" />
    <path
       style="fill:none;stroke:#000000;stroke-width:0.17771454px;stroke-linecap:butt;stroke-linejoin:miter;stroke-opacity:1"
       d="M 17.392463,45.090073 33.072917,32.25"
       id="path168"
       inkscape:connector-curvature="0" />
    <path
       style="fill:none;stroke:#000000;stroke-width:0.26458332px;stroke-linecap:butt;stroke-linejoin:miter;stroke-opacity:1"
       d="M 17.065626,15.985906 53.578125,45.090071"
       id="path847"
       inkscape:connector-curvature="0"
       sodipodi:nodetypes="cc" />
    <path
       style="fill:none;stroke:#000000;stroke-width:0.26458332px;stroke-linecap:butt;stroke-linejoin:miter;stroke-opacity:1"
       d="m 20.505209,43.767155 h 25.135416 c 0,0 9.260417,0 6.614584,-6.614583 -2.645834,-6.614584 -5.291667,-13.229166 -5.291667,-13.229166 0,0 -2.645833,-6.614583 -9.260416,-6.614583 -6.614584,0 -3.96875,0 -3.96875,0 h -2.645834 -5.291666 c 0,0 -5.291667,0 -7.9375,6.614583 -2.645833,6.614582 -5.291667,13.229166 -5.291667,13.229166 0,0 -2.6458337,6.614583 7.9375,6.614583 z"
       id="path851"
       inkscape:connector-curvature="0" />
  </g>
  <g
     inkscape:groupmode="layer"
     id="layer3"
     inkscape:label="output"
     style="display:inline">
    <path
       transform="translate(0,-233)"
       style="display:inline;opacity:1;fill:#ffffff;fill-opacity:1;stroke-width:0.07308151"
       d="m 9.3908207,287.2827 c 0.06175,-0.0703 4.5059033,-5.07271 9.8758873,-11.11637 9.226821,-10.38435 9.75785,-10.99669 9.658931,-11.13792 -0.05757,-0.0822 -4.439072,-5.06322 -9.736667,-11.06894 -5.297595,-6.00572 -9.6771113,-10.98298 -9.7322573,-11.06058 -0.09844,-0.13854 -0.05896,-0.1411 2.1729513,-0.1411 h 2.273217 l 7.843159,8.82459 c 8.25834,9.29173 9.345256,10.49928 9.601682,10.66738 0.190873,0.12512 -0.358748,0.72656 10.281352,-11.25072 l 7.318841,-8.23862 2.297469,-0.001 2.29747,-0.001 -0.185182,0.20097 c -0.15277,0.1658 -13.996442,15.8711 -18.278838,20.73688 -0.672137,0.7637 -1.22211,1.41036 -1.222161,1.43701 -1.45e-4,0.0665 0.480931,0.61116 10.685752,12.09951 4.935196,5.55593 8.973084,10.11895 8.973084,10.14006 0,0.0211 -1.08413,0.0384 -2.409176,0.0384 H 48.69716 l -6.667957,-7.69183 c -3.667377,-4.2305 -7.4587,-8.59212 -8.42516,-9.69249 -0.966459,-1.10036 -1.817494,-2.07874 -1.891188,-2.17417 -0.303724,-0.39332 0.528433,-1.30257 -11.264132,12.3077 l -6.282414,7.25011 h -2.443884 c -2.3215603,0 -2.4382633,-0.006 -2.3316043,-0.12789 z"
       id="path176"
       inkscape:connector-curvature="0" />
  </g>
</svg>
