<?xml version="1.0" encoding="UTF-8" standalone="no"?>
<!-- Created with Inkscape (http://www.inkscape.org/) -->

<svg
   xmlns:dc="http://purl.org/dc/elements/1.1/"
   xmlns:cc="http://creativecommons.org/ns#"
   xmlns:rdf="http://www.w3.org/1999/02/22-rdf-syntax-ns#"
   xmlns:svg="http://www.w3.org/2000/svg"
   xmlns="http://www.w3.org/2000/svg"
   xmlns:xlink="http://www.w3.org/1999/xlink"
   xmlns:sodipodi="http://sodipodi.sourceforge.net/DTD/sodipodi-0.dtd"
   xmlns:inkscape="http://www.inkscape.org/namespaces/inkscape"
   width="64mm"
   height="64mm"
   viewBox="0 0 64 64"
   version="1.1"
   id="svg8"
   inkscape:version="0.92.4 (5da689c313, 2019-01-14)"
   sodipodi:docname="eye_swirl.svg">
  <defs
     id="defs2">
    <linearGradient
       inkscape:collect="always"
       id="linearGradient827">
      <stop
         style="stop-color:#00ff37;stop-opacity:1;"
         offset="0"
         id="stop823" />
      <stop
         style="stop-color:#00ff37;stop-opacity:0;"
         offset="1"
         id="stop825" />
    </linearGradient>
    <inkscape:perspective
       sodipodi:type="inkscape:persp3d"
       inkscape:vp_x="66.249205 : 55.210183 : 1"
       inkscape:vp_y="81.884987 : -4563.3647 : 0"
       inkscape:vp_z="-8.2642775 : 67.069501 : 1"
       inkscape:persp3d-origin="28.119024 : 109.81574 : 1"
       id="perspective71" />
    <radialGradient
       inkscape:collect="always"
       xlink:href="#linearGradient827"
       id="radialGradient829"
       cx="32.259889"
       cy="32.196344"
       fx="32.259889"
       fy="32.196344"
       r="12.434385"
       gradientTransform="matrix(1,0,0,0.96348711,0,1.1755817)"
       gradientUnits="userSpaceOnUse" />
  </defs>
  <sodipodi:namedview
     id="base"
     pagecolor="#00001a"
     bordercolor="#666666"
     borderopacity="1.0"
     inkscape:pageopacity="0"
     inkscape:pageshadow="2"
     inkscape:zoom="5.6568542"
     inkscape:cx="49.526703"
     inkscape:cy="127.92084"
     inkscape:document-units="mm"
     inkscape:current-layer="layer3"
     showgrid="true"
     inkscape:window-width="1920"
     inkscape:window-height="1001"
     inkscape:window-x="2391"
     inkscape:window-y="-9"
     inkscape:window-maximized="1">
    <inkscape:grid
       type="xygrid"
       id="grid22" />
  </sodipodi:namedview>
  <metadata
     id="metadata5">
    <rdf:RDF>
      <cc:Work
         rdf:about="">
        <dc:format>image/svg+xml</dc:format>
        <dc:type
           rdf:resource="http://purl.org/dc/dcmitype/StillImage" />
        <dc:title></dc:title>
      </cc:Work>
    </rdf:RDF>
  </metadata>
  <g
     inkscape:groupmode="layer"
     id="layer3"
     inkscape:label="output"
     style="display:inline">
    <path
       style="display:inline;opacity:1;fill:url(#radialGradient829);fill-opacity:1;stroke:none;stroke-width:0.02338609;stroke-opacity:0.94117647"
       d="m 32.756848,43.349749 c 2.035763,-0.526545 3.421552,-1.029068 4.770247,-2.158635 0.29251,-0.244985 0.746757,-0.690382 1.016055,-0.996259 2.476776,-2.81319 3.028456,-6.934793 1.371233,-10.244513 -0.643975,-1.286113 -1.63739,-2.420073 -2.801411,-3.197741 -1.949474,-1.302421 -4.356381,-1.72402 -6.611361,-1.158062 -1.043652,0.261937 -2.027939,0.746574 -2.868708,1.412474 -0.312158,0.247234 -0.893662,0.828731 -1.14402,1.144009 -1.702976,2.144564 -2.042525,5.098235 -0.862029,7.498632 0.303009,0.616133 0.753374,1.234139 1.251082,1.716781 0.960189,0.931119 2.120807,1.488321 3.481837,1.671595 0.340101,0.0458 1.072084,0.05213 1.403165,0.01214 1.65581,-0.200015 3.043346,-1.028296 3.900099,-2.328143 0.620712,-0.941732 0.907957,-2.151695 0.776861,-3.272391 -0.141988,-1.213842 -0.710427,-2.238615 -1.63146,-2.941187 -0.868008,-0.662125 -2.008698,-0.925182 -3.070289,-0.708044 -0.443701,0.09075 -0.903639,0.289454 -1.254109,0.541795 -0.233487,0.168111 -0.57931,0.525696 -0.730821,0.755674 -0.525193,0.797192 -0.617781,1.819283 -0.236194,2.607347 0.184634,0.38131 0.454835,0.673823 0.803595,0.869953 0.248298,0.139634 0.399754,0.177752 0.705657,0.177609 0.518605,-2.43e-4 0.89076,-0.170931 1.200462,-0.550587 0.176454,-0.21631 0.294889,-0.547179 0.295842,-0.826484 0.0011,-0.291066 -0.149524,-0.650238 -0.51348,-1.225286 -0.09349,-0.147709 -0.17486,-0.281289 -0.180829,-0.296846 -0.01111,-0.02896 0.257693,0.07692 0.485534,0.191259 0.204441,0.102595 0.344265,0.221126 0.493183,0.418082 0.272796,0.360793 0.361061,0.619569 0.339979,0.996748 -0.03215,0.575231 -0.364051,1.245881 -0.796377,1.609186 -0.151495,0.127309 -0.491488,0.294772 -0.704583,0.347043 -0.249465,0.06119 -0.756809,0.05586 -1.025244,-0.01077 -0.504278,-0.125169 -0.835404,-0.310586 -1.198161,-0.670922 -0.430432,-0.427559 -0.644535,-0.817692 -0.783156,-1.427043 -0.07555,-0.332116 -0.0765,-0.943528 -0.0021,-1.292138 0.07987,-0.373745 0.15775,-0.599654 0.3203,-0.929047 0.348594,-0.706396 0.930576,-1.284134 1.659284,-1.647188 0.347427,-0.173095 0.610751,-0.264985 0.991534,-0.346006 0.270243,-0.0575 0.339339,-0.06275 0.83258,-0.06331 0.423421,-5.29e-4 0.587642,0.0085 0.771739,0.04234 1.366486,0.250931 2.528155,1.047428 3.244755,2.224757 0.347334,0.570648 0.572273,1.201796 0.674547,1.8927 0.0623,0.420828 0.06679,1.062432 0.01045,1.492536 -0.047,0.35878 -0.184684,0.924348 -0.30312,1.245086 -0.202416,0.548169 -0.600757,1.252824 -0.945242,1.672104 -0.204764,0.249224 -0.604136,0.645406 -0.849797,0.843007 -0.879766,0.70766 -1.85343,1.126445 -3.024282,1.300782 -0.392891,0.0585 -1.355963,0.05825 -1.753958,-5.3e-4 -0.802661,-0.11839 -1.46582,-0.321807 -2.15152,-0.659955 -1.38484,-0.682924 -2.452169,-1.754174 -3.143934,-3.155484 -0.477713,-0.967706 -0.709536,-1.913491 -0.742321,-3.028501 -0.07624,-2.592932 1.10897,-5.052052 3.184141,-6.606567 0.859208,-0.643635 1.816865,-1.103427 2.873319,-1.379544 0.62865,-0.164306 1.205789,-0.243032 1.921359,-0.26209 0.957498,-0.0255 1.833079,0.08743 2.75956,0.355928 1.986438,0.575678 3.732217,1.822445 4.911193,3.507384 1.189072,1.699363 1.796592,3.856734 1.672735,5.940065 -0.141245,2.37585 -1.016669,4.525463 -2.550186,6.262016 -4.60465,4.763659 -15.452566,4.234492 -6.243635,2.634241 z"
       id="path1504"
       inkscape:connector-curvature="0"
       sodipodi:nodetypes="cscsssccscccscsccccsccccccccsccsccsccccscccccccssssccscccc" />
  </g>
</svg>
