<?xml version="1.0" encoding="UTF-8" standalone="no"?>
<svg
   viewBox="0 0 512 512"
   version="1.1"
   id="svg3"
   sodipodi:docname="flame.svg"
   inkscape:version="1.4 (86a8ad7, 2024-10-11)"
   xml:space="preserve"
   xmlns:inkscape="http://www.inkscape.org/namespaces/inkscape"
   xmlns:sodipodi="http://sodipodi.sourceforge.net/DTD/sodipodi-0.dtd"
   xmlns="http://www.w3.org/2000/svg"
   xmlns:svg="http://www.w3.org/2000/svg">
  <defs id="defs3" />
  <sodipodi:namedview
     id="namedview3"
     pagecolor="#505050"
     bordercolor="#ffffff"
     borderopacity="1"
     inkscape:showpageshadow="0"
     inkscape:pageopacity="0"
     inkscape:pagecheckerboard="1"
     inkscape:deskcolor="#505050"
     inkscape:zoom="0.57226563"
     inkscape:cx="210.56655"
     inkscape:cy="429.87031"
     inkscape:window-width="1324"
     inkscape:window-height="1462"
     inkscape:window-x="1222"
     inkscape:window-y="0"
     inkscape:window-maximized="0"
     inkscape:current-layer="svg3" />
  <path
     style="fill:#ffffff"
     d="m 280.65925,436.12256 c 1.22978,-1.62666 5.06146,-6.1773 8.51484,-10.11256 21.64724,-24.66779 30.54669,-50.74406 25.52985,-74.80496 -3.06342,-14.69221 -7.74556,-22.60363 -25.18307,-42.55179 -8.21256,-9.39499 -16.71627,-20.69284 -18.89713,-25.10632 -5.03623,-10.19195 -6.29168,-26.19421 -2.91024,-37.09464 1.27301,-4.1037 1.97561,-7.80024 1.56132,-8.21453 -0.41428,-0.41428 -5.09404,3.78403 -10.39946,9.32959 -19.29281,20.16605 -26.26138,44.12209 -19.03045,65.42156 4.31611,12.71354 4.21137,21.52473 -0.30632,25.76887 -1.91746,1.80136 -4.87633,3.2752 -6.57527,3.2752 -6.76426,0 -15.54578,-11.35266 -15.54578,-20.09742 0,-7.09837 -2.63286,-5.52248 -8.07449,4.83296 -6.11621,11.63916 -9.95862,25.96434 -9.95287,37.10602 0.0104,20.12113 10.06866,45.82758 24.66205,63.03014 4.67797,5.51436 7.97971,10.00803 7.3372,9.98593 -1.65893,-0.0571 -21.67126,-16.29255 -35.34836,-28.67719 -23.25602,-21.05838 -41.52746,-48.73748 -47.16704,-71.45254 -3.04593,-12.26842 -2.37393,-32.80113 1.47897,-45.18944 4.79616,-15.4212 15.98385,-34.94657 32.37236,-56.49805 9.1303,-12.00666 22.26151,-29.28656 29.18047,-38.39976 24.36756,-32.09538 31.70374,-48.4811 31.69698,-70.79678 -0.003,-10.72602 -0.6969,-15.09949 -3.32191,-20.94461 -1.8248,-4.06328 -3.09219,-7.613397 -2.81644,-7.889154 0.84587,-0.845868 20.89732,16.146304 29.49653,24.996194 20.04128,20.62553 35.09984,46.86813 40.14388,69.95887 3.30506,15.12995 2.29462,30.78804 -2.96755,45.98638 -4.65672,13.44969 -5.08794,24.1532 -1.11782,27.74611 6.24638,5.6529 15.69233,1.2797 21.76498,-10.07655 2.81726,-5.26847 3.33797,-8.58189 3.28898,-20.92891 -0.032,-8.06819 0.39292,-14.16877 0.94429,-13.55683 14.99449,16.64174 29.76144,43.68109 34.72646,63.58665 6.15265,24.66696 2.19065,54.34221 -10.61853,79.53251 -13.76371,27.06745 -40.85012,55.18971 -68.67714,71.30354 -5.42418,3.14098 -5.8022,3.19401 -3.78929,0.53151 z"/>
</svg>
