<svg xmlns="http://www.w3.org/2000/svg" xmlns:xlink="http://www.w3.org/1999/xlink" version="1.1" x="0px" y="0px" viewBox="0 0 100 125" enable-background="new 0 0 100 100" xml:space="preserve"><path d="M89.706,44.706c-1.187,0-2.272,0.407-3.156,1.069l-5.854-5.854c0.662-0.884,1.069-1.969,1.069-3.156  c0-2.919-2.375-5.294-5.294-5.294c-1.187,0-2.272,0.407-3.156,1.069l-5.854-5.854c0.662-0.884,1.069-1.969,1.069-3.156  c0-2.919-2.375-5.294-5.294-5.294c-1.187,0-2.272,0.407-3.156,1.069l-5.854-5.854c0.662-0.884,1.069-1.969,1.069-3.156  C55.294,7.375,52.919,5,50,5c-2.919,0-5.294,2.375-5.294,5.294c0,1.187,0.407,2.272,1.069,3.156l-5.854,5.854  c-0.884-0.662-1.969-1.069-3.156-1.069c-2.919,0-5.294,2.375-5.294,5.294c0,1.187,0.407,2.272,1.069,3.156l-5.854,5.854  c-0.884-0.662-1.969-1.069-3.156-1.069c-2.919,0-5.294,2.375-5.294,5.294c0,1.187,0.407,2.272,1.069,3.156l-5.854,5.854  c-0.884-0.662-1.969-1.069-3.156-1.069C7.375,44.706,5,47.081,5,50c0,2.919,2.375,5.294,5.294,5.294  c1.187,0,2.272-0.407,3.156-1.069l5.854,5.854c-0.662,0.884-1.069,1.969-1.069,3.156c0,2.919,2.375,5.294,5.294,5.294  c1.187,0,2.272-0.407,3.156-1.069l5.854,5.854c-0.662,0.884-1.069,1.969-1.069,3.156c0,2.919,2.375,5.294,5.294,5.294  c1.187,0,2.272-0.407,3.156-1.069l5.854,5.854c-0.662,0.884-1.069,1.969-1.069,3.156C44.706,92.625,47.081,95,50,95  c2.919,0,5.294-2.375,5.294-5.294c0-1.187-0.407-2.272-1.069-3.156l5.854-5.854c0.884,0.662,1.969,1.069,3.156,1.069  c2.919,0,5.294-2.375,5.294-5.294c0-1.187-0.407-2.272-1.069-3.156l5.854-5.854c0.884,0.662,1.969,1.069,3.156,1.069  c2.919,0,5.294-2.375,5.294-5.294c0-1.187-0.407-2.272-1.069-3.156l5.854-5.854c0.884,0.662,1.969,1.069,3.156,1.069  C92.625,55.294,95,52.919,95,50C95,47.081,92.625,44.706,89.706,44.706z M89.706,52.269c-1.251,0-2.269-1.018-2.269-2.269  c0-1.251,1.018-2.269,2.269-2.269s2.269,1.018,2.269,2.269C91.975,51.251,90.957,52.269,89.706,52.269z M78.739,63.235  c0,1.251-1.018,2.269-2.269,2.269s-2.269-1.018-2.269-2.269c0-1.251,1.018-2.269,2.269-2.269S78.739,61.985,78.739,63.235z   M65.504,76.471c0,1.251-1.018,2.269-2.269,2.269c-1.251,0-2.269-1.018-2.269-2.269s1.018-2.269,2.269-2.269  C64.486,74.202,65.504,75.22,65.504,76.471z M52.269,89.706c0,1.251-1.018,2.269-2.269,2.269c-1.251,0-2.269-1.018-2.269-2.269  s1.018-2.269,2.269-2.269C51.251,87.437,52.269,88.455,52.269,89.706z M36.765,78.739c-1.251,0-2.269-1.018-2.269-2.269  s1.018-2.269,2.269-2.269s2.269,1.018,2.269,2.269S38.016,78.739,36.765,78.739z M23.529,65.504c-1.251,0-2.269-1.018-2.269-2.269  c0-1.251,1.018-2.269,2.269-2.269c1.251,0,2.269,1.018,2.269,2.269C25.798,64.486,24.781,65.504,23.529,65.504z M10.294,52.269  c-1.251,0-2.269-1.018-2.269-2.269c0-1.251,1.018-2.269,2.269-2.269s2.269,1.018,2.269,2.269  C12.563,51.251,11.545,52.269,10.294,52.269z M21.261,36.765c0-1.251,1.018-2.269,2.269-2.269c1.251,0,2.269,1.018,2.269,2.269  s-1.018,2.269-2.269,2.269C22.278,39.034,21.261,38.016,21.261,36.765z M34.496,23.529c0-1.251,1.018-2.269,2.269-2.269  s2.269,1.018,2.269,2.269c0,1.251-1.018,2.269-2.269,2.269S34.496,24.781,34.496,23.529z M47.731,10.294  c0-1.251,1.018-2.269,2.269-2.269c1.251,0,2.269,1.018,2.269,2.269S51.251,12.563,50,12.563  C48.749,12.563,47.731,11.545,47.731,10.294z M63.235,21.261c1.251,0,2.269,1.018,2.269,2.269c0,1.251-1.018,2.269-2.269,2.269  c-1.251,0-2.269-1.018-2.269-2.269C60.966,22.278,61.985,21.261,63.235,21.261z M76.471,34.496c1.251,0,2.269,1.018,2.269,2.269  s-1.018,2.269-2.269,2.269s-2.269-1.018-2.269-2.269S75.22,34.496,76.471,34.496z M84.488,49.244h-2.8  c-0.335-2.31-2.152-4.127-4.461-4.461v-2.8c0.893-0.129,1.709-0.475,2.4-0.992l5.854,5.854  C84.963,47.535,84.618,48.351,84.488,49.244z M68.453,62.479c-0.129-0.892-0.475-1.708-0.992-2.399l2.392-2.392l2.392,2.392  c-0.518,0.691-0.863,1.507-0.992,2.399H68.453z M55.218,75.714c-0.129-0.892-0.475-1.708-0.992-2.399l2.392-2.392l2.392,2.392  c-0.518,0.691-0.863,1.507-0.992,2.399H55.218z M41.982,75.714c-0.129-0.893-0.475-1.709-0.992-2.4l2.392-2.392l2.392,2.392  c-0.518,0.691-0.863,1.507-0.992,2.4H41.982z M28.747,62.479c-0.129-0.893-0.475-1.709-0.992-2.4l2.392-2.392l2.392,2.392  c-0.518,0.691-0.863,1.507-0.992,2.4H28.747z M31.547,37.521c0.129,0.893,0.475,1.709,0.992,2.4l-2.392,2.392l-2.392-2.392  c0.518-0.691,0.863-1.507,0.992-2.4H31.547z M44.782,24.286c0.129,0.893,0.475,1.709,0.992,2.4l-2.392,2.392l-2.392-2.392  c0.518-0.691,0.863-1.507,0.992-2.4H44.782z M58.018,24.286c0.129,0.893,0.475,1.709,0.992,2.4l-2.392,2.392l-2.392-2.392  c0.518-0.691,0.863-1.507,0.992-2.4H58.018z M71.253,37.521c0.129,0.893,0.475,1.709,0.992,2.4l-2.392,2.392l-2.392-2.392  c0.518-0.691,0.863-1.507,0.992-2.4H71.253z M78.739,50c0,1.251-1.018,2.269-2.269,2.269S74.202,51.251,74.202,50  c0-1.251,1.018-2.269,2.269-2.269S78.739,48.749,78.739,50z M70.922,56.618l2.392-2.392c0.691,0.518,1.507,0.863,2.399,0.992v2.8  c-0.892,0.129-1.708,0.475-2.399,0.992L70.922,56.618z M65.504,63.235c0,1.251-1.018,2.269-2.269,2.269  c-1.251,0-2.269-1.018-2.269-2.269c0-1.251,1.018-2.269,2.269-2.269C64.486,60.966,65.504,61.985,65.504,63.235z M57.687,69.853  l2.392-2.392c0.691,0.518,1.507,0.863,2.399,0.992v2.8c-0.892,0.129-1.708,0.475-2.399,0.992L57.687,69.853z M52.269,76.471  c0,1.251-1.018,2.269-2.269,2.269c-1.251,0-2.269-1.018-2.269-2.269s1.018-2.269,2.269-2.269  C51.251,74.202,52.269,75.22,52.269,76.471z M39.921,72.245c-0.691-0.518-1.507-0.863-2.4-0.992v-2.8  c0.893-0.129,1.709-0.475,2.4-0.992l2.392,2.392L39.921,72.245z M34.496,63.235c0-1.251,1.018-2.269,2.269-2.269  s2.269,1.018,2.269,2.269c0,1.251-1.018,2.269-2.269,2.269S34.496,64.486,34.496,63.235z M26.685,59.01  c-0.691-0.518-1.507-0.863-2.4-0.992v-2.8c0.893-0.129,1.709-0.475,2.4-0.992l2.392,2.392L26.685,59.01z M21.261,50  c0-1.251,1.018-2.269,2.269-2.269c1.251,0,2.269,1.018,2.269,2.269c0,1.251-1.018,2.269-2.269,2.269  C22.278,52.269,21.261,51.251,21.261,50z M29.078,43.382l-2.392,2.392c-0.691-0.518-1.507-0.863-2.4-0.992v-2.8  c0.893-0.129,1.709-0.475,2.4-0.992L29.078,43.382z M34.496,36.765c0-1.251,1.018-2.269,2.269-2.269s2.269,1.018,2.269,2.269  s-1.018,2.269-2.269,2.269S34.496,38.016,34.496,36.765z M42.313,30.147l-2.392,2.392c-0.691-0.518-1.507-0.863-2.4-0.992v-2.8  c0.893-0.129,1.709-0.475,2.4-0.992L42.313,30.147z M47.731,23.529c0-1.251,1.018-2.269,2.269-2.269  c1.251,0,2.269,1.018,2.269,2.269c0,1.251-1.018,2.269-2.269,2.269C48.749,25.798,47.731,24.781,47.731,23.529z M60.079,27.755  c0.691,0.518,1.507,0.863,2.4,0.992v2.8c-0.893,0.129-1.709,0.475-2.4,0.992l-2.392-2.392L60.079,27.755z M65.504,36.765  c0,1.251-1.018,2.269-2.269,2.269c-1.251,0-2.269-1.018-2.269-2.269s1.018-2.269,2.269-2.269  C64.486,34.496,65.504,35.514,65.504,36.765z M73.315,40.99c0.691,0.518,1.507,0.863,2.4,0.992v2.8  c-0.893,0.129-1.709,0.475-2.4,0.992l-2.392-2.392L73.315,40.99z M72.245,46.844c-0.518,0.691-0.863,1.507-0.992,2.4h-2.8  c-0.129-0.893-0.475-1.709-0.992-2.4l2.392-2.392L72.245,46.844z M55.218,62.479c-0.129-0.892-0.475-1.708-0.992-2.399l2.392-2.392  l2.392,2.392c-0.518,0.691-0.863,1.507-0.992,2.399H55.218z M41.982,62.479c-0.129-0.893-0.475-1.709-0.992-2.4l2.392-2.392  l2.392,2.392c-0.518,0.691-0.863,1.507-0.992,2.4H41.982z M44.782,37.521c0.129,0.893,0.475,1.709,0.992,2.4l-2.392,2.392  l-2.392-2.392c0.518-0.691,0.863-1.507,0.992-2.4H44.782z M58.018,37.521c0.129,0.893,0.475,1.709,0.992,2.4l-2.392,2.392  l-2.392-2.392c0.518-0.691,0.863-1.507,0.992-2.4H58.018z M65.504,50c0,1.251-1.018,2.269-2.269,2.269  c-1.251,0-2.269-1.018-2.269-2.269c0-1.251,1.018-2.269,2.269-2.269C64.486,47.731,65.504,48.749,65.504,50z M57.687,56.618  l2.392-2.392c0.691,0.518,1.507,0.863,2.399,0.992v2.8c-0.892,0.129-1.708,0.475-2.399,0.992L57.687,56.618z M52.269,63.235  c0,1.251-1.018,2.269-2.269,2.269c-1.251,0-2.269-1.018-2.269-2.269c0-1.251,1.018-2.269,2.269-2.269  C51.251,60.966,52.269,61.985,52.269,63.235z M39.921,59.01c-0.691-0.518-1.507-0.863-2.4-0.992v-2.8  c0.893-0.129,1.709-0.475,2.4-0.992l2.392,2.392L39.921,59.01z M34.496,50c0-1.251,1.018-2.269,2.269-2.269s2.269,1.018,2.269,2.269  c0,1.251-1.018,2.269-2.269,2.269S34.496,51.251,34.496,50z M42.313,43.382l-2.392,2.392c-0.691-0.518-1.507-0.863-2.4-0.992v-2.8  c0.893-0.129,1.709-0.475,2.4-0.992L42.313,43.382z M47.731,36.765c0-1.251,1.018-2.269,2.269-2.269  c1.251,0,2.269,1.018,2.269,2.269S51.251,39.034,50,39.034C48.749,39.034,47.731,38.016,47.731,36.765z M60.079,40.99  c0.691,0.518,1.507,0.863,2.4,0.992v2.8c-0.893,0.129-1.709,0.475-2.4,0.992l-2.392-2.392L60.079,40.99z M59.01,46.844  c-0.518,0.691-0.863,1.507-0.992,2.4h-2.8c-0.129-0.893-0.475-1.709-0.992-2.4l2.392-2.392L59.01,46.844z M52.269,50  c0,1.251-1.018,2.269-2.269,2.269c-1.251,0-2.269-1.018-2.269-2.269c0-1.251,1.018-2.269,2.269-2.269  C51.251,47.731,52.269,48.749,52.269,50z M53.156,45.775c-0.691-0.518-1.507-0.863-2.4-0.992v-2.8  c0.893-0.129,1.709-0.475,2.4-0.992l2.392,2.392L53.156,45.775z M46.844,40.99c0.691,0.518,1.507,0.863,2.4,0.992v2.8  c-0.893,0.129-1.709,0.475-2.4,0.992l-2.392-2.392L46.844,40.99z M45.775,46.844c-0.518,0.691-0.863,1.507-0.992,2.4h-2.8  c-0.129-0.893-0.475-1.709-0.992-2.4l2.392-2.392L45.775,46.844z M40.99,53.156c0.518-0.691,0.863-1.507,0.992-2.4h2.8  c0.129,0.893,0.475,1.709,0.992,2.4l-2.392,2.392L40.99,53.156z M46.844,54.225c0.691,0.518,1.507,0.863,2.4,0.992v2.8  c-0.893,0.129-1.709,0.475-2.4,0.992l-2.392-2.392L46.844,54.225z M53.156,59.01c-0.691-0.518-1.507-0.863-2.399-0.992v-2.8  c0.892-0.129,1.708-0.475,2.399-0.992l2.392,2.392L53.156,59.01z M54.225,53.156c0.518-0.691,0.863-1.507,0.992-2.399h2.8  c0.129,0.892,0.475,1.708,0.992,2.399l-2.392,2.392L54.225,53.156z M66.391,45.775c-0.691-0.518-1.507-0.863-2.4-0.992v-2.8  c0.893-0.129,1.709-0.475,2.4-0.992l2.392,2.392L66.391,45.775z M59.01,33.609c-0.518,0.691-0.863,1.507-0.992,2.4h-2.8  c-0.129-0.893-0.475-1.709-0.992-2.4l2.392-2.392L59.01,33.609z M53.156,32.539c-0.691-0.518-1.507-0.863-2.4-0.992v-2.8  c0.893-0.129,1.709-0.475,2.4-0.992l2.392,2.392L53.156,32.539z M46.844,27.755c0.691,0.518,1.507,0.863,2.4,0.992v2.8  c-0.893,0.129-1.709,0.475-2.4,0.992l-2.392-2.392L46.844,27.755z M45.775,33.609c-0.518,0.691-0.863,1.507-0.992,2.4h-2.8  c-0.129-0.893-0.475-1.709-0.992-2.4l2.392-2.392L45.775,33.609z M33.609,40.99c0.691,0.518,1.507,0.863,2.4,0.992v2.8  c-0.893,0.129-1.709,0.475-2.4,0.992l-2.392-2.392L33.609,40.99z M32.539,46.844c-0.518,0.691-0.863,1.507-0.992,2.4h-2.8  c-0.129-0.893-0.475-1.709-0.992-2.4l2.392-2.392L32.539,46.844z M27.755,53.156c0.518-0.691,0.863-1.507,0.992-2.4h2.8  c0.129,0.893,0.475,1.709,0.992,2.4l-2.392,2.392L27.755,53.156z M33.609,54.225c0.691,0.518,1.507,0.863,2.4,0.992v2.8  c-0.893,0.129-1.709,0.475-2.4,0.992l-2.392-2.392L33.609,54.225z M40.99,66.391c0.518-0.691,0.863-1.507,0.992-2.4h2.8  c0.129,0.893,0.475,1.709,0.992,2.4l-2.392,2.392L40.99,66.391z M46.844,67.461c0.691,0.518,1.507,0.863,2.4,0.992v2.8  c-0.893,0.129-1.709,0.475-2.4,0.992l-2.392-2.392L46.844,67.461z M53.156,72.245c-0.691-0.518-1.507-0.863-2.399-0.992v-2.8  c0.892-0.129,1.708-0.475,2.399-0.992l2.392,2.392L53.156,72.245z M54.225,66.391c0.518-0.691,0.863-1.507,0.992-2.399h2.8  c0.129,0.892,0.475,1.708,0.992,2.399l-2.392,2.392L54.225,66.391z M66.391,59.01c-0.691-0.518-1.507-0.863-2.399-0.992v-2.8  c0.892-0.129,1.708-0.475,2.399-0.992l2.392,2.392L66.391,59.01z M67.461,53.156c0.518-0.691,0.863-1.507,0.992-2.399h2.8  c0.129,0.892,0.475,1.708,0.992,2.399l-2.392,2.392L67.461,53.156z M71.253,36.008h-2.8c-0.335-2.31-2.152-4.127-4.461-4.461v-2.8  c0.893-0.129,1.709-0.475,2.4-0.992l5.854,5.854C71.728,34.3,71.382,35.116,71.253,36.008z M58.018,22.773h-2.8  c-0.335-2.31-2.152-4.127-4.461-4.461v-2.8c0.893-0.129,1.709-0.475,2.4-0.992l5.854,5.854  C58.492,21.064,58.147,21.881,58.018,22.773z M49.244,15.512v2.8c-2.31,0.335-4.127,2.151-4.461,4.461h-2.8  c-0.129-0.893-0.475-1.709-0.992-2.4l5.854-5.854C47.535,15.037,48.351,15.382,49.244,15.512z M36.008,28.747v2.8  c-2.31,0.335-4.127,2.151-4.461,4.461h-2.8c-0.129-0.893-0.475-1.709-0.992-2.4l5.854-5.854  C34.3,28.272,35.116,28.618,36.008,28.747z M22.773,41.982v2.8c-2.31,0.335-4.127,2.151-4.461,4.461h-2.8  c-0.129-0.893-0.475-1.709-0.992-2.4l5.854-5.854C21.064,41.508,21.88,41.853,22.773,41.982z M15.512,50.756h2.8  c0.335,2.31,2.151,4.127,4.461,4.461v2.8c-0.893,0.129-1.709,0.475-2.4,0.992l-5.854-5.854  C15.037,52.465,15.382,51.649,15.512,50.756z M28.747,63.992h2.8c0.335,2.31,2.151,4.127,4.461,4.461v2.8  c-0.893,0.129-1.709,0.475-2.4,0.992l-5.854-5.854C28.272,65.7,28.618,64.884,28.747,63.992z M41.982,77.227h2.8  c0.335,2.31,2.151,4.127,4.461,4.461v2.8c-0.893,0.129-1.709,0.475-2.4,0.992l-5.854-5.854  C41.508,78.935,41.853,78.119,41.982,77.227z M50.756,84.488v-2.8c2.31-0.335,4.126-2.152,4.461-4.461h2.8  c0.129,0.892,0.475,1.708,0.992,2.399l-5.854,5.854C52.465,84.963,51.649,84.618,50.756,84.488z M63.992,71.253v-2.8  c2.31-0.335,4.126-2.152,4.461-4.461h2.8c0.129,0.892,0.475,1.708,0.992,2.399l-5.854,5.854  C65.7,71.728,64.884,71.382,63.992,71.253z M77.227,58.018v-2.8c2.31-0.335,4.126-2.152,4.461-4.461h2.8  c0.129,0.892,0.475,1.708,0.992,2.399l-5.854,5.854C78.935,58.492,78.119,58.147,77.227,58.018z"/><text x="0" y="115" fill="#000000" font-size="5px" font-weight="bold" font-family="'Helvetica Neue', Helvetica, Arial-Unicode, Arial, Sans-serif"></text><text x="0" y="120" fill="#000000" font-size="5px" font-weight="bold" font-family="'Helvetica Neue', Helvetica, Arial-Unicode, Arial, Sans-serif"></text></svg>