<?xml version="1.0" encoding="UTF-8" standalone="no"?>
<!-- Uploaded to: SVG Repo, www.svgrepo.com, Generator: SVG Repo Mixer Tools -->

<svg
   xmlns:dc="http://purl.org/dc/elements/1.1/"
   xmlns:cc="http://creativecommons.org/ns#"
   xmlns:rdf="http://www.w3.org/1999/02/22-rdf-syntax-ns#"
   xmlns:svg="http://www.w3.org/2000/svg"
   xmlns="http://www.w3.org/2000/svg"
   xmlns:sodipodi="http://sodipodi.sourceforge.net/DTD/sodipodi-0.dtd"
   xmlns:inkscape="http://www.inkscape.org/namespaces/inkscape"
   fill="#000000"
   height="800px"
   width="800px"
   version="1.1"
   id="Capa_1"
   viewBox="0 0 400.461 400.461"
   xml:space="preserve"
   sodipodi:docname="heyjinn.svg"
   inkscape:version="0.92.4 (5da689c313, 2019-01-14)"><metadata
   id="metadata9"><rdf:RDF><cc:Work
       rdf:about=""><dc:format>image/svg+xml</dc:format><dc:type
         rdf:resource="http://purl.org/dc/dcmitype/StillImage" /><dc:title /></cc:Work></rdf:RDF></metadata><defs
   id="defs7"><inkscape:perspective
     id="perspective71"
     inkscape:persp3d-origin="28.119024 : 109.81574 : 1"
     inkscape:vp_z="-8.2642775 : 67.069501 : 1"
     inkscape:vp_y="81.884987 : -4563.3647 : 0"
     inkscape:vp_x="66.249205 : 55.210183 : 1"
     sodipodi:type="inkscape:persp3d" /></defs><sodipodi:namedview
   pagecolor="#ffffff"
   bordercolor="#666666"
   borderopacity="1"
   objecttolerance="10"
   gridtolerance="10"
   guidetolerance="10"
   inkscape:pageopacity="0"
   inkscape:pageshadow="2"
   inkscape:window-width="1920"
   inkscape:window-height="1001"
   id="namedview5"
   showgrid="false"
   inkscape:zoom="0.834386"
   inkscape:cx="402.4508"
   inkscape:cy="494.71528"
   inkscape:window-x="-9"
   inkscape:window-y="-9"
   inkscape:window-maximized="1"
   inkscape:current-layer="layer9"><inkscape:grid
     type="xygrid"
     id="grid820"
     empspacing="10"
     spacingy="2.5028813"
     spacingx="2.5028813" /></sodipodi:namedview>

<g
   inkscape:groupmode="layer"
   id="layer1"
   inkscape:label="right hand"
   style="display:none"><path
     style="display:inline;fill:none;stroke:#000000;stroke-width:0.50057626px;stroke-linecap:butt;stroke-linejoin:miter;stroke-opacity:1"
     d="m 290.33423,235.27082 c 20.02305,-37.54321 22.52594,-52.5605 30.58607,-68.12927 7.2777,-14.05744 9.46004,-26.98022 -7.50865,-17.52017 -20.15489,11.23636 -8.52676,2.86346 -11.02965,0.36058 -2.50288,-2.50288 -19.55641,5.19666 -29.56794,25.21971 -10.01152,20.02305 -17.78441,32.00899 -20.02305,27.5317 -3.75432,-7.50865 0.39901,-16.26873 3.59735,-22.36901 3.19834,-6.10028 5.44168,-9.54076 -2.13262,-6.41019 -4.77336,1.9729 -23.05739,31.79115 -28.99642,69.12226 -5.93904,37.3311 -75.08644,82.29813 -75.08644,82.29813 h 50.05762 c 0,0 27.49835,-30.22724 41.7854,-52.17871 8.14497,-12.51442 39.72792,-27.91351 48.31833,-37.92503 z"
     id="path853-5"
     inkscape:connector-curvature="0"
     sodipodi:nodetypes="cssssssssccsc" /><path
     style="fill:none;stroke:#000000;stroke-width:0.50057626px;stroke-linecap:butt;stroke-linejoin:miter;stroke-opacity:1"
     d="m 200.23051,280.3227 c 0,0 19.19582,20.34121 25.02881,21.13662"
     id="path871"
     inkscape:connector-curvature="0" /></g><g
   inkscape:groupmode="layer"
   id="layer5"
   inkscape:label="tier"
   style="display:none"><path
     style="fill:none;stroke:#000000;stroke-width:0.50057626px;stroke-linecap:butt;stroke-linejoin:miter;stroke-opacity:1"
     d="m 200.23051,50.057618 c 0,0 0,75.086442 50.05762,75.086442 -50.05763,0 -50.05763,75.08644 -50.05763,75.08644"
     id="path974"
     inkscape:connector-curvature="0" /><path
     style="fill:none;stroke:#000000;stroke-width:0.50057626px;stroke-linecap:butt;stroke-linejoin:miter;stroke-opacity:1"
     d="m 200.23051,200.23049 c 0,0 0,-75.08643 -50.05763,-75.08643 50.05762,0 50.05762,-75.086442 50.05762,-75.086442"
     id="path976"
     inkscape:connector-curvature="0" /></g><g
   inkscape:groupmode="layer"
   id="layer4"
   inkscape:label="left hand"
   style="display:none"><path
     style="display:inline;fill:none;stroke:#000000;stroke-width:0.50057626px;stroke-linecap:butt;stroke-linejoin:miter;stroke-opacity:1"
     d="m 110.12678,235.27083 c -20.023053,-37.54322 -22.525935,-52.5605 -30.586063,-68.12927 -7.2777,-14.05744 -9.460041,-26.98022 7.508644,-17.52017 20.154889,11.23636 8.526765,2.86346 11.029646,0.36058 2.502883,-2.50288 19.556413,5.19666 29.567943,25.21971 10.01152,20.02305 17.78441,32.00899 20.02305,27.5317 3.75432,-7.50865 -0.39901,-16.26873 -3.59735,-22.36901 -3.19834,-6.10028 -5.44168,-9.54076 2.13262,-6.41019 4.77336,1.9729 23.05739,31.79114 28.99642,69.12225 5.93904,37.33111 75.08644,82.29813 75.08644,82.29813 h -50.05762 c 0,0 -27.49835,-30.22724 -41.7854,-52.17871 -8.14497,-12.51441 -39.72792,-27.9135 -48.31833,-37.92502 z"
     id="path853"
     inkscape:connector-curvature="0"
     sodipodi:nodetypes="cssssssssccsc" /><path
     style="fill:none;stroke:#000000;stroke-width:0.50057626px;stroke-linecap:butt;stroke-linejoin:miter;stroke-opacity:1"
     d="m 302.84864,152.67575 -12.51441,16.43583 c 0,0 10.01153,-13.12355 14.35707,-14.88585"
     id="path983"
     inkscape:connector-curvature="0"
     sodipodi:nodetypes="ccc" /><path
     style="display:inline;fill:none;stroke:#000000;stroke-width:0.50057626px;stroke-linecap:butt;stroke-linejoin:miter;stroke-opacity:1"
     d="m 97.612371,152.67575 12.514419,16.43583 c 0,0 -10.01154,-13.12355 -14.357079,-14.88585"
     id="path983-3"
     inkscape:connector-curvature="0"
     sodipodi:nodetypes="ccc" /></g><g
   inkscape:groupmode="layer"
   id="layer3"
   inkscape:label="star"
   style="display:inline"><path
     style="opacity:1;fill:#000000;fill-opacity:1;stroke:none;stroke-width:5.37827539;stroke-miterlimit:4;stroke-dasharray:none;stroke-opacity:1"
     d="m 198.88019,160.34278 c -1.73487,-16.0228 -6.83672,-31.1744 -13.38828,-39.7608 -3.54205,-4.64216 -9.51597,-9.00532 -13.62827,-9.95364 -1.94501,-0.44853 -1.75722,-1.05764 0.46168,-1.49743 4.81492,-0.95433 12.4373,-7.82852 16.49395,-14.87493 4.41992,-7.677421 8.30177,-20.757618 9.8485,-33.185308 0.72848,-5.853229 1.41799,-8.038235 1.41799,-4.493549 0,2.870769 2.11633,14.776245 3.61667,20.345678 2.84335,10.554829 6.55048,18.169455 11.75139,24.137959 3.26247,3.74396 8.62167,7.49167 11.54027,8.07015 2.21889,0.43979 2.40669,1.0489 0.46167,1.49743 -6.06192,1.39792 -13.00479,7.75292 -17.54151,16.05625 -4.54569,8.31973 -8.48604,22.62143 -9.66058,35.06352 -0.15843,1.67825 -0.41331,3.14732 -0.5664,3.2646 -0.15311,0.11728 -0.51629,-1.98419 -0.80708,-4.66993 z"
     id="path978"
     inkscape:connector-curvature="0" /></g><g
   inkscape:groupmode="layer"
   id="layer6"
   inkscape:label="folded"
   style="display:none"><path
     style="display:inline;opacity:1;fill:#000000;fill-opacity:1;stroke:none;stroke-width:6.82734537;stroke-miterlimit:4;stroke-dasharray:none;stroke-opacity:1"
     d="m 225.20771,340.0452 c -2.72763,-2.20514 -8.62714,-7.59947 -13.11003,-11.98739 l -8.1507,-7.97803 6.64876,-8.00642 c 11.3705,-13.69232 19.05414,-26.19929 22.85716,-37.20548 1.01313,-2.93207 2.53338,-9.19658 3.37833,-13.92114 1.88668,-10.54935 4.80808,-22.39652 8.08838,-32.80077 8.74013,-27.72146 24.54932,-58.09111 32.27293,-61.99673 2.86677,-1.44964 5.28183,-1.9922 5.71505,-1.28392 0.19493,0.3187 -1.37142,4.06479 -3.48078,8.32465 -6.27888,12.68022 -7.20183,15.67136 -7.24565,23.48213 -0.0309,5.4983 0.1713,7.07962 1.16067,9.07901 3.80866,7.69679 10.81371,-0.81847 28.07971,-34.13342 6.65242,-12.83589 10.71929,-18.82835 17.45436,-25.71861 7.76219,-7.94105 17.87728,-14.24191 22.92245,-14.27879 4.28077,-0.0313 3.09202,2.60025 -7.58321,16.78685 -3.9937,5.30733 -7.26127,9.82656 -7.26127,10.04274 0,1.32733 1.90172,-0.21044 4.49263,-3.63284 1.6473,-2.17597 5.55589,-6.60582 8.68576,-9.84413 4.96173,-5.13366 6.49631,-6.30713 11.98034,-9.16116 13.49213,-7.02165 16.58893,-8.44043 19.21776,-8.80451 2.35319,-0.3259 2.96478,-0.16882 4.48272,1.1514 1.54815,1.3465 1.75334,1.91384 1.72075,4.75779 -0.0548,4.78413 -2.17375,11.06589 -7.72451,22.90016 -2.73249,5.8257 -6.92759,15.63102 -9.32244,21.78961 -11.18187,28.75531 -15.25734,38.13582 -25.93339,59.69081 -9.50024,19.18101 -8.879,18.55337 -37.51574,37.90325 -26.52208,17.92102 -32.97906,23.4709 -40.87166,35.12989 -8.32019,12.29062 -24.57578,33.72441 -25.57693,33.72441 -0.23216,0 -2.65381,-1.80421 -5.38145,-4.00936 z"
     id="path1004"
     inkscape:connector-curvature="0" /><path
     style="display:inline;opacity:1;fill:#000000;fill-opacity:1;stroke:none;stroke-width:6.82734537;stroke-miterlimit:4;stroke-dasharray:none;stroke-opacity:1"
     d="m 192.67512,371.74551 c -16.78011,-19.3302 -34.22126,-41.12377 -43.09928,-53.85464 -2.38495,-3.41995 -5.77418,-8.27245 -7.53164,-10.78335 -6.11132,-8.73127 -13.59247,-14.98194 -36.28823,-30.31966 -17.600583,-11.89441 -26.179398,-18.24141 -29.893336,-22.11649 -2.167087,-2.26109 -4.420028,-6.19787 -9.984247,-17.4464 -9.411601,-19.02632 -13.620503,-28.61026 -22.992585,-52.35557 -4.27022,-10.81915 -9.865378,-24.16528 -12.433668,-29.65807 -6.594969,-14.10463 -8.56827,-20.92948 -7.233239,-25.01685 0.670092,-2.05158 2.612765,-3.43069 4.832611,-3.43069 2.380264,0 7.192942,2.09085 17.064745,7.4137 9.416719,5.07747 10.566578,5.88664 15.274941,10.74912 2.800403,2.89207 6.574209,7.19567 8.386237,9.56357 2.88246,3.76669 4.818609,5.34589 4.780043,3.8988 -0.0064,-0.24967 -3.37606,-4.89068 -7.48756,-10.31334 -10.452359,-13.78561 -11.701608,-16.48142 -7.625528,-16.45535 6.261715,0.0401 18.052611,7.99947 26.706472,18.02815 4.621973,5.35625 9.118418,12.31147 12.954009,20.03762 8.709005,17.54278 17.876705,32.66263 22.194345,36.60404 3.279,2.9933 5.2065,2.84232 6.88128,-0.53899 0.9908,-2.0004 1.19267,-3.57794 1.1618,-9.07901 -0.044,-7.84301 -0.99709,-10.91799 -7.2873,-23.51144 -2.45109,-4.90724 -3.67348,-7.98645 -3.31449,-8.3492 0.359,-0.36274 1.80763,-0.10633 3.92791,0.69524 3.60204,1.36176 5.79028,3.58784 10.40639,10.58633 13.65524,20.70271 25.89863,53.58316 31.58816,84.83208 1.86768,10.258 3.17518,14.47008 6.9223,22.30013 12.56071,26.24709 44.75754,59.31541 88.43808,90.83187 4.91003,3.5427 9.03965,6.5487 9.17693,6.67999 0.13727,0.1313 -14.99689,0.23873 -33.63147,0.23873 h -33.88106 z"
     id="path1007"
     inkscape:connector-curvature="0" /></g><g
   inkscape:groupmode="layer"
   id="layer2"
   inkscape:label="tower"
   style="display:none"><path
     style="fill:#000000;stroke-width:0.98010463"
     d="m 104.56135,390.20206 c -0.35223,-0.48006 -0.57928,-19.6106 -0.50459,-42.51229 0.0927,-28.4265 -0.25152,-43.05338 -1.08491,-46.0953 -1.79844,-6.5644 -6.482283,-13.32931 -16.221876,-23.42937 C 75.317584,266.30961 70.135032,259.6963 57.588142,240.95247 45.435001,222.79687 38.54003,210.71757 36.08621,203.2833 c -1.605191,-4.86322 -1.609613,-6.59427 -0.05586,-21.86967 0.92802,-9.12363 2.756679,-29.64276 4.063688,-45.59804 l 2.376387,-29.00962 h 5.808804 c 15.934245,0 25.842257,8.00345 27.518463,22.22876 0.339676,2.88273 -0.18316,10.62685 -1.171408,17.35025 -4.903554,33.36068 -2.809835,44.1618 11.966252,61.73182 8.797353,10.46079 14.197144,18.47181 14.197144,21.06255 0,0.91003 0.48056,1.90479 1.06792,2.21056 1.42684,0.7428 1.34278,-1.25187 -0.43597,-10.34451 -1.792049,-9.16058 -3.508706,-13.53301 -9.785683,-24.92474 -2.616488,-4.74853 -4.604535,-8.76231 -4.417863,-8.91955 0.18666,-0.15725 3.428034,2.83957 7.20306,6.65958 11.033496,11.16489 18.908946,17.84859 32.019526,27.17406 20.09822,14.29575 28.22468,22.9111 33.10063,35.09203 3.50487,8.75577 3.80353,17.32001 1.08227,31.03354 -2.31393,11.66078 -4.16226,32.8326 -2.86632,32.8326 1.18183,0 13.07512,-20.75767 17.00787,-29.68426 6.05918,-13.75332 7.509,-20.85967 6.94068,-34.02034 -0.87051,-20.15822 -5.54172,-26.5637 -30.08412,-41.2534 -16.37471,-9.80101 -25.63315,-16.96821 -42.76881,-33.10858 -8.77153,-8.26203 -15.705557,-13.83487 -19.353974,-15.5547 -1.198634,-0.56501 -1.083719,-1.68229 0.657733,-6.39534 3.258128,-8.81781 4.508602,-17.22585 3.35618,-22.5666 -0.810303,-3.75524 -0.639303,-5.45465 0.890935,-8.85506 1.041523,-2.31438 6.268336,-20.83297 11.615146,-41.152368 10.35057,-39.335151 11.34334,-45.933852 8.22412,-54.663988 -0.82356,-2.304951 -1.11362,-4.19082 -0.64459,-4.19082 1.70697,0 7.8681,6.787635 10.57718,11.652754 2.47314,4.441395 2.7744,6.073481 2.74716,14.883181 -0.0319,10.309699 -0.34654,11.827224 -16.58228,79.972161 l -5.12321,21.50319 10.86805,9.95756 c 24.11318,22.09311 31.19477,27.75518 46.09867,36.85825 8.21727,5.01894 16.70903,10.65904 18.87061,12.53352 9.31351,8.07653 14.98583,19.14162 17.11948,33.39531 1.07882,7.20695 0.9466,9.76708 -1.1188,21.66552 -2.1718,12.51122 -2.36234,17.35397 -2.61918,66.5647 l -0.27699,53.07187 -44.47867,0.2347 c -27.90658,0.14725 -44.7173,-0.0905 -45.11909,-0.63812 z m 103.73074,0.25349 c -0.39157,-0.32982 -0.71348,-24.51574 -0.71534,-53.7465 -0.003,-45.95441 -0.24624,-54.24242 -1.79769,-61.24251 -2.34063,-10.5608 -2.3164,-26.78875 0.0521,-34.99106 2.477,-8.57765 7.23358,-16.572 13.1685,-22.13225 2.75806,-2.58393 12.24962,-9.23826 21.09236,-14.7874 16.07738,-10.08912 25.99381,-18.02904 43.8782,-35.13253 5.17326,-4.94738 10.29135,-9.60805 11.37351,-10.35705 1.89966,-1.31481 1.82149,-1.96685 -2.26478,-18.88998 -15.42891,-63.898593 -18.42888,-78.439415 -17.9061,-86.791443 0.5874,-9.384667 2.88357,-14.639651 8.81196,-20.167006 2.16515,-2.018697 4.30509,-3.670357 4.75539,-3.670357 0.45029,0 0.10268,1.720345 -0.7723,3.822977 -3.15562,7.582446 -1.38449,19.20042 8.67349,56.894827 5.01641,18.800042 10.1354,36.292652 11.37556,38.872492 1.24015,2.57985 1.9293,5.13428 1.53142,5.67652 -0.39784,0.54225 -0.6961,4.74082 -0.66275,9.33017 0.0458,6.30742 0.71272,10.07397 2.73212,15.43035 2.53393,6.72128 2.43894,8.41365 -0.47631,8.48543 -1.2075,0.0298 -13.99133,11.02586 -23.89455,20.55313 -12.93817,12.44696 -18.94868,16.98362 -35.98114,27.15798 -25.2107,15.05966 -30.87257,23.11471 -30.98062,44.0756 -0.0533,10.32608 1.43017,17.0973 6.66646,30.43046 3.07398,7.82725 14.64598,28.23187 17.16452,30.26576 1.69179,1.36621 0.16058,-19.58299 -2.36692,-32.38284 -3.51768,-17.81444 -2.55241,-25.95312 4.49215,-37.87599 4.91252,-8.3144 11.25072,-14.65703 23.01589,-23.0319 13.62952,-9.70197 35.25572,-27.9852 41.34905,-34.95726 2.65769,-3.04101 4.83219,-5.28537 4.83219,-4.9875 0,0.29788 -2.65918,5.77088 -5.90931,12.16224 -6.2626,12.3154 -9.02237,21.05417 -8.97594,28.42238 l 0.0282,4.49762 1.3919,-3.28196 c 1.98036,-4.66949 7.43422,-12.58619 13.54972,-19.66851 7.31472,-8.47114 11.30446,-16.16916 13.2248,-25.51673 2.17266,-10.57572 2.07351,-16.03202 -0.60501,-33.30059 -2.6711,-17.22071 -2.29571,-24.46018 1.60458,-30.94341 4.83914,-8.04379 12.67599,-11.87274 24.30047,-11.87274 h 5.79064 l 1.84247,24.06224 c 1.01334,13.23422 2.8287,33.76827 4.03412,45.63117 2.4702,24.30973 2.47358,24.28151 -4.49281,37.56351 -5.17601,9.86847 -23.82683,38.26813 -31.69451,48.26125 -3.26785,4.15067 -9.71184,11.43679 -14.31998,16.19143 -9.85203,10.16517 -15.32355,18.97311 -16.82527,27.08499 -0.60938,3.29164 -1.08594,23.24237 -1.0905,45.65077 l -0.009,39.80391 h -44.14007 c -24.27705,0 -44.46045,-0.26986 -44.85201,-0.59969 z M 80.069784,103.6654 C 77.349055,100.16778 69.158824,96.152901 62.31582,94.962373 L 56.303431,93.916329 60.454833,83.045338 C 66.39994,67.47728 76.846163,36.32522 78.818307,28.282856 c 0.924651,-3.770646 1.681179,-8.707033 1.681179,-10.969737 0,-4.802672 1.52762,-5.733349 6.124305,-3.731098 5.097389,2.220334 10.705141,8.174461 12.503741,13.276065 2.158198,6.121531 2.120028,16.273376 -0.08426,22.440032 C 98.0827,51.985276 93.835407,65.850327 89.60488,80.109336 81.969613,105.84397 81.899422,106.01735 80.069917,103.6654 Z M 313.42402,82.695226 c -3.73019,-12.712815 -7.90062,-26.554889 -9.2676,-30.760162 -5.8507,-17.998513 -2.13996,-30.56039 11.25276,-38.093796 4.29131,-2.413866 5.16132,-1.87326 5.93347,3.687043 1.54241,11.106423 10.32468,39.080876 20.72623,66.019815 l 4.04427,10.474275 -4.39129,0.572391 c -6.40227,0.834549 -15.11736,4.676329 -18.53818,8.172008 l -2.97747,3.04265 z"
     id="path860"
     inkscape:connector-curvature="0"
     sodipodi:nodetypes="cccssssscscscscssccsssscscsccscscsscsccscssscscccsccsccsscscscccsccssccssscscccsssscsccsssscscscccccscscccsccssscsccscs" /></g><g
   inkscape:groupmode="layer"
   id="layer7"
   inkscape:label="tree"
   style="display:none"><path
     style="opacity:1;fill:#000000;fill-opacity:1;stroke:none;stroke-width:6.79456711;stroke-miterlimit:4;stroke-dasharray:none;stroke-opacity:1"
     d="m 314.28273,624.60293 c -9.44184,-10.62038 -41.13789,-43.17752 -84.22972,-86.51799 -36.95611,-37.16935 -51.18322,-51.85642 -52.64061,-54.34249 -4.60582,-7.85679 -7.68753,-17.90219 -11.73137,-38.24056 -1.47444,-7.41563 -5.39311,-25.68443 -8.70816,-40.59732 l -6.02735,-27.11433 V 300.4559 223.12157 l 2.18412,-0.91259 c 2.8585,-1.19436 6.79165,-0.65383 11.52255,1.58354 6.56506,3.10478 12.19705,9.54475 16.8772,19.29843 l 2.46679,5.14094 0.82902,62.23099 c 0.45597,34.22703 0.93086,63.57928 1.05532,65.22719 0.17655,2.33751 1.68761,5.96039 6.87331,16.47919 12.77437,25.91186 22.21553,39.16226 43.2842,60.74813 12.09719,12.39416 17.67597,16.78836 42.20967,33.24698 23.92831,16.05249 30.51311,20.23668 36.7725,23.36638 2.53673,1.26837 7.99105,4.20196 12.12072,6.51909 11.56393,6.48843 18.69641,9.92379 20.50287,9.8752 0.90456,-0.0243 2.73758,-0.6585 4.07338,-1.40925 2.0125,-1.1311 2.62782,-1.24067 3.59058,-0.63942 2.65285,1.65673 3.01748,0.52231 1.19713,-3.7244 -2.61591,-6.10267 -8.91482,-11.02314 -27.95243,-21.83538 -5.97025,-3.39075 -11.84668,-6.98242 -13.05872,-7.98148 -4.38576,-3.61512 -19.45097,-28.28864 -28.48064,-46.64507 -8.55956,-17.40073 -14.07351,-33.36084 -15.95273,-46.17503 -2.30186,-15.69618 2.00109,-22.83657 13.81598,-22.92651 6.218,-0.0473 9.90021,1.4139 14.06966,5.58335 4.44524,4.44524 11.08202,14.49261 18.01852,27.27811 14.35033,26.4508 24.44203,39.29626 53.78737,68.46454 16.40553,16.30654 18.15721,18.23339 17.43252,19.17577 -0.4431,0.57621 -2.83665,3.20493 -5.31901,5.8416 -6.37149,6.76757 -11.17023,12.78798 -16.5079,20.71047 -5.86063,8.69874 -6.20053,9.07112 -6.66352,7.30059 -0.19342,-0.73961 -0.56845,-1.34475 -0.83341,-1.34475 -0.47738,0 -0.76304,1.05993 -1.53421,5.69281 -0.4995,3.00082 -1.01911,4.04366 -3.90432,7.83579 -2.01026,2.64218 -9.72764,16.78922 -15.82946,29.01766 -4.52207,9.06251 -8.03123,18.58371 -11.05677,29.99966 -2.12075,8.00201 -4.79503,15.5157 -8.49213,23.85958 l -1.42817,3.22321 z"
     id="path880"
     inkscape:connector-curvature="0"
     transform="scale(0.50057625)" /><path
     style="opacity:1;fill:#000000;fill-opacity:1;stroke:none;stroke-width:6.79456711;stroke-miterlimit:4;stroke-dasharray:none;stroke-opacity:1"
     d="m 332.10796,786.33086 c -0.26986,-0.4172 -0.49128,-27.99415 -0.49203,-61.2821 l -10e-4,-60.52354 -1.6215,-8.80706 c -0.89183,-4.84388 -2.32294,-10.77638 -3.18025,-13.18335 -0.85732,-2.40696 -1.61015,-4.84393 -1.67297,-5.41549 -0.0702,-0.63872 1.61779,-2.4862 4.3801,-4.79395 5.45854,-4.56028 6.02684,-5.64915 12.28054,-23.52975 5.7793,-16.52417 8.53228,-23.00529 15.52697,-36.55383 9.63704,-18.66668 18.24548,-32.6754 31.11618,-50.63604 11.85733,-16.54652 17.38297,-23.09066 32.12966,-38.05193 30.92684,-31.37685 36.47755,-37.46964 44.76611,-49.13793 4.67009,-6.57437 7.96111,-12.26216 15.81845,-27.33876 11.25411,-21.5943 15.80216,-27.7992 22.74041,-31.02477 2.76939,-1.28749 4.17554,-1.53512 8.78361,-1.54683 5.22232,-0.0133 5.59419,0.0733 7.72695,1.7987 3.60236,2.91431 5.8007,7.41836 6.13073,12.56086 0.56089,8.7399 -2.16952,18.2239 -11.59073,40.26016 -7.16405,16.75673 -9.60574,21.76562 -12.18596,24.99825 -1.02268,1.28126 -1.85941,2.58963 -1.85941,2.90749 0,0.31787 -1.46627,3.89124 -3.25837,7.94083 -1.7921,4.04959 -3.85157,9.34787 -4.57657,11.77396 -1.74247,5.83082 -4.51957,8.53154 -14.67107,14.26753 -34.00748,19.21555 -57.91053,39.20631 -74.36453,62.19304 -8.26382,11.5448 -17.25275,31.93273 -21.46508,48.68525 -4.07031,16.18768 -5.63316,29.58759 -6.26706,53.734 -0.53791,20.4898 -0.11783,31.10065 1.31207,33.14213 1.57249,2.24504 3.30988,3.09065 6.3992,3.11458 3.92471,0.0304 6.49186,-1.49657 7.18519,-4.27384 0.28968,-1.16036 0.68425,-13.30061 0.87682,-26.97833 0.45178,-32.08829 1.61037,-40.69606 8.15997,-60.62504 6.83143,-20.78649 20.97836,-44.14314 34.2446,-56.53801 11.54449,-10.7862 27.04621,-21.45725 57.43618,-39.53785 19.15728,-11.39767 40.90719,-26.14705 53.94689,-36.58328 24.38116,-19.51327 49.95079,-52.17744 63.31133,-80.87763 l 3.07233,-6.59979 0.56378,-66.30125 0.56376,-66.30126 3.10102,-6.34893 c 3.5435,-7.25483 8.80652,-13.42469 13.7438,-16.1119 3.20207,-1.74279 8.20581,-3.12645 13.15578,-3.63791 l 3.14603,-0.32507 0.004,16.00151 c 0.002,8.80084 0.28245,44.91098 0.62236,80.24476 l 0.61804,64.24324 -7.48451,29.23868 c -4.11648,16.08126 -9.11047,35.92507 -11.09776,44.09734 -3.92449,16.13863 -5.6323,20.90421 -9.56836,26.70031 -4.41156,6.49633 -9.13729,11.57305 -36.90392,39.645 -37.21535,37.62456 -69.0253,70.81718 -89.29441,93.17574 -18.50548,20.41314 -25.43933,37.37817 -26.69618,65.31749 -0.97821,21.74517 -0.27826,97.46893 0.96656,104.56791 l 0.36778,2.09735 H 412.1199 c -30.76347,0 -61.2408,0.20652 -67.7274,0.45893 -9.26035,0.36035 -11.89922,0.29599 -12.28448,-0.29962 z"
     id="path882"
     inkscape:connector-curvature="0"
     transform="scale(0.50057625)" /><path
     style="opacity:1;fill:#000000;fill-opacity:1;stroke:none;stroke-width:6.79456711;stroke-miterlimit:4;stroke-dasharray:none;stroke-opacity:1"
     d="m 269.74004,458.96045 c -5.37169,-2.25863 -15.85549,-11.87162 -29.05531,-26.64191 -8.98612,-10.05525 -14.95922,-17.79108 -19.91439,-25.79134 -4.80075,-7.75093 -12.23467,-21.39227 -14.9678,-27.4661 -2.14376,-4.76406 -2.28416,-5.46254 -2.77047,-13.78259 -0.6009,-10.28035 -1.73905,-74.50415 -1.7456,-98.50086 l -0.005,-16.62899 h 2.28821 c 10.71825,0 22.39291,10.59328 25.56239,23.19466 1.95804,7.78485 2.34032,15.13407 3.91093,75.18647 0.342,13.07644 0.90712,25.34594 1.25583,27.26555 1.40716,7.74639 11.37532,29.54154 27.69864,60.56246 7.72619,14.68287 11.14053,22.51813 10.09441,23.16467 -0.22617,0.13978 -1.28471,-0.11313 -2.3523,-0.56202 z"
     id="path884"
     inkscape:connector-curvature="0"
     transform="scale(0.50057625)" /><path
     style="opacity:1;fill:#000000;fill-opacity:1;stroke:none;stroke-width:6.79456711;stroke-miterlimit:4;stroke-dasharray:none;stroke-opacity:1"
     d="m 524.87317,459.98528 c 0,-0.27373 4.94004,-10.31854 10.97787,-22.3218 13.95268,-27.73809 25.53264,-53.03341 27.31891,-59.67557 1.70119,-6.32575 1.96913,-12.64767 2.4086,-56.82895 l 0.45896,-46.14172 3.09827,-6.15196 c 3.49188,-6.9335 5.67858,-9.62962 10.50766,-12.95554 4.49377,-3.09497 7.02552,-3.90586 12.29224,-3.93705 l 4.44162,-0.0263 -0.41351,37.6025 c -0.22743,20.68137 -0.67779,49.15242 -1.00079,63.26899 l -0.58729,25.6665 -1.70721,2.49793 c -0.93897,1.37386 -4.87672,7.75628 -8.75056,14.18316 -10.81893,17.94911 -18.70237,28.41925 -33.07174,43.92321 -12.22196,13.18699 -25.97303,24.25041 -25.97303,20.8966 z"
     id="path886"
     inkscape:connector-curvature="0"
     transform="scale(0.50057625)" /></g><g
   inkscape:groupmode="layer"
   id="layer8"
   inkscape:label="tree two"
   style="display:none"><path
     style="fill:#000000;stroke-width:0.55012417"
     d="m 166.17229,394.00906 c -0.66261,-1.18086 -0.79688,-14.94063 -0.32934,-33.74992 9.88467,-70.44582 -73.530367,-81.7182 -83.003175,-136.88859 -0.334648,-2.00657 -1.415001,-7.18439 -2.400787,-11.50624 -0.985785,-4.32186 -2.544486,-11.30871 -3.463778,-15.52635 l -1.67144,-7.66842 V 150.19282 111.7157 l 1.135157,-0.63241 c 1.365077,-0.7605 4.253551,-0.27922 6.964393,1.1604 2.658013,1.41158 5.755746,5.11134 7.457559,8.90691 l 1.414328,3.1544 0.425766,32.2705 0.425766,32.27049 3.465034,7.29975 c 4.790537,10.0922 8.811147,16.20393 16.155487,24.55799 46.98266,30.31452 39.95669,15.26355 30.50516,1.11407 -7.57415,-15.74947 -10.09243,-28.61933 -6.36023,-32.50443 2.46425,-2.5652 8.53927,-2.74017 11.665,-0.33596 2.50633,1.92778 11.13163,21.66461 14.37457,27.89006 37.23392,44.47784 25.08816,51.47649 20.96348,63.22548 -7.58381,21.6022 -6.72445,32.91215 -4.13633,19.20252 5.06954,-26.85414 30.08599,-55.77889 49.98722,-77.889 4.90404,-6.28612 6.5999,-9.07913 11.89333,-19.58784 5.79217,-11.49885 8.93677,-14.57426 14.94099,-14.61214 2.67951,-0.0169 3.28649,0.1922 4.72651,1.62835 4.01291,4.00212 3.34775,10.61143 -2.40243,23.87178 -1.27173,2.93269 -3.09917,7.15423 -4.06097,9.38121 -0.96181,2.22697 -2.20213,4.47615 -2.75626,4.99818 -0.55414,0.52204 -1.00753,1.15164 -1.00753,1.39912 -7.62607,14.32896 -11.69788,35.51115 34.56992,-8.84034 l 20.69705,-29.67001 0.26959,-33.12863 0.2696,-33.12861 1.7767,-3.75557 c 2.64978,-5.60105 6.89824,-8.81281 12.28798,-9.28948 l 2.74169,-0.24248 0.33676,40.33367 0.33677,40.33365 -2.36354,9.26113 c -1.29996,5.09362 -3.32977,13.04976 -4.5107,17.68032 -1.18092,4.63056 -2.63114,10.5661 -3.22271,13.19009 -1.88178,8.34691 -3.73804,11.02433 -16.27958,23.48125 -41.84932,33.7827 -64.3832,66.957 -64.41721,104.4906 -0.009,12.50252 0.16006,25.38389 0.37524,28.62529 l 0.39124,5.89344 -27.08114,-0.16166 c -14.89464,-0.089 -30.19542,0.0416 -34.00176,0.29 -3.80633,0.24842 -6.99383,0.32116 -7.08333,0.16166 z M 133.06513,228.92044 c -3.86339,-2.29687 -16.96945,-9.98365 -21.10494,-16.27127 -4.31439,-6.55964 -10.08309,-13.95008 -10.18537,-25.48079 -0.0128,-1.43743 -0.72212,-13.61526 -0.94529,-32.13329 l -0.36021,-29.88817 h 1.99267 c 3.92891,0 8.34337,3.06588 10.86577,7.54637 2.36501,4.20092 2.84876,9.01249 3.19142,31.74324 0.1745,11.57641 0.56521,22.1846 0.86822,23.57377 1.05481,4.83571 5.05558,13.57924 13.3828,29.24756 0.74684,3.57405 10.97035,16.77423 2.29493,11.66258 z m 131.05192,-2.18182 c 5.77563,-10.52009 15.86142,-31.99892 17.61848,-37.52056 1.04293,-3.2774 1.26528,-8.25188 1.34663,-30.12496 l 0.0794,-21.33991 1.75458,-3.71061 c 1.41476,-2.99195 2.33805,-4.12892 4.76714,-5.87044 2.59748,-1.86224 3.42473,-2.16145 6.00393,-2.17157 l 2.99138,-0.0117 -0.13456,15.15457 c -0.074,8.335 -0.28976,22.60556 -0.47945,31.71232 l -0.34489,16.55777 -7.59835,15.3277 c -7.84357,14.33149 -35.09377,40.03926 -26.00429,21.99739 z m -65.65598,-7.20798 c -1.6376,-1.194 -2.39478,-4.00868 -1.79976,-6.69019 0.57375,-2.58563 2.17836,-5.01657 3.48815,-5.28447 1.98709,-0.40644 4.62065,3.54042 4.62065,6.92488 0,4.73767 -3.21157,7.30822 -6.30904,5.04978 z M 125.17884,113.85998 c -1.64399,-0.99121 -4.04392,-3.44096 -4.04392,-4.12786 0,-0.33632 1.01911,-1.29937 2.26469,-2.14011 3.10907,-2.09854 6.94208,-2.14654 8.75553,-0.10963 2.06189,2.31597 2.06308,3.46207 0.005,5.09593 -2.06369,1.63855 -5.37998,2.24734 -6.98159,1.28167 z m 142.19326,-1.06653 c -2.66168,-1.6893 -2.76044,-2.67996 -0.48371,-4.8519 2.69084,-2.567 5.91747,-2.65837 8.15166,-0.23084 1.85385,2.01428 1.61312,3.81081 -0.70137,5.23403 -2.09975,1.29117 -4.78574,1.23284 -6.96658,-0.15129 z M 251.16113,69.40167 c -0.43817,-0.549594 -0.30264,-1.307228 0.52714,-2.946721 1.79957,-3.555588 4.20639,-5.857936 6.10229,-5.837384 1.88871,0.02048 3.53376,1.118179 3.53376,2.357983 0,1.152042 -4.4854,5.37961 -6.75512,6.366811 -2.26599,0.98558 -2.66408,0.992507 -3.40807,0.05931 z m -108.87492,-2.4806 c -3.36582,-3.762408 -3.60721,-4.37812 -2.26442,-5.775922 1.54275,-1.605952 2.95186,-1.061748 6.05067,2.336787 2.59996,2.851447 3.07978,4.211305 1.91412,5.424725 -1.3474,1.4026 -3.2677,0.733705 -5.70037,-1.98559 z"
     id="path878"
     inkscape:connector-curvature="0"
     sodipodi:nodetypes="ccccssscccccccccccscsscsssccsccsccccsscccscccsccccccsscscssccccccscccsccccccccccccssscsccssscscsscsscc" /></g><g
   inkscape:groupmode="layer"
   id="layer9"
   inkscape:label="img"><path
     style="fill:#000000;stroke-width:0.41428331"
     d="m 202.00674,351.93104 c -0.13453,-0.53595 -0.15949,-18.85246 -0.0556,-40.70334 0.15871,-33.34794 0.29331,-40.39427 0.83804,-43.87172 0.35693,-2.27854 0.65799,-5.27396 0.66903,-6.65647 0.0113,-1.38251 0.40255,-6.65249 0.87004,-11.71108 0.66793,-7.22732 1.06308,-9.76357 1.84478,-11.84035 0.54713,-1.4536 1.21369,-3.92035 1.48122,-5.48167 0.26754,-1.56133 0.76564,-3.38715 1.10688,-4.05737 0.34123,-0.67024 1.06659,-2.5304 1.61191,-4.13369 0.54532,-1.60329 1.4689,-3.63651 2.05241,-4.51824 0.5835,-0.88175 1.30333,-2.29021 1.59959,-3.12992 0.85642,-2.42734 7.12047,-10.77553 10.10392,-13.46561 0.53474,-0.48216 2.3665,-2.18163 4.07058,-3.77661 1.70409,-1.595 3.41051,-3.06355 3.79202,-3.26344 0.38153,-0.1999 1.5326,-1.14776 2.55795,-2.10635 1.02535,-0.95859 2.83268,-2.43456 4.01629,-3.27995 1.18361,-0.84537 3.32753,-2.66363 4.76427,-4.04055 1.43672,-1.37693 3.17152,-2.79499 3.85509,-3.15125 0.68356,-0.35628 2.48766,-1.863 4.00911,-3.34829 1.52145,-1.48528 3.10608,-2.88028 3.52141,-3.10001 0.41534,-0.21973 1.23867,-0.84758 1.82964,-1.39521 0.59098,-0.54764 1.98919,-1.34619 3.10712,-1.77455 2.13072,-0.81642 2.14391,-0.84591 1.59552,-3.56728 -0.23274,-1.15502 0.0378,-1.57767 2.99059,-4.67145 2.24689,-2.35422 3.88427,-4.58267 5.31791,-7.23765 2.36924,-4.38766 3.34959,-6.05313 4.64521,-7.89158 0.50417,-0.7154 1.47875,-2.3591 2.16573,-3.65267 0.68696,-1.29358 1.46045,-2.48261 1.71884,-2.64231 0.2584,-0.15969 0.89778,-1.24524 1.42086,-2.4123 0.52308,-1.16708 1.2946,-2.43152 1.71446,-2.80987 0.41987,-0.37834 1.15237,-0.93451 2.17772,-2.19832 1.3346,-1.64498 4.38428,-5.62525 5.50964,-5.94958 0.99371,-0.28638 1.54903,-0.69226 1.83901,-1.3287 0.82645,-1.95078 4.47944,-4.20251 10.30547,-0.43547 9.71019,6.31157 1.65669,25.58565 -4.65348,42.72641 -10.90613,24.27676 -18.85067,26.89644 -23.73248,35.98927 l -3.88815,6.99616 -5.84568,9.97775 c -3.80115,12.3327 8.44815,-15.95753 15.98957,-22.376 11.85401,-7.84046 27.14656,-44.7113 29.22294,-57.72483 -0.0178,-2.44076 0.68876,-4.87194 -0.0942,-9.30702 -0.90733,-2.73625 -2.62551,-5.17181 -3.23553,-5.48568 -0.48093,-0.24745 -1.35307,-0.96008 -1.9381,-1.58364 -1.31761,-1.40433 -4.26029,-2.79184 -8.24151,-2.43451 -2.47159,0.2989 -4.48858,1.45161 -5.42115,2.44994 -1.44165,1.54329 -3.97884,2.24085 -5.21189,1.43293 -0.74198,-0.48616 -0.96125,-1.12868 -1.16321,-3.40848 -0.13688,-1.54515 -0.75823,-4.86007 -1.38078,-7.36648 l -1.13192,-4.55713 V 93.564157 73.471417 l 1.73712,-3.566652 c 1.75105,-3.595254 4.01219,-6.048231 7.0224,-7.618197 2.57562,-1.34329 6.06836,-0.482487 8.01896,1.976307 0.98504,1.241693 1.0357,1.569786 1.0357,6.707037 0,2.97081 0.15082,5.634514 0.33517,5.919343 0.18434,0.284818 1.07615,0.517855 1.98181,0.517855 1.43812,0 1.75343,-0.180973 2.48971,-1.428868 0.83101,-1.408445 1.72681,-1.829143 6.2415,-2.931217 1.58541,-0.387024 5.50794,0.527739 6.37597,1.486907 0.66935,0.739619 0.69279,1.115347 0.25075,4.01951 -0.59861,3.932835 -0.62696,9.342163 -0.0592,11.284898 0.60183,2.059137 1.08937,5.774967 1.8477,14.0829 0.37754,4.13593 1.09232,8.94475 1.66414,11.19573 0.5513,2.17019 1.20117,6.17838 1.44413,8.90709 0.5477,6.15096 1.06453,9.22122 2.09046,12.41841 0.43868,1.36713 1.08966,4.88383 1.44661,7.8149 0.35696,2.93106 0.93779,6.10033 1.29074,7.04282 1.51884,4.05574 1.85624,6.10819 2.08654,12.69212 0.27956,7.99316 -0.21404,12.8417 -1.76475,17.33449 -0.59974,1.73764 -1.35664,4.93132 -1.682,7.09708 -0.32535,2.16576 -1.13322,5.52443 -1.79528,7.46369 -0.78457,2.29817 -1.29767,4.82431 -1.47352,7.2545 -0.14839,2.05072 -0.71259,5.77926 -1.25378,8.28568 -1.18148,5.47186 -1.66555,9.62859 -2.25108,19.33015 -0.24284,4.02378 -0.72644,8.40483 -1.07464,9.73566 -0.3482,1.33084 -1.00454,4.55164 -1.45851,7.15731 -1.12632,6.46481 -0.69389,5.96265 -20.36772,23.65076 -5.18935,4.66556 -10.62207,9.50821 -12.07274,10.76142 -4.40246,3.80322 -11.18684,10.0655 -11.76346,10.85819 -0.29865,0.41056 -1.04436,1.0103 -1.65712,1.33276 -0.61279,0.32246 -3.16484,2.55952 -5.67125,4.97126 -5.8462,5.62536 -4.98656,4.84091 -16.57134,15.12188 -5.46854,4.85309 -10.22941,9.12893 -10.5797,9.50187 -0.35029,0.37295 -1.65763,1.61021 -2.90521,2.7495 -1.24757,1.13927 -4.39562,4.02889 -6.99566,6.42138 -2.60004,2.39249 -5.54929,5.09568 -6.55388,6.00711 -2.65726,2.41083 -7.702,7.16741 -11.40574,10.75422 -2.74685,2.66015 -3.43806,3.12427 -4.6528,3.12427 -1.15237,0 -1.4737,-0.18736 -1.67124,-0.97445 z m 63.25901,-117.82881 c -190.24235,136.10306 -95.12118,68.05153 0,0 z"
     id="path4560"
     inkscape:connector-curvature="0"
     sodipodi:nodetypes="ccccccccsccccsscccccscccccccccsccccccccccscccssccccsccscscccscccccccccccscccscssccsccsccscccc" /><path
     style="fill:#000000;stroke-width:0.41428334"
     d="m 197.10116,351.93104 c 0.13453,-0.53595 0.15949,-18.85246 0.0556,-40.70334 -0.15871,-33.34794 -0.29331,-40.39427 -0.83804,-43.87172 -0.35693,-2.27855 -0.65799,-5.27396 -0.66903,-6.65647 -0.0113,-1.38251 -0.40255,-6.65249 -0.87004,-11.71108 -0.66793,-7.22732 -1.06308,-9.76358 -1.84478,-11.84035 -0.54713,-1.4536 -1.21369,-3.92035 -1.48122,-5.48167 -0.26754,-1.56133 -0.76564,-3.38716 -1.10688,-4.05737 -0.34123,-0.67024 -1.06659,-2.53041 -1.61191,-4.1337 -0.54532,-1.60328 -1.4689,-3.6365 -2.05241,-4.51823 -0.5835,-0.88175 -1.30333,-2.29021 -1.59959,-3.12993 -0.85642,-2.42733 -7.12047,-10.77553 -10.10392,-13.4656 -0.53474,-0.48216 -2.3665,-2.18163 -4.07058,-3.77661 -1.70409,-1.59501 -3.41051,-3.06356 -3.79202,-3.26345 -0.38153,-0.1999 -1.5326,-1.14775 -2.55795,-2.10635 -1.02535,-0.95858 -2.83268,-2.43455 -4.01629,-3.27995 -1.18361,-0.84536 -3.32753,-2.66362 -4.76427,-4.04054 -1.43672,-1.37693 -3.17152,-2.795 -3.85509,-3.15126 -0.68356,-0.35628 -2.48766,-1.863 -4.00911,-3.34829 -1.52145,-1.48528 -3.10608,-2.88028 -3.52141,-3.1 -0.41534,-0.21974 -1.23867,-0.84758 -1.82964,-1.39522 -0.59098,-0.54764 -1.98919,-1.34618 -3.10712,-1.77454 -2.13072,-0.81642 -2.14391,-0.84592 -1.59552,-3.56728 0.23274,-1.15502 -0.0378,-1.57768 -2.99059,-4.67146 -2.24689,-2.35422 -3.88427,-4.58267 -5.31791,-7.23764 -2.36924,-4.38766 -3.34959,-6.05314 -4.64521,-7.89158 -0.50417,-0.71541 -1.47875,-2.3591 -2.16573,-3.65267 -0.68696,-1.29359 -1.46045,-2.48262 -1.71884,-2.64231 -0.2584,-0.15969 -0.89778,-1.24524 -1.42086,-2.41231 -0.52308,-1.16708 -1.2946,-2.43152 -1.71446,-2.80987 -0.41987,-0.37834 -1.15237,-0.93451 -2.17772,-2.19832 -1.3346,-1.64498 -4.38428,-5.62525 -5.50964,-5.94958 -0.99371,-0.28638 -1.54903,-0.69226 -1.83901,-1.3287 -0.82645,-1.95078 -4.47944,-4.20251 -10.30547,-0.43547 -9.71019,6.31157 -1.65669,25.58566 4.65348,42.72641 10.90613,24.27677 18.85067,26.89645 23.73248,35.98927 l 3.88815,6.99617 5.84568,9.97775 c 3.80115,12.3327 -8.44815,-15.95754 -15.98957,-22.37601 -11.85401,-7.84046 -27.14656,-44.7113 -29.22294,-57.72483 0.0178,-2.44076 -0.68876,-4.87193 0.0942,-9.30702 0.90733,-2.73625 2.62551,-5.1718 3.23553,-5.48568 0.48093,-0.24745 1.35307,-0.96008 1.9381,-1.58363 1.31761,-1.40433 4.26029,-2.79185 8.24151,-2.43452 2.47159,0.2989 4.48858,1.45162 5.42115,2.44994 1.44165,1.5433 3.97884,2.24085 5.21189,1.43293 0.74198,-0.48616 0.96125,-1.12868 1.16321,-3.40847 0.13688,-1.54515 0.75823,-4.86007 1.38078,-7.36648 l 1.13192,-4.55714 V 93.56415 73.47141 l -1.73712,-3.566653 c -1.75105,-3.595253 -4.01219,-6.048231 -7.0224,-7.618197 -2.57562,-1.34329 -6.06836,-0.482486 -8.01896,1.976308 -0.98504,1.241692 -1.0357,1.569786 -1.0357,6.707036 0,2.97081 -0.15082,5.634515 -0.33517,5.919344 -0.18434,0.284818 -1.07615,0.517855 -1.98181,0.517855 -1.43812,0 -1.75343,-0.180974 -2.48971,-1.428869 -0.83101,-1.408444 -1.72681,-1.829142 -6.2415,-2.931216 -1.58541,-0.387024 -5.50794,0.527739 -6.37597,1.486907 -0.66935,0.739619 -0.69279,1.115347 -0.25075,4.019509 0.59861,3.932836 0.62696,9.342164 0.0592,11.284899 -0.60183,2.059137 -1.08937,5.774967 -1.8477,14.082897 -0.37754,4.13593 -1.09232,8.94475 -1.66414,11.19573 -0.5513,2.17019 -1.20117,6.17838 -1.44413,8.90709 -0.5477,6.15096 -1.06453,9.22122 -2.09046,12.41841 -0.43868,1.36713 -1.08966,4.88384 -1.44661,7.81491 -0.35696,2.93105 -0.93779,6.10032 -1.29074,7.04281 -1.51884,4.05575 -1.85624,6.10819 -2.08654,12.69212 -0.27956,7.99316 0.21404,12.84171 1.76475,17.33449 0.59974,1.73764 1.35664,4.93133 1.682,7.09708 0.32535,2.16577 1.13322,5.52443 1.79528,7.4637 0.78457,2.29817 1.29767,4.8243 1.47352,7.2545 0.14839,2.05072 0.71259,5.77925 1.25378,8.28567 1.18148,5.47186 1.66555,9.62859 2.25108,19.33016 0.24284,4.02377 0.72644,8.40483 1.07464,9.73565 0.3482,1.33085 1.00454,4.55164 1.45851,7.15732 1.12632,6.46481 0.69389,5.96265 20.36772,23.65076 5.18935,4.66556 10.62207,9.50821 12.07274,10.76142 4.40246,3.80322 11.18684,10.0655 11.76346,10.85819 0.29865,0.41056 1.04436,1.0103 1.65712,1.33276 0.61279,0.32246 3.16484,2.55952 5.67125,4.97126 5.8462,5.62536 4.98656,4.84091 16.57134,15.12188 5.46854,4.85309 10.22941,9.12893 10.5797,9.50187 0.35029,0.37295 1.65763,1.61021 2.90521,2.7495 1.24757,1.13927 4.39562,4.02889 6.99566,6.42138 2.60004,2.39249 5.54929,5.09568 6.55388,6.00711 2.65726,2.41083 7.702,7.16741 11.40574,10.75422 2.74685,2.66015 3.43806,3.12427 4.6528,3.12427 1.15237,0 1.4737,-0.18736 1.67124,-0.97445 z M 133.84215,234.10223 c 190.24236,136.10306 95.12119,68.05153 0,0 z"
     id="path4560-9"
     inkscape:connector-curvature="0"
     sodipodi:nodetypes="ccccccccsccccsscccccscccccccccsccccccccccscccssccccsccscscccscccccccccccscccscssccsccsccscccc" /></g></svg>