<?xml version="1.0" encoding="UTF-8" standalone="no"?>
<!-- Created with Inkscape (http://www.inkscape.org/) -->

<svg
   xmlns:dc="http://purl.org/dc/elements/1.1/"
   xmlns:cc="http://creativecommons.org/ns#"
   xmlns:rdf="http://www.w3.org/1999/02/22-rdf-syntax-ns#"
   xmlns:svg="http://www.w3.org/2000/svg"
   xmlns="http://www.w3.org/2000/svg"
   xmlns:sodipodi="http://sodipodi.sourceforge.net/DTD/sodipodi-0.dtd"
   xmlns:inkscape="http://www.inkscape.org/namespaces/inkscape"
   width="64mm"
   height="64mm"
   viewBox="0 0 64 64"
   version="1.1"
   id="svg8"
   inkscape:version="0.92.4 (5da689c313, 2019-01-14)"
   sodipodi:docname="insight-add-hollow.svg">
  <defs
     id="defs2">
    <inkscape:perspective
       sodipodi:type="inkscape:persp3d"
       inkscape:vp_x="66.249205 : 55.210183 : 1"
       inkscape:vp_y="81.884987 : -4563.3647 : 0"
       inkscape:vp_z="-8.2642775 : 67.069501 : 1"
       inkscape:persp3d-origin="28.119024 : 109.81574 : 1"
       id="perspective71" />
  </defs>
  <sodipodi:namedview
     id="base"
     pagecolor="#000000"
     bordercolor="#666666"
     borderopacity="1.0"
     inkscape:pageopacity="1"
     inkscape:pageshadow="2"
     inkscape:zoom="2.0000001"
     inkscape:cx="115.78245"
     inkscape:cy="90.005664"
     inkscape:document-units="mm"
     inkscape:current-layer="layer1"
     showgrid="true"
     inkscape:window-width="1920"
     inkscape:window-height="1001"
     inkscape:window-x="-9"
     inkscape:window-y="-9"
     inkscape:window-maximized="1"
     inkscape:pagecheckerboard="true">
    <inkscape:grid
       type="xygrid"
       id="grid22" />
  </sodipodi:namedview>
  <metadata
     id="metadata5">
    <rdf:RDF>
      <cc:Work
         rdf:about="">
        <dc:format>image/svg+xml</dc:format>
        <dc:type
           rdf:resource="http://purl.org/dc/dcmitype/StillImage" />
        <dc:title />
      </cc:Work>
    </rdf:RDF>
  </metadata>
  <g
     inkscape:label="frame"
     inkscape:groupmode="layer"
     id="layer1"
     transform="translate(0,-233)"
     style="display:inline;opacity:1">
    <path
       style="fill:#fffaff;fill-opacity:1;stroke-width:0.37101042"
       d="m 26.089169,296.156 c -6.197047,-1.21554 -11.777741,-4.23188 -16.3580635,-8.84159 -6.1478821,-6.18729 -9.26588685,-13.68808 -9.26588685,-22.2903 0,-8.66509 3.18118665,-16.23621 9.44281705,-22.47349 6.0606423,-6.0371 13.4492933,-9.06242 22.1329593,-9.06242 8.476596,0 15.752325,2.89461 21.779036,8.66474 4.043563,3.87137 6.588819,7.92823 8.463086,13.48921 1.415887,4.20102 1.672517,11.85955 0.554331,16.54295 -2.864604,11.99798 -12.397033,21.35417 -24.235268,23.78716 -3.072558,0.6315 -9.73169,0.72924 -12.513011,0.18378 z m 14.445179,-4.07853 c 9.44658,-3.03768 16.656444,-10.79188 19.117442,-20.56073 0.872574,-3.46356 0.872574,-9.52166 0,-12.98533 -2.12103,-8.41927 -7.95044,-15.56566 -15.592844,-19.11548 -4.091201,-1.90033 -7.366148,-2.62799 -11.858933,-2.63493 -5.964673,-0.01 -10.811005,1.38804 -15.487236,4.46538 -5.325931,3.50493 -9.5479538,8.95217 -11.6717809,15.059 -0.9557236,2.74805 -1.0325961,3.39433 -1.0369906,8.71873 -0.00455,5.49516 0.046177,5.89396 1.144944,8.97615 3.2182959,9.02919 10.9270715,16.28522 19.6174535,18.4654 4.700811,1.17931 11.406911,1.01419 15.767945,-0.38819 z m -9.555837,-10.60439 c -0.780122,-0.31463 -0.114727,-0.86658 1.044492,-0.86658 1.171198,0 1.465887,0.51888 0.504296,0.88788 -0.657398,0.25222 -0.877764,0.24918 -1.548768,-0.0211 z m -1.017965,-1.60854 c -0.142389,-0.23044 0.552666,-0.37095 1.833152,-0.37095 1.134354,0 2.062458,0.1669 2.062458,0.37095 0,0.20394 -0.824921,0.37095 -1.833153,0.37095 -1.008239,0 -1.936343,-0.16691 -2.062457,-0.37095 z m -0.524671,-1.26856 c 0.271076,-0.27096 4.774857,-0.35572 5.035967,-0.0944 0.137511,0.13761 -0.974333,0.24966 -2.470735,0.24966 -1.49641,0 -2.650762,-0.0701 -2.565232,-0.15518 z m -0.155541,-1.20487 c -0.135988,-0.13596 -0.247328,-0.98175 -0.247328,-1.87941 0,-2.0172 -0.372666,-2.74959 -2.619768,-5.14853 -2.856204,-3.04917 -3.315978,-6.52892 -1.314009,-9.94508 3.172287,-5.4131 11.105795,-5.03125 14.031668,0.67526 1.664935,3.24723 0.799171,7.05971 -2.279822,10.03947 -1.549233,1.49927 -2.247141,3.14254 -2.250841,5.29989 l -0.0021,1.20572 h -2.535245 c -1.394384,0 -2.646545,-0.11112 -2.78258,-0.24762 z M 16.604139,265.49446 c 0.536099,-0.53155 3.494422,-1.19036 3.71831,-0.8281 0.284118,0.45974 -0.310707,0.70971 -2.296251,0.96522 -1.185992,0.15283 -1.667452,0.10598 -1.422059,-0.13762 z m 28.082148,-0.0457 c -0.745987,-0.21005 -1.161947,-0.7567 -0.624039,-0.82003 0.760607,-0.0894 3.521261,0.54266 3.521261,0.80638 0,0.37093 -1.602585,0.37803 -2.897222,0.01 z m -2.109973,-6.7316 c -0.117211,-0.18989 0.453906,-0.68524 1.269211,-1.10116 1.576256,-0.80419 2.253946,-0.94222 2.253946,-0.45923 0,0.48206 -3.289212,1.93884 -3.523157,1.56035 z m -23.467842,-0.64985 c -1.099061,-0.54701 -1.608559,-1.20749 -0.931422,-1.20749 0.575993,0 3.433031,1.31174 3.43435,1.57683 0.0022,0.45314 -1.209678,0.27401 -2.502928,-0.36943 z m 5.246627,-5.28292 c -1.102304,-1.66568 -0.889157,-2.57228 0.26174,-1.11319 1.193837,1.51368 1.485479,2.15364 1.092125,2.39676 -0.196892,0.12168 -0.806119,-0.4557 -1.353835,-1.28357 z m 13.850946,1.25247 c -0.274934,-0.27502 1.554425,-3.11321 2.006573,-3.11321 0.529475,0 0.372768,0.49475 -0.619193,1.95441 -1.003072,1.4762 -1.039544,1.50665 -1.38738,1.1588 z m -6.575973,-3.66973 c 0,-1.12231 0.166957,-2.04053 0.370994,-2.04053 0.204041,0 0.37099,0.91822 0.37099,2.04053 0,1.12233 -0.166955,2.04053 -0.37099,2.04053 -0.204042,0 -0.370994,-0.9182 -0.370994,-2.04053 z"
       id="path859"
       inkscape:connector-curvature="0"
       sodipodi:nodetypes="ccscscccccccccscccsccccsccccssscccsccsccscccscccccccccsccccscccscccccccccsccsssss" />
  </g>
  <g
     inkscape:groupmode="layer"
     id="layer2"
     inkscape:label="LOGO"
     style="display:inline" />
  <g
     inkscape:groupmode="layer"
     id="layer3"
     inkscape:label="output"
     style="display:inline" />
</svg>
