<?xml version="1.0" encoding="UTF-8" standalone="no"?>
<!-- Created with Inkscape (http://www.inkscape.org/) -->

<svg
   xmlns:dc="http://purl.org/dc/elements/1.1/"
   xmlns:cc="http://creativecommons.org/ns#"
   xmlns:rdf="http://www.w3.org/1999/02/22-rdf-syntax-ns#"
   xmlns:svg="http://www.w3.org/2000/svg"
   xmlns="http://www.w3.org/2000/svg"
   xmlns:sodipodi="http://sodipodi.sourceforge.net/DTD/sodipodi-0.dtd"
   xmlns:inkscape="http://www.inkscape.org/namespaces/inkscape"
   width="64mm"
   height="64mm"
   viewBox="0 0 64 64"
   version="1.1"
   id="svg8"
   inkscape:version="0.92.4 (5da689c313, 2019-01-14)"
   sodipodi:docname="insight-update-hollow.svg">
  <defs
     id="defs2">
    <inkscape:perspective
       sodipodi:type="inkscape:persp3d"
       inkscape:vp_x="66.249205 : 55.210183 : 1"
       inkscape:vp_y="81.884987 : -4563.3647 : 0"
       inkscape:vp_z="-8.2642775 : 67.069501 : 1"
       inkscape:persp3d-origin="28.119024 : 109.81574 : 1"
       id="perspective71" />
  </defs>
  <sodipodi:namedview
     id="base"
     pagecolor="#000000"
     bordercolor="#666666"
     borderopacity="1.0"
     inkscape:pageopacity="1"
     inkscape:pageshadow="2"
     inkscape:zoom="2.0000001"
     inkscape:cx="115.05329"
     inkscape:cy="105.60868"
     inkscape:document-units="mm"
     inkscape:current-layer="layer1"
     showgrid="true"
     inkscape:window-width="1920"
     inkscape:window-height="1001"
     inkscape:window-x="-9"
     inkscape:window-y="-9"
     inkscape:window-maximized="1"
     inkscape:pagecheckerboard="true">
    <inkscape:grid
       type="xygrid"
       id="grid22" />
  </sodipodi:namedview>
  <metadata
     id="metadata5">
    <rdf:RDF>
      <cc:Work
         rdf:about="">
        <dc:format>image/svg+xml</dc:format>
        <dc:type
           rdf:resource="http://purl.org/dc/dcmitype/StillImage" />
        <dc:title></dc:title>
      </cc:Work>
    </rdf:RDF>
  </metadata>
  <g
     inkscape:label="frame"
     inkscape:groupmode="layer"
     id="layer1"
     transform="translate(0,-233)"
     style="display:inline;opacity:1">
    <path
       style="display:inline;fill:#fffaff;fill-opacity:1;stroke-width:0.37101042"
       d="m 26.089169,296.156 c -6.197047,-1.21554 -11.777741,-4.23188 -16.3580635,-8.84159 -6.1478821,-6.18729 -9.26588685,-13.68808 -9.26588685,-22.2903 0,-8.66509 3.18118665,-16.23621 9.44281705,-22.47349 6.0606423,-6.0371 13.4492933,-9.06242 22.1329593,-9.06242 8.476596,0 15.752325,2.89461 21.779036,8.66474 4.043563,3.87137 6.588819,7.92823 8.463086,13.48921 1.415887,4.20102 1.672517,11.85955 0.554331,16.54295 -2.864604,11.99798 -12.397033,21.35417 -24.235268,23.78716 -3.072558,0.6315 -9.73169,0.72924 -12.513011,0.18378 z m 14.445179,-4.07853 c 9.44658,-3.03768 16.656444,-10.79188 19.117442,-20.56073 0.872574,-3.46356 0.872574,-9.52166 0,-12.98533 -2.12103,-8.41927 -7.95044,-15.56566 -15.592844,-19.11548 -4.091201,-1.90033 -7.366148,-2.62799 -11.858933,-2.63493 -5.964673,-0.01 -10.811005,1.38804 -15.487236,4.46538 -5.325931,3.50493 -9.5479538,8.95217 -11.6717809,15.059 -0.9557236,2.74805 -1.0325961,3.39433 -1.0369906,8.71873 -0.00455,5.49516 0.046177,5.89396 1.144944,8.97615 3.2182959,9.02919 10.9270715,16.28522 19.6174535,18.4654 4.700811,1.17931 11.406911,1.01419 15.767945,-0.38819 z m -9.555837,-10.60439 c -0.780122,-0.31463 -0.114727,-0.86658 1.044492,-0.86658 1.171198,0 1.465887,0.51888 0.504296,0.88788 -0.657398,0.25222 -0.877764,0.24918 -1.548768,-0.0211 z m -1.017965,-1.60854 c -0.142389,-0.23044 0.552666,-0.37095 1.833152,-0.37095 1.134354,0 2.062458,0.1669 2.062458,0.37095 0,0.20394 -0.824921,0.37095 -1.833153,0.37095 -1.008239,0 -1.936343,-0.16691 -2.062457,-0.37095 z m -0.524671,-1.26856 c 0.271076,-0.27096 4.774857,-0.35572 5.035967,-0.0944 0.137511,0.13761 -0.974333,0.24966 -2.470735,0.24966 -1.49641,0 -2.650762,-0.0701 -2.565232,-0.15518 z"
       id="path859"
       inkscape:connector-curvature="0"
       sodipodi:nodetypes="ccscscccccccccscccsccccsccccssscccscc" />
    <path
       style="display:inline;opacity:1;fill:#ffffff;fill-opacity:1;stroke:#ffffff;stroke-width:1.64293754;stroke-linecap:round;stroke-linejoin:round;stroke-miterlimit:4;stroke-dasharray:none;stroke-opacity:1;paint-order:normal"
       d="m 115.48431,168.44729 c -2.46596,-0.17524 -4.29074,-0.46691 -4.67014,-0.74647 -0.49773,-0.36674 -0.8257,-2.67613 -0.98321,-6.92339 -0.16945,-4.56897 -0.42786,-6.18097 -1.32701,-8.27816 -1.14268,-2.66523 -2.68234,-4.82226 -6.30427,-8.83222 -3.830569,-4.24094 -5.24096,-5.94102 -6.545609,-7.89003 -2.298318,-3.43347 -3.911868,-7.15219 -4.774197,-11.00301 -0.354977,-1.58519 -0.408758,-2.29904 -0.404122,-5.36406 0.0045,-2.99943 0.06621,-3.81699 0.406699,-5.39169 1.466408,-6.78181 5.326107,-13.50507 10.155339,-17.689719 3.74488,-3.245029 8.21464,-5.441708 13.29747,-6.535084 2.57654,-0.554243 7.50467,-0.677164 10.30506,-0.257036 10.75133,1.612964 19.76915,8.612598 24.05905,18.674639 1.5418,3.61631 2.19864,6.90141 2.18613,10.93372 -0.0143,4.59877 -0.95597,8.62605 -3.0382,12.99309 -1.98296,4.15884 -4.05507,7.0641 -7.92179,11.10696 -2.95403,3.08859 -3.91621,4.22959 -5.09378,6.04038 -1.22946,1.89058 -1.87163,3.20284 -2.62123,5.3564 -1.07861,3.09875 -1.3731,5.05212 -1.47783,9.8022 l -0.0926,4.19845 -6.56143,-0.0252 c -3.6088,-0.0139 -7.47626,-0.0903 -8.59437,-0.16972 z m 10.25304,-35.7941 c 8.54998,-10.90684 7.95312,-10.07107 7.95412,-11.13788 0.002,-2.11915 -2.45943,-5.09885 -6.71668,-8.13101 -3.40673,-2.4264 -4.63802,-3.77176 -5.45244,-5.9576 -0.47007,-1.26166 -0.5201,-3.65989 -0.10546,-5.05612 0.15165,-0.51067 0.2453,-1.01976 0.20811,-1.13133 -0.0746,-0.22384 -1.85163,1.98141 -8.73056,10.83446 -2.53082,3.25712 -4.65611,6.07331 -4.72287,6.25821 -0.19007,0.52643 0.33697,2.04597 1.14319,3.29601 0.41103,0.63729 2.22954,2.66218 4.12032,4.58792 1.86151,1.89593 3.68474,3.90418 4.05162,4.46279 1.84981,2.81646 2.58668,5.78097 2.0544,8.26513 -0.0937,0.43752 -0.21606,1.07392 -0.27179,1.41422 -0.12609,0.76979 -0.8689,1.65464 6.46804,-7.7048 z"
       id="path5715"
       inkscape:connector-curvature="0"
       transform="matrix(0.26458333,0,0,0.26458333,0,233)" />
  </g>
  <g
     inkscape:groupmode="layer"
     id="layer2"
     inkscape:label="LOGO"
     style="display:inline" />
  <g
     inkscape:groupmode="layer"
     id="layer3"
     inkscape:label="output"
     style="display:inline" />
</svg>
