<?xml version="1.0" encoding="UTF-8" standalone="no"?>
<!-- Created with Inkscape (http://www.inkscape.org/) -->

<svg
   xmlns:dc="http://purl.org/dc/elements/1.1/"
   xmlns:cc="http://creativecommons.org/ns#"
   xmlns:rdf="http://www.w3.org/1999/02/22-rdf-syntax-ns#"
   xmlns:svg="http://www.w3.org/2000/svg"
   xmlns="http://www.w3.org/2000/svg"
   xmlns:sodipodi="http://sodipodi.sourceforge.net/DTD/sodipodi-0.dtd"
   xmlns:inkscape="http://www.inkscape.org/namespaces/inkscape"
   width="64mm"
   height="64mm"
   viewBox="0 0 64 64"
   version="1.1"
   id="svg8"
   inkscape:version="0.92.4 (5da689c313, 2019-01-14)"
   sodipodi:docname="insight-update-fill.svg">
  <defs
     id="defs2">
    <inkscape:perspective
       sodipodi:type="inkscape:persp3d"
       inkscape:vp_x="66.249205 : 55.210183 : 1"
       inkscape:vp_y="81.884987 : -4563.3647 : 0"
       inkscape:vp_z="-8.2642775 : 67.069501 : 1"
       inkscape:persp3d-origin="28.119024 : 109.81574 : 1"
       id="perspective71" />
    <filter
       inkscape:collect="always"
       style="color-interpolation-filters:sRGB"
       id="filter871"
       x="-0.001351145"
       width="1.0027024"
       y="-0.00099348905"
       height="1.001987">
      <feGaussianBlur
         inkscape:collect="always"
         stdDeviation="0.018619294"
         id="feGaussianBlur873" />
    </filter>
  </defs>
  <sodipodi:namedview
     id="base"
     pagecolor="#000000"
     bordercolor="#666666"
     borderopacity="1.0"
     inkscape:pageopacity="1"
     inkscape:pageshadow="2"
     inkscape:zoom="2.8284273"
     inkscape:cx="111.71726"
     inkscape:cy="145.10545"
     inkscape:document-units="mm"
     inkscape:current-layer="layer1"
     showgrid="true"
     inkscape:window-width="1920"
     inkscape:window-height="1001"
     inkscape:window-x="-9"
     inkscape:window-y="-9"
     inkscape:window-maximized="1"
     inkscape:pagecheckerboard="true">
    <inkscape:grid
       type="xygrid"
       id="grid22" />
  </sodipodi:namedview>
  <metadata
     id="metadata5">
    <rdf:RDF>
      <cc:Work
         rdf:about="">
        <dc:format>image/svg+xml</dc:format>
        <dc:type
           rdf:resource="http://purl.org/dc/dcmitype/StillImage" />
        <dc:title></dc:title>
      </cc:Work>
    </rdf:RDF>
  </metadata>
  <g
     inkscape:label="frame"
     inkscape:groupmode="layer"
     id="layer1"
     transform="translate(0,-233)"
     style="display:inline;opacity:1">
    <path
       style="fill:#fffaff;fill-opacity:1;stroke-width:0.37098113"
       d="M 25.25283,296.00272 C 13.811429,293.38566 4.8687167,284.97138 1.6222557,273.76853 c -5.139843,-17.73651 5.96081,-35.99989 24.1699243,-39.76563 3.884975,-0.80344 11.062373,-0.52343 14.883671,0.58065 14.716504,4.252 24.62532,19.02173 22.728373,33.87815 -0.563821,4.41574 -1.257736,6.813 -3.033586,10.48026 -3.792578,7.83192 -11.232029,14.07952 -19.694787,16.53956 -3.539928,1.02904 -11.958993,1.31358 -15.423021,0.5212 z m 7.981584,-14.92763 c 0.105136,-0.3202 -0.316771,-0.46376 -1.362565,-0.46376 -1.455998,0 -2.018257,0.46834 -1.051114,0.87532 0.782235,0.32928 2.252751,0.0781 2.413679,-0.41151 z m 0.710031,-1.36052 c -0.110965,-0.2892 0.05695,-0.625 0.373092,-0.74631 0.464276,-0.17811 0.486701,-0.32679 0.11658,-0.77268 -0.258457,-0.31156 -0.29612,-0.55206 -0.08635,-0.55206 0.204469,0 0.443726,-0.9938 0.531563,-2.2084 0.149524,-2.06714 0.284043,-2.33986 2.102278,-4.26242 2.328659,-2.46221 3.023603,-3.9833 3.012747,-6.59436 -0.01,-2.43477 -0.953356,-4.57733 -2.684152,-6.09699 -1.748437,-1.53517 -3.590427,-2.10152 -6.217009,-1.91155 -2.709801,0.19594 -4.763151,1.48212 -6.153147,3.85398 -2.03808,3.47772 -1.484006,7.29234 1.491386,10.26776 2.043723,2.04372 2.441636,2.83659 2.441636,4.86528 0,0.91957 0.15126,1.76542 0.336153,1.87967 0.184846,0.11429 0.248869,0.54146 0.142222,0.94935 -0.106659,0.40796 -0.01277,0.74159 0.208706,0.74159 0.221442,0 0.306522,0.25001 0.189054,0.55646 -0.175704,0.4577 0.194994,0.55652 2.091731,0.55652 1.836879,0 2.264273,-0.10708 2.103515,-0.52584 z"
       id="path859"
       inkscape:connector-curvature="0"
       sodipodi:nodetypes="csccsccccsccccccscccccscsccscscc" />
    <path
       style="display:inline;opacity:1;fill:#ffffff;fill-opacity:1;stroke:none;stroke-width:2.13637805;stroke-miterlimit:4;stroke-dasharray:none;stroke-opacity:1;filter:url(#filter871)"
       d="m 42.367418,152.44266 c 0,-0.283 0.75338,-2.86904 1.02241,-3.50947 0.41582,-0.98991 1.00845,-4.53759 1.19941,-7.18017 0.57246,-7.92192 -1.56722,-16.63412 -5.85008,-23.81983 -0.32781,-0.55 -0.71635,-1.26582 -0.86342,-1.59071 -0.57922,-1.27956 -4.15334,-6.26469 -5.69582,-7.94446 -0.30938,-0.33691 -0.5625,-0.69061 -0.5625,-0.786 0,-0.0954 -0.27538,-0.4559 -0.61195,-0.80113 -0.33658,-0.34524 -1.2647,-1.34854 -2.0625,-2.22957 -2.270696,-2.50756 -6.266701,-6.390774 -10.185644,-9.898134 -1.653495,-1.47984 -5.588468,-5.4044 -7.891994,-7.87112 -1.1852454,-1.26922 -3.1402484,-3.631 -4.2455014,-5.12888 -0.60875,-0.825 -1.19993,-1.6125 -1.313731,-1.75 -0.39455,-0.47671 -2.225088,-3.41054 -2.933809,-4.70206 -1.88498104,-3.43504 -2.71600904,-7.43117 -1.96552504,-9.45155 0.315571,-0.84956 51.19159444,-65.82377653 51.38769444,-65.62768053 0.0502,0.05021 -0.12687,0.644745 -0.3935,1.32119303 -0.26663,0.676448 -0.86057,2.687949 -1.31986,4.470003 -0.81379,3.157462 -0.83513,3.370805 -0.83688,8.3650965 -0.002,4.56127 0.0612,5.358742 0.57117,7.25 1.74011,6.45354 4.62502,11.301192 9.81293,16.489097 1.84726,1.847262 3.17636,2.96692 6.1141,5.150627 0.825,0.613248 1.71976,1.282683 1.98835,1.487635 0.26859,0.204953 0.63421,0.37264 0.8125,0.37264 0.17828,0 0.32415,0.09355 0.32415,0.207898 0,0.114342 0.59062,0.585905 1.3125,1.047917 0.72187,0.462013 1.77925,1.184085 2.34972,1.604605 0.57047,0.420518 1.35216,0.98958 1.73709,1.26458 1.38817,0.991738 5.98705,4.621025 6.48448,5.117345 0.27984,0.27921 0.57213,0.507655 0.64955,0.507655 0.68349,0 8.98671,8.402049 11.11835,11.250689 1.78832,2.38984 1.94563,2.63638 3.42899,5.37431 2.1355,3.94161 2.58195,7.91048 1.23738,11 -0.23936,0.55 -12.57601,16.46875 -27.41479,35.375004 -29.53454,37.63027 -27.40327,34.9366 -27.40327,34.63447 z"
       id="path967"
       inkscape:connector-curvature="0"
       transform="matrix(0.06880375,0,0,0.06880375,28.625858,259.74518)" />
  </g>
  <g
     inkscape:groupmode="layer"
     id="layer2"
     inkscape:label="LOGO"
     style="display:inline" />
  <g
     inkscape:groupmode="layer"
     id="layer3"
     inkscape:label="output"
     style="display:inline" />
</svg>
