<?xml version="1.0" encoding="UTF-8" standalone="no"?>
<!-- Created with Inkscape (http://www.inkscape.org/) -->

<svg
   xmlns:dc="http://purl.org/dc/elements/1.1/"
   xmlns:cc="http://creativecommons.org/ns#"
   xmlns:rdf="http://www.w3.org/1999/02/22-rdf-syntax-ns#"
   xmlns:svg="http://www.w3.org/2000/svg"
   xmlns="http://www.w3.org/2000/svg"
   xmlns:sodipodi="http://sodipodi.sourceforge.net/DTD/sodipodi-0.dtd"
   xmlns:inkscape="http://www.inkscape.org/namespaces/inkscape"
   width="64mm"
   height="64mm"
   viewBox="0 0 64 64"
   version="1.1"
   id="svg8"
   inkscape:version="0.92.4 (5da689c313, 2019-01-14)"
   sodipodi:docname="insight-add-fill.svg">
  <defs
     id="defs2">
    <inkscape:perspective
       sodipodi:type="inkscape:persp3d"
       inkscape:vp_x="66.249205 : 55.210183 : 1"
       inkscape:vp_y="81.884987 : -4563.3647 : 0"
       inkscape:vp_z="-8.2642775 : 67.069501 : 1"
       inkscape:persp3d-origin="28.119024 : 109.81574 : 1"
       id="perspective71" />
  </defs>
  <sodipodi:namedview
     id="base"
     pagecolor="#000000"
     bordercolor="#666666"
     borderopacity="1.0"
     inkscape:pageopacity="1"
     inkscape:pageshadow="2"
     inkscape:zoom="2.0000001"
     inkscape:cx="187.65191"
     inkscape:cy="131.7879"
     inkscape:document-units="mm"
     inkscape:current-layer="layer1"
     showgrid="true"
     inkscape:window-width="1920"
     inkscape:window-height="1001"
     inkscape:window-x="-9"
     inkscape:window-y="-9"
     inkscape:window-maximized="1"
     inkscape:pagecheckerboard="true">
    <inkscape:grid
       type="xygrid"
       id="grid22" />
  </sodipodi:namedview>
  <metadata
     id="metadata5">
    <rdf:RDF>
      <cc:Work
         rdf:about="">
        <dc:format>image/svg+xml</dc:format>
        <dc:type
           rdf:resource="http://purl.org/dc/dcmitype/StillImage" />
        <dc:title></dc:title>
      </cc:Work>
    </rdf:RDF>
  </metadata>
  <g
     inkscape:label="frame"
     inkscape:groupmode="layer"
     id="layer1"
     transform="translate(0,-233)"
     style="display:inline;opacity:1">
    <path
       style="fill:#fffaff;fill-opacity:1;stroke-width:0.37098113"
       d="M 25.25283,296.00272 C 13.811429,293.38566 4.8687167,284.97138 1.6222557,273.76853 c -5.139843,-17.73651 5.96081,-35.99989 24.1699243,-39.76563 3.884975,-0.80344 11.062373,-0.52343 14.883671,0.58065 14.716504,4.252 24.62532,19.02173 22.728373,33.87815 -0.563821,4.41574 -1.257736,6.813 -3.033586,10.48026 -3.792578,7.83192 -11.232029,14.07952 -19.694787,16.53956 -3.539928,1.02904 -11.958993,1.31358 -15.423021,0.5212 z m 7.981584,-14.92763 c 0.105136,-0.3202 -0.316771,-0.46376 -1.362565,-0.46376 -1.455998,0 -2.018257,0.46834 -1.051114,0.87532 0.782235,0.32928 2.252751,0.0781 2.413679,-0.41151 z m 0.710031,-1.36052 c -0.110965,-0.2892 0.05695,-0.625 0.373092,-0.74631 0.464276,-0.17811 0.486701,-0.32679 0.11658,-0.77268 -0.258457,-0.31156 -0.29612,-0.55206 -0.08635,-0.55206 0.204469,0 0.443726,-0.9938 0.531563,-2.2084 0.149524,-2.06714 0.284043,-2.33986 2.102278,-4.26242 2.328659,-2.46221 3.023603,-3.9833 3.012747,-6.59436 -0.01,-2.43477 -0.953356,-4.57733 -2.684152,-6.09699 -1.748437,-1.53517 -3.590427,-2.10152 -6.217009,-1.91155 -2.709801,0.19594 -4.763151,1.48212 -6.153147,3.85398 -2.03808,3.47772 -1.484006,7.29234 1.491386,10.26776 2.043723,2.04372 2.441636,2.83659 2.441636,4.86528 0,0.91957 0.15126,1.76542 0.336153,1.87967 0.184846,0.11429 0.248869,0.54146 0.142222,0.94935 -0.106659,0.40796 -0.01277,0.74159 0.208706,0.74159 0.221442,0 0.306522,0.25001 0.189054,0.55646 -0.175704,0.4577 0.194994,0.55652 2.091731,0.55652 1.836879,0 2.264273,-0.10708 2.103515,-0.52584 z M 19.937198,265.33221 c 0.590397,-0.21713 0.77016,-0.45465 0.528047,-0.69672 -0.408309,-0.40847 -4.20552,0.25476 -4.20552,0.73457 0,0.79524 1.455637,0.78021 3.677473,-0.0353 z m 27.658933,0.45869 c 0.30226,-0.48916 -0.884136,-1.05901 -2.496509,-1.19943 -1.938856,-0.16834 -1.873563,0.54619 0.0966,1.05819 2.144428,0.55733 2.142765,0.55724 2.399875,0.14098 z m -26.063885,-7.26203 c 0.02731,-0.42926 -3.107612,-2.01997 -3.510361,-1.78127 -0.618841,0.36686 -0.197947,0.87187 1.298434,1.55797 1.664952,0.76337 2.174085,0.81483 2.211927,0.22325 z m 23.060377,-0.19342 c 1.635804,-0.7236 1.97965,-1.07981 1.502681,-1.55684 -0.173391,-0.17307 -3.333391,0.99745 -3.811304,1.41212 -0.136934,0.11872 0.276072,0.90404 0.475589,0.90404 0.06405,0 0.888898,-0.34198 1.83301,-0.75932 z m -18.687385,-4.53381 c 0,-0.64195 -1.7955,-3.23945 -2.239258,-3.23945 -0.616118,0 -0.393392,0.88811 0.583218,2.32527 0.947188,1.39395 1.65604,1.78523 1.65604,0.91418 z m 13.862493,-1.00562 c 1.02388,-1.54717 1.215561,-2.23383 0.623589,-2.23383 -0.484875,0 -2.641911,3.18797 -2.35272,3.47711 0.446869,0.44704 0.759327,0.22215 1.729131,-1.24328 z m -7.184837,-2.41934 c 0,-1.56637 -0.129303,-2.04038 -0.556469,-2.04038 -0.427184,0 -0.556472,0.47391 -0.556472,2.04038 0,1.56634 0.129304,2.04041 0.556472,2.04041 0.427183,0 0.556469,-0.47391 0.556469,-2.04041 z"
       id="path859"
       inkscape:connector-curvature="0"
       sodipodi:nodetypes="csccsccccsccccccscccccscsccscsccccscccccccccccccccsccsscscsccsssss" />
  </g>
  <g
     inkscape:groupmode="layer"
     id="layer2"
     inkscape:label="LOGO"
     style="display:inline" />
  <g
     inkscape:groupmode="layer"
     id="layer3"
     inkscape:label="output"
     style="display:inline" />
</svg>
