<?xml version="1.0" encoding="UTF-8" standalone="no"?>
<!-- Created with Inkscape (http://www.inkscape.org/) -->

<svg
   xmlns:dc="http://purl.org/dc/elements/1.1/"
   xmlns:cc="http://creativecommons.org/ns#"
   xmlns:rdf="http://www.w3.org/1999/02/22-rdf-syntax-ns#"
   xmlns:svg="http://www.w3.org/2000/svg"
   xmlns="http://www.w3.org/2000/svg"
   xmlns:sodipodi="http://sodipodi.sourceforge.net/DTD/sodipodi-0.dtd"
   xmlns:inkscape="http://www.inkscape.org/namespaces/inkscape"
   width="64mm"
   height="64mm"
   viewBox="0 0 64 64"
   version="1.1"
   id="svg8"
   inkscape:version="0.92.4 (5da689c313, 2019-01-14)"
   sodipodi:docname="location-map.svg">
  <defs
     id="defs2">
    <inkscape:perspective
       sodipodi:type="inkscape:persp3d"
       inkscape:vp_x="66.249205 : 55.210183 : 1"
       inkscape:vp_y="81.884987 : -4563.3647 : 0"
       inkscape:vp_z="-8.2642775 : 67.069501 : 1"
       inkscape:persp3d-origin="28.119024 : 109.81574 : 1"
       id="perspective71" />
  </defs>
  <sodipodi:namedview
     id="base"
     pagecolor="#000000"
     bordercolor="#666666"
     borderopacity="1.0"
     inkscape:pageopacity="0"
     inkscape:pageshadow="2"
     inkscape:zoom="2.0000001"
     inkscape:cx="21.59333"
     inkscape:cy="106.46517"
     inkscape:document-units="mm"
     inkscape:current-layer="layer2"
     showgrid="true"
     inkscape:window-width="1920"
     inkscape:window-height="1001"
     inkscape:window-x="-9"
     inkscape:window-y="-9"
     inkscape:window-maximized="1"
     inkscape:pagecheckerboard="false">
    <inkscape:grid
       type="xygrid"
       id="grid22" />
  </sodipodi:namedview>
  <metadata
     id="metadata5">
    <rdf:RDF>
      <cc:Work
         rdf:about="">
        <dc:format>image/svg+xml</dc:format>
        <dc:type
           rdf:resource="http://purl.org/dc/dcmitype/StillImage" />
        <dc:title />
      </cc:Work>
    </rdf:RDF>
  </metadata>
  <g
     inkscape:label="frame"
     inkscape:groupmode="layer"
     id="layer1"
     transform="translate(0,-233)"
     style="display:none;opacity:1"
     sodipodi:insensitive="true">
    <path
       style="fill:#ffffff;stroke:#000000;stroke-width:0.26458332px;stroke-linecap:butt;stroke-linejoin:miter;stroke-opacity:1"
       d="M 31.75,234.82292 V 289.0625"
       id="path95"
       inkscape:connector-curvature="0" />
    <path
       style="fill:#ffffff;stroke:#000000;stroke-width:0.26458332px;stroke-linecap:butt;stroke-linejoin:miter;stroke-opacity:1"
       d="M 62.177083,234.82292 1.3229166,295.67708"
       id="path99"
       inkscape:connector-curvature="0" />
    <path
       style="display:inline;opacity:1;fill:#ffffff;stroke:#000000;stroke-width:0.26458332px;stroke-linecap:butt;stroke-linejoin:miter;stroke-opacity:1"
       d="M 1.3229166,234.82292 H 62.177083 v 60.85416 H 1.3229166 Z"
       id="path93"
       inkscape:connector-curvature="0" />
    <path
       style="display:inline;opacity:1;fill:#ffffff;stroke:#000000;stroke-width:0.26458332px;stroke-linecap:butt;stroke-linejoin:miter;stroke-opacity:1"
       d="M 62.177083,295.67708 1.3229166,234.82292"
       id="path97"
       inkscape:connector-curvature="0" />
    <path
       style="fill:#ffffff;stroke:#000000;stroke-width:0.26458332px;stroke-linecap:butt;stroke-linejoin:miter;stroke-opacity:1"
       d="M 7.9374999,289.0625 H 55.562499 l 10e-7,-47.625"
       id="path158"
       inkscape:connector-curvature="0" />
    <path
       style="fill:#ffffff;stroke:#000000;stroke-width:0.26458332px;stroke-linecap:butt;stroke-linejoin:miter;stroke-opacity:1"
       d="M 55.562499,241.4375 H 7.9374999 v 47.625"
       id="path160"
       inkscape:connector-curvature="0" />
  </g>
  <g
     inkscape:groupmode="layer"
     id="layer2"
     inkscape:label="LOGO"
     style="display:none">
    <path
       style="display:inline;opacity:1;fill:none;stroke:#000000;stroke-width:0.20357688px;stroke-linecap:butt;stroke-linejoin:miter;stroke-opacity:1"
       d="M 17.124422,15.985906 H 12.567709"
       id="path130"
       inkscape:connector-curvature="0"
       sodipodi:nodetypes="cc" />
    <path
       style="display:inline;opacity:1;fill:none;stroke:#000000;stroke-width:0.20357688px;stroke-linecap:butt;stroke-linejoin:miter;stroke-opacity:1"
       d="M 30.79456,30.537993 12.567709,45.090074"
       id="path138"
       inkscape:connector-curvature="0" />
    <path
       style="display:inline;opacity:1;fill:none;stroke:#000000;stroke-width:0.20947886px;stroke-linecap:butt;stroke-linejoin:miter;stroke-opacity:1"
       d="m 12.567709,45.090074 h 4.824754"
       id="path134"
       inkscape:connector-curvature="0" />
    <path
       style="display:inline;opacity:1;fill:none;stroke:#000000;stroke-width:0.20947888px;stroke-linecap:butt;stroke-linejoin:miter;stroke-opacity:1"
       d="m 48.753371,45.090074 h 4.824754"
       id="path136"
       inkscape:connector-curvature="0" />
    <path
       style="fill:none;stroke:#000000;stroke-width:0.20322435px;stroke-linecap:butt;stroke-linejoin:miter;stroke-opacity:1"
       d="m 12.567709,15.985906 18.09283,14.552083"
       id="path162"
       inkscape:connector-curvature="0" />
    <path
       style="fill:none;stroke:#000000;stroke-width:0.17771453px;stroke-linecap:butt;stroke-linejoin:miter;stroke-opacity:1"
       d="M 48.75337,45.090073 33.072917,32.25"
       id="path166"
       inkscape:connector-curvature="0" />
    <path
       style="fill:none;stroke:#000000;stroke-width:0.17771454px;stroke-linecap:butt;stroke-linejoin:miter;stroke-opacity:1"
       d="M 17.392463,45.090073 33.072917,32.25"
       id="path168"
       inkscape:connector-curvature="0" />
    <path
       style="fill:none;stroke:#000000;stroke-width:0.26458332px;stroke-linecap:butt;stroke-linejoin:miter;stroke-opacity:1"
       d="M 17.065626,15.985906 53.578125,45.090071"
       id="path847"
       inkscape:connector-curvature="0"
       sodipodi:nodetypes="cc" />
    <path
       style="fill:none;stroke:#000000;stroke-width:0.26458332px;stroke-linecap:butt;stroke-linejoin:miter;stroke-opacity:1"
       d="m 20.505209,43.767155 h 25.135416 c 0,0 9.260417,0 6.614584,-6.614583 -2.645834,-6.614584 -5.291667,-13.229166 -5.291667,-13.229166 0,0 -2.645833,-6.614583 -9.260416,-6.614583 -6.614584,0 -3.96875,0 -3.96875,0 h -2.645834 -5.291666 c 0,0 -5.291667,0 -7.9375,6.614583 -2.645833,6.614582 -5.291667,13.229166 -5.291667,13.229166 0,0 -2.6458337,6.614583 7.9375,6.614583 z"
       id="path851"
       inkscape:connector-curvature="0" />
  </g>
  <g
     inkscape:groupmode="layer"
     id="layer3"
     inkscape:label="output"
     style="display:inline">
    <path
       style="fill:#ffffff;fill-opacity:1;stroke-width:0.09354433"
       d="M 48.017028,40.317975 C 41.440971,35.134428 22.103019,19.733751 21.782725,19.425066 l -0.23386,-0.225384 0.23386,-0.18115 c 0.432228,-0.334806 1.455376,-0.829698 2.30117,-1.113064 0.819881,-0.274686 0.894408,-0.282493 3.221313,-0.337441 1.310107,-0.03094 4.613046,-0.01712 7.339863,0.03071 4.745792,0.08325 4.985856,0.09591 5.612659,0.296064 2.059914,0.657789 4.206804,2.374777 5.604079,4.481898 0.527846,0.796001 2.292628,5.041091 5.721329,13.762361 l 0.827465,2.104747 0.0016,0.982216 c 0.0021,1.270995 -0.186272,1.729359 -1.037648,2.525781 -0.329949,0.30865 -0.650984,0.561115 -0.713415,0.561033 -0.06243,-8.2e-5 -1.252267,-0.897771 -2.644087,-1.994866 z"
       id="path869"
       inkscape:connector-curvature="0" />
    <path
       style="fill:#ffffff;fill-opacity:1;stroke-width:0.09354433"
       d="m 14.756699,42.43274 c -0.687581,-0.339863 -1.576191,-1.246553 -1.904125,-1.942873 -0.226581,-0.481113 -0.269616,-0.705808 -0.304572,-1.590254 l -0.04071,-1.029978 2.333563,-5.799749 c 3.428784,-8.521768 4.049943,-9.97798 4.369208,-10.242946 0.120643,-0.100126 0.235995,-0.04679 0.726611,0.335956 1.459444,1.138565 9.894885,7.984824 10.260783,8.327716 0.118882,0.111408 0.117496,0.142386 -0.01098,0.245351 -8.181171,6.556888 -14.245068,11.413027 -14.541111,11.644934 l -0.384379,0.301107 z"
       id="path871"
       inkscape:connector-curvature="0" />
    <path
       style="fill:#ffffff;fill-opacity:1;stroke-width:0.09354433"
       d="m 19.79318,43.472772 c -0.03096,-0.03096 0.561874,-0.56673 1.317416,-1.190591 2.030776,-1.676839 7.033071,-5.741471 9.671476,-7.858593 l 2.310924,-1.854346 0.916355,0.728049 c 3.436385,2.730225 11.674401,9.535144 12.087821,9.985005 l 0.226779,0.246771 H 33.086715 c -7.280482,0 -13.262573,-0.02535 -13.293535,-0.05629 z"
       id="path873"
       inkscape:connector-curvature="0" />
  </g>
</svg>
