<?xml version="1.0" encoding="UTF-8" standalone="no"?>
<!-- Created with Inkscape (http://www.inkscape.org/) -->

<svg
   xmlns:dc="http://purl.org/dc/elements/1.1/"
   xmlns:cc="http://creativecommons.org/ns#"
   xmlns:rdf="http://www.w3.org/1999/02/22-rdf-syntax-ns#"
   xmlns:svg="http://www.w3.org/2000/svg"
   xmlns="http://www.w3.org/2000/svg"
   xmlns:sodipodi="http://sodipodi.sourceforge.net/DTD/sodipodi-0.dtd"
   xmlns:inkscape="http://www.inkscape.org/namespaces/inkscape"
   width="64mm"
   height="64mm"
   viewBox="0 0 64 64"
   version="1.1"
   id="svg8"
   inkscape:version="0.92.4 (5da689c313, 2019-01-14)"
   sodipodi:docname="lone-star.svg">
  <defs
     id="defs2">
    <inkscape:perspective
       sodipodi:type="inkscape:persp3d"
       inkscape:vp_x="66.249205 : 55.210183 : 1"
       inkscape:vp_y="81.884987 : -4563.3647 : 0"
       inkscape:vp_z="-8.2642775 : 67.069501 : 1"
       inkscape:persp3d-origin="28.119024 : 109.81574 : 1"
       id="perspective71" />
  </defs>
  <sodipodi:namedview
     id="base"
     pagecolor="#000000"
     bordercolor="#666666"
     borderopacity="1.0"
     inkscape:pageopacity="0"
     inkscape:pageshadow="2"
     inkscape:zoom="2.8284274"
     inkscape:cx="-4.8601949"
     inkscape:cy="110.12349"
     inkscape:document-units="mm"
     inkscape:current-layer="layer3"
     showgrid="true"
     inkscape:window-width="1920"
     inkscape:window-height="1001"
     inkscape:window-x="-9"
     inkscape:window-y="-9"
     inkscape:window-maximized="1"
     inkscape:pagecheckerboard="false">
    <inkscape:grid
       type="xygrid"
       id="grid22" />
  </sodipodi:namedview>
  <metadata
     id="metadata5">
    <rdf:RDF>
      <cc:Work
         rdf:about="">
        <dc:format>image/svg+xml</dc:format>
        <dc:type
           rdf:resource="http://purl.org/dc/dcmitype/StillImage" />
        <dc:title />
      </cc:Work>
    </rdf:RDF>
  </metadata>
  <g
     inkscape:label="frame"
     id="layer1"
     transform="translate(0,-233)"
     style="display:none;opacity:1"
     sodipodi:insensitive="true"
     inkscape:groupmode="layer" />
  <g
     inkscape:groupmode="layer"
     id="layer2"
     inkscape:label="LOGO"
     style="display:inline" />
  <g
     inkscape:groupmode="layer"
     id="layer3"
     inkscape:label="output"
     style="display:inline">
    <path
       style="fill:#ffffff;stroke-width:0.16710527"
       d="m 27.781246,38.954355 c -0.157393,-1.081629 -0.3073,-1.994596 -0.333125,-2.02882 -0.02582,-0.03422 -0.681088,0.102847 -1.699302,0.541599 C 22.498528,38.867694 8.9712701,42.852825 8.2223937,42.838705 7.9375,42.833333 21.244558,32.944634 22.671625,31.895623 c 0.669627,-0.492231 1.15841,-0.944549 1.086184,-1.005153 -0.07222,-0.0606 -0.770496,-0.603844 -1.551714,-1.207199 C 17.337168,25.611978 7.9374967,17.021789 7.9374967,17.021789 c -0.0053,-0.0021 7.9846853,3.251497 14.2039473,5.639803 1.002248,0.375645 5.124194,2.286593 5.15002,2.252369 0.02582,-0.03422 0.489786,-1.924378 0.489786,-1.924378 1.044405,-7.012201 3.320309,-18.5633912 3.258563,-18.2769092 -0.132265,0.613667 1.579449,11.4213692 2.108974,13.3975842 0.318237,1.187677 0.272262,2.044755 1.02481,5.516162 0.155881,0.719059 0.269298,1.34002 0.309656,1.380377 0.04036,0.04036 0.772385,-0.195576 1.626729,-0.524297 2.893115,-1.113166 3.715538,-1.459436 5.618518,-2.08836 1.718865,-0.568074 13.187107,-4.904629 13.374085,-4.580773 0.316408,0.548036 -12.464922,9.580785 -15.359826,11.837342 -0.916788,0.714628 -1.609311,1.352419 -1.538945,1.417313 0.07037,0.06489 0.879917,0.71493 1.798995,1.44452 4.592036,3.645288 13.935034,11.59722 13.675627,11.897142 -0.480865,0.555967 -13.435132,-5.044417 -16.830628,-6.335883 -0.71852,-0.273288 -2.327305,-1.173911 -2.362405,-1.138813 -0.0351,0.0351 -0.183492,0.86979 -0.329762,1.854867 -0.503161,3.388613 -3.241171,17.919434 -3.241171,17.919434 0,0 -2.948243,-16.531325 -3.133224,-17.754934 z"
       id="path844"
       inkscape:connector-curvature="0"
       sodipodi:nodetypes="ccssssccccsssscsssscssscscc" />
  </g>
</svg>
