<?xml version="1.0" encoding="UTF-8" standalone="no"?>
<!-- Created with Inkscape (http://www.inkscape.org/) -->

<svg
   xmlns:dc="http://purl.org/dc/elements/1.1/"
   xmlns:cc="http://creativecommons.org/ns#"
   xmlns:rdf="http://www.w3.org/1999/02/22-rdf-syntax-ns#"
   xmlns:svg="http://www.w3.org/2000/svg"
   xmlns="http://www.w3.org/2000/svg"
   xmlns:sodipodi="http://sodipodi.sourceforge.net/DTD/sodipodi-0.dtd"
   xmlns:inkscape="http://www.inkscape.org/namespaces/inkscape"
   width="64mm"
   height="64mm"
   viewBox="0 0 64 64"
   version="1.1"
   id="svg8"
   inkscape:version="0.92.4 (5da689c313, 2019-01-14)"
   sodipodi:docname="site_icon.svg">
  <defs
     id="defs2">
    <inkscape:perspective
       sodipodi:type="inkscape:persp3d"
       inkscape:vp_x="66.249205 : 55.210183 : 1"
       inkscape:vp_y="81.884987 : -4563.3647 : 0"
       inkscape:vp_z="-8.2642775 : 67.069501 : 1"
       inkscape:persp3d-origin="28.119024 : 109.81574 : 1"
       id="perspective71" />
  </defs>
  <sodipodi:namedview
     id="base"
     pagecolor="#00001a"
     bordercolor="#666666"
     borderopacity="1.0"
     inkscape:pageopacity="0"
     inkscape:pageshadow="2"
     inkscape:zoom="2"
     inkscape:cx="-29.272707"
     inkscape:cy="128.54359"
     inkscape:document-units="mm"
     inkscape:current-layer="layer3"
     showgrid="true"
     inkscape:window-width="1920"
     inkscape:window-height="1001"
     inkscape:window-x="-9"
     inkscape:window-y="-9"
     inkscape:window-maximized="1"
     inkscape:pagecheckerboard="true">
    <inkscape:grid
       type="xygrid"
       id="grid22" />
  </sodipodi:namedview>
  <metadata
     id="metadata5">
    <rdf:RDF>
      <cc:Work
         rdf:about="">
        <dc:format>image/svg+xml</dc:format>
        <dc:type
           rdf:resource="http://purl.org/dc/dcmitype/StillImage" />
        <dc:title></dc:title>
      </cc:Work>
    </rdf:RDF>
  </metadata>
  <g
     inkscape:label="frame"
     inkscape:groupmode="layer"
     id="layer1"
     transform="translate(0,-233)"
     style="display:none;opacity:1">
    <path
       style="fill:#ffffff;fill-opacity:1;stroke:#ffffff;stroke-width:0.26458332px;stroke-linecap:butt;stroke-linejoin:miter;stroke-opacity:1"
       d="M 31.75,234.82292 V 289.0625"
       id="path95"
       inkscape:connector-curvature="0" />
    <path
       style="fill:#ffffff;fill-opacity:1;stroke:#ffffff;stroke-width:0.26458332px;stroke-linecap:butt;stroke-linejoin:miter;stroke-opacity:1"
       d="M 62.177083,234.82292 1.3229166,295.67708"
       id="path99"
       inkscape:connector-curvature="0" />
    <path
       style="display:inline;opacity:1;fill:#ffffff;fill-opacity:1;stroke:#ffffff;stroke-width:0.26458332px;stroke-linecap:butt;stroke-linejoin:miter;stroke-opacity:1"
       d="M 62.177083,295.67708 1.3229166,234.82292"
       id="path97"
       inkscape:connector-curvature="0" />
    <path
       style="display:inline;fill:#ffffff;fill-opacity:1;stroke:#ffffff;stroke-width:0.26458332px;stroke-linecap:butt;stroke-linejoin:miter;stroke-opacity:1"
       d="M 10.441009,251.78911 H 58.066008"
       id="path54"
       inkscape:connector-curvature="0" />
    <path
       style="display:inline;fill:#ffffff;fill-opacity:1;stroke:#ffffff;stroke-width:0.26458332px;stroke-linecap:butt;stroke-linejoin:miter;stroke-opacity:1"
       d="M 21.024342,288.83077 V 241.20578"
       id="path60"
       inkscape:connector-curvature="0" />
    <path
       style="display:inline;fill:#ffffff;fill-opacity:1;stroke:#ffffff;stroke-width:0.26458332px;stroke-linecap:butt;stroke-linejoin:miter;stroke-opacity:1"
       d="M 10.441009,275.60161 H 58.066008"
       id="path62"
       inkscape:connector-curvature="0" />
    <path
       style="display:inline;fill:#ffffff;fill-opacity:1;stroke:#ffffff;stroke-width:0.26458332px;stroke-linecap:butt;stroke-linejoin:miter;stroke-opacity:1"
       d="m 47.482675,241.20578 v 47.62499"
       id="path56"
       inkscape:connector-curvature="0" />
    <path
       style="display:inline;fill:#ffffff;fill-opacity:1;stroke:#ffffff;stroke-width:0.26458332px;stroke-linecap:butt;stroke-linejoin:miter;stroke-opacity:1"
       d="m 34.253509,241.20578 c 0,47.62499 0,47.62499 0,47.62499"
       id="path44"
       inkscape:connector-curvature="0" />
    <path
       style="display:inline;fill:#ffffff;fill-opacity:1;stroke:#ffffff;stroke-width:0.26458332px;stroke-linecap:butt;stroke-linejoin:miter;stroke-opacity:1"
       d="m 58.066008,263.69536 c -47.624999,0 -47.624999,0 -47.624999,0"
       id="path46"
       inkscape:connector-curvature="0" />
    <path
       style="display:inline;fill:#ffffff;fill-opacity:1;stroke:#ffffff;stroke-width:0.26458332px;stroke-linecap:butt;stroke-linejoin:miter;stroke-opacity:1"
       d="m 32.930592,246.49744 h 2.645833"
       id="path84"
       inkscape:connector-curvature="0" />
    <path
       style="display:inline;fill:#ffffff;fill-opacity:1;stroke:#ffffff;stroke-width:0.26458332px;stroke-linecap:butt;stroke-linejoin:miter;stroke-opacity:1"
       d="m 32.930592,268.98703 h 2.645833"
       id="path80"
       inkscape:connector-curvature="0" />
    <path
       style="display:inline;fill:#ffffff;fill-opacity:1;stroke:#ffffff;stroke-width:0.26458332px;stroke-linecap:butt;stroke-linejoin:miter;stroke-opacity:1"
       d="m 32.930592,280.89327 h 2.645833"
       id="path82"
       inkscape:connector-curvature="0" />
    <path
       style="display:inline;fill:#ffffff;fill-opacity:1;stroke:#ffffff;stroke-width:0.26458332px;stroke-linecap:butt;stroke-linejoin:miter;stroke-opacity:1"
       d="M 10.441009,286.18494 H 58.066008"
       id="path86"
       inkscape:connector-curvature="0" />
  </g>
  <g
     inkscape:groupmode="layer"
     id="layer2"
     inkscape:label="LOGO"
     style="display:none" />
  <g
     inkscape:groupmode="layer"
     id="layer3"
     inkscape:label="output"
     style="display:inline">
    <path
       d="m 55.479637,31.944677 c 0,-1.705636 -2.582611,-3.226945 -6.815563,-4.324874 -2.490985,-0.622023 -5.304567,-2.361658 -7.751501,-4.808353 -2.323394,-2.322917 -4.044897,-5.032825 -4.731045,-7.441342 -1.103267,-4.415067 -2.655775,-7.1259613 -4.402421,-7.1259613 -1.750225,0 -3.305537,2.7225863 -4.409279,7.1542383 -0.690207,2.404907 -2.388146,5.077025 -4.723948,7.413065 -2.323511,2.323513 -5.033868,4.045165 -7.442416,4.731163 -4.41444,1.103298 -7.124887,2.655657 -7.124887,4.402064 0,1.703665 2.576617,3.223246 6.800351,4.320847 2.494714,0.618773 5.315158,2.360854 7.766713,4.812619 2.324827,2.325066 4.047581,5.037328 4.732535,7.446858 1.10324,4.411695 2.655149,7.120208 4.400931,7.120208 1.705844,0 3.227243,-2.582941 4.32517,-6.816367 0.621665,-2.49048 2.361005,-5.303885 4.807819,-7.750699 2.323393,-2.323394 5.03336,-4.044897 7.44161,-4.731045 4.415066,-1.103267 7.125931,-2.655775 7.125931,-4.402421 z m -14.914955,8.785575 c -0.7586,0.758446 -1.876717,1.06491 -3.202071,0.978952 0.1395,-1.226809 0.254328,-2.508645 0.339659,-3.841365 1.332841,-0.08534 2.614765,-0.200222 3.841692,-0.339716 0.08583,1.32529 -0.220744,2.443441 -0.97928,3.202129 z M 22.014313,37.528123 c 1.226896,0.139501 2.508822,0.254386 3.841661,0.339716 0.08534,1.33302 0.200192,2.615063 0.339748,3.842139 -1.325143,0.08582 -2.443145,-0.220922 -3.20195,-0.979726 -0.758625,-0.758688 -1.065267,-1.876839 -0.979459,-3.202129 z m 0.979459,-14.368781 c 0.659037,-0.659038 1.604645,-0.991659 2.765236,-0.991659 0.140636,0 0.288748,0.01175 0.435612,0.02158 -0.139023,1.224063 -0.253523,2.502856 -0.338646,3.832294 -1.328902,0.0851 -2.607159,0.199506 -3.830774,0.338468 -0.09037,-1.357893 0.229868,-2.462146 0.968572,-3.200669 z m 18.55019,3.201919 c -1.226927,-0.139521 -2.508851,-0.254386 -3.841692,-0.339717 -0.08536,-1.332959 -0.200192,-2.615003 -0.339717,-3.842019 0.142348,-0.0091 0.28451,-0.01812 0.421859,-0.01812 1.141027,0 2.103096,0.320689 2.78027,0.997862 0.758536,0.758626 1.065119,1.876688 0.97928,3.201921 z m -4.718311,10.62996 c -0.334408,0.08042 -0.677825,0.153097 -1.029506,0.217582 0.213286,-0.199059 0.425231,-0.402562 0.634879,-0.61221 0.212927,-0.212959 0.412582,-0.43048 0.614566,-0.647166 -0.06505,0.355975 -0.138565,0.703446 -0.219939,1.041794 z m 0.359912,-1.921305 c -0.350365,0.398267 -0.712634,0.79376 -1.100045,1.181172 -0.387441,0.387411 -0.782905,0.749678 -1.181171,1.100045 -0.994375,0.137849 -2.041836,0.213258 -3.12524,0.213258 -1.083312,0 -2.130686,-0.0754 -3.125001,-0.213228 -0.398355,-0.350365 -0.793908,-0.712633 -1.181409,-1.100075 -0.385354,-0.385353 -0.748129,-0.781295 -1.100045,-1.181233 -0.13785,-0.994373 -0.213257,-2.041805 -0.213257,-3.125178 0,-1.083374 0.0754,-2.130866 0.213257,-3.12524 0.350366,-0.398265 0.712635,-0.793759 1.100045,-1.181172 0.385621,-0.38562 0.77846,-0.750274 1.174819,-1.09918 0.996251,-0.138426 2.045892,-0.214123 3.131591,-0.214123 1.083373,0 2.130836,0.0754 3.125208,0.21326 0.399938,0.351916 0.795852,0.714691 1.181203,1.100043 0.387411,0.387413 0.74968,0.782907 1.100045,1.181172 0.137849,0.994374 0.213258,2.041866 0.213258,3.12524 0,1.083373 -0.0754,2.130865 -0.213258,3.125239 z m -10.45303,1.921305 c -0.08117,-0.337628 -0.15457,-0.684359 -0.21949,-1.039526 0.201953,0.216296 0.402563,0.43331 0.61415,0.644898 0.209676,0.209648 0.421651,0.413151 0.634967,0.61221 -0.351709,-0.06449 -0.695157,-0.137132 -1.029627,-0.217582 z m 0,-10.093118 c 0.338405,-0.08135 0.685881,-0.154889 1.041885,-0.219939 -0.216715,0.202014 -0.43424,0.401639 -0.647225,0.614598 -0.212959,0.212958 -0.412585,0.430479 -0.614599,0.647195 0.06505,-0.356005 0.138565,-0.703477 0.219939,-1.041854 z m 10.093118,0 c 0.08136,0.338348 0.154929,0.68579 0.219939,1.041766 -0.201984,-0.216689 -0.401639,-0.434179 -0.614566,-0.647107 -0.211587,-0.211586 -0.428603,-0.412198 -0.644899,-0.61415 0.355167,0.06494 0.701898,0.138306 1.039526,0.219491 z m -5.046544,-1.06181 c -0.789498,0 -1.567986,0.01013 -2.335592,0.02867 0.772378,-0.623304 1.554329,-1.170942 2.330522,-1.645683 0.786186,0.478826 1.568823,1.027567 2.335114,1.645593 -0.765814,-0.01851 -1.542427,-0.02857 -2.330044,-0.02857 z m -6.056455,2.993138 c -0.739627,0.873606 -1.391,1.763797 -1.944962,2.652793 -0.534452,-0.935139 -0.964455,-1.870425 -1.268293,-2.781912 -0.0064,-0.01931 -0.01013,-0.03711 -0.01633,-0.05632 0.888043,-0.596641 2.008491,-1.105206 3.297812,-1.492377 -0.02811,0.551303 -0.04985,1.112214 -0.06821,1.677805 z m -0.02335,0.784366 c -0.01851,0.766083 -0.02857,1.542994 -0.02857,2.33088 0,0.787589 0.01013,1.5642 0.02857,2.330014 -0.617073,-0.765069 -1.165038,-1.546511 -1.643358,-2.331475 0.474415,-0.776046 1.020469,-1.557161 1.643358,-2.329419 z m 6.07981,8.439264 c 0.787916,0 1.564825,-0.01013 2.330909,-0.02857 -0.772585,0.623218 -1.554059,1.169511 -2.330373,1.644103 -0.776553,-0.474592 -1.558235,-1.020885 -2.331057,-1.644103 0.765963,0.01851 1.542753,0.02857 2.330521,0.02857 z m 6.108382,-6.108384 c 0,-0.787886 -0.01013,-1.564797 -0.02857,-2.33088 0.623277,0.772735 1.16966,1.554357 1.644282,2.33088 -0.474622,0.776522 -1.021005,1.558145 -1.644282,2.33088 0.01851,-0.766084 0.02857,-1.542995 0.02857,-2.33088 z m -0.869315,-6.148143 c -0.388514,-1.267041 -0.893769,-2.380419 -1.48558,-3.286924 0.302438,-0.08606 0.597299,-0.153395 0.886316,-0.207649 0.240963,1.086923 0.442168,2.259654 0.599264,3.494573 z m -0.446048,0.159906 c -0.549964,-0.02803 -1.109502,-0.04972 -1.673661,-0.06806 -0.865256,-0.735034 -1.75497,-1.388912 -2.652823,-1.951432 0.969587,-0.555988 1.922501,-0.985484 2.829809,-1.284431 0.59849,0.889028 1.108579,2.011592 1.496675,3.303927 z m -4.781362,-2.300076 c -1.010926,-0.596583 -2.024537,-1.074543 -3.013897,-1.412027 0.869251,-1.127396 1.89864,-1.783421 3.002234,-1.783421 1.108398,0 2.141931,0.66187 3.0136,1.798454 -0.968247,0.327789 -1.979469,0.798294 -3.001937,1.396994 z m -3.25603,-0.981397 c 0.911516,0.303836 1.846833,0.733841 2.781999,1.268356 -0.888996,0.553956 -1.779125,1.205272 -2.652792,1.944897 -0.565621,0.01831 -1.126559,0.04011 -1.677895,0.06821 0.387234,-1.2895 0.895857,-2.410066 1.492617,-3.298168 0.01911,0.0061 0.03698,0.01036 0.05608,0.01673 z m -1.994708,3.121567 c 0.156799,-1.232504 0.357468,-2.403207 0.597805,-3.488341 0.284123,0.0538 0.579195,0.127637 0.880258,0.21299 -0.588559,0.904417 -1.091189,2.013678 -1.478063,3.275351 z m -0.909069,0.90907 c -1.260183,0.386399 -2.368312,0.88831 -3.272132,1.475975 -0.08545,-0.301842 -0.155187,-0.59509 -0.20887,-0.879872 1.083014,-0.239621 2.251304,-0.439664 3.481002,-0.596103 z m -3.552196,2.236838 c 0.337482,0.989331 0.815383,2.00291 1.411967,3.013807 -0.598731,1.022468 -1.069239,2.033693 -1.397026,3.001967 -1.136523,-0.871638 -1.798364,-1.905173 -1.798364,-3.013539 0,-1.103594 0.656025,-2.132983 1.783423,-3.002235 z m 1.693046,3.469519 c 0.562401,0.897618 1.21616,1.787061 1.950983,2.652077 0.01831,0.564161 0.04003,1.1237 0.06806,1.673662 -1.292246,-0.388065 -2.414809,-0.898124 -3.303776,-1.496553 0.298859,-0.907103 0.72892,-1.859807 1.284729,-2.829186 z m 1.85915,4.771788 c -1.233726,-0.156938 -2.405445,-0.357883 -3.491471,-0.59855 0.05392,-0.28782 0.124312,-0.582503 0.209767,-0.883627 0.905549,0.590347 2.017108,1.094408 3.281704,1.482177 z m 0.909101,0.909219 c 0.387828,1.264747 0.891948,2.376396 1.482385,3.281975 -0.301154,0.08548 -0.595893,0.155903 -0.883747,0.209856 -0.240697,-1.086118 -0.441663,-2.257984 -0.598638,-3.491831 z m 0.445988,-0.160024 c 0.548713,0.02794 1.106935,0.04961 1.669783,0.06792 0.874771,0.741149 1.767734,1.395296 2.657954,1.950299 -0.969976,0.556377 -1.923307,0.986795 -2.830976,1.28592 -0.598547,-0.889021 -1.108633,-2.011706 -1.496761,-3.30413 z m 4.792933,2.296849 c 1.02539,0.60144 2.040462,1.074034 3.011543,1.403047 -0.871191,1.134823 -1.903951,1.795592 -3.011424,1.795592 -1.10759,0 -2.140409,-0.660796 -3.011631,-1.795741 0.97105,-0.328979 1.986091,-0.801544 3.011512,-1.402898 z m 0.465975,-0.279055 c 0.890068,-0.554887 1.782883,-1.208911 2.657445,-1.949881 0.562817,-0.01831 1.121041,-0.03998 1.669724,-0.06792 -0.388039,1.292035 -0.897976,2.414482 -1.496287,3.303389 -0.907608,-0.299037 -1.860909,-0.729366 -2.830882,-1.285597 z m 4.773187,-1.857778 c -0.156919,1.233517 -0.357793,2.40512 -0.59843,3.490996 -0.287731,-0.05397 -0.582385,-0.124314 -0.883449,-0.209797 0.590198,-0.905431 1.094169,-2.016811 1.481879,-3.281199 z m 0.909249,-0.909248 c 1.264565,-0.387768 2.376066,-0.891801 3.281585,-1.48212 0.08548,0.301126 0.155843,0.595807 0.209801,0.883599 -1.086002,0.240638 -2.25772,0.441577 -3.491386,0.598521 z m -0.160024,-0.44602 c 0.0281,-0.551306 0.0498,-1.112214 0.06818,-1.677778 0.74046,-0.874559 1.392309,-1.765734 1.94669,-2.655687 0.557925,0.972004 0.989242,1.927393 1.288901,2.836912 -0.888994,0.598399 -2.011529,1.108457 -3.303774,1.496553 z m 2.293088,-4.793053 c 0.601981,-1.026434 1.075024,-2.041654 1.404065,-3.013599 1.13652,0.871638 1.798334,1.905201 1.798334,3.013629 0,1.108366 -0.661814,2.141901 -1.798364,3.013539 -0.329041,-0.971943 -0.802084,-1.987162 -1.404035,-3.013569 z m -0.278188,-0.459561 c -0.554376,-0.889982 -1.206256,-1.781125 -1.946718,-2.655715 -0.01831,-0.565562 -0.04009,-1.126472 -0.06818,-1.677746 1.292245,0.388067 2.414808,0.898091 3.303808,1.496522 -0.299664,0.909547 -0.730951,1.864907 -1.288906,2.836939 z m -1.854876,-4.779444 c 1.233666,0.156938 2.405416,0.357913 3.491413,0.59855 -0.05396,0.287791 -0.124352,0.582444 -0.209828,0.883571 -0.90549,-0.590352 -2.01702,-1.094352 -3.281585,-1.482121 z M 35.26011,22.114713 c -0.988405,-1.348735 -2.188013,-2.142468 -3.481003,-2.142468 -1.288785,0 -2.484842,0.788364 -3.4714,2.129076 -0.364504,-0.108568 -0.718062,-0.194999 -1.061329,-0.260263 1.032547,-4.354162 2.696247,-7.244192 4.532729,-7.244192 1.838958,0 3.504567,2.897934 4.536818,7.261819 -0.344015,0.06502 -0.695695,0.149613 -1.055815,0.256028 z m -13.324357,6.358564 c -1.340714,0.986557 -2.129078,2.182615 -2.129078,3.4714 0,1.292959 0.793702,2.492537 2.142409,3.480942 -0.106415,0.360122 -0.191038,0.711832 -0.256059,1.055875 -4.363855,-1.03225 -7.261729,-2.697888 -7.261729,-4.536817 0,-1.836482 2.89006,-3.500182 7.244192,-4.532729 0.06526,0.343265 0.151703,0.696825 0.260265,1.061329 z m 6.36602,13.306524 c 0.98772,1.345666 2.185953,2.137307 3.477334,2.137307 1.291322,0 2.489525,-0.791583 3.477217,-2.137129 0.360984,0.10686 0.713499,0.190719 1.058377,0.255999 -1.03234,4.360961 -2.697383,7.256507 -4.535594,7.256507 -1.838212,0 -3.503286,-2.895633 -4.535624,-7.256688 0.344851,-0.06529 0.697306,-0.149136 1.05829,-0.255996 z M 41.609131,35.42568 c 1.348706,-0.988407 2.142407,-2.188013 2.142407,-3.481003 0,-1.292991 -0.793701,-2.492598 -2.142407,-3.481003 0.106415,-0.36012 0.191017,-0.7118 0.256025,-1.055813 4.363859,1.032249 7.26176,2.697888 7.26176,4.536816 0,1.838929 -2.897901,3.504567 -7.261787,4.536817 -0.06502,-0.344043 -0.149574,-0.695723 -0.255998,-1.055814 z m 0.164105,-11.146041 c 1.250724,1.088268 2.564567,1.999064 3.864804,2.680799 -1.140459,-0.208841 -2.356321,-0.392689 -3.64102,-0.547219 0.0551,-0.784067 -0.01812,-1.501805 -0.223784,-2.13358 z m -2.318472,-2.325628 c -0.634283,-0.208277 -1.355747,-0.282574 -2.14417,-0.227187 -0.156142,-1.298061 -0.342134,-2.526032 -0.553662,-3.676721 0.687253,1.315957 1.604047,2.645216 2.697832,3.903908 z M 31.779107,8.7328186 c 2.154607,0 4.071529,5.3214814 5.00977,12.8872874 -1.095273,-4.5724 -2.912667,-7.51191 -5.00977,-7.51191 -2.097014,0 -3.914525,2.939749 -5.00983,7.512418 0.938212,-7.566106 2.855164,-12.8877954 5.00983,-12.8877954 z M 26.249738,21.70866 c -0.788959,-0.05456 -1.500848,0.02261 -2.123498,0.22799 1.082865,-1.24661 1.98943,-2.555468 2.66863,-3.850906 -0.207888,1.135121 -0.39105,2.344838 -0.545132,3.622916 z m -4.474957,2.572144 c -0.208158,0.625274 -0.286659,1.340861 -0.231779,2.134503 -1.29153,0.155685 -2.513326,0.341062 -3.658769,0.551664 1.311336,-0.684779 2.635762,-1.597574 3.890548,-2.686167 z M 8.567248,31.944677 c 0,-2.154666 5.321691,-4.07162 12.887796,-5.00983 -4.572667,1.095305 -7.512417,2.912814 -7.512417,5.00983 0,2.097103 2.939509,3.914497 7.511909,5.00977 C 13.88873,36.016206 8.567248,34.099284 8.567248,31.944677 Z m 12.993918,5.531457 c -0.0551,0.784158 0.01812,1.502072 0.223873,2.133909 -1.250995,-1.088474 -2.565072,-1.999422 -3.86552,-2.681188 1.140669,0.208875 2.356707,0.39272 3.641647,0.547279 z m 2.554992,4.474481 c 0.492726,0.159268 1.037173,0.240398 1.625669,0.240398 0.165279,0 0.335159,-0.0088 0.506718,-0.02084 0.156023,1.295797 0.341805,2.521588 0.553066,3.670459 -0.684571,-1.311034 -1.597069,-2.635252 -2.685453,-3.890006 z m 7.662949,13.205921 c -2.154666,0 -4.071618,-5.321601 -5.00983,-12.887676 1.095305,4.572668 2.912816,7.512299 5.00983,7.512299 2.097103,0 3.914497,-2.939453 5.00977,-7.511794 -0.938241,7.565807 -2.855163,12.887171 -5.00977,12.887171 z M 37.3097,42.170196 c 0.17157,0.01214 0.341418,0.02084 0.506686,0.02083 0.583995,0 1.124533,-0.08018 1.614398,-0.236968 -1.082361,1.246132 -1.988446,2.554425 -2.667319,3.849235 0.208426,-1.138133 0.391917,-2.351308 0.546235,-3.633089 z m 4.460193,-2.55007 c 0.208216,-0.634285 0.282513,-1.355628 0.227127,-2.143962 1.298002,-0.156142 2.525944,-0.342134 3.676574,-0.553662 -1.315779,0.687195 -2.644979,1.60393 -3.903701,2.697624 z m 0.333902,-2.665679 c 4.572341,-1.095273 7.511794,-2.912667 7.511794,-5.00977 0,-2.097016 -2.939631,-3.914525 -7.512299,-5.00983 7.566075,0.93821 12.887678,2.855164 12.887678,5.00983 0,2.154607 -5.321366,4.071529 -12.887173,5.00977 z"
       id="path829"
       inkscape:connector-curvature="0"
       style="stroke-width:0.52667838" />
    <path
       style="fill:#ffffff;fill-opacity:1;stroke:#ffffff;stroke-width:0.04931381;stroke-opacity:1"
       d="M 20.212255,36.76928 C 14.403086,35.890529 10.597614,34.637782 9.183366,33.138602 8.743864,32.672707 8.62351,32.415873 8.62351,31.943879 c 0,-0.471724 0.120351,-0.728837 0.558709,-1.19351 1.386107,-1.469348 5.392358,-2.803999 10.773845,-3.589225 0.836718,-0.122083 0.949132,-0.120908 0.502762,0.0051 -1.238013,0.349863 -2.329785,0.752887 -3.254713,1.201466 -2.1349,1.035396 -3.279367,2.283403 -3.279367,3.576043 0,0.715598 0.314816,1.35442 1.009081,2.047615 1.079412,1.07775 2.749067,1.916454 5.303085,2.663855 0.560025,0.163885 0.551957,0.201156 -0.02466,0.113942 z"
       id="path843"
       inkscape:connector-curvature="0"
       inkscape:export-xdpi="96"
       inkscape:export-ydpi="96" />
    <path
       style="fill:#ffffff;fill-opacity:1;stroke:#ffffff;stroke-width:0.04931381;stroke-opacity:1"
       d="m 20.877992,36.25564 c -3.403111,-0.948733 -5.549029,-2.144391 -6.195196,-3.451822 -0.181423,-0.36708 -0.190937,-0.409828 -0.190937,-0.857383 0,-0.408684 0.01772,-0.508639 0.13311,-0.755088 0.553948,-1.182082 2.137546,-2.211812 4.773615,-3.104021 0.686739,-0.232437 2.211738,-0.655412 2.243699,-0.622315 0.01812,0.01871 0.267735,1.000528 0.255194,1.00385 -0.0046,0.0013 -0.197168,0.160242 -0.427714,0.353324 -0.72735,0.609172 -1.28463,1.388753 -1.532646,2.144021 -0.16946,0.516069 -0.171927,1.437226 -0.0051,1.935034 0.281532,0.840386 0.776505,1.533527 1.560266,2.184935 0.218185,0.181343 0.402598,0.33295 0.40981,0.336909 0.0072,0.004 -0.03964,0.226912 -0.104092,0.495447 -0.09457,0.393971 -0.135182,0.490246 -0.210366,0.498602 -0.05124,0.0058 -0.37056,-0.06699 -0.709592,-0.161497 z"
       id="path845"
       inkscape:connector-curvature="0"
       inkscape:export-xdpi="96"
       inkscape:export-ydpi="96" />
    <path
       style="fill:#ffffff;fill-opacity:1;stroke:#ffffff;stroke-width:0.04931381;stroke-opacity:1"
       d="m 25.020352,36.453172 c -0.64988,-0.231802 -1.821863,-0.785493 -2.253036,-1.064426 l -0.25583,-0.165498 0.19488,-0.517794 c 0.18843,-0.500676 0.856489,-1.920319 1.000266,-2.12559 0.06677,-0.09531 0.09442,-0.06555 0.519048,0.558593 0.246696,0.362595 0.678294,0.947993 0.959109,1.300886 l 0.51057,0.641623 0.03509,0.79852 c 0.02823,0.642522 0.02251,0.798035 -0.02928,0.796037 -0.03541,-0.0014 -0.341772,-0.101417 -0.680801,-0.22235 z"
       id="path849"
       inkscape:connector-curvature="0"
       inkscape:export-xdpi="96"
       inkscape:export-ydpi="96" />
    <path
       style="fill:#ffffff;fill-opacity:1;stroke:#ffffff;stroke-width:0.04931381;stroke-opacity:1"
       d="m 23.321683,30.550762 c -0.231121,-0.467864 -0.507407,-1.08367 -0.613971,-1.368457 l -0.193745,-0.517795 0.254591,-0.165797 c 0.418595,-0.272593 1.693318,-0.870617 2.316679,-1.086847 0.320471,-0.111175 0.604642,-0.202118 0.631488,-0.202118 0.03161,0 0.03674,0.282388 0.01453,0.801351 l -0.03424,0.801348 -0.357505,0.443825 c -0.451963,0.56109 -1.152177,1.522373 -1.36459,1.873368 -0.08954,0.147941 -0.178596,0.269614 -0.197905,0.270385 -0.01931,7.9e-4 -0.224231,-0.381401 -0.45535,-0.849267 z"
       id="path851"
       inkscape:connector-curvature="0"
       inkscape:export-xdpi="96"
       inkscape:export-ydpi="96" />
    <path
       style="fill:#ffffff;fill-opacity:1;stroke:#ffffff;stroke-width:0.04931381;stroke-opacity:1"
       d="m 26.565263,27.776862 c 0.01354,-0.05424 0.06111,-0.269372 0.105618,-0.478058 l 0.08096,-0.379432 0.37943,-0.08095 c 0.208688,-0.04451 0.423813,-0.09205 0.47806,-0.105619 0.05619,-0.01413 -0.0331,0.09476 -0.207503,0.25288 -0.168364,0.152658 -0.431029,0.415316 -0.583686,0.583684 -0.158113,0.174397 -0.266937,0.263688 -0.252877,0.207502 z"
       id="path855"
       inkscape:connector-curvature="0"
       inkscape:export-xdpi="96"
       inkscape:export-ydpi="96" />
    <path
       style="fill:#ffffff;fill-opacity:1;stroke:#ffffff;stroke-width:0.04931381;stroke-opacity:1"
       d="m 27.057289,37.040706 -0.305471,-0.07242 -0.08093,-0.379382 c -0.04451,-0.20866 -0.09263,-0.423766 -0.106917,-0.478011 -0.01593,-0.06023 -0.0088,-0.07944 0.01812,-0.0493 0.02426,0.02713 0.263911,0.276773 0.532568,0.554778 0.539245,0.558013 0.538226,0.565545 -0.05739,0.424346 z"
       id="path857"
       inkscape:connector-curvature="0"
       inkscape:export-xdpi="96"
       inkscape:export-ydpi="96" />
    <path
       style="fill:#ffffff;fill-opacity:1;stroke:#ffffff;stroke-width:0.04931381;stroke-opacity:1"
       d="m 36.43682,36.618357 c 0.298172,-0.308379 0.5484,-0.55724 0.556061,-0.553023 0.01997,0.01093 -0.172625,0.86177 -0.201636,0.890785 -0.01333,0.01333 -0.165119,0.05603 -0.337404,0.09497 -0.172265,0.03893 -0.368558,0.08367 -0.436188,0.09937 -0.092,0.02138 0.01354,-0.112564 0.419167,-0.532116 z"
       id="path859"
       inkscape:connector-curvature="0"
       inkscape:export-xdpi="96"
       inkscape:export-ydpi="96" />
    <path
       style="fill:#ffffff;fill-opacity:1;stroke:#ffffff;stroke-width:0.04931381;stroke-opacity:1"
       d="m 36.430335,27.270028 c -0.30174,-0.305882 -0.512556,-0.546339 -0.468482,-0.53435 0.04408,0.01194 0.252072,0.05848 0.462218,0.103329 0.317937,0.06784 0.386243,0.09961 0.406879,0.189147 0.126264,0.547902 0.175212,0.785959 0.162751,0.791477 -0.0082,0.0035 -0.261627,-0.243735 -0.563366,-0.549616 z"
       id="path861"
       inkscape:connector-curvature="0"
       inkscape:export-xdpi="96"
       inkscape:export-ydpi="96" />
    <path
       style="fill:#ffffff;fill-opacity:1;stroke:#ffffff;stroke-width:0.04931381;stroke-opacity:1"
       d="m 18.481779,26.668366 c 0.948689,-0.552673 2.014509,-1.294719 2.859708,-1.990992 0.187115,-0.154152 0.346181,-0.274292 0.353481,-0.266993 0.0074,0.0074 -0.02014,0.135302 -0.061,0.284434 -0.04126,0.150687 -0.08616,0.590519 -0.101007,0.990033 l -0.02676,0.718874 -0.523695,0.06292 c -0.575254,0.06911 -2.557293,0.369936 -2.792338,0.423799 -0.08821,0.02021 0.02929,-0.06927 0.291596,-0.22208 z"
       id="path865"
       inkscape:connector-curvature="0"
       inkscape:export-xdpi="96"
       inkscape:export-ydpi="96" />
    <path
       style="fill:#ffffff;fill-opacity:1;stroke:#ffffff;stroke-width:0.04931381;stroke-opacity:1"
       d="m 24.312131,21.772904 c 0.02052,-0.0339 0.173799,-0.228076 0.34063,-0.431495 0.651466,-0.79436 1.393613,-1.866801 1.818978,-2.62851 0.103011,-0.184488 0.196949,-0.325775 0.208734,-0.313992 0.01175,0.01174 -0.05704,0.528875 -0.152958,1.149094 -0.09591,0.62022 -0.200948,1.355133 -0.233412,1.633139 l -0.05903,0.505466 -0.545718,0.0017 c -0.300144,9.49e-4 -0.723245,0.03381 -0.940226,0.073 -0.483964,0.08745 -0.482893,0.08741 -0.436996,0.01155 z"
       id="path867"
       inkscape:connector-curvature="0"
       inkscape:export-xdpi="96"
       inkscape:export-ydpi="96" />
    <path
       style="fill:#ffffff;fill-opacity:1;stroke:#ffffff;stroke-width:0.04931381;stroke-opacity:1"
       d="m 21.295229,39.162468 c -0.818199,-0.671238 -1.843145,-1.3854 -2.732475,-1.903934 l -0.421678,-0.245864 0.221912,0.02835 c 0.122043,0.01553 0.572244,0.08369 1.000427,0.151304 0.428185,0.06762 1.085257,0.161578 1.460162,0.208769 l 0.681646,0.08582 0.0307,0.668127 c 0.01692,0.367472 0.06275,0.812161 0.101918,0.988197 0.03917,0.176048 0.06645,0.32485 0.0606,0.33069 -0.0058,0.0058 -0.187275,-0.134305 -0.4032,-0.311445 z"
       id="path869"
       inkscape:connector-curvature="0"
       inkscape:export-xdpi="96"
       inkscape:export-ydpi="96" />
    <path
       style="fill:#ffffff;fill-opacity:1;stroke:#ffffff;stroke-width:0.04931381;stroke-opacity:1"
       d="m 26.632199,45.478876 c -0.276634,-0.580107 -1.365599,-2.178924 -2.041883,-2.99789 -0.175273,-0.212248 -0.308601,-0.39597 -0.296297,-0.408275 0.01234,-0.01234 0.216958,0.01154 0.454783,0.05302 0.237827,0.04147 0.668122,0.0754 0.956212,0.0754 h 0.5238 l 0.113566,0.865327 c 0.06246,0.47593 0.176925,1.247075 0.254386,1.713655 0.07746,0.466579 0.135679,0.853595 0.12939,0.860036 -0.0064,0.0064 -0.04857,-0.06614 -0.09394,-0.161298 z"
       id="path873"
       inkscape:connector-curvature="0"
       inkscape:export-xdpi="96"
       inkscape:export-ydpi="96" />
    <path
       style="fill:#ffffff;fill-opacity:1;stroke:#ffffff;stroke-width:0.04931381;stroke-opacity:1"
       d="m 27.04222,25.890268 c 0,-0.06542 0.265455,-0.828388 0.437072,-1.256223 0.188528,-0.469978 0.633584,-1.355838 0.853688,-1.699196 l 0.164005,-0.255827 0.517795,0.194063 c 0.563084,0.211033 2.219989,1.01036 2.217723,1.069877 -7.9e-4,0.0202 -0.122441,0.110002 -0.270385,0.199524 -0.350991,0.212412 -1.312278,0.912628 -1.873367,1.364591 l -0.443825,0.357503 -0.801348,0.03424 c -0.44637,0.01911 -0.801348,0.01533 -0.801348,-0.0085 z"
       id="path875"
       inkscape:connector-curvature="0"
       inkscape:export-xdpi="96"
       inkscape:export-ydpi="96" />
    <path
       style="fill:#ffffff;fill-opacity:1;stroke:#ffffff;stroke-width:0.04931381;stroke-opacity:1"
       d="m 26.651045,25.224056 c -0.0069,-0.17997 0.461361,-2.834603 0.508359,-2.88197 0.01174,-0.01175 0.781609,0.177561 0.801042,0.196989 0.0069,0.0069 -0.05597,0.123257 -0.140058,0.258239 -0.235625,0.378255 -0.697375,1.32807 -0.898458,1.848115 -0.256307,0.662874 -0.266805,0.685298 -0.270893,0.578621 z"
       id="path877"
       inkscape:connector-curvature="0"
       inkscape:export-xdpi="96"
       inkscape:export-ydpi="96" />
    <path
       style="fill:#ffffff;fill-opacity:1;stroke:#ffffff;stroke-width:0.04931381;stroke-opacity:1"
       d="m 27.781925,21.946532 c -0.257665,-0.06802 -0.475727,-0.130145 -0.484583,-0.138048 -0.03028,-0.02701 0.339309,-1.378364 0.566067,-2.069781 0.574511,-1.751785 1.184351,-2.993892 1.921428,-3.913505 0.387451,-0.483406 0.757633,-0.794417 1.202487,-1.010278 0.291158,-0.141272 0.363715,-0.155544 0.791578,-0.155544 0.447554,0 0.490301,0.0096 0.857381,0.190937 1.246498,0.616052 2.427202,2.654826 3.31193,5.718857 0.149474,0.517639 0.276093,1.016548 0.281392,1.108685 l 0.0096,0.167529 -0.487991,0.118579 -0.48799,0.118581 -0.07119,-0.101645 c -0.21915,-0.312989 -0.713507,-0.828055 -1.063314,-1.107934 -1.213681,-0.971066 -2.507134,-1.174355 -3.767334,-0.592108 -0.637274,0.294438 -1.266427,0.802116 -1.765744,1.424818 -0.162731,0.202947 -0.306978,0.367988 -0.32054,0.366756 -0.01354,-0.0013 -0.235474,-0.05789 -0.493138,-0.125906 z"
       id="path879"
       inkscape:connector-curvature="0"
       inkscape:export-xdpi="96"
       inkscape:export-ydpi="96" />
    <path
       style="fill:#ffffff;fill-opacity:1;stroke:#ffffff;stroke-width:0.04931381;stroke-opacity:1"
       d="m 26.897322,20.872928 c -0.0013,-0.05424 0.0642,-0.530192 0.145334,-1.057657 0.82017,-5.331371 2.096077,-9.103225 3.540179,-10.4655171 0.464672,-0.4383495 0.721786,-0.5587108 1.19351,-0.5587108 0.477047,0 0.802581,0.1528575 1.234137,0.5795202 1.378815,1.3631667 2.605409,4.9076297 3.400267,9.8256967 0.187734,1.161571 0.269278,1.77441 0.223095,1.676668 -0.01274,-0.02713 -0.111232,-0.351109 -0.218708,-0.719972 -0.434006,-1.489571 -1.148628,-3.130015 -1.774175,-4.0727 -0.58461,-0.880993 -1.40133,-1.613467 -2.063094,-1.850284 -0.358454,-0.128273 -0.893481,-0.166553 -1.261186,-0.09021 -1.299938,0.269867 -2.563287,1.755763 -3.523499,4.144191 -0.247392,0.61536 -0.54002,1.475984 -0.771314,2.268435 -0.06728,0.230543 -0.123338,0.374786 -0.124552,0.32054 z"
       id="path881"
       inkscape:connector-curvature="0"
       inkscape:export-xdpi="96"
       inkscape:export-ydpi="96" />
    <path
       style="fill:#ffffff;fill-opacity:1;stroke:#ffffff;stroke-width:0.04931381;stroke-opacity:1"
       d="m 35.434736,25.890778 -0.508625,-0.01593 -0.504263,-0.408658 c -0.277346,-0.22476 -0.825158,-0.633909 -1.217359,-0.909218 -0.392203,-0.27531 -0.756082,-0.530801 -0.808622,-0.567756 -0.08756,-0.06159 -0.0382,-0.09627 0.591765,-0.415776 0.682724,-0.346264 1.340935,-0.635591 1.830483,-0.804619 l 0.255541,-0.08822 0.210215,0.353715 c 0.244665,0.41168 0.635779,1.191044 0.787679,1.569588 0.138626,0.34547 0.438921,1.219972 0.438921,1.278209 0,0.02506 -0.127597,0.04091 -0.283555,0.03517 -0.155963,-0.0058 -0.512437,-0.01752 -0.79218,-0.02642 z"
       id="path885"
       inkscape:connector-curvature="0"
       inkscape:export-xdpi="96"
       inkscape:export-ydpi="96" />
    <path
       style="fill:#ffffff;fill-opacity:1;stroke:#ffffff;stroke-width:0.04931381;stroke-opacity:1"
       d="m 36.738602,24.90974 c -0.221214,-0.605 -0.626816,-1.48004 -0.904932,-1.952296 l -0.25352,-0.43049 0.181602,-0.04809 c 0.298118,-0.07895 0.621862,-0.146528 0.635698,-0.132694 0.05821,0.05821 0.519977,2.709167 0.497478,2.855895 -0.0082,0.05369 -0.07646,-0.07387 -0.156321,-0.292327 z"
       id="path887"
       inkscape:connector-curvature="0"
       inkscape:export-xdpi="96"
       inkscape:export-ydpi="96" />
    <path
       style="fill:#ffffff;fill-opacity:1;stroke:#ffffff;stroke-width:0.04931381;stroke-opacity:1"
       d="m 38.951504,21.803171 c -0.162731,-0.03732 -0.594342,-0.08436 -0.959125,-0.104548 l -0.66324,-0.03669 -0.134107,-0.986276 c -0.07375,-0.542451 -0.180288,-1.255035 -0.236735,-1.58352 -0.05645,-0.328486 -0.102635,-0.637903 -0.102635,-0.687598 0,-0.0497 0.174515,0.200301 0.387793,0.555547 0.545981,0.909372 1.214658,1.852714 1.817996,2.564748 0.142944,0.168704 0.259902,0.318492 0.259902,0.33287 0,0.03089 0.0074,0.03198 -0.369853,-0.05454 z"
       id="path889"
       inkscape:connector-curvature="0"
       inkscape:export-xdpi="96"
       inkscape:export-ydpi="96" />
    <path
       style="fill:#ffffff;fill-opacity:1;stroke:#ffffff;stroke-width:0.04931381;stroke-opacity:1"
       d="m 44.449993,26.739528 c -0.366154,-0.06227 -1.056556,-0.164444 -1.534226,-0.227042 l -0.868491,-0.113816 -0.02938,-0.69169 c -0.01612,-0.38043 -0.06195,-0.824656 -0.101758,-0.987166 -0.03981,-0.162513 -0.06619,-0.301656 -0.05864,-0.309206 0.0075,-0.0075 0.166792,0.11432 0.353877,0.270821 0.7664,0.641117 1.937939,1.461711 2.758857,1.932416 0.511647,0.293375 0.492688,0.297954 -0.520237,0.125687 z"
       id="path893"
       inkscape:connector-curvature="0"
       inkscape:export-xdpi="96"
       inkscape:export-ydpi="96" />
    <path
       style="fill:#ffffff;fill-opacity:1;stroke:#ffffff;stroke-width:0.04931381;stroke-opacity:1"
       d="m 40.898734,27.968539 c -0.393452,-0.249083 -1.270565,-0.671741 -1.922574,-0.92644 -0.311911,-0.121845 -0.521958,-0.222733 -0.466773,-0.224196 0.208031,-0.0056 2.814637,0.457863 2.869392,0.510096 0.01493,0.01413 -0.166036,0.768374 -0.190162,0.792501 -0.01059,0.01059 -0.141073,-0.05775 -0.289886,-0.151962 z"
       id="path895"
       inkscape:connector-curvature="0"
       inkscape:export-xdpi="96"
       inkscape:export-ydpi="96" />
    <path
       style="fill:#ffffff;fill-opacity:1;stroke:#ffffff;stroke-width:0.04931381;stroke-opacity:1"
       d="m 39.324586,30.745731 c -0.245359,-0.36063 -0.675672,-0.944181 -0.956251,-1.296779 l -0.510144,-0.641085 -0.03294,-0.799058 c -0.01812,-0.439481 -0.01513,-0.799056 0.0067,-0.799056 0.06995,0 1.009296,0.327081 1.341324,0.467047 0.543978,0.229312 1.875632,0.926525 1.873684,0.981001 -0.0019,0.05331 -0.388112,1.01778 -0.56103,1.401077 -0.224599,0.497854 -0.663731,1.342547 -0.697951,1.342547 -0.0096,0 -0.218173,-0.295062 -0.463533,-0.655694 z"
       id="path897"
       inkscape:connector-curvature="0"
       inkscape:export-xdpi="96"
       inkscape:export-ydpi="96" />
    <path
       style="fill:#ffffff;fill-opacity:1;stroke:#ffffff;stroke-width:0.04931381;stroke-opacity:1"
       d="m 37.82525,35.878948 0.03294,-0.799057 0.510144,-0.641087 c 0.280578,-0.352596 0.710893,-0.936147 0.956252,-1.29678 0.245359,-0.360632 0.453985,-0.655694 0.463612,-0.655694 0.0319,0 0.500552,0.904666 0.715293,1.380787 0.297161,0.658867 0.548334,1.347248 0.505822,1.386286 -0.119774,0.109979 -1.0861,0.622718 -1.599801,0.848872 -0.549784,0.242039 -1.461208,0.57573 -1.572518,0.57573 -0.02622,0 -0.03107,-0.330184 -0.01175,-0.799057 z"
       id="path903"
       inkscape:connector-curvature="0"
       inkscape:export-xdpi="96"
       inkscape:export-ydpi="96" />
    <path
       style="fill:#ffffff;fill-opacity:1;stroke:#ffffff;stroke-width:0.04931381;stroke-opacity:1"
       d="m 41.837159,36.221852 c -0.02876,-0.115275 -0.08686,-0.339402 -0.12913,-0.498069 -0.07497,-0.28159 -0.07428,-0.290239 0.02804,-0.361928 0.316028,-0.221354 0.830094,-0.714369 1.111147,-1.065639 1.222689,-1.528173 1.222689,-3.176501 0,-4.704676 -0.280113,-0.350098 -0.794978,-0.844188 -1.108573,-1.063836 l -0.102271,-0.07164 0.122004,-0.48079 c 0.0671,-0.264434 0.133488,-0.492275 0.147523,-0.506313 0.03386,-0.03386 0.525979,0.08978 1.459176,0.366577 2.929532,0.868953 4.904931,2.034642 5.504803,3.248403 0.181642,0.367521 0.190938,0.409416 0.190938,0.85994 0,0.450523 -0.0093,0.492418 -0.190938,0.859939 -0.540978,1.094595 -2.214494,2.166071 -4.657353,2.981889 -0.727125,0.24283 -2.136737,0.645727 -2.259205,0.645727 -0.03514,0 -0.08741,-0.09431 -0.116171,-0.209582 z"
       id="path905"
       inkscape:connector-curvature="0"
       inkscape:export-xdpi="96"
       inkscape:export-ydpi="96" />
    <path
       style="fill:#ffffff;fill-opacity:1;stroke:#ffffff;stroke-width:0.04931381;stroke-opacity:1"
       d="m 43.499523,36.602227 c 1.573202,-0.46011 3.179175,-1.155853 4.140444,-1.793732 0.875077,-0.580686 1.605186,-1.389686 1.850931,-2.050939 0.154769,-0.416427 0.15666,-1.206554 0.004,-1.615202 -0.573712,-1.534601 -2.737123,-2.906445 -6.156488,-3.903901 -0.68981,-0.201223 -0.657395,-0.210924 0.258323,-0.07731 6.072867,0.886108 10.382453,2.478243 11.196858,4.136572 0.194441,0.395937 0.193307,0.898698 -0.003,1.29834 -0.739718,1.506367 -4.35249,2.959156 -9.652244,3.881411 -0.952759,0.165797 -2.176376,0.349615 -2.306035,0.34642 -0.04598,-0.0011 0.254291,-0.100882 0.667262,-0.22166 z"
       id="path907"
       inkscape:connector-curvature="0"
       inkscape:export-xdpi="96"
       inkscape:export-ydpi="96" />
    <path
       style="fill:#ffffff;fill-opacity:1;stroke:#ffffff;stroke-width:0.04931381;stroke-opacity:1"
       d="m 38.951504,36.854366 c 0.710197,-0.278638 1.388096,-0.599462 1.860516,-0.880508 l 0.381102,-0.226721 0.04818,0.18188 c 0.07521,0.283959 0.146847,0.621883 0.134485,0.634252 -0.05026,0.05026 -2.662815,0.511986 -2.866383,0.506586 -0.05518,-0.0015 0.143759,-0.09843 0.442114,-0.215487 z"
       id="path909"
       inkscape:connector-curvature="0"
       inkscape:export-xdpi="96"
       inkscape:export-ydpi="96" />
    <path
       style="fill:#ffffff;fill-opacity:1;stroke:#ffffff;stroke-width:0.04931381;stroke-opacity:1"
       d="m 41.855863,39.402594 c 0.09617,-0.317382 0.13538,-0.614091 0.161636,-1.222904 l 0.02986,-0.692779 0.681699,-0.08582 c 0.374935,-0.0472 1.032033,-0.141154 1.460215,-0.208774 1.372299,-0.21674 1.31839,-0.238374 0.556605,0.223363 -0.754583,0.457369 -1.910216,1.274443 -2.477804,1.751897 -0.210084,0.176725 -0.394655,0.32131 -0.410164,0.32131 -0.01553,0 -0.01652,-0.03884 -0.0019,-0.0863 z"
       id="path913"
       inkscape:connector-curvature="0"
       inkscape:export-xdpi="96"
       inkscape:export-ydpi="96" />
    <path
       style="fill:#ffffff;fill-opacity:1;stroke:#ffffff;stroke-width:0.04931381;stroke-opacity:1"
       d="m 36.855665,45.485208 c 0,-0.05079 0.04618,-0.36112 0.102635,-0.689604 0.05643,-0.328484 0.162971,-1.041069 0.236721,-1.58352 l 0.134086,-0.986277 0.687913,-0.03165 c 0.378354,-0.01732 0.805949,-0.0584 0.950213,-0.09111 0.144259,-0.0327 0.272746,-0.04903 0.285512,-0.03627 0.01274,0.01274 -0.205581,0.309843 -0.485212,0.660173 -0.583996,0.731644 -1.215698,1.647248 -1.627033,2.358259 -0.15666,0.270793 -0.284835,0.450786 -0.284835,0.399988 z"
       id="path915"
       inkscape:connector-curvature="0"
       inkscape:export-xdpi="96"
       inkscape:export-ydpi="96" />
    <path
       style="fill:#ffffff;fill-opacity:1;stroke:#ffffff;stroke-width:0.04931381;stroke-opacity:1"
       d="m 36.140616,41.504196 c -0.108488,-0.02528 -0.279102,-0.06792 -0.379135,-0.09476 l -0.181881,-0.04879 0.226721,-0.381101 c 0.281046,-0.472421 0.601871,-1.15032 0.880508,-1.860518 0.122104,-0.311229 0.21378,-0.4899 0.215062,-0.419166 0.0026,0.147403 -0.24814,1.650993 -0.389579,2.335503 -0.05526,0.267433 -0.100472,0.494893 -0.100472,0.505468 0,0.02399 -0.02631,0.02043 -0.271226,-0.03664 z"
       id="path917"
       inkscape:connector-curvature="0"
       inkscape:export-xdpi="96"
       inkscape:export-ydpi="96" />
    <path
       style="fill:#ffffff;fill-opacity:1;stroke:#ffffff;stroke-width:0.04931381;stroke-opacity:1"
       d="m 31.258548,49.186247 c -1.288557,-0.424051 -2.444836,-2.139562 -3.395139,-5.037199 -0.240425,-0.733095 -0.595373,-2.042211 -0.562601,-2.074982 0.02437,-0.02437 0.989722,-0.270607 0.997715,-0.254496 0.0032,0.0064 0.154191,0.190241 0.335522,0.408427 1.368057,1.646018 3.123265,2.132517 4.7119,1.30602 0.631015,-0.328291 1.429257,-1.032015 1.846771,-1.628097 l 0.07184,-0.102556 0.364059,0.09583 c 0.200233,0.05271 0.42737,0.109922 0.504746,0.127139 0.132155,0.02942 0.138625,0.04238 0.106735,0.214023 -0.07122,0.383136 -0.574411,2.048502 -0.816947,2.703747 -0.325587,0.879624 -0.88979,2.035955 -1.284344,2.632262 -0.433675,0.655432 -1.014312,1.219773 -1.50416,1.461943 -0.33787,0.167031 -0.432586,0.191456 -0.781642,0.201466 -0.227745,0.0066 -0.481341,-0.01633 -0.594444,-0.05353 z"
       id="path919"
       inkscape:connector-curvature="0"
       inkscape:export-xdpi="96"
       inkscape:export-ydpi="96" />
    <path
       style="fill:#ffffff;fill-opacity:1;stroke:#ffffff;stroke-width:0.04931381;stroke-opacity:1"
       d="m 34.537918,41.013951 c -0.501844,-0.188948 -1.920635,-0.856797 -2.126423,-1.000936 -0.09692,-0.0679 -0.08215,-0.08385 0.327846,-0.353842 0.530836,-0.349584 1.308721,-0.924542 1.798577,-1.329384 l 0.369852,-0.305664 0.80564,-0.03368 0.805641,-0.03368 -0.0348,0.158452 c -0.05084,0.231471 -0.382622,1.110354 -0.608726,1.6125 -0.171928,0.381832 -0.701084,1.353354 -0.78823,1.447183 -0.01732,0.01871 -0.264588,-0.05373 -0.549375,-0.160959 z"
       id="path923"
       inkscape:connector-curvature="0"
       inkscape:export-xdpi="96"
       inkscape:export-ydpi="96" />
    <path
       style="fill:#ffffff;fill-opacity:1;stroke:#ffffff;stroke-width:0.04931381;stroke-opacity:1"
       d="m 28.258718,40.827487 c -0.329961,-0.548132 -0.780772,-1.523162 -1.013716,-2.192495 -0.111528,-0.320471 -0.202782,-0.604091 -0.202782,-0.630264 0,-0.03 0.296203,-0.03522 0.801348,-0.01413 l 0.801349,0.0335 0.369854,0.30561 c 0.459278,0.379503 1.164125,0.899325 1.762969,1.300181 0.250883,0.167947 0.456151,0.313887 0.456151,0.324332 0,0.08157 -1.782278,0.92167 -2.403776,1.133055 l -0.344466,0.117167 z"
       id="path925"
       inkscape:connector-curvature="0"
       inkscape:export-xdpi="96"
       inkscape:export-ydpi="96" />
    <path
       style="fill:#ffffff;fill-opacity:1;stroke:#ffffff;stroke-width:0.04931381;stroke-opacity:1"
       d="m 26.975269,40.636917 c -0.326536,-1.706656 -0.406311,-2.401057 -0.20554,-1.789105 0.154769,0.471709 0.641278,1.535753 0.924469,2.021865 0.177103,0.304009 0.253394,0.479239 0.217309,0.499122 -0.03057,0.01692 -0.177661,0.05762 -0.326836,0.09061 -0.149175,0.03299 -0.307447,0.06979 -0.351718,0.0818 -0.0681,0.01851 -0.107747,-0.12065 -0.257684,-0.904282 z"
       id="path929"
       inkscape:connector-curvature="0"
       inkscape:export-xdpi="96"
       inkscape:export-ydpi="96" />
    <path
       style="fill:#ffffff;fill-opacity:1;stroke:#ffffff;stroke-width:0.04931381;stroke-opacity:1"
       d="m 31.248395,55.02012 c -0.356587,-0.140675 -0.9294,-0.6891 -1.302786,-1.247318 -1.1833,-1.769051 -2.211241,-5.20395 -2.902953,-9.700315 -0.17766,-1.154797 -0.181384,-1.287382 -0.02078,-0.737118 0.776637,2.660913 1.645315,4.405666 2.726131,5.475472 0.515067,0.509821 1.014774,0.81577 1.527637,0.935306 0.346953,0.08085 0.944414,0.04049 1.30223,-0.088 0.662641,-0.237959 1.478716,-0.969999 2.063093,-1.850641 0.625546,-0.942682 1.340168,-2.583127 1.774176,-4.072697 0.107475,-0.368863 0.205891,-0.692851 0.218706,-0.719975 0.09367,-0.198263 -0.339219,2.496164 -0.617992,3.846478 -0.919131,4.452079 -2.240777,7.437455 -3.583425,8.09435 -0.376468,0.184189 -0.819418,0.208306 -1.184032,0.06448 z"
       id="path931"
       inkscape:connector-curvature="0"
       inkscape:export-xdpi="96"
       inkscape:export-ydpi="96" />
    <path
       style="fill:#ffffff;fill-opacity:1;stroke:#ffffff;stroke-width:0.04931381;stroke-opacity:1"
       d="m 22.270255,27.742605 -0.09612,-0.409567 0.350542,-0.08494 c 0.453836,-0.10998 2.359055,-0.433588 2.533857,-0.430386 0.08798,0.0016 -0.01891,0.05874 -0.30939,0.165339 -0.739483,0.271373 -1.776112,0.771654 -2.271422,1.096193 -0.110582,0.07246 -0.111972,0.07018 -0.207452,-0.33663 z"
       id="path935"
       inkscape:connector-curvature="0"
       inkscape:export-xdpi="96"
       inkscape:export-ydpi="96" />
    <path
       style="fill:#ffffff;fill-opacity:1;stroke:#ffffff;stroke-width:0.04931381;stroke-opacity:1"
       d="m 23.910792,36.903571 c -1.457202,-0.25238 -1.756484,-0.32461 -1.731281,-0.417842 0.01174,-0.04344 0.04834,-0.201002 0.08132,-0.350178 0.09037,-0.40875 0.09079,-0.409011 0.368338,-0.236114 0.378814,0.235973 1.328352,0.697632 1.848741,0.898848 0.257665,0.09963 0.512865,0.200584 0.567109,0.224348 0.195218,0.08551 -0.181085,0.04602 -1.134217,-0.119057 z"
       id="path939"
       inkscape:connector-curvature="0"
       inkscape:export-xdpi="96"
       inkscape:export-ydpi="96" />
  </g>
</svg>
