<svg xmlns="http://www.w3.org/2000/svg" xmlns:xlink="http://www.w3.org/1999/xlink" version="1.1" x="0px" y="0px" viewBox="0 0 100 125" style="enable-background:new 0 0 100 100;" xml:space="preserve"><path d="M50,5C25.186758,5,5,25.186758,5,50c0,24.8127594,20.186758,45,45,45c24.8127594,0,45-20.1872406,45-45  C95,25.186758,74.8127594,5,50,5z M94.2561951,50c0,0.0047836-0.0003586,0.0094414-0.0003586,0.014225  c-0.0007858-0.0046616-0.0013962-0.0094414-0.002182-0.014164c0.0007858-0.0046616,0.0013962-0.0094452,0.002182-0.014164  C94.2558365,49.9906158,94.2561951,49.9952774,94.2561951,50z M93.8985214,55.5285759  c-0.1296539-0.6148109-0.2739029-1.2233887-0.4276505-1.8276062c0.1880722-0.736599,0.3568878-1.4788857,0.5075531-2.2265625  c0.0663986,0.494175,0.1176071,0.9916153,0.1674881,1.489418C94.0885925,53.8259659,94.0047531,54.6804771,93.8985214,55.5285759z   M5.7438016,50c0-0.0041161,0.0003028-0.00811,0.0003028-0.0122261C5.7447701,49.99189,5.7453151,49.996006,5.7459807,50.000061  c-0.0006657,0.0041161-0.0012107,0.0082321-0.0018764,0.0122871C5.7441044,50.0081711,5.7438016,50.0041771,5.7438016,50z   M6.1012359,44.4732399c0.1295962,0.6145706,0.2738409,1.2228432,0.4275284,1.8268204  c-0.1880689,0.7364769-0.3568892,1.4785233-0.5075502,2.226078c-0.0663419-0.4935074-0.1174297-0.990284-0.1673069-1.4874229  C5.9112296,46.1762733,5.9950042,45.321579,6.1012359,44.4732399z M94.1459122,47.036232  c-0.049881,0.4978676-0.1010895,0.9952469-0.1674881,1.4894829c-0.1506653-0.7476158-0.3194809-1.4897842-0.5074921-2.2263222  c0.1537476-0.6042786,0.2979965-1.2128525,0.4276505-1.8276634C94.0048141,45.3197021,94.0885925,46.1741562,94.1459122,47.036232z   M16.4068966,50.000061c-0.9373798,1.0555344-1.8220367,2.1617317-2.6600237,3.307518  c-0.7540922-1.0664902-1.4615145-2.1701469-2.1223898-3.3073959c0.6608753-1.1372528,1.3683577-2.2409706,2.1225109-3.3075218  C14.5849209,47.8383865,15.4695768,48.9445267,16.4068966,50.000061z M14.0461969,46.2617416  c0.8433142-1.1631584,1.7468567-2.2757721,2.6943445-3.3463783c1.0722408,1.1803474,2.2037411,2.300045,3.3895988,3.3557014  c-1.1864014,1.0563202-2.3147545,2.1799545-3.3863907,3.3599396C15.7918425,48.5565224,14.8939304,47.4303474,14.0461969,46.2617416  z M16.7435074,50.3688736c1.0716362,1.179985,2.1999893,2.3036194,3.3863316,3.3598785  c-1.1858578,1.0557175-2.3174191,2.175354-3.3897209,3.3557663c-0.9474277-1.07061-1.8509703-2.1831627-2.6942844-3.3463211  C14.8935671,52.5695305,15.7916012,51.4433556,16.7435074,50.3688736z M17.0777569,49.9998169  c1.0824108-1.1945114,2.2246265-2.329525,3.4256172-3.3960762c1.406189,1.2241135,2.8868313,2.3567047,4.4301224,3.3960762  c-1.5432911,1.0393753-3.0239944,2.1719055-4.4301834,3.39608C19.3023224,52.3292847,18.1601086,51.1943321,17.0777569,49.9998169z   M45.5486298,50c-4.6271515,0.4656029-9.1119347,1.6388092-13.3098602,3.4543686  c-2.2296505-0.9770889-4.3747368-2.1312866-6.4115372-3.4546089c2.0366783-1.323143,4.1817055-2.4771614,6.4112358-3.4542503  C36.4364548,48.3611908,40.92136,49.5343971,45.5486298,50z M32.8480721,46.2785721  C38.1923294,44.0311241,44.0083046,42.8099174,50,42.8099174c5.9918785,0,11.8077316,1.2211456,17.1518707,3.4684715  C61.7935066,48.5315247,55.9738388,49.7520676,50,49.7520676C44.0261002,49.7520676,38.2064323,48.5316467,32.8480721,46.2785721z   M50,50.2479324c5.9736557,0,11.7933235,1.2204208,17.1516876,3.4734383C61.8074875,55.9688759,55.9915733,57.1900826,50,57.1900826  c-5.9915123,0-11.8073654-1.2212677-17.1516266-3.4688339C38.2066765,51.4682922,44.0262222,50.2479324,50,50.2479324z   M54.4512482,50c4.6272125-0.4656029,9.112114-1.6388702,13.3102264-3.45467  c2.2297058,0.9770851,4.374794,2.1311646,6.4115372,3.4544296c-2.0368042,1.3233223-4.1819534,2.477581-6.4117203,3.454731  C63.5632439,51.6388092,59.0783386,50.4656029,54.4512482,50z M68.367569,46.2696114  c2.1716003-0.9775696,4.2681427-2.112278,6.2583313-3.4184723c1.5675049,1.0456696,3.0671539,2.1904869,4.4911957,3.4268265  c-1.4258575,1.2373085-2.9296265,2.3784943-4.4971313,3.4238586C72.6312332,48.3965416,70.5411682,47.2477264,68.367569,46.2696114z   M67.7579651,46.0026703c-4.1452675-1.7923126-8.5770874-2.9719963-13.1613808-3.4470444  c4.576786-0.4749832,9.022953-1.6437721,13.1906166-3.4468613c2.2228088,0.9746056,4.3606339,2.1223297,6.3877487,3.4392357  C72.134819,43.8733215,69.9877319,45.0257072,67.7579651,46.0026703z M50,42.3140488  c-5.9597359,0-11.7787361-1.2250214-17.1489639-3.4806366C38.1791954,36.5958939,43.9879074,35.3719025,50,35.3719025  s11.8207436,1.2239304,17.1487808,3.4614487C61.778553,41.0890274,55.9595528,42.3140488,50,42.3140488z M45.4035988,42.5556259  c-4.5843544,0.4750481-9.0162964,1.65485-13.1616211,3.4472885c-2.2298908-0.9769669-4.3771591-2.1294708-6.417347-3.4548531  c2.027235-1.317028,4.1652412-2.4646912,6.3881721-3.4393578C36.3805237,40.9118538,40.8268089,42.0805817,45.4035988,42.5556259z   M31.6324329,46.2697945c-2.1734161,0.9781151-4.263422,2.1269264-6.252037,3.4321518  c-1.567625-1.0454865-3.0715122-2.1867332-4.4975548-3.4241028c1.4239845-1.2362785,2.9236336-2.3810959,4.4910164-3.4267044  C27.364109,44.1573906,29.4606514,45.2922821,31.6324329,46.2697945z M25.3803349,50.2976303  c1.9886761,1.3053436,4.0788021,2.454216,6.2523403,3.432457c-2.1717815,0.9775696-4.268446,2.112339-6.2587566,3.4185905  c-1.567503-1.0457268-3.0672131-2.1906052-4.4912586-3.4269447C22.3087025,52.4843025,23.8125896,51.3430557,25.3803349,50.2976303z   M32.242218,53.9969635c4.1454506,1.7924995,8.5772667,2.9722443,13.1616211,3.4473495  c-4.5769691,0.4749832-9.0232544,1.6436501-13.1910973,3.4468613c-2.2228107-0.9746666-4.360817-2.1223297-6.387991-3.4393578  C27.8649998,56.1264954,30.0122681,54.9739304,32.242218,53.9969635z M50,57.6859512  c5.9599152,0,11.7790375,1.2248993,17.1492615,3.4805145C61.821106,63.4041061,56.0122757,64.6280975,50,64.6280975  c-6.0122147,0-11.8209877-1.2239914-17.1490822-3.4616318C38.2212029,58.9108505,44.0402641,57.6859512,50,57.6859512z   M54.5962181,57.444313c4.5844765-0.4750481,9.0162964-1.6546707,13.1616249-3.4471664  c2.2298279,0.9770279,4.3771591,2.1294098,6.4173431,3.454731c-2.0271149,1.316967-4.1650543,2.4646912-6.3878632,3.4392967  C63.6194763,59.0880241,59.17313,57.9192963,54.5962181,57.444313z M68.3674469,53.7302055  c2.1735992-0.9781761,4.2637863-2.1272316,6.2525177-3.4325752c1.567627,1.0454865,3.0715179,2.1866722,4.4974365,3.4241028  c-1.4241028,1.2364006-2.9237518,2.381279-4.4913177,3.4270058C72.6358337,55.8424873,70.5392303,54.7077789,68.3674469,53.7302055z   M75.0669861,49.9997597c1.5431137-1.0393143,3.0235748-2.1717224,4.4296417-3.3957748  C80.6976776,47.6705971,81.8398895,48.8054848,82.9222412,50c-1.0822296,1.1943932-2.2243805,2.3292236-3.4252548,3.3957138  C78.0908585,52.1716614,76.6102219,51.0390701,75.0669861,49.9997597z M79.8697968,46.2713051  c1.1859818-1.0557747,2.317543-2.1754723,3.3899078-3.3559418c0.9474258,1.0706062,1.8510284,2.1832199,2.6943436,3.3463783  c-0.8477936,1.1687279-1.7459488,2.2950249-2.6979218,3.3695641C82.184494,48.4512596,81.0561981,47.3276291,79.8697968,46.2713051z   M83.2562485,50.3688126c0.9520264,1.074604,1.8501205,2.2008972,2.6979141,3.3696251  c-0.8431931,1.1630402-1.7466125,2.2754707-2.6939163,3.3459587c-1.0723038-1.1804695-2.2040482-2.3002281-3.3899612-3.3559456  C81.0565033,52.6721916,82.1847382,51.5487404,83.2562485,50.3688126z M83.592804,50.0001831  c0.937439-1.0556564,1.8222122-2.1619186,2.660202-3.3078232c0.7542114,1.0666695,1.4616928,2.1704483,2.1226349,3.3078232  c-0.6609421,1.1374321-1.3684845,2.2412109-2.1226959,3.3078804C85.4149551,52.16222,84.5302429,51.0558357,83.592804,50.0001831z   M86.5631638,46.26931c0.7465286-1.0463333,1.4517746-2.1265678,2.1098022-3.2417259  c0.5899887,1.0489998,1.142395,2.1235428,1.6484909,3.226532c-0.5105133,1.111042-1.0640106,2.1951485-1.6592636,3.2506828  C88.0066452,48.3931503,87.3072739,47.313343,86.5631638,46.26931z M86.2602081,45.8441429  c-0.8364105-1.1450005-1.7289963-2.242424-2.6654663-3.2980804c0.9423981-1.0609207,1.8348007-2.1707535,2.6773911-3.3239822  c0.7517929,1.0653381,1.4590912,2.1659088,2.117363,3.3011017C87.7257767,43.6650352,87.0173264,44.7743835,86.2602081,45.8441429z   M83.2623672,42.1742249c-1.0696411-1.179081-2.1992645-2.2985954-3.384758-3.3548584  c1.1902161-1.0598297,2.3246231-2.186306,3.4012833-3.3733749c0.9474869,1.0719986,1.8435822,2.1913948,2.6858673,3.3554611  C85.1156921,39.9723587,84.2151184,41.098774,83.2623672,42.1742249z M82.927269,42.5435219  c-1.0857391,1.1981468-2.2331009,2.3332787-3.4369354,3.4017677c-1.4015274-1.2203026-2.8767242-2.3514977-4.4165039-3.3889961  c1.5444412-1.0401001,3.0293808-2.1714172,4.4380493-3.3981972C80.7092972,40.2226524,81.8491516,41.352459,82.927269,42.5435219z   M74.6368561,42.2595711c-1.9803848-1.3010483-4.0638504-2.4470749-6.2320633-3.4241028  c2.1682129-0.9769058,4.256279-2.1253548,6.246048-3.4325752c1.5661087,1.045063,3.0624924,2.189518,4.4831467,3.4241028  C77.7063675,40.0665436,76.2046051,41.2137222,74.6368561,42.2595711z M67.7927704,38.571434  c-4.1278954-1.7870483-8.5486984-2.9658241-13.1351738-3.4451065c4.5642624-0.477951,9.000679-1.6601753,13.1669502-3.4647179  c2.2222061,0.9736366,4.3542786,2.1244469,6.3764267,3.4385071C72.1600571,36.4273148,70.0202942,37.5947113,67.7927704,38.571434z   M50,34.8760338c-5.9607658,0-11.7925987-1.2187881-17.1803169-3.4829388  C38.1392441,29.1613865,43.9523735,27.9338837,50,27.9338837c6.0478058,0,11.860878,1.2274437,17.1804352,3.4590893  C61.792717,33.6571846,55.9608841,34.8760338,50,34.8760338z M45.3423424,35.1263275  c-4.5865974,0.4792824-9.0074577,1.6580582-13.1354103,3.4451065c-2.2274113-0.9766617-4.3670521-2.1439362-6.4079056-3.4710732  c2.022089-1.314064,4.1543446-2.4648743,6.3764267-3.43857C36.3416634,33.4662132,40.7780228,34.6484375,45.3423424,35.1263275z   M31.5952072,38.8354073c-2.1683922,0.9770889-4.2519207,2.1231766-6.2324867,3.4242859  c-1.567625-1.0457306-3.0692711-2.1929665-4.496767-3.4323959c1.4207764-1.2346458,2.9172783-2.3791618,4.4834499-3.4243431  C27.3391094,36.7101746,29.4270573,37.8585625,31.5952072,38.8354073z M24.9258099,42.5562935  c-1.5396595,1.0374374-3.0147934,2.1685753-4.4162617,3.388813c-1.2037144-1.068367-2.3510742-2.2033806-3.4367542-3.4014015  c1.0781136-1.1910057,2.217968-2.3208122,3.4153862-3.3853645C21.8967304,40.3851166,23.3814888,41.5162544,24.9258099,42.5562935z   M16.7376957,42.1744041c-0.9528141-1.0753899-1.8535109-2.2018661-2.7026367-3.3727722  c0.8423462-1.1641884,1.7385035-2.2837029,2.6860523-3.3557625c1.0766602,1.187191,2.2110653,2.3136673,3.4012814,3.3736191  C18.9368992,39.8757515,17.8073349,40.995388,16.7376957,42.1744041z M16.4054432,42.5460625  c-0.936471,1.0555954-1.8290577,2.15308-2.665411,3.2980804c-0.7571182-1.0698814-1.4656305-2.1792908-2.1293497-3.3212013  c0.6582108-1.1351318,1.3654518-2.2357025,2.1171837-3.3009834C14.5705147,40.3751907,15.4629793,41.4851418,16.4054432,42.5460625z   M13.4368343,46.2696724c-0.7439833,1.0439148-1.4433556,2.123661-2.0988426,3.2351875  c-0.5952597-1.0555954-1.1488132-2.1396408-1.6593294-3.2506218c0.5060368-1.102932,1.0583191-2.1773529,1.6482525-3.2262268  C11.9849443,44.1431084,12.6903086,45.2233391,13.4368343,46.2696724z M11.0514994,50.0001831  c-0.5846052,1.0210304-1.1301689,2.0688171-1.6361456,3.1419678c-0.4527702-1.0270271-0.8728533-2.0730553-1.2496567-3.1423912  c0.3767433-1.0692177,0.7967653-2.1150055,1.2494755-3.1419106C9.9212093,47.9311218,10.466773,48.9790268,11.0514994,50.0001831z   M11.3379917,50.4955063c0.6554871,1.1115227,1.3547983,2.1912117,2.0987816,3.2350616  c-0.7464037,1.0462151-1.4517689,2.1262665-2.1097374,3.2413025c-0.5899334-1.0488777-1.1422157-2.1232376-1.6481915-3.2261086  C10.1893606,52.634903,10.7427931,51.5509186,11.3379917,50.4955063z M13.7396698,54.1557388  c0.8363523,1.1449356,1.7289391,2.2423592,2.6654091,3.2980156c-0.9423418,1.0608635-1.8346853,2.1706924-2.6772738,3.323864  c-0.7517309-1.0653419-1.459033-2.1660309-2.1172438-3.3011665C12.2742805,56.3347244,12.9826717,55.2254372,13.7396698,54.1557388z   M16.7372723,57.8252907c1.0696983,1.179142,2.1993847,2.2988396,3.3849392,3.3551598  c-1.190155,1.0598946-2.324501,2.1863098-3.4011002,3.373436c-0.9476089-1.0721169-1.8438272-2.1917534-2.6861725-3.3560638  C14.8840637,60.0270386,15.7845793,58.9006195,16.7372723,57.8252907z M17.0723095,57.4560547  c1.08568-1.1980247,2.2331009-2.3330345,3.4368744-3.4014626c1.4015293,1.2202988,2.8767242,2.3514977,4.4165039,3.3890533  c-1.5443802,1.0400391-3.0291996,2.17136-4.4377499,3.3980751C19.2903976,59.7770462,18.1504841,58.6471786,17.0723095,57.4560547z   M25.3625984,57.7403069c1.980505,1.3011093,4.0640335,2.447197,6.2323666,3.4242859  c-2.1681499,0.9768448-4.2560978,2.1253548-6.2458038,3.4325142c-1.5661716-1.0451851-3.0627937-2.1896973-4.483511-3.4244041  C22.2932072,59.9332733,23.7949142,58.7860947,25.3625984,57.7403069z M32.2066879,61.4285049  c4.1280136,1.7871094,8.5488777,2.9658279,13.1355934,3.4451675c-4.5642586,0.477951-9.000679,1.6601791-13.1669464,3.4645996  c-2.2222061-0.9737015-4.3544617-2.1245728-6.3766727-3.4386902C27.8395176,63.5724449,29.9792175,62.4051666,32.2066879,61.4285049  z M50,65.12397c5.9608231,0,11.792778,1.2188416,17.1804352,3.4831772C61.8609352,70.8387375,56.0478058,72.0661163,50,72.0661163  c-6.0476265,0-11.8606949-1.2274399-17.1802559-3.4590912C38.2074013,66.3427505,44.0392342,65.12397,50,65.12397z   M54.6577187,64.8736725c4.5867157-0.4793396,9.0075798-1.6581802,13.1355934-3.4452896  c2.2275925,0.9766655,4.3672943,2.1441193,6.4082642,3.4713211c-2.0221481,1.3141174-4.1544647,2.4649887-6.3767242,3.4386902  C63.658638,66.5338516,59.2222214,65.3516235,54.6577187,64.8736725z M68.4049759,61.1645317  c2.1682739-0.9770279,4.2517395-2.1231766,6.2321854-3.4242249c1.5678024,1.0458488,3.0695724,2.1931496,4.4971924,3.4326973  c-1.420723,1.2345848-2.91716,2.3789787-4.4832764,3.4241028C72.6613159,63.2898865,70.5732498,62.1413765,68.4049759,61.1645317z   M75.0741272,57.4436455c1.5398407-1.0375557,3.0150375-2.1688156,4.4165649-3.3891144  c1.2038345,1.0685463,2.3513184,2.2036819,3.4369965,3.401825c-1.0781097,1.1910057-2.2180252,2.3209305-3.4154434,3.3854866  C78.103569,59.6150665,76.6186295,58.4837456,75.0741272,57.4436455z M83.2627258,57.8256569  c0.9526367,1.0753288,1.8530884,2.201683,2.702095,3.372467c-0.8422852,1.1641273-1.7384415,2.2835236-2.6859283,3.355526  c-1.0765457-1.1870117-2.2108307-2.3132477-3.4009247-3.3730164C81.0635223,60.1243706,82.1930923,59.004734,83.2627258,57.8256569z   M83.5952835,57.4536934c0.936348-1.0555344,1.8288116-2.1528358,2.6650467-3.2976532  c0.7569962,1.0696373,1.4653854,2.1788025,2.1290512,3.3205338c-0.6581573,1.1350136-1.3653336,2.2355232-2.1170044,3.3007431  C85.4299088,59.6242638,84.5375671,58.5144958,83.5952835,57.4536934z M86.5631027,53.7311134  c0.7441101-1.0440331,1.4435425-2.1237793,2.0990906-3.2354889c0.595192,1.0554771,1.1485672,2.1394615,1.6590195,3.2502594  c-0.5060959,1.1030502-1.0583725,2.1775932-1.6484909,3.2265892C88.0147552,55.8574371,87.3095093,54.7773285,86.5631027,53.7311134  z M88.9486847,50.0001831c0.5846634-1.0211563,1.1303482-2.0691223,1.636322-3.142334  c0.452713,1.0269051,0.8728561,2.0726929,1.2495956,3.1419106c-0.3768005,1.0693932-0.7970047,2.1154251-1.2498322,3.1424522  C90.0788498,52.0691223,89.533287,51.0212135,88.9486847,50.0001831z M90.8657532,46.2633171  c0.4379959-0.9656487,0.8387756-1.9534492,1.2102509-2.9574699c0.3309784,0.9868317,0.6239471,1.9871635,0.8850174,2.9981461  c-0.2566528,0.9965172-0.5527649,1.9743919-0.873642,2.9398575C91.7144547,48.2311707,91.3065338,47.2375603,90.8657532,46.2633171z   M90.591423,45.6638222c-0.5045242-1.0726051-1.0472412-2.1216049-1.6306992-3.1428185  c0.5741959-1.0026894,1.11129-2.0313492,1.6100616-3.0850677c0.4569473,1.0292625,0.8710938,2.0769882,1.2483826,3.1396065  C91.4466629,43.6254463,91.0369949,44.6553192,90.591423,45.6638222z M88.6699371,42.0294952  c-0.6525803-1.1089859-1.3500137-2.1857033-2.0912781-3.2279243c0.7316971-1.0262375,1.4230804-2.0861893,2.0702744-3.1796799  c0.5950775,1.052269,1.1446991,2.1280823,1.6509781,3.2245941C89.7974472,39.9344635,89.253334,40.9955673,88.6699371,42.0294952z   M86.271225,38.3809433c-0.8330231-1.1427002-1.7169495-2.2429047-2.6506424-3.2971687  c0.9219437-1.0394936,1.782753-2.1386108,2.609848-3.268055c0.7606888,1.0731506,1.4717407,2.1767464,2.1316452,3.3090935  C87.709137,36.2443924,87.0132751,37.3317642,86.271225,38.3809433z M83.2929916,34.7086639  c-1.0678787-1.1791382-2.2013779-2.2941132-3.3866959-3.3509197c1.1667938-1.0413094,2.2882462-2.1383686,3.3468704-3.3042507  c0.9483337,1.0715141,1.8391037,2.1848564,2.6744232,3.3343353C85.0935974,32.5358543,84.225708,33.6538582,83.2929916,34.7086639z   M82.9512329,35.0709419c-1.0900955,1.2050476-2.240181,2.3472595-3.4482498,3.4201088  c-1.3957214-1.2160645-2.8647385-2.344902-4.4000397-3.3800392c1.5452881-1.0418549,3.0235672-2.1864891,4.4342957-3.4176846  C80.7333908,32.7571564,81.8756638,33.8813934,82.9512329,35.0709419z M74.6617355,34.8102951  c-1.9742126-1.2972336-4.0545349-2.4379349-6.2203217-3.4134483c2.1696014-0.9784184,4.2602768-2.1308632,6.2537308-3.4438953  c1.5615768,1.0419769,3.0537186,2.1805592,4.4680786,3.4102402C77.7326965,32.6080666,76.2313538,33.762146,74.6617355,34.8102951z   M67.8249664,31.1246414c-4.133461-1.7875328-8.5716934-2.9629803-13.1902504-3.4391155  c4.5847816-0.4749241,9.0475311-1.6439533,13.2382545-3.4633865c2.2260742,0.9734554,4.3606949,2.1198463,6.3809052,3.4330616  C72.2078781,28.9894199,70.0555267,30.1457977,67.8249664,31.1246414z M50,27.4380169  c-5.9802551,0-11.836483-1.2083149-17.2492599-3.4914742C38.0692101,21.7178631,43.9024963,20.4958687,50,20.4958687  c6.0973206,0,11.9304848,1.2219944,17.2490158,3.4507351C61.8361206,26.229702,55.9798927,27.4380169,50,27.4380169z   M45.3652229,27.6855259c-4.618557,0.4761353-9.0567894,1.6516418-13.1902542,3.4391747  c-2.2306767-0.9788418-4.3830891-2.1352806-6.4292107-3.4695606c2.0202141-1.3132133,4.1548309-2.4595451,6.380909-3.4330616  C36.3175125,26.0415115,40.780323,27.2106018,45.3652229,27.6855259z M31.5584049,31.3969688  c-2.1658516,0.9755135-4.2460499,2.1162148-6.2201996,3.4135094c-1.5696831-1.0482101-3.0710869-2.2023506-4.5016708-3.4472866  c1.4143009-1.22962,2.9063835-2.3682041,4.4678955-3.4101791C27.2979488,29.2661057,29.3886795,30.4185505,31.5584049,31.3969688z   M24.8972397,35.1110115c-1.5354233,1.0351982-3.0045643,2.1641579-4.400404,3.3803406  c-1.2080727-1.0729065-2.3582764-2.2150612-3.4483757-3.4202271c1.0755711-1.1896133,2.217968-2.3139687,3.4141769-3.3779182  C21.8734264,32.9244614,23.3518295,34.0691566,24.8972397,35.1110115z M16.7064629,34.7086067  c-0.9325972-1.0546875-1.8003054-2.1725693-2.6341772-3.3204155c0.8353844-1.149538,1.7262154-2.2630024,2.6746111-3.3345776  c1.0585613,1.1657619,2.1798325,2.26264,3.3465023,3.3038292C18.9079647,32.4143105,17.7744675,33.5294075,16.7064629,34.7086067z   M16.3791122,35.0833511c-0.9337473,1.0543251-1.8177385,2.1547127-2.6508226,3.2974701  c-0.7419853-1.0488739-1.4377861-2.1360054-2.0906105-3.2552795c0.6600876-1.1326523,1.3713236-2.2364922,2.1321344-3.3098812  C14.5967245,32.9449806,15.4573498,34.0439758,16.3791122,35.0833511z M13.4210958,38.8011475  c-0.7411985,1.042099-1.4386339,2.1188202-2.0911551,3.2276192c-0.5832138-1.033741-1.127203-2.0947838-1.6296082-3.1825829  c0.506218-1.0963936,1.0557766-2.1720238,1.650794-3.2241707C11.9982004,36.7153206,12.6895819,37.7750931,13.4210958,38.8011475z   M11.0388489,42.5208244c-0.583395,1.0210304-1.1260538,2.0699692-1.630517,3.1424522  c-0.4455061-1.0083237-0.8550568-2.0379486-1.2275028-3.0877342c0.3772278-1.0623741,0.7913189-2.1100426,1.2482052-3.1391258  C9.9277468,40.4898949,10.464715,41.5183144,11.0388489,42.5208244z M9.1340675,46.2625885  c-0.4406633,0.9740639-0.8487015,1.9675522-1.2215104,2.9801102c-0.3208127-0.9654655-0.6168079-1.9433975-0.8733978-2.9399147  c0.2610693-1.0105629,0.5539169-2.0106506,0.8848381-2.9971199C8.295414,44.3095055,8.696188,45.297184,9.1340675,46.2625885z   M7.6428323,50.0002403c-0.3106437,0.8928299-0.5921721,1.8003693-0.8483381,2.720253  c-0.2104654-0.898941-0.392663-1.8059349-0.5470161-2.7204323c0.1543531-0.9143791,0.3365507-1.8213081,0.5469556-2.720192  C7.0505996,48.1997566,7.332128,49.1074142,7.6428323,50.0002403z M7.9123759,50.7573624  c0.37293,1.0127373,0.7809672,2.0062904,1.2216916,2.9805298C8.696188,54.7033577,8.295475,55.690918,7.9239974,56.6947594  C7.5930762,55.708107,7.300168,54.70784,7.0390382,53.6970978C7.2955675,52.7006378,7.5915627,51.7227669,7.9123759,50.7573624z   M9.4083319,54.3371468c0.5044031,1.0724258,1.047061,2.1212997,1.6303959,3.142334  c-0.5740738,1.0025101-1.1111021,2.0308647-1.6097546,3.084343c-0.4568863-1.0290222-0.8708553-2.0766296-1.2481441-3.1389427  C8.5532751,56.3750954,8.9628258,55.3454094,9.4083319,54.3371468z M11.3296385,57.9711113  c0.6525211,1.1089211,1.3498955,2.1855202,2.0911551,3.2276802c-0.731514,1.0260544-1.4228964,2.0857658-2.0699091,3.1791306  c-0.5950174-1.0522003-1.1446362-2.1280136-1.6508541-3.2244072C10.2023745,60.0657768,10.7464247,59.0048561,11.3296385,57.9711113  z M13.7278662,61.6189957c0.8330841,1.1428185,1.7171965,2.2432671,2.6510038,3.2977142  c-0.9217625,1.0393753-1.7823877,2.1383667-2.6092987,3.2676315c-0.7608709-1.0734558-1.4721069-2.1772919-2.1321945-3.3100052  C12.2902002,63.7550659,12.9859409,62.6678734,13.7278662,61.6189957z M16.7062206,65.2914581  c1.0680637,1.1792603,2.2015629,2.2943573,3.3869972,3.3512192c-1.1666698,1.0411911-2.2878208,2.1380692-3.3463211,3.3038864  c-0.9484558-1.0716324-1.8393469-2.1851578-2.6747923-3.334816C14.9059153,67.4639053,15.7736235,66.3460846,16.7062206,65.2914581z   M17.04846,64.9286346c1.0900383-1.2051086,2.2401829-2.3472595,3.4481945-3.4200478  c1.3958397,1.2161827,2.8649807,2.3450813,4.4004021,3.3803368c-1.5453491,1.0418549-3.0235691,2.186554-4.4342995,3.4177475  C19.266489,67.2426605,18.1240921,66.1183624,17.04846,64.9286346z M25.3379631,65.1894608  c1.9742107,1.2972946,4.0545311,2.4380569,6.2204418,3.4136276c-2.1696644,0.9784241-4.2603951,2.1307449-6.2538548,3.44384  c-1.5615711-1.042038-3.0535946-2.1805573-4.4680157-3.4103012C22.2670574,67.3917542,23.76828,66.2376709,25.3379631,65.1894608z   M32.1751518,68.8754196c4.133461,1.7874756,8.5716362,2.9629822,13.1901321,3.4390564  c-4.5848427,0.4748611-9.0475311,1.6439514-13.2384377,3.4633865c-2.2258949-0.9734573-4.3605709-2.1197281-6.3806629-3.4328842  C27.7922421,71.010643,29.9445934,69.8542633,32.1751518,68.8754196z M50,72.5619812  c5.9799538,0,11.8358154,1.208374,17.2487183,3.4914169C61.9303055,78.282074,56.0971985,79.5041351,50,79.5041351  c-6.0973816,0-11.9304848-1.2220612-17.2488976-3.450676C38.1640625,73.7703552,44.0202293,72.5619812,50,72.5619812z   M54.634655,72.314476c4.618557-0.4761353,9.0568504-1.6515198,13.1903114-3.4389954  c2.2304382,0.9788437,4.3826675,2.1351624,6.4285507,3.4693756c-2.0200958,1.3131561-4.1547089,2.4593658-6.3806076,3.4328842  C63.6820641,73.9583054,59.2192535,72.7893372,54.634655,72.314476z M68.4417191,68.6031494  c2.1659088-0.9755707,4.2462921-2.116272,6.2205582-3.4136276c1.5695038,1.0480881,3.0706635,2.2021103,4.5010681,3.4469223  c-1.4144211,1.229744-2.9066238,2.3683243-4.4682617,3.4104233C72.7017517,70.7338333,70.6111984,69.5815125,68.4417191,68.6031494z   M75.1031876,64.8889847c1.5353012-1.0351334,3.0043793-2.164032,4.4001541-3.3800964  c1.2079544,1.0727272,2.3579788,2.2148209,3.4479523,3.4198074c-1.0755692,1.1895523-2.2179642,2.3138504-3.4141083,3.3777313  C78.1265717,67.0752945,76.6483536,65.9307175,75.1031876,64.8889847z M83.2933578,65.291275  c0.9327774,1.0548096,1.8004837,2.1728668,2.6344757,3.3209c-0.8353806,1.1494751-1.7262115,2.2628784-2.6746063,3.3343887  c-1.0585632-1.1658783-2.1798935-2.2629395-3.3466873-3.304245C81.0919113,67.5855103,82.2253494,66.4704132,83.2933578,65.291275z   M83.6209488,64.9162292c0.9336853-1.0542679,1.8175583-2.1545334,2.6505814-3.2972336  c0.7420425,1.0491791,1.4380264,2.1366119,2.0908508,3.2561264c-0.6599045,1.1323547-1.3710175,2.2359467-2.1317139,3.3090973  C85.4036407,67.0547791,84.5428925,65.955719,83.6209488,64.9162292z M86.5791473,61.1981239  c0.7411346-1.0420341,1.4384537-2.1186943,2.0909119-3.2274361c0.5833359,1.0339241,1.127449,2.095089,1.6299133,3.1830063  c-0.506218,1.0963326-1.0556564,2.1720276-1.6506729,3.2241745C88.0022202,63.2843781,87.3107834,62.2244225,86.5791473,61.1981239z   M88.9606705,57.4794807c0.5834503-1.0212135,1.1262894-2.0702744,1.6307526-3.1428757  c0.4455109,1.0084419,0.8552399,2.038311,1.2277451,3.0882759c-0.3772888,1.0626183-0.7914352,2.110466-1.2484436,3.1397896  C90.0720139,59.510952,89.5348587,58.4821701,88.9606705,57.4794807z M90.8657532,53.7371674  c0.4408417-0.9743614,0.848877-1.9680977,1.2218094-2.980957c0.3208771,0.9654045,0.6168671,1.9432182,0.8735199,2.9396744  c-0.2611313,1.0111046-0.554039,2.0116806-0.8850784,2.9986916C91.7044678,55.6905556,91.303688,54.702755,90.8657532,53.7371674z   M92.3566818,50.0002403c0.3107681-0.8929482,0.5923538-1.8007889,0.8485184-2.7208557  c0.2104721,0.8990021,0.3926697,1.806118,0.54702,2.7206764c-0.1543503,0.9146194-0.3365479,1.8218536-0.54702,2.7209167  C92.9489746,51.800972,92.66745,50.8932533,92.3566818,50.0002403z M93.2047195,45.2787857  c-0.2553787-0.910141-0.5461121-1.8079948-0.8580246-2.6979179c0.2849808-0.8130493,0.5401154-1.6416512,0.7799988-2.4777641  c0.2148285,0.9362297,0.4058609,1.881176,0.5600281,2.8388329C93.5468369,43.7296219,93.3841324,44.5077438,93.2047195,45.2787857z   M92.0767899,41.8133392c-0.3726883-1.0043259-0.7868423-1.9914017-1.2304077-2.9653397  c0.4136047-0.9077797,0.7960968-1.8346252,1.1512299-2.7772713c0.3308029,0.9946404,0.6355133,2.000782,0.8960419,3.0251427  C92.6497116,40.0156975,92.3753891,40.9207535,92.0767899,41.8133392z M90.5747223,38.256855  c-0.5041046-1.0653381-1.0526352-2.1089516-1.6400833-3.1321602c0.5528259-0.9621391,1.0718155-1.9486656,1.5556412-2.9588051  c0.4577332,1.0351372,0.8776932,2.0899467,1.2564316,3.1647301C91.3876495,36.3242302,90.9990387,37.3014374,90.5747223,38.256855z   M88.6477814,34.6275558c-0.6549377-1.1075325-1.3600006-2.1864319-2.1107635-3.2371254  c0.7105103-0.9945183,1.3886948-2.0160351,2.0205154-3.0751419c0.5989532,1.0606804,1.1540146,2.1482964,1.6656265,3.2607307  C89.7358856,32.6188431,89.2091446,33.6356354,88.6477814,34.6275558z M86.2341843,30.9625397  c-0.8297577-1.1330147-1.7139282-2.2304974-2.6527023-3.2879696c0.8979111-1.0113468,1.7558746-2.0635529,2.5651093-3.1618824  c0.7576675,1.0712719,1.4684143,2.1768055,2.1303787,3.3152065C87.641098,28.9092159,86.9526215,29.9485283,86.2341843,30.9625397z   M83.2475357,27.3026695c-0.881691-0.9712753-1.8050919-1.9111977-2.7768478-2.8103199  c-0.1940613-0.1795959-0.3962326-0.3477497-0.5930176-0.523531c1.1420898-1.0183697,2.2338257-2.1008396,3.2744064-3.2411175  c0.9509354,1.0756302,1.8493958,2.197567,2.6936188,3.3622398C85.0284119,25.2078819,84.1573715,26.2752819,83.2475357,27.3026695z   M80.1336517,24.8560181c0.9759369,0.9030571,1.903511,1.8468533,2.7874985,2.8233337  c-1.0710297,1.1823483-2.2056198,2.295145-3.3888092,3.348259c-1.3937836-1.2150345-2.8625641-2.3421764-4.3983459-3.3768291  c1.5172043-1.0253296,2.9742355-2.1452694,4.3634796-3.3564281C79.708847,24.4826031,79.9254227,24.6633492,80.1336517,24.8560181z   M74.6927261,27.3529701c-1.9713669-1.2943287-4.0507812-2.431942-6.2188034-3.4056396  c2.14254-0.968008,4.2136612-2.0995083,6.1883545-3.3994675c1.5491638,1.0376797,3.0382843,2.1772308,4.4600296,3.4153271  C77.7128448,25.1883926,76.2345657,26.320982,74.6927261,27.3529701z M67.8709717,23.677969  c-4.120388-1.7778492-8.5534172-2.9514179-13.1838951-3.4285221c4.556694-0.4734707,8.9877243-1.6363277,13.1639824-3.4487991  c2.2045288,0.9689159,4.328186,2.1245079,6.3574219,3.4479523C72.1866913,21.5654449,70.0675735,22.7116566,67.8709717,23.677969z   M68.4599991,16.5277748c2.0992661-0.9486971,4.1319504-2.0604658,6.0800705-3.3353634  c1.5678024,1.0486946,3.0597076,2.2003527,4.4779434,3.4351788c-1.3896103,1.2020206-2.8422852,2.3149376-4.355072,3.3268299  C72.6811066,18.6478653,70.6100464,17.4985676,68.4599991,16.5277748z M67.8443985,16.2602901  c-4.1588821-1.802968-8.5845871-2.9688511-13.144249-3.4452276c4.4756432-0.4633627,8.8205414-1.5975876,12.9724655-3.3784628  c2.2389679,0.9793272,4.3795776,2.1399431,6.4080276,3.4609661C72.0837936,14.1900787,69.9992905,15.3129845,67.8443985,16.2602901z   M67.2154236,16.5345554C61.8033714,18.8139,55.9692383,20,50,20c-5.9693604,0-11.8033714-1.1861-17.2154236-3.4655056  C38.1797409,14.2632599,44.0151443,13.0578508,50,13.0578508C55.9846725,13.0578508,61.8201408,14.2632599,67.2154236,16.5345554z   M32.1557808,16.2602901c-2.154953-0.9473057-4.2394505-2.0702114-6.2363586-3.3627243  c2.0284443-1.321023,4.169054-2.48176,6.4080238-3.4610262c4.1510162,1.7811775,8.4957314,2.9153414,12.971981,3.378583  C40.7400703,13.2915602,36.3145447,14.4573822,32.1557808,16.2602901z M31.5404263,16.5276546  c-2.1501122,0.9707909-4.2213535,2.1200886-6.203249,3.4267044c-1.512785-1.0119514-2.9654007-2.1248703-4.3549442-3.3269501  c1.4183559-1.2348871,2.9102554-2.3865452,4.4781837-3.4353008C27.4085388,14.4671278,29.4411602,15.5789566,31.5404263,16.5276546z   M32.1491852,16.8004665c4.176136,1.8125935,8.6071663,2.9754486,13.1637383,3.4489803  c-4.6306,0.4770432-9.0636292,1.6506729-13.1841393,3.4284611c-2.1964779-0.9663124-4.3154774-2.1125832-6.3371429-3.42943  C27.8209343,18.9249134,29.9445343,17.7693825,32.1491852,16.8004665z M31.5257168,23.9473305  c-2.1680279,0.9736977-4.2475014,2.1112518-6.2189274,3.4055805c-1.5417175-1.031868-3.0199986-2.1643982-4.4293957-3.3894787  c1.4217453-1.2381573,2.910923-2.3776474,4.4600849-3.4153862C27.3121738,21.8478813,29.3832321,22.9793224,31.5257168,23.9473305z   M24.8654594,27.6507206c-1.5357857,1.0346527-3.0043812,2.1617355-4.3981628,3.3767071  c-1.183073-1.053112-2.3176003-2.1656685-3.3884487-3.3479538c0.8839893-0.9765434,1.8115635-1.9203987,2.7875004-2.8234558  c0.2081051-0.1925488,0.4246826-0.3732338,0.6359348-0.5614223C21.8914642,25.5056934,23.3484383,26.625452,24.8654594,27.6507206z   M19.5293121,24.4923496c-0.9717598,0.8991833-1.895155,1.8391037-2.7768459,2.810442  c-0.9098377-1.0274487-1.7809362-2.0948486-2.5982218-3.2128506c0.844162-1.1646118,1.7426195-2.2863064,2.6934366-3.3619385  c1.0405827,1.1402779,2.1323757,2.2226276,3.2744102,3.2409973C19.9253654,24.1447201,19.7233143,24.3128147,19.5293121,24.4923496z   M16.4186382,27.6746922c-0.9388313,1.0575924-1.8230639,2.1551361-2.6528797,3.2882099  c-0.7184401-1.0140705-1.4069767-2.0534439-2.0428524-3.1348248c0.6620245-1.1384029,1.3728371-2.2440567,2.1305008-3.3153896  C14.6626425,25.6110783,15.5207253,26.6633434,16.4186382,27.6746922z M13.4632864,31.3903103  c-0.7509441,1.0509968-1.4562483,2.1301975-2.1113729,3.2379704c-0.5613623-0.9917946-1.0881004-2.0085297-1.5755539-3.0512943  c0.5117865-1.113039,1.0672779-2.2010784,1.6664715-3.2623024C12.0745897,29.37397,12.7527761,30.3956699,13.4632864,31.3903103z   M11.0654221,35.1248131c-0.5873909,1.0230904-1.1358595,2.0666428-1.6398993,3.1318016  c-0.4243202-0.9556007-0.8129883-1.93293-1.1719961-2.9266624c0.3787413-1.0746002,0.7985821-2.1291084,1.2561941-3.1640625  C9.9935436,33.1760864,10.5125341,34.1626778,11.0654221,35.1248131z M9.1534376,38.8485451  c-0.4435091,0.9737587-0.8575993,1.9606514-1.230227,2.9647942c-0.2985978-0.8925858-0.5729232-1.7976418-0.8168621-2.7174683  c0.2604637-1.0241165,0.565115-2.0300179,0.8957944-3.0244751C8.357337,37.0139198,8.7397699,37.9407654,9.1534376,38.8485451z   M7.6533041,42.5807495c-0.3118544,0.8896179-0.6024623,1.7872276-0.8578415,2.6970673  c-0.1794133-0.7711029-0.3420591-1.5493469-0.4819455-2.3371544c0.1541109-0.9572334,0.3451462-1.9017525,0.5598488-2.8376198  C7.1132488,40.9390945,7.3682652,41.7677002,7.6533041,42.5807495z M5.8539071,52.9612846  c0.0498772-0.4970779,0.100965-0.9937935,0.1673069-1.4872398c0.150661,0.7476158,0.3195419,1.4897804,0.5075502,2.2262611  c-0.1536269,0.6039734-0.2978716,1.2122459-0.4274683,1.8267555C5.9950647,54.6786003,5.9112296,53.8237877,5.8539071,52.9612846z   M6.7954021,54.7221832c0.2554398,0.9100189,0.5460477,1.8076897,0.8579021,2.6974907  c-0.2849784,0.8129883-0.5399342,1.6415939-0.7798777,2.4775848c-0.2147632-0.9359856-0.4057984-1.8806877-0.5599699-2.8381653  C6.4532824,56.2714081,6.6160493,55.4932861,6.7954021,54.7221832z M7.9232106,58.1870842  c0.3726277,1.0040855,0.7867179,1.9909172,1.230166,2.9646759c-0.4136066,0.9077187-0.7959785,1.8344421-1.1511736,2.7769051  c-0.3306184-0.9943962-0.6353302-2.0002975-0.8957939-3.0242958C7.350348,59.9846649,7.6246128,59.0796089,7.9232106,58.1870842z   M9.4252205,61.743206c0.5040388,1.0652771,1.0525084,2.1087685,1.6399593,3.131916  c-0.5528278,0.9620819-1.0718184,1.9484863-1.5555792,2.9586868c-0.4576731-1.03508-0.8775148-2.0896454-1.2562551-3.1642456  C8.6123533,63.6758919,9.0009003,62.6986809,9.4252205,61.743206z M11.3516111,65.3715363  c0.6551237,1.1078339,1.3604279,2.1872177,2.111372,3.2382126c-0.7103882,0.9945221-1.3885746,2.0161591-2.0203342,3.075325  c-0.5991936-1.0612259-1.154563-2.1493225-1.6663504-3.2623672C10.2636318,67.3800049,10.7903099,66.3633347,11.3516111,65.3715363z   M13.7654552,69.0371552c0.8298159,1.1332016,1.7141705,2.2308655,2.6530628,3.2885132  c-0.8978529,1.0112915-1.7557554,2.0634995-2.56493,3.1618881c-0.7577839-1.0715179-1.4686575-2.1772919-2.1308031-3.3158722  C12.3586607,71.0904236,13.0470772,70.0511703,13.7654552,69.0371552z M16.7522831,72.6975098  c0.881752,0.9713974,1.8052082,1.9113846,2.777029,2.8106232c0.1939411,0.1794128,0.3959332,0.3473892,0.5925369,0.5230484  c-1.1419125,1.0183105-2.2336445,2.1006622-3.274168,3.2408142c-0.950757-1.0755081-1.8491535-2.1972046-2.6932554-3.3616943  C14.971591,74.7923584,15.8425674,73.7249603,16.7522831,72.6975098z M19.8663483,75.1439819  c-0.9759369-0.9030609-1.9035702-1.8468552-2.7876225-2.8233948c1.0707893-1.1822891,2.2053776-2.294899,3.3883286-3.3479538  c1.3937817,1.2149734,2.8624992,2.3419952,4.3982849,3.376709c-1.5170212,1.0252075-2.9739361,2.1450272-4.3630562,3.3560638  C20.2910309,75.5172119,20.0744534,75.3365936,19.8663483,75.1439819z M25.3070316,72.6473923  c1.9713039,1.2942047,4.0505352,2.4317017,6.218504,3.4053345c-2.1424847,0.9679489-4.213604,2.0993271-6.1882992,3.399231  c-1.5488605-1.0375595-3.0378551-2.1769333-4.4593601-3.4149017C22.2871532,74.8119736,23.7653751,73.6793213,25.3070316,72.6473923  z M32.1287842,76.3222733c4.1205101,1.7777863,8.5535393,2.9512405,13.1841393,3.4282761  c-4.556633,0.4735336-8.9878464,1.6364517-13.1639824,3.4491043c-2.204649-0.9688568-4.328249-2.1245651-6.357542-3.4481354  C27.8131256,78.4347382,29.9322453,77.2885895,32.1287842,76.3222733z M31.5403652,83.4724045  c-2.099205,0.948761-4.1317062,2.0607071-6.079586,3.3357315c-1.5681686-1.0488815-3.0603123-2.2007217-4.4788494-3.435791  c1.3896046-1.2018967,2.8423424-2.3148117,4.3550644-3.3266449C27.3189526,81.3522568,29.3901939,82.5016174,31.5403652,83.4724045z   M32.156086,83.7399521c4.1587029,1.8027878,8.5842857,2.9684906,13.1436424,3.4449234  c-4.4762497,0.4633636-8.8212051,1.5976486-12.9724617,3.3784637c-2.2387905-0.9792023-4.379158-2.1397629-6.4074821-3.4606628  C27.9167538,85.8101654,30.0011902,84.6873169,32.156086,83.7399521z M32.7847557,83.4658051  C38.1966286,81.1863403,44.0304604,80,50,80c5.9696617,0,11.8037949,1.1859818,17.2157898,3.4655075  C61.8203812,85.7368011,55.9847946,86.9421463,50,86.9421463S38.1798592,85.7369843,32.7847557,83.4658051z M67.8445816,83.7397079  c2.1547699,0.9473648,4.239151,2.0702133,6.235939,3.3627853c-2.0283279,1.320961-4.1688766,2.4815826-6.4077835,3.4608459  c-4.1515617-1.7808151-8.4967003-2.9150391-12.9726486-3.3784027  C59.2598114,86.7085037,63.6856346,85.5426788,67.8445816,83.7397079z M68.459877,83.4724045  c2.1501083-0.970787,4.2213516-2.1202087,6.2032471-3.4267654c1.5127258,1.0118332,2.9655838,2.1246262,4.3551865,3.3265305  c-1.4183578,1.2349472-2.9103775,2.3866653-4.478363,3.4354782C72.5918274,85.532814,70.559082,84.4210434,68.459877,83.4724045z   M67.851059,83.1995926c-4.1763802-1.8125916-8.6075325-2.9755096-13.1641655-3.4490433  c4.6305428-0.4770355,9.063633-1.6505508,13.1840782-3.4283981c2.1966019,0.9663162,4.3157806,2.1125259,6.3376923,3.429306  C72.1793671,81.0750275,70.0556488,82.2307358,67.851059,83.1995926z M68.4741592,76.0526123  c2.1679077-0.9737015,4.2472-2.1111298,6.2184448-3.4053421c1.5417175,1.0319901,3.0199432,2.1646423,4.4293365,3.3899002  c-1.4215012,1.237915-2.9103775,2.3773499-4.4592361,3.4148483C72.6880112,78.1520538,70.6167679,77.0206146,68.4741592,76.0526123z   M75.1342392,72.3492203c1.5358429-1.0347137,3.0046234-2.1618576,4.3984604-3.3769531  c1.183136,1.0531769,2.3177261,2.1660309,3.3886337,3.3484421c-0.8840485,0.9764786-1.8116837,1.9202118-2.7876816,2.8232727  c-0.2082291,0.1926727-0.4248047,0.3734131-0.6361771,0.5616684C78.1082916,74.4944305,76.6513824,73.3745499,75.1342392,72.3492203  z M80.4706879,75.5081329c0.9718781-0.8992386,1.89534-1.8392258,2.777092-2.8105621  c0.9097137,1.0274506,1.780632,2.0947876,2.5977936,3.2127304c-0.844162,1.1646118-1.7426224,2.2864304-2.6934967,3.3619995  c-1.0405197-1.1402206-2.1321945-2.2225723-3.2741699-3.2408752C80.0746307,75.8557053,80.2766876,75.6876068,80.4706879,75.5081329  z M83.581665,72.3256683c0.9387665-1.0575256,1.8230057-2.155014,2.6527557-3.2880859  c0.7183838,1.0140076,1.4067993,2.0531998,2.0425491,3.1344604c-0.6620255,1.1384659-1.3728943,2.2440567-2.1305618,3.3154526  C85.3372955,74.3891678,84.479454,73.3369598,83.581665,72.3256683z M86.537323,68.6096268  c0.7507553-1.0507507,1.4558792-2.1297073,2.1107635-3.2372437c0.5612411,0.9918594,1.0879211,2.0085297,1.5751877,3.0513535  c-0.5116043,1.1124954-1.0667877,2.2001724-1.665741,3.2609177C87.9258347,70.6255417,87.2477722,69.6040878,86.537323,68.6096268z   M88.9350052,64.8751221c0.5873871-1.0230255,1.1357346-2.0666389,1.6397781-3.1317978  c0.4242554,0.9553566,0.8129272,1.9325066,1.1719284,2.9260559c-0.3787384,1.0746613-0.7986374,2.1293488-1.2563095,3.1644287  C90.0066986,66.8236694,89.4877701,65.837204,88.9350052,64.8751221z M90.8463211,61.152607  c0.4436264-0.9740601,0.8577194-1.9611359,1.2304077-2.9655228c0.2985992,0.8925247,0.5729218,1.7975807,0.816864,2.7172852  c-0.2605896,1.0244217-0.565361,2.0306854-0.8961563,3.0253868C91.6423035,62.9871712,91.2599258,62.0604477,90.8463211,61.152607z   M92.3466949,57.4194946c0.3119125-0.8901062,0.6027069-1.7880173,0.8580856-2.6983414  c0.1793518,0.7709808,0.3421783,1.5490456,0.4820023,2.3366699c-0.1541672,0.95784-0.3453217,1.9029045-0.5601501,2.8393135  C92.8866882,59.0610886,92.6316757,58.2325439,92.3466949,57.4194946z M82.8258133,20.3512001  c-1.0542603,1.1584358-2.1634293,2.2548294-3.3233185,3.2863941c-1.4024353-1.2252636-2.8686676-2.3574905-4.3943481-3.3896008  c1.4879684-1.0052929,2.9200668-2.1039257,4.2889099-3.2920227C80.5991364,18.026638,81.7463684,19.1571693,82.8258133,20.3512001z   M67.0383148,9.1593084C61.6366081,11.4090548,55.9107666,12.5619831,50,12.5619831  c-5.9119759,0-11.6376991-1.152626-17.0387344-3.4024925C38.2087936,6.9620433,43.9642982,5.7438016,50,5.7438016  C56.0355797,5.7438016,61.7909012,6.9619222,67.0383148,9.1593084z M20.6027641,16.956213  c1.3689041,1.188097,2.8009396,2.2866688,4.2889061,3.2919636c-1.5257378,1.0321693-2.9920349,2.1644573-4.3944702,3.3897209  c-1.1599503-1.0315056-2.2691765-2.1278973-3.3235016-3.2862148C18.2532654,19.1575336,19.4005642,18.0269394,20.6027641,16.956213z   M17.1743641,79.6490402c1.0542049-1.158371,2.1632481-2.2548294,3.3230782-3.2862701  c1.4022541,1.2250214,2.8684292,2.3570633,4.3939247,3.3890533c-1.4879055,1.0052338-2.920002,2.1038055-4.2889042,3.2917862  C19.4005642,81.9731827,18.2536278,80.8428268,17.1743641,79.6490402z M32.9621124,90.8408737  C38.3635101,88.5905228,44.0884476,87.4380188,50,87.4380188c5.9107666,0,11.6366692,1.152565,17.0374069,3.403038  C61.7902374,93.0382004,56.0352173,94.2561951,50,94.2561951C43.9646034,94.2561951,38.2093391,93.0380783,32.9621124,90.8408737z   M79.3972931,83.0437851c-1.3688431-1.1880341-2.8008728-2.2866669-4.2887192-3.2919006  c1.5254898-1.031929,2.9916077-2.1639099,4.3938065-3.3889313c1.1598282,1.0315628,2.2688675,2.1279526,3.3230133,3.2863312  C81.7461319,80.8430099,80.5991974,81.9733658,79.3972931,83.0437851z"/><text x="0" y="115" fill="#000000" font-size="5px" font-weight="bold" font-family="'Helvetica Neue', Helvetica, Arial-Unicode, Arial, Sans-serif"></text><text x="0" y="120" fill="#000000" font-size="5px" font-weight="bold" font-family="'Helvetica Neue', Helvetica, Arial-Unicode, Arial, Sans-serif"></text></svg>