<?xml version="1.0" encoding="UTF-8" standalone="no"?>
<!-- Created with Inkscape (http://www.inkscape.org/) -->

<svg
   xmlns:dc="http://purl.org/dc/elements/1.1/"
   xmlns:cc="http://creativecommons.org/ns#"
   xmlns:rdf="http://www.w3.org/1999/02/22-rdf-syntax-ns#"
   xmlns:svg="http://www.w3.org/2000/svg"
   xmlns="http://www.w3.org/2000/svg"
   xmlns:sodipodi="http://sodipodi.sourceforge.net/DTD/sodipodi-0.dtd"
   xmlns:inkscape="http://www.inkscape.org/namespaces/inkscape"
   width="64mm"
   height="64mm"
   viewBox="0 0 64 64"
   version="1.1"
   id="svg8"
   inkscape:version="0.92.4 (5da689c313, 2019-01-14)"
   sodipodi:docname="star-mourning.svg">
  <defs
     id="defs2">
    <inkscape:perspective
       sodipodi:type="inkscape:persp3d"
       inkscape:vp_x="66.249205 : 55.210183 : 1"
       inkscape:vp_y="81.884987 : -4563.3647 : 0"
       inkscape:vp_z="-8.2642775 : 67.069501 : 1"
       inkscape:persp3d-origin="28.119024 : 109.81574 : 1"
       id="perspective71" />
  </defs>
  <sodipodi:namedview
     id="base"
     pagecolor="#000000"
     bordercolor="#666666"
     borderopacity="1.0"
     inkscape:pageopacity="0"
     inkscape:pageshadow="2"
     inkscape:zoom="2"
     inkscape:cx="72.482824"
     inkscape:cy="143.541"
     inkscape:document-units="mm"
     inkscape:current-layer="layer3"
     showgrid="true"
     inkscape:window-width="1920"
     inkscape:window-height="1001"
     inkscape:window-x="-9"
     inkscape:window-y="-9"
     inkscape:window-maximized="1"
     inkscape:pagecheckerboard="false">
    <inkscape:grid
       type="xygrid"
       id="grid22"
       units="mm"
       spacingx="0.99999997"
       spacingy="0.99999997" />
  </sodipodi:namedview>
  <metadata
     id="metadata5">
    <rdf:RDF>
      <cc:Work
         rdf:about="">
        <dc:format>image/svg+xml</dc:format>
        <dc:type
           rdf:resource="http://purl.org/dc/dcmitype/StillImage" />
        <dc:title></dc:title>
      </cc:Work>
    </rdf:RDF>
  </metadata>
  <g
     inkscape:label="frame"
     id="layer1"
     transform="translate(0,-233)"
     style="display:none;opacity:1"
     sodipodi:insensitive="true"
     inkscape:groupmode="layer" />
  <g
     inkscape:groupmode="layer"
     id="layer2"
     inkscape:label="LOGO"
     style="display:inline">
    <path
       style="display:inline;fill:none;stroke:#000000;stroke-width:0.13667752px;stroke-linecap:butt;stroke-linejoin:miter;stroke-opacity:1"
       d="m 15,41.777868 c 0,0 4.64422,-7.453272 14.933692,-13.393901"
       id="path843-1-3"
       inkscape:connector-curvature="0" />
    <path
       style="display:inline;fill:none;stroke:#000000;stroke-width:0.13667752px;stroke-linecap:butt;stroke-linejoin:miter;stroke-opacity:1"
       d="m 15,41.777868 c 0,0 8.776832,-0.295377 19.066305,-6.236006"
       id="path843-8-3-5"
       inkscape:connector-curvature="0" />
    <path
       style="display:inline;fill:none;stroke:#000000;stroke-width:0.13667752px;stroke-linecap:butt;stroke-linejoin:miter;stroke-opacity:1"
       d="m 48.999998,22.147961 c 0,0 -8.776833,0.295376 -19.066306,6.236004"
       id="path843-84-9-8"
       inkscape:connector-curvature="0" />
    <path
       style="display:inline;fill:none;stroke:#000000;stroke-width:0.13667752px;stroke-linecap:butt;stroke-linejoin:miter;stroke-opacity:1"
       d="m 48.999998,22.147961 c 0,0 -4.64422,7.45327 -14.933693,13.393901"
       id="path843-8-4-5-1"
       inkscape:connector-curvature="0" />
    <path
       style="display:inline;fill:none;stroke:#000000;stroke-width:0.13667752px;stroke-linecap:butt;stroke-linejoin:miter;stroke-opacity:1"
       d="m 15,22.14796 c 0,0 8.776832,0.295376 19.066304,6.236006"
       id="path843-1"
       inkscape:connector-curvature="0" />
    <path
       style="display:inline;fill:none;stroke:#000000;stroke-width:0.13667752px;stroke-linecap:butt;stroke-linejoin:miter;stroke-opacity:1"
       d="m 15,22.14796 c 0,0 4.644219,7.45327 14.933692,13.393901"
       id="path843-8-3"
       inkscape:connector-curvature="0" />
    <path
       style="display:inline;fill:none;stroke:#000000;stroke-width:0.13667752px;stroke-linecap:butt;stroke-linejoin:miter;stroke-opacity:1"
       d="m 48.999998,41.777867 c 0,0 -4.644221,-7.453271 -14.933693,-13.393902"
       id="path843-84-9"
       inkscape:connector-curvature="0" />
    <path
       style="display:inline;fill:none;stroke:#000000;stroke-width:0.13667752px;stroke-linecap:butt;stroke-linejoin:miter;stroke-opacity:1"
       d="m 48.999998,41.777867 c 0,0 -8.776833,-0.295377 -19.066306,-6.236006"
       id="path843-8-4-5"
       inkscape:connector-curvature="0" />
    <path
       style="display:inline;fill:none;stroke:#000000;stroke-width:0.13667752px;stroke-linecap:butt;stroke-linejoin:miter;stroke-opacity:1"
       d="m 31.999999,12.370094 c 0,0 4.132612,7.748647 4.132612,19.629908"
       id="path843"
       inkscape:connector-curvature="0" />
    <path
       style="display:inline;fill:none;stroke:#000000;stroke-width:0.13667752px;stroke-linecap:butt;stroke-linejoin:miter;stroke-opacity:1"
       d="m 31.999999,12.370094 c 0,0 -4.132613,7.748647 -4.132613,19.629908"
       id="path843-8"
       inkscape:connector-curvature="0" />
    <path
       style="display:inline;fill:none;stroke:#000000;stroke-width:0.13667752px;stroke-linecap:butt;stroke-linejoin:miter;stroke-opacity:1"
       d="m 31.999999,51.629909 c 0,0 4.132612,-7.748648 4.132612,-19.629908"
       id="path843-84"
       inkscape:connector-curvature="0" />
    <path
       style="display:inline;fill:none;stroke:#000000;stroke-width:0.13667752px;stroke-linecap:butt;stroke-linejoin:miter;stroke-opacity:1"
       d="m 31.999999,51.629909 c 0,0 -4.132613,-7.748647 -4.132613,-19.629908"
       id="path843-8-4"
       inkscape:connector-curvature="0" />
  </g>
  <g
     inkscape:groupmode="layer"
     id="layer3"
     inkscape:label="output"
     style="display:inline">
    <path
       style="display:inline;opacity:1;fill:#faffff;fill-opacity:1;stroke:none;stroke-width:0.5839898;stroke-miterlimit:4;stroke-dasharray:none;stroke-opacity:1"
       d="m 15.333536,41.478317 c 0.985687,-1.518012 3.440419,-4.300693 5.42913,-6.154453 7.091088,-6.609899 16.192302,-11.193333 25.251175,-12.716666 0.671635,-0.112941 2.50893,-0.348756 2.719748,-0.349077 0.06911,-1.04e-4 -0.258227,0.484077 -0.831559,1.230016 -6.48124,8.432476 -17.043957,15.045668 -27.822751,17.419494 -1.5189,0.334508 -4.201577,0.757684 -4.808658,0.758536 -0.03251,4.4e-5 -0.0042,-0.08449 0.06292,-0.18785 z"
       id="path926"
       inkscape:connector-curvature="0" />
    <path
       style="display:inline;opacity:1;fill:#faffff;fill-opacity:1;stroke:none;stroke-width:0.5839898;stroke-miterlimit:4;stroke-dasharray:none;stroke-opacity:1"
       d="m 47.927326,41.589906 c -4.537,-0.560081 -9.039619,-1.854941 -13.565244,-3.901084 -6.682994,-3.021539 -12.921066,-7.721023 -17.398525,-13.107265 -0.622266,-0.748566 -1.750978,-2.263312 -1.714034,-2.300255 0.04582,-0.04583 1.840073,0.175599 2.909814,0.35909 8.059437,1.382422 16.302076,5.259829 22.934114,10.788398 2.822214,2.352644 5.768707,5.454993 7.353057,7.742002 l 0.343233,0.495456 -0.192021,-0.0087 c -0.105613,-0.0048 -0.40729,-0.03522 -0.670394,-0.0677 z"
       id="path933"
       inkscape:connector-curvature="0" />
    <path
       style="display:inline;opacity:1;fill:#faffff;fill-opacity:1;stroke:none;stroke-width:0.5839898;stroke-miterlimit:4;stroke-dasharray:none;stroke-opacity:1"
       d="M 31.875286,51.122834 C 31.343923,50.027792 30.568002,47.958966 30.059327,46.280974 28.526168,41.22348 27.849992,35.95487 28.015532,30.356182 c 0.168632,-5.703303 1.307386,-11.294854 3.29516,-16.180025 0.206689,-0.507963 0.449551,-1.068689 0.539693,-1.24606 l 0.163896,-0.322491 0.382998,0.878652 c 1.937835,4.445658 3.180469,9.870519 3.535271,15.433644 0.08959,1.404747 0.08959,4.748074 0,6.152823 -0.275684,4.322586 -1.056867,8.438207 -2.330824,12.279817 -0.375861,1.133407 -1.025693,2.815467 -1.377378,3.565276 l -0.220462,0.47004 z"
       id="path939"
       inkscape:connector-curvature="0" />
  </g>
</svg>
