<?xml version="1.0" encoding="UTF-8" standalone="no"?>
<!-- Created with Inkscape (http://www.inkscape.org/) -->

<svg
   xmlns:dc="http://purl.org/dc/elements/1.1/"
   xmlns:cc="http://creativecommons.org/ns#"
   xmlns:rdf="http://www.w3.org/1999/02/22-rdf-syntax-ns#"
   xmlns:svg="http://www.w3.org/2000/svg"
   xmlns="http://www.w3.org/2000/svg"
   xmlns:sodipodi="http://sodipodi.sourceforge.net/DTD/sodipodi-0.dtd"
   xmlns:inkscape="http://www.inkscape.org/namespaces/inkscape"
   width="64mm"
   height="64mm"
   viewBox="0 0 64 64"
   version="1.1"
   id="svg8"
   inkscape:version="0.92.4 (5da689c313, 2019-01-14)"
   sodipodi:docname="star-suede.svg">
  <defs
     id="defs2">
    <inkscape:perspective
       sodipodi:type="inkscape:persp3d"
       inkscape:vp_x="66.249205 : 55.210183 : 1"
       inkscape:vp_y="81.884987 : -4563.3647 : 0"
       inkscape:vp_z="-8.2642775 : 67.069501 : 1"
       inkscape:persp3d-origin="28.119024 : 109.81574 : 1"
       id="perspective71" />
    <filter
       inkscape:collect="always"
       style="color-interpolation-filters:sRGB"
       id="filter871"
       x="-0.001351145"
       width="1.0027023"
       y="-0.00099348902"
       height="1.001987">
      <feGaussianBlur
         inkscape:collect="always"
         stdDeviation="0.018619294"
         id="feGaussianBlur873" />
    </filter>
    <filter
       inkscape:collect="always"
       style="color-interpolation-filters:sRGB"
       id="filter871-3"
       x="-0.001351145"
       width="1.0027024"
       y="-0.00099348905"
       height="1.001987">
      <feGaussianBlur
         inkscape:collect="always"
         stdDeviation="0.018619294"
         id="feGaussianBlur873-0" />
    </filter>
  </defs>
  <sodipodi:namedview
     id="base"
     pagecolor="#000000"
     bordercolor="#666666"
     borderopacity="1.0"
     inkscape:pageopacity="1"
     inkscape:pageshadow="2"
     inkscape:zoom="2.0000001"
     inkscape:cx="74.125742"
     inkscape:cy="104.74078"
     inkscape:document-units="mm"
     inkscape:current-layer="layer3"
     showgrid="true"
     inkscape:window-width="1920"
     inkscape:window-height="1001"
     inkscape:window-x="-9"
     inkscape:window-y="-9"
     inkscape:window-maximized="1"
     inkscape:pagecheckerboard="true">
    <inkscape:grid
       type="xygrid"
       id="grid22" />
  </sodipodi:namedview>
  <metadata
     id="metadata5">
    <rdf:RDF>
      <cc:Work
         rdf:about="">
        <dc:format>image/svg+xml</dc:format>
        <dc:type
           rdf:resource="http://purl.org/dc/dcmitype/StillImage" />
        <dc:title></dc:title>
      </cc:Work>
    </rdf:RDF>
  </metadata>
  <g
     inkscape:label="frame"
     inkscape:groupmode="layer"
     id="layer1"
     transform="translate(0,-233)"
     style="display:none;opacity:1"
     sodipodi:insensitive="true">
    <path
       style="fill:#ffffff;stroke:#000000;stroke-width:0.26458332px;stroke-linecap:butt;stroke-linejoin:miter;stroke-opacity:1"
       d="M 31.75,234.82292 V 289.0625"
       id="path95"
       inkscape:connector-curvature="0" />
    <path
       style="fill:#ffffff;stroke:#000000;stroke-width:0.26458332px;stroke-linecap:butt;stroke-linejoin:miter;stroke-opacity:1"
       d="M 62.177083,234.82292 1.3229166,295.67708"
       id="path99"
       inkscape:connector-curvature="0" />
    <path
       style="display:inline;opacity:1;fill:#ffffff;stroke:#000000;stroke-width:0.26458332px;stroke-linecap:butt;stroke-linejoin:miter;stroke-opacity:1"
       d="M 1.3229166,234.82292 H 62.177083 v 60.85416 H 1.3229166 Z"
       id="path93"
       inkscape:connector-curvature="0" />
    <path
       style="display:inline;opacity:1;fill:#ffffff;stroke:#000000;stroke-width:0.26458332px;stroke-linecap:butt;stroke-linejoin:miter;stroke-opacity:1"
       d="M 62.177083,295.67708 1.3229166,234.82292"
       id="path97"
       inkscape:connector-curvature="0" />
    <path
       style="fill:#ffffff;stroke:#000000;stroke-width:0.26458332px;stroke-linecap:butt;stroke-linejoin:miter;stroke-opacity:1"
       d="M 7.9374999,289.0625 H 55.562499 l 10e-7,-47.625"
       id="path158"
       inkscape:connector-curvature="0" />
    <path
       style="fill:#ffffff;stroke:#000000;stroke-width:0.26458332px;stroke-linecap:butt;stroke-linejoin:miter;stroke-opacity:1"
       d="M 55.562499,241.4375 H 7.9374999 v 47.625"
       id="path160"
       inkscape:connector-curvature="0" />
    <path
       transform="translate(0,233)"
       style="display:inline;fill:none;stroke:#000000;stroke-width:0.26458332px;stroke-linecap:butt;stroke-linejoin:miter;stroke-opacity:1"
       d="M 7.9374999,19.020833 H 55.562499"
       id="path54"
       inkscape:connector-curvature="0" />
    <path
       transform="translate(0,233)"
       style="display:inline;fill:none;stroke:#000000;stroke-width:0.26458332px;stroke-linecap:butt;stroke-linejoin:miter;stroke-opacity:1"
       d="M 18.520833,56.062498 V 8.4375"
       id="path60"
       inkscape:connector-curvature="0" />
    <path
       transform="translate(0,233)"
       style="display:inline;fill:none;stroke:#000000;stroke-width:0.26458332px;stroke-linecap:butt;stroke-linejoin:miter;stroke-opacity:1"
       d="M 7.9374999,42.833332 H 55.562499"
       id="path62"
       inkscape:connector-curvature="0" />
    <path
       transform="translate(0,233)"
       style="display:inline;fill:none;stroke:#000000;stroke-width:0.26458332px;stroke-linecap:butt;stroke-linejoin:miter;stroke-opacity:1"
       d="M 44.979166,8.4375 V 56.062498"
       id="path56"
       inkscape:connector-curvature="0" />
    <path
       transform="translate(0,233)"
       style="display:inline;fill:none;stroke:#000000;stroke-width:0.26458332px;stroke-linecap:butt;stroke-linejoin:miter;stroke-opacity:1"
       d="m 31.75,8.4375 c 0,47.624998 0,47.624998 0,47.624998"
       id="path44"
       inkscape:connector-curvature="0" />
    <path
       transform="translate(0,233)"
       style="display:inline;fill:none;stroke:#000000;stroke-width:0.26458332px;stroke-linecap:butt;stroke-linejoin:miter;stroke-opacity:1"
       d="m 55.562499,30.927082 c -47.6249991,0 -47.6249991,0 -47.6249991,0"
       id="path46"
       inkscape:connector-curvature="0" />
    <path
       transform="translate(0,233)"
       style="display:inline;fill:none;stroke:#000000;stroke-width:0.26458332px;stroke-linecap:butt;stroke-linejoin:miter;stroke-opacity:1"
       d="m 30.427083,13.729167 h 2.645833"
       id="path84"
       inkscape:connector-curvature="0" />
    <path
       transform="translate(0,233)"
       style="display:inline;fill:none;stroke:#000000;stroke-width:0.26458332px;stroke-linecap:butt;stroke-linejoin:miter;stroke-opacity:1"
       d="m 30.427083,36.218749 h 2.645833"
       id="path80"
       inkscape:connector-curvature="0" />
    <path
       transform="translate(0,233)"
       style="display:inline;fill:none;stroke:#000000;stroke-width:0.26458332px;stroke-linecap:butt;stroke-linejoin:miter;stroke-opacity:1"
       d="m 30.427083,48.124998 h 2.645833"
       id="path82"
       inkscape:connector-curvature="0" />
    <path
       transform="translate(0,233)"
       style="display:inline;fill:none;stroke:#000000;stroke-width:0.26458332px;stroke-linecap:butt;stroke-linejoin:miter;stroke-opacity:1"
       d="M 7.9374999,53.416665 H 55.562499"
       id="path86"
       inkscape:connector-curvature="0" />
  </g>
  <g
     inkscape:groupmode="layer"
     id="layer2"
     inkscape:label="LOGO"
     style="display:none;filter:url(#filter871)">
    <path
       style="display:inline;fill:none;stroke:#ffffff;stroke-width:0.31987712px;stroke-linecap:butt;stroke-linejoin:miter;stroke-opacity:1"
       d="M 36.262593,6.4880792 18.713013,28.824212"
       id="path843"
       inkscape:connector-curvature="0" />
    <path
       style="display:inline;fill:none;stroke:#ffffff;stroke-width:0.31987712px;stroke-linecap:butt;stroke-linejoin:miter;stroke-opacity:1"
       d="M 44.736676,33.600447 27.187095,55.936582"
       id="path845"
       inkscape:connector-curvature="0" />
    <path
       style="display:inline;fill:none;stroke:#f3ffff;stroke-width:1.20898438px;stroke-linecap:butt;stroke-linejoin:miter;stroke-opacity:1;filter:url(#filter871)"
       d="m 7.911365,0.2248608 c 0,0 -29.796211,42.1979452 14.228053,61.1811832 44.434596,19.160173 35.771945,33.82563 35.771945,33.82563"
       id="path847-4-5"
       inkscape:connector-curvature="0"
       sodipodi:nodetypes="csc"
       transform="matrix(0.26023661,0.04776235,-0.04776235,0.26023661,34.214182,6.0534687)" />
    <path
       style="display:inline;fill:none;stroke:#f3ffff;stroke-width:1.20898438px;stroke-linecap:butt;stroke-linejoin:miter;stroke-opacity:1;filter:url(#filter871-3)"
       d="m 7.911365,0.2248608 c 0,0 -4.5125572,9.5033369 26.516766,28.4246952 48.111292,29.337766 25.576481,61.368596 25.576481,61.368596"
       id="path847-4-5-0"
       inkscape:connector-curvature="0"
       sodipodi:nodetypes="csc"
       transform="matrix(0.26023662,0.04776235,-0.04776235,0.26023662,16.778064,28.233115)" />
  </g>
  <g
     inkscape:groupmode="layer"
     id="layer3"
     inkscape:label="output"
     style="display:inline">
    <path
       style="display:inline;opacity:1;fill:#ffffff;fill-opacity:1;stroke:none;stroke-width:2.13637805;stroke-miterlimit:4;stroke-dasharray:none;stroke-opacity:1;filter:url(#filter871)"
       d="m 113.8729,195.7797 c 0,-0.283 0.75338,-2.86904 1.02241,-3.50947 0.41582,-0.98991 1.00845,-4.53759 1.19941,-7.18017 0.57246,-7.92192 -1.56722,-16.63412 -5.85008,-23.81983 -0.32781,-0.55 -0.71635,-1.26582 -0.86342,-1.59071 -0.57922,-1.27956 -4.15334,-6.26469 -5.69582,-7.94446 -0.30938,-0.33691 -0.5625,-0.69061 -0.5625,-0.786 0,-0.0954 -0.27538,-0.4559 -0.61195,-0.80113 -0.33658,-0.34524 -1.2647,-1.34854 -2.0625,-2.22957 -2.270696,-2.50756 -6.266701,-6.39077 -10.185644,-9.89813 -1.653495,-1.47984 -5.588468,-5.4044 -7.891994,-7.87112 -1.185245,-1.26922 -3.140248,-3.631 -4.245501,-5.12888 -0.60875,-0.825 -1.19993,-1.6125 -1.313731,-1.75 -0.39455,-0.47671 -2.225088,-3.41054 -2.933809,-4.70206 -1.884981,-3.43504 -2.716009,-7.43117 -1.965525,-9.45155 0.315571,-0.84956 51.191594,-65.823777 51.387694,-65.627681 0.0502,0.05021 -0.12687,0.644745 -0.3935,1.321193 -0.26663,0.676448 -0.86057,2.687949 -1.31986,4.470003 -0.81379,3.157462 -0.83513,3.370805 -0.83688,8.365097 -0.002,4.56127 0.0612,5.358742 0.57117,7.25 1.74011,6.45354 4.62502,11.301192 9.81293,16.489097 1.84726,1.847262 3.17636,2.96692 6.1141,5.150627 0.825,0.613248 1.71976,1.282683 1.98835,1.487635 0.26859,0.204953 0.63421,0.37264 0.8125,0.37264 0.17828,0 0.32415,0.09355 0.32415,0.207898 0,0.114342 0.59062,0.585905 1.3125,1.047917 0.72187,0.462013 1.77925,1.184085 2.34972,1.604605 0.57047,0.420518 1.35216,0.98958 1.73709,1.26458 1.38817,0.991738 5.98705,4.621025 6.48448,5.117345 0.27984,0.27921 0.57213,0.507655 0.64955,0.507655 0.68349,0 8.98671,8.402049 11.11835,11.250689 1.78832,2.38984 1.94563,2.63638 3.42899,5.37431 2.1355,3.94161 2.58195,7.91048 1.23738,11 -0.23936,0.55 -12.57601,16.46875 -27.41479,35.375 -29.53454,37.63027 -27.40327,34.9366 -27.40327,34.63447 z"
       id="path967"
       inkscape:connector-curvature="0"
       transform="scale(0.26458333)" />
  </g>
</svg>
