<?xml version="1.0" encoding="UTF-8" standalone="no"?>
<!-- Created with Inkscape (http://www.inkscape.org/) -->

<svg
   xmlns:dc="http://purl.org/dc/elements/1.1/"
   xmlns:cc="http://creativecommons.org/ns#"
   xmlns:rdf="http://www.w3.org/1999/02/22-rdf-syntax-ns#"
   xmlns:svg="http://www.w3.org/2000/svg"
   xmlns="http://www.w3.org/2000/svg"
   xmlns:sodipodi="http://sodipodi.sourceforge.net/DTD/sodipodi-0.dtd"
   xmlns:inkscape="http://www.inkscape.org/namespaces/inkscape"
   width="64mm"
   height="64mm"
   viewBox="0 0 64 64"
   version="1.1"
   id="svg8"
   inkscape:version="0.92.4 (5da689c313, 2019-01-14)"
   sodipodi:docname="stream-nodes.svg">
  <defs
     id="defs2">
    <inkscape:perspective
       sodipodi:type="inkscape:persp3d"
       inkscape:vp_x="66.249205 : 55.210183 : 1"
       inkscape:vp_y="81.884987 : -4563.3647 : 0"
       inkscape:vp_z="-8.2642775 : 67.069501 : 1"
       inkscape:persp3d-origin="28.119024 : 109.81574 : 1"
       id="perspective71" />
  </defs>
  <sodipodi:namedview
     id="base"
     pagecolor="#000000"
     bordercolor="#666666"
     borderopacity="1.0"
     inkscape:pageopacity="0"
     inkscape:pageshadow="2"
     inkscape:zoom="2.8284271"
     inkscape:cx="94.876516"
     inkscape:cy="104.41599"
     inkscape:document-units="mm"
     inkscape:current-layer="layer3"
     showgrid="true"
     inkscape:window-width="1920"
     inkscape:window-height="1001"
     inkscape:window-x="-9"
     inkscape:window-y="-9"
     inkscape:window-maximized="1">
    <inkscape:grid
       type="xygrid"
       id="grid22" />
  </sodipodi:namedview>
  <metadata
     id="metadata5">
    <rdf:RDF>
      <cc:Work
         rdf:about="">
        <dc:format>image/svg+xml</dc:format>
        <dc:type
           rdf:resource="http://purl.org/dc/dcmitype/StillImage" />
        <dc:title></dc:title>
      </cc:Work>
    </rdf:RDF>
  </metadata>
  <g
     inkscape:label="frame"
     inkscape:groupmode="layer"
     id="layer1"
     transform="translate(0,-233)"
     style="display:none;opacity:1"
     sodipodi:insensitive="true">
    <path
       style="fill:#ffffff;stroke:#000000;stroke-width:0.26458332px;stroke-linecap:butt;stroke-linejoin:miter;stroke-opacity:1"
       d="M 31.75,234.82292 V 289.0625"
       id="path95"
       inkscape:connector-curvature="0" />
    <path
       style="fill:#ffffff;stroke:#000000;stroke-width:0.26458332px;stroke-linecap:butt;stroke-linejoin:miter;stroke-opacity:1"
       d="M 62.177083,234.82292 1.3229166,295.67708"
       id="path99"
       inkscape:connector-curvature="0" />
    <path
       style="display:inline;opacity:1;fill:#ffffff;stroke:#000000;stroke-width:0.26458332px;stroke-linecap:butt;stroke-linejoin:miter;stroke-opacity:1"
       d="M 1.3229166,234.82292 H 62.177083 v 60.85416 H 1.3229166 Z"
       id="path93"
       inkscape:connector-curvature="0" />
    <path
       style="display:inline;opacity:1;fill:#ffffff;stroke:#000000;stroke-width:0.26458332px;stroke-linecap:butt;stroke-linejoin:miter;stroke-opacity:1"
       d="M 62.177083,295.67708 1.3229166,234.82292"
       id="path97"
       inkscape:connector-curvature="0" />
    <path
       style="fill:#ffffff;stroke:#000000;stroke-width:0.26458332px;stroke-linecap:butt;stroke-linejoin:miter;stroke-opacity:1"
       d="M 7.9374999,289.0625 H 55.562499 l 10e-7,-47.625"
       id="path158"
       inkscape:connector-curvature="0" />
    <path
       style="fill:#ffffff;stroke:#000000;stroke-width:0.26458332px;stroke-linecap:butt;stroke-linejoin:miter;stroke-opacity:1"
       d="M 55.562499,241.4375 H 7.9374999 v 47.625"
       id="path160"
       inkscape:connector-curvature="0" />
    <path
       transform="translate(0,233)"
       style="display:inline;fill:none;stroke:#000000;stroke-width:0.26458332px;stroke-linecap:butt;stroke-linejoin:miter;stroke-opacity:1"
       d="M 7.9374999,19.020833 H 55.562499"
       id="path54"
       inkscape:connector-curvature="0" />
    <path
       transform="translate(0,233)"
       style="display:inline;fill:none;stroke:#000000;stroke-width:0.26458332px;stroke-linecap:butt;stroke-linejoin:miter;stroke-opacity:1"
       d="M 18.520833,56.062498 V 8.4375"
       id="path60"
       inkscape:connector-curvature="0" />
    <path
       transform="translate(0,233)"
       style="display:inline;fill:none;stroke:#000000;stroke-width:0.26458332px;stroke-linecap:butt;stroke-linejoin:miter;stroke-opacity:1"
       d="M 7.9374999,42.833332 H 55.562499"
       id="path62"
       inkscape:connector-curvature="0" />
    <path
       transform="translate(0,233)"
       style="display:inline;fill:none;stroke:#000000;stroke-width:0.26458332px;stroke-linecap:butt;stroke-linejoin:miter;stroke-opacity:1"
       d="M 44.979166,8.4375 V 56.062498"
       id="path56"
       inkscape:connector-curvature="0" />
    <path
       transform="translate(0,233)"
       style="display:inline;fill:none;stroke:#000000;stroke-width:0.26458332px;stroke-linecap:butt;stroke-linejoin:miter;stroke-opacity:1"
       d="m 31.75,8.4375 c 0,47.624998 0,47.624998 0,47.624998"
       id="path44"
       inkscape:connector-curvature="0" />
    <path
       transform="translate(0,233)"
       style="display:inline;fill:none;stroke:#000000;stroke-width:0.26458332px;stroke-linecap:butt;stroke-linejoin:miter;stroke-opacity:1"
       d="m 55.562499,30.927082 c -47.6249991,0 -47.6249991,0 -47.6249991,0"
       id="path46"
       inkscape:connector-curvature="0" />
    <path
       transform="translate(0,233)"
       style="display:inline;fill:none;stroke:#000000;stroke-width:0.26458332px;stroke-linecap:butt;stroke-linejoin:miter;stroke-opacity:1"
       d="m 30.427083,13.729167 h 2.645833"
       id="path84"
       inkscape:connector-curvature="0" />
    <path
       transform="translate(0,233)"
       style="display:inline;fill:none;stroke:#000000;stroke-width:0.26458332px;stroke-linecap:butt;stroke-linejoin:miter;stroke-opacity:1"
       d="m 30.427083,36.218749 h 2.645833"
       id="path80"
       inkscape:connector-curvature="0" />
    <path
       transform="translate(0,233)"
       style="display:inline;fill:none;stroke:#000000;stroke-width:0.26458332px;stroke-linecap:butt;stroke-linejoin:miter;stroke-opacity:1"
       d="m 30.427083,48.124998 h 2.645833"
       id="path82"
       inkscape:connector-curvature="0" />
    <path
       transform="translate(0,233)"
       style="display:inline;fill:none;stroke:#000000;stroke-width:0.26458332px;stroke-linecap:butt;stroke-linejoin:miter;stroke-opacity:1"
       d="M 7.9374999,53.416665 H 55.562499"
       id="path86"
       inkscape:connector-curvature="0" />
  </g>
  <g
     inkscape:groupmode="layer"
     id="layer2"
     inkscape:label="LOGO"
     style="display:none">
    <path
       style="display:inline;fill:none;stroke:#000000;stroke-width:0.2204861px;stroke-linecap:butt;stroke-linejoin:miter;stroke-opacity:1"
       d="m 18.55758,37.541665 c 0,0 -4.59346,-6.614582 -11.9429967,-6.614582 7.3495367,1e-6 11.9429977,-6.614582 11.9429977,-6.614582"
       id="path104-2"
       inkscape:connector-curvature="0" />
    <path
       style="display:inline;fill:none;stroke:#000000;stroke-width:0.2204861px;stroke-linecap:butt;stroke-linejoin:miter;stroke-opacity:1"
       d="m 56.922165,30.927082 c -7.349537,0 -11.942998,6.614582 -11.942998,6.614582"
       id="path110-5"
       inkscape:connector-curvature="0" />
    <path
       style="display:inline;fill:none;stroke:#000000;stroke-width:0.2204861px;stroke-linecap:butt;stroke-linejoin:miter;stroke-opacity:1"
       d="m 56.922165,30.927082 c -7.349537,0 -11.942998,-6.614582 -11.942998,-6.614582"
       id="path112-1"
       inkscape:connector-curvature="0" />
    <path
       style="fill:none;stroke:#000000;stroke-width:0.26458332px;stroke-linecap:butt;stroke-linejoin:miter;stroke-opacity:1"
       d="M 18.520833,24.3125 V 37.541665"
       id="path1576"
       inkscape:connector-curvature="0" />
    <path
       style="fill:none;stroke:#000000;stroke-width:0.26458332px;stroke-linecap:butt;stroke-linejoin:miter;stroke-opacity:1"
       d="M 23.8125,37.541665 V 24.3125"
       id="path1584"
       inkscape:connector-curvature="0" />
    <path
       style="fill:none;stroke:#000000;stroke-width:0.26458332px;stroke-linecap:butt;stroke-linejoin:miter;stroke-opacity:1"
       d="M 44.979166,37.541665 V 24.3125"
       id="path1586"
       inkscape:connector-curvature="0" />
    <path
       style="fill:none;stroke:#000000;stroke-width:0.26458332px;stroke-linecap:butt;stroke-linejoin:miter;stroke-opacity:1"
       d="M 39.6875,24.3125 V 37.541665"
       id="path1588"
       inkscape:connector-curvature="0" />
    <path
       style="fill:none;stroke:#000000;stroke-width:0.26458332px;stroke-linecap:butt;stroke-linejoin:miter;stroke-opacity:1"
       d="M 29.104166,41.510415 V 20.34375"
       id="path1590"
       inkscape:connector-curvature="0" />
    <path
       style="fill:none;stroke:#000000;stroke-width:0.26458332px;stroke-linecap:butt;stroke-linejoin:miter;stroke-opacity:1"
       d="M 34.395833,20.34375 V 41.510415"
       id="path1592"
       inkscape:connector-curvature="0" />
    <path
       style="fill:none;stroke:#000000;stroke-width:0.26458332px;stroke-linecap:butt;stroke-linejoin:miter;stroke-opacity:1"
       d="M 29.104166,20.608333 C 29.104166,16.375 31.75,16.375 31.75,16.375"
       id="path1594"
       inkscape:connector-curvature="0" />
    <path
       style="fill:none;stroke:#000000;stroke-width:0.26458332px;stroke-linecap:butt;stroke-linejoin:miter;stroke-opacity:1"
       d="M 34.395833,20.34375 C 34.395833,16.375 31.75,16.375 31.75,16.375"
       id="path1596"
       inkscape:connector-curvature="0" />
    <path
       style="fill:none;stroke:#000000;stroke-width:0.26458332px;stroke-linecap:butt;stroke-linejoin:miter;stroke-opacity:1"
       d="m 23.8125,24.3125 c 0,-3.96875 -2.645834,-3.96875 -2.645834,-3.96875"
       id="path1598"
       inkscape:connector-curvature="0" />
    <path
       style="fill:none;stroke:#000000;stroke-width:0.26458332px;stroke-linecap:butt;stroke-linejoin:miter;stroke-opacity:1"
       d="m 18.520833,24.577083 c 0,-4.233333 2.645833,-4.233333 2.645833,-4.233333"
       id="path1600"
       inkscape:connector-curvature="0" />
    <path
       style="fill:none;stroke:#000000;stroke-width:0.26458332px;stroke-linecap:butt;stroke-linejoin:miter;stroke-opacity:1"
       d="m 18.520833,37.541665 c 0,3.96875 2.645833,3.96875 2.645833,3.96875"
       id="path1602"
       inkscape:connector-curvature="0" />
    <path
       style="fill:none;stroke:#000000;stroke-width:0.26458332px;stroke-linecap:butt;stroke-linejoin:miter;stroke-opacity:1"
       d="m 23.8125,37.541665 c 0,3.96875 -2.645834,3.96875 -2.645834,3.96875"
       id="path1604"
       inkscape:connector-curvature="0" />
    <path
       style="fill:none;stroke:#000000;stroke-width:0.26458332px;stroke-linecap:butt;stroke-linejoin:miter;stroke-opacity:1"
       d="m 29.104166,41.510415 c 0,3.96875 2.645834,3.96875 2.645834,3.96875"
       id="path1608"
       inkscape:connector-curvature="0" />
    <path
       style="fill:none;stroke:#000000;stroke-width:0.26458332px;stroke-linecap:butt;stroke-linejoin:miter;stroke-opacity:1"
       d="m 34.395833,41.510415 c 0,3.96875 -2.645833,3.96875 -2.645833,3.96875"
       id="path1610"
       inkscape:connector-curvature="0" />
    <path
       style="fill:none;stroke:#000000;stroke-width:0.26458332px;stroke-linecap:butt;stroke-linejoin:miter;stroke-opacity:1"
       d="m 39.6875,24.3125 c 0,-3.96875 2.645833,-3.96875 2.645833,-3.96875"
       id="path1612"
       inkscape:connector-curvature="0" />
    <path
       style="fill:none;stroke:#000000;stroke-width:0.26458332px;stroke-linecap:butt;stroke-linejoin:miter;stroke-opacity:1"
       d="m 44.979166,24.3125 c 0,-3.96875 -2.645833,-3.96875 -2.645833,-3.96875"
       id="path1614"
       inkscape:connector-curvature="0" />
    <path
       style="fill:none;stroke:#000000;stroke-width:0.26458332px;stroke-linecap:butt;stroke-linejoin:miter;stroke-opacity:1"
       d="m 39.6875,37.541665 c 0,3.96875 2.645833,3.96875 2.645833,3.96875"
       id="path1616"
       inkscape:connector-curvature="0" />
    <path
       style="fill:none;stroke:#000000;stroke-width:0.26458332px;stroke-linecap:butt;stroke-linejoin:miter;stroke-opacity:1"
       d="m 44.979166,37.541665 c 0,3.96875 -2.645833,3.96875 -2.645833,3.96875"
       id="path1618"
       inkscape:connector-curvature="0" />
  </g>
  <g
     inkscape:groupmode="layer"
     id="layer3"
     inkscape:label="output"
     style="display:inline">
    <path
       style="fill:#ffffff;fill-opacity:1;stroke-width:0.25"
       d="m 78.041677,155.89019 c -3.466023,-1.12799 -6.0221,-4.45746 -6.948324,-9.05068 -0.353903,-1.75504 -0.390514,-5.18733 -0.325091,-30.47777 0.068,-26.288139 0.107724,-28.616413 0.511806,-29.999999 2.007052,-6.872191 7.012755,-10.318013 11.69928,-8.053542 2.848464,1.376342 4.966157,4.378073 5.901533,8.365147 0.425732,1.814694 0.454641,3.757159 0.453012,30.438394 l 0.01382,25.67187 -0.02564,3.19532 c -0.01534,1.91149 -1.426993,4.24418 -1.802947,4.99141 -1.904944,3.78617 -6.16533,5.99777 -9.477508,4.91985 z"
       id="path1620"
       inkscape:connector-curvature="0"
       transform="scale(0.26458333)"
       sodipodi:nodetypes="csssssccsccc" />
    <path
       style="fill:#ffffff;fill-opacity:1;stroke-width:0.25"
       d="m 118.04168,170.89019 c -3.46658,-1.12817 -6.02397,-4.45986 -6.94728,-9.05068 -0.35627,-1.7714 -0.39041,-6.51675 -0.32726,-45.47777 0.0659,-40.675153 0.0991,-43.597407 0.51076,-44.999999 2.0192,-6.879727 7.0149,-10.318026 11.70145,-8.053542 2.84846,1.376342 4.96615,4.378073 5.90153,8.365147 0.43047,1.834908 0.45475,4.254102 0.45475,45.313394 v 43.375 l -0.56537,2.125 c -0.31095,1.16875 -0.87345,2.73637 -1.25,3.4836 -1.90865,3.78757 -6.16665,5.99769 -9.47858,4.91985 z"
       id="path1622"
       inkscape:connector-curvature="0"
       transform="scale(0.26458333)" />
    <path
       style="fill:#ffffff;fill-opacity:1;stroke-width:0.25"
       d="m 158.04168,155.89019 c -3.46605,-1.128 -6.02217,-4.45755 -6.94829,-9.05068 -0.35388,-1.7551 -0.39084,-5.22874 -0.32827,-30.85277 L 151,88.889765 l 0.12109,-1.65151 c 0.26684,-3.639466 3.35957,-7.708229 6.05953,-8.960681 4.8576,-2.253334 10.08133,1.495065 11.70025,8.395772 0.42573,1.814694 0.45464,3.757159 0.45301,30.438394 l -0.002,28.5 -0.5647,2 c -0.31059,1.1 -0.87231,2.61137 -1.24826,3.3586 -1.90495,3.78617 -6.16533,5.99777 -9.47751,4.91985 z"
       id="path1624"
       inkscape:connector-curvature="0"
       transform="scale(0.26458333)"
       sodipodi:nodetypes="ccscssscccccc" />
  </g>
</svg>
