<svg xmlns="http://www.w3.org/2000/svg" xmlns:xlink="http://www.w3.org/1999/xlink" version="1.1" x="0px" y="0px" viewBox="0 0 100 125" enable-background="new 0 0 100 100" xml:space="preserve"><path d="M95.122,50c0-0.901-0.687-1.637-1.564-1.732c-0.4-1.017-1.143-1.849-2.084-2.384c-0.555-0.881-1.279-1.644-2.131-2.24  c-0.594-0.807-1.295-1.527-2.087-2.14c-0.619-0.785-1.314-1.507-2.087-2.141c-0.64-0.777-1.353-1.489-2.12-2.139  c-0.622-0.731-1.301-1.41-2.022-2.044c-0.673-0.782-1.397-1.519-2.169-2.204c-0.66-0.748-1.361-1.46-2.103-2.127  c-0.664-0.742-1.362-1.452-2.098-2.122c-0.653-0.723-1.34-1.413-2.056-2.073c-0.665-0.732-1.365-1.431-2.089-2.104  c-6.91-7.561-16.845-12.313-27.871-12.313C21.818,12.238,4.878,29.178,4.878,50s16.94,37.762,37.762,37.762  c11.027,0,20.964-4.752,27.874-12.315c0.723-0.672,1.422-1.37,2.085-2.1c0.717-0.661,1.405-1.352,2.058-2.075  c0.736-0.669,1.433-1.379,2.096-2.12c0.743-0.668,1.443-1.38,2.104-2.129c0.771-0.684,1.495-1.42,2.167-2.202  c0.721-0.635,1.401-1.314,2.024-2.046c0.767-0.65,1.479-1.362,2.119-2.138c0.773-0.634,1.469-1.356,2.088-2.142  c0.791-0.613,1.492-1.333,2.086-2.139c0.852-0.595,1.576-1.358,2.131-2.24c0.941-0.535,1.684-1.367,2.084-2.384  C94.435,51.637,95.122,50.901,95.122,50z M93.197,51.215c-0.224-0.033-0.426-0.118-0.595-0.254c0.039-0.315,0.066-0.635,0.066-0.961  c0-0.326-0.027-0.645-0.066-0.961c0.169-0.136,0.371-0.221,0.595-0.254c0.117,0.388,0.198,0.79,0.198,1.215  C93.395,50.425,93.314,50.827,93.197,51.215z M88.986,55.998c-0.077,0.052-0.159,0.098-0.238,0.147  c0.23-0.458,0.433-0.931,0.612-1.417c0.148-0.007,0.294-0.024,0.438-0.044C89.56,55.145,89.287,55.582,88.986,55.998z   M89.797,45.315c-0.145-0.02-0.29-0.037-0.438-0.044c-0.179-0.486-0.382-0.958-0.612-1.417c0.079,0.05,0.161,0.095,0.239,0.148  C89.288,44.418,89.56,44.855,89.797,45.315z M87.829,45.456c-0.192,0.056-0.387,0.106-0.569,0.185  c-0.213-0.939-0.496-1.85-0.838-2.734c0.16,0.034,0.316,0.077,0.472,0.122C87.267,43.808,87.584,44.616,87.829,45.456z   M87.558,43.253c0.134,0.052,0.264,0.109,0.394,0.169c0.34,0.592,0.632,1.213,0.879,1.858c-0.174,0.012-0.349,0.022-0.518,0.052  C88.106,44.618,87.854,43.924,87.558,43.253z M84.817,57.247c-0.184-0.003-0.366-0.012-0.546-0.028  c0.435-1.488,0.746-3.03,0.906-4.615c0.178,0.27,0.378,0.523,0.605,0.75C85.578,54.695,85.25,55.995,84.817,57.247z M82.593,42.604  c-0.193,0.061-0.382,0.133-0.568,0.208c-0.24-1.034-0.531-2.049-0.87-3.042c0.171,0.008,0.344,0.01,0.513,0.026  C82.023,40.711,82.333,41.647,82.593,42.604z M82.237,39.876c0.16,0.024,0.323,0.042,0.48,0.073c0.342,0.785,0.647,1.59,0.909,2.414  c-0.185,0.031-0.368,0.069-0.549,0.113C82.837,41.593,82.557,40.725,82.237,39.876z M80.621,60.25  c-0.178-0.001-0.352-0.017-0.528-0.027c0.358-1.16,0.652-2.348,0.888-3.556c0.189,0.112,0.382,0.215,0.58,0.31  C81.305,58.092,80.992,59.184,80.621,60.25z M68.006,69.256c-10.618,0-19.256-8.638-19.256-19.256s8.638-19.256,19.256-19.256  c2.611,0,5.099,0.527,7.371,1.473c0.271,0.497,0.529,1.001,0.777,1.511c-1.26-0.304-2.569-0.482-3.921-0.482  c-9.238,0-16.755,7.517-16.755,16.755c0,9.238,7.517,16.755,16.755,16.755c1.352,0,2.661-0.179,3.921-0.482  c-0.249,0.51-0.506,1.014-0.777,1.511C73.105,68.729,70.616,69.256,68.006,69.256z M74.989,68.457  c-0.22,0.385-0.444,0.768-0.678,1.144c-3.138,1.693-6.725,2.656-10.533,2.656c-12.272,0-22.257-9.984-22.257-22.257  c0-12.273,9.985-22.257,22.257-22.257c3.808,0,7.395,0.963,10.533,2.656c0.234,0.376,0.457,0.759,0.678,1.144  c-2.175-0.826-4.522-1.299-6.983-1.299c-10.894,0-19.756,8.863-19.756,19.756s8.863,19.756,19.756,19.756  C70.467,69.756,72.814,69.283,74.989,68.457z M72.233,66.255c-8.963,0-16.255-7.292-16.255-16.255  c0-8.963,7.292-16.255,16.255-16.255c1.452,0,2.854,0.21,4.194,0.569c0.302,0.648,0.584,1.306,0.849,1.974  c-0.271-0.016-0.54-0.041-0.815-0.041c-7.584,0-13.754,6.17-13.754,13.754s6.17,13.754,13.754,13.754  c0.275,0,0.544-0.025,0.816-0.041c-0.265,0.667-0.547,1.326-0.849,1.974C75.087,66.045,73.686,66.255,72.233,66.255z M81.56,43.022  c-0.198,0.096-0.392,0.199-0.58,0.31c-0.236-1.208-0.53-2.396-0.888-3.556c0.176-0.01,0.35-0.026,0.528-0.027  C80.992,40.816,81.305,41.908,81.56,43.022z M80.524,43.619c-0.204,0.141-0.401,0.291-0.591,0.451  c-0.225-1.42-0.535-2.812-0.915-4.175c0.187-0.031,0.373-0.066,0.563-0.086C79.968,41.049,80.278,42.323,80.524,43.619z M70.435,50  c0-4.91,3.471-9.021,8.088-10.018c0.409,1.464,0.738,2.961,0.967,4.491c-1.433,1.408-2.326,3.364-2.326,5.527  c0,2.163,0.893,4.119,2.326,5.527c-0.229,1.53-0.558,3.027-0.967,4.491C73.907,59.021,70.435,54.91,70.435,50z M78.386,60.499  c-0.27,0.916-0.572,1.818-0.908,2.704c-0.337,0.026-0.674,0.052-1.017,0.052c-7.309,0-13.254-5.945-13.254-13.254  s5.945-13.254,13.254-13.254c0.343,0,0.68,0.026,1.017,0.052c0.337,0.886,0.639,1.788,0.908,2.704  c-4.825,1.058-8.451,5.36-8.451,10.499C69.935,55.138,73.561,59.441,78.386,60.499z M79.902,50c0,1.657-0.12,3.285-0.331,4.885  c-1.181-1.29-1.908-3.002-1.908-4.885s0.727-3.595,1.908-4.885C79.782,46.715,79.902,48.343,79.902,50z M80.018,44.667  c0.192-0.177,0.393-0.343,0.604-0.498c0.327,1.897,0.507,3.843,0.507,5.831c0,1.988-0.18,3.934-0.507,5.831  c-0.21-0.155-0.411-0.321-0.604-0.498c0.248-1.743,0.384-3.522,0.384-5.333C80.402,48.189,80.266,46.41,80.018,44.667z   M78.88,39.411c-0.254-0.867-0.532-1.723-0.845-2.563c0.167,0.02,0.33,0.05,0.494,0.076c0.326,0.787,0.621,1.59,0.889,2.405  C79.237,39.35,79.059,39.38,78.88,39.411z M77.825,36.315c-0.243-0.622-0.502-1.236-0.776-1.841  c0.144,0.045,0.281,0.105,0.423,0.154c0.291,0.577,0.568,1.161,0.827,1.756C78.14,36.362,77.985,36.331,77.825,36.315z   M77.825,63.685c0.16-0.016,0.316-0.047,0.474-0.068c-0.259,0.595-0.536,1.179-0.827,1.756c-0.142,0.049-0.279,0.109-0.423,0.154  C77.323,64.92,77.582,64.307,77.825,63.685z M78.036,63.151c0.313-0.84,0.591-1.696,0.845-2.563c0.178,0.03,0.357,0.061,0.538,0.082  c-0.268,0.815-0.562,1.618-0.889,2.405C78.365,63.102,78.202,63.132,78.036,63.151z M79.018,60.104  c0.379-1.363,0.69-2.755,0.915-4.175c0.19,0.159,0.387,0.31,0.591,0.451c-0.245,1.296-0.555,2.57-0.943,3.81  C79.391,60.17,79.205,60.135,79.018,60.104z M81.075,56.14c0.357-1.995,0.554-4.044,0.554-6.14c0-2.096-0.197-4.146-0.554-6.14  c0.195-0.122,0.395-0.235,0.601-0.339c0.443,2.091,0.68,4.258,0.68,6.479c0,2.221-0.237,4.387-0.679,6.479  C81.469,56.375,81.269,56.262,81.075,56.14z M82.855,50c0-2.298-0.251-4.537-0.717-6.697c0.191-0.08,0.386-0.151,0.585-0.215  c0.558,2.213,0.858,4.528,0.858,6.912c0,2.384-0.3,4.699-0.858,6.911c-0.199-0.063-0.394-0.135-0.585-0.215  C82.604,54.537,82.855,52.298,82.855,50z M80.983,39.261c-0.241-0.669-0.506-1.325-0.79-1.972c0.143,0.042,0.285,0.087,0.426,0.134  c0.304,0.609,0.587,1.23,0.848,1.863C81.306,39.274,81.145,39.266,80.983,39.261z M80.454,39.258  c-0.175,0.004-0.349,0.014-0.522,0.026c-0.25-0.77-0.528-1.528-0.83-2.274c0.159,0.032,0.313,0.08,0.47,0.118  C79.888,37.827,80.188,38.534,80.454,39.258z M78.889,36.473c-0.228-0.538-0.471-1.069-0.725-1.593  c0.117,0.046,0.239,0.081,0.355,0.13c0.276,0.503,0.539,1.015,0.788,1.535C79.169,36.516,79.028,36.498,78.889,36.473z   M77.828,34.226c-0.193-0.377-0.39-0.752-0.596-1.121c0.081,0.044,0.155,0.098,0.236,0.143c0.228,0.358,0.45,0.721,0.664,1.089  C78.03,34.299,77.929,34.262,77.828,34.226z M77.141,33.981c-0.117-0.036-0.239-0.059-0.356-0.092  c-0.213-0.449-0.437-0.891-0.667-1.329c0.104,0.049,0.207,0.099,0.31,0.15C76.673,33.128,76.912,33.552,77.141,33.981z   M75.723,31.815c-0.169-0.307-0.346-0.608-0.524-0.91c0.055,0.033,0.11,0.065,0.164,0.098c0.203,0.304,0.4,0.614,0.593,0.925  C75.877,31.893,75.803,31.849,75.723,31.815z M74.662,30.02c-0.034-0.055-0.07-0.108-0.104-0.163  c0.042,0.057,0.082,0.116,0.124,0.174C74.675,30.027,74.668,30.023,74.662,30.02z M63.778,27.243  c-12.549,0-22.757,10.209-22.757,22.757c0,12.548,10.208,22.757,22.757,22.757c3.585,0,6.977-0.836,9.996-2.319  c-0.168,0.255-0.338,0.507-0.512,0.757c-3.952,2.565-8.659,4.062-13.711,4.062c-13.927,0-25.258-11.331-25.258-25.258  c0-13.927,11.331-25.258,25.258-25.258c5.052,0,9.759,1.497,13.711,4.062c0.174,0.25,0.344,0.503,0.512,0.757  C70.755,28.079,67.363,27.243,63.778,27.243z M75.199,69.094c0.177-0.301,0.354-0.603,0.524-0.91  c0.08-0.034,0.154-0.078,0.234-0.113c-0.194,0.311-0.39,0.62-0.593,0.925C75.309,69.029,75.254,69.061,75.199,69.094z   M74.682,69.969c-0.042,0.058-0.082,0.117-0.124,0.174c0.035-0.055,0.07-0.108,0.105-0.163  C74.669,69.976,74.675,69.972,74.682,69.969z M76.118,67.439c0.23-0.439,0.454-0.881,0.667-1.33c0.118-0.033,0.24-0.056,0.356-0.092  c-0.228,0.43-0.467,0.853-0.713,1.272C76.325,67.34,76.222,67.391,76.118,67.439z M77.828,65.774  c0.101-0.036,0.202-0.073,0.303-0.111c-0.214,0.368-0.435,0.731-0.664,1.089c-0.08,0.045-0.155,0.099-0.236,0.143  C77.438,66.526,77.635,66.151,77.828,65.774z M78.164,65.119c0.254-0.524,0.497-1.054,0.725-1.593  c0.139-0.025,0.281-0.043,0.418-0.072c-0.249,0.52-0.512,1.031-0.788,1.535C78.403,65.037,78.281,65.073,78.164,65.119z   M79.102,62.988c0.302-0.746,0.579-1.503,0.83-2.274c0.173,0.012,0.347,0.023,0.522,0.026c-0.266,0.724-0.566,1.431-0.882,2.129  C79.414,62.908,79.261,62.956,79.102,62.988z M80.983,60.738c0.162-0.004,0.323-0.013,0.484-0.024  c-0.26,0.633-0.544,1.253-0.848,1.862c-0.141,0.047-0.283,0.092-0.426,0.134C80.477,62.063,80.742,61.406,80.983,60.738z   M81.155,60.229c0.339-0.993,0.629-2.008,0.87-3.042c0.187,0.075,0.375,0.148,0.568,0.208c-0.26,0.957-0.57,1.893-0.925,2.808  C81.499,60.219,81.327,60.221,81.155,60.229z M83.077,57.522c0.181,0.044,0.363,0.082,0.549,0.113  c-0.262,0.824-0.567,1.629-0.909,2.414c-0.158,0.032-0.32,0.049-0.48,0.073C82.557,59.274,82.837,58.407,83.077,57.522z   M83.207,57.04c0.569-2.254,0.875-4.612,0.875-7.04c0-2.429-0.306-4.787-0.875-7.041c0.185-0.045,0.373-0.082,0.564-0.112  c0.511,1.727,0.841,3.531,0.969,5.39c-0.219,0.546-0.348,1.139-0.348,1.763s0.128,1.217,0.348,1.763  c-0.129,1.859-0.458,3.662-0.969,5.389C83.58,57.122,83.392,57.085,83.207,57.04z M85.782,46.646  c-0.227,0.228-0.427,0.481-0.605,0.75c-0.16-1.586-0.47-3.127-0.906-4.616c0.18-0.016,0.362-0.025,0.546-0.028  C85.249,44.005,85.578,45.305,85.782,46.646z M86.035,50c0,0.906-0.061,1.798-0.167,2.677c-0.247-0.301-0.464-0.626-0.621-0.987  c0.036-0.559,0.062-1.121,0.062-1.69c0-0.568-0.025-1.13-0.062-1.69c0.157-0.361,0.375-0.686,0.621-0.987  C85.974,48.202,86.035,49.094,86.035,50z M85.351,42.77c0.171,0.01,0.34,0.024,0.507,0.046c0.398,0.987,0.719,2.012,0.951,3.071  c-0.205,0.117-0.398,0.246-0.583,0.391C86.026,45.074,85.731,43.903,85.351,42.77z M85.178,42.261  c-0.222-0.612-0.473-1.21-0.745-1.796c0.125,0.049,0.249,0.097,0.371,0.151c0.303,0.541,0.58,1.097,0.831,1.668  C85.485,42.27,85.331,42.266,85.178,42.261z M84.645,42.261c-0.173,0.006-0.347,0.009-0.518,0.026  c-0.234-0.743-0.501-1.471-0.799-2.184c0.146,0.039,0.294,0.071,0.437,0.116C84.091,40.883,84.386,41.564,84.645,42.261z   M83.072,39.522c-0.203-0.455-0.419-0.902-0.648-1.343c0.095,0.048,0.195,0.089,0.288,0.139c0.263,0.425,0.511,0.86,0.746,1.303  C83.33,39.587,83.202,39.552,83.072,39.522z M82.471,39.407c-0.148-0.025-0.297-0.05-0.447-0.068  c-0.226-0.563-0.464-1.12-0.724-1.665c0.121,0.048,0.245,0.088,0.364,0.139C81.952,38.333,82.22,38.865,82.471,39.407z   M80.974,37.022c-0.178-0.351-0.362-0.699-0.555-1.042c0.071,0.042,0.14,0.085,0.21,0.128c0.222,0.336,0.436,0.677,0.642,1.023  C81.173,37.094,81.075,37.057,80.974,37.022z M80.3,36.802c-0.122-0.036-0.248-0.063-0.371-0.096  c-0.209-0.451-0.428-0.896-0.657-1.336c0.102,0.049,0.205,0.096,0.306,0.148C79.829,35.938,80.069,36.367,80.3,36.802z   M78.872,34.623c-0.15-0.27-0.304-0.537-0.461-0.801c0.035,0.023,0.073,0.043,0.108,0.066c0.191,0.274,0.377,0.553,0.558,0.835  C79.008,34.691,78.942,34.653,78.872,34.623z M76.903,32.385c-0.039-0.02-0.079-0.038-0.119-0.057  c-0.131-0.22-0.263-0.439-0.399-0.656c0.007,0.005,0.013,0.009,0.02,0.014C76.573,31.917,76.741,32.148,76.903,32.385z   M59.551,24.242c-14.203,0-25.758,11.555-25.758,25.758s11.555,25.758,25.758,25.758c4.726,0,9.155-1.285,12.966-3.515  c-0.104,0.14-0.216,0.275-0.322,0.413c-4.712,3.518-10.552,5.603-16.871,5.603c-15.582,0-28.259-12.677-28.259-28.259  s12.677-28.259,28.259-28.259c6.319,0,12.16,2.085,16.872,5.603c0.106,0.138,0.217,0.273,0.322,0.413  C68.705,25.527,64.276,24.242,59.551,24.242z M76.386,68.328c0.135-0.217,0.268-0.436,0.398-0.656  c0.039-0.02,0.079-0.037,0.119-0.057c-0.162,0.236-0.33,0.468-0.498,0.699C76.399,68.319,76.392,68.323,76.386,68.328z   M78.411,66.178c0.157-0.265,0.312-0.532,0.461-0.802c0.07-0.03,0.135-0.068,0.205-0.099c-0.182,0.281-0.367,0.56-0.558,0.835  C78.484,66.135,78.446,66.155,78.411,66.178z M79.271,64.63c0.229-0.44,0.448-0.885,0.657-1.336c0.124-0.032,0.249-0.06,0.371-0.096  c-0.231,0.435-0.471,0.863-0.723,1.284C79.476,64.533,79.373,64.58,79.271,64.63z M80.975,62.977c0.1-0.035,0.199-0.072,0.298-0.109  c-0.206,0.347-0.42,0.688-0.642,1.023c-0.07,0.043-0.139,0.086-0.21,0.128C80.612,63.677,80.796,63.329,80.975,62.977z   M81.301,62.326c0.26-0.545,0.498-1.102,0.724-1.665c0.15-0.019,0.299-0.043,0.447-0.068c-0.251,0.542-0.519,1.074-0.807,1.594  C81.546,62.238,81.422,62.278,81.301,62.326z M83.072,60.477c0.13-0.03,0.258-0.065,0.386-0.1c-0.235,0.443-0.483,0.878-0.746,1.304  c-0.094,0.05-0.193,0.091-0.288,0.139C82.653,61.38,82.869,60.932,83.072,60.477z M83.329,59.896  c0.298-0.713,0.565-1.44,0.799-2.184c0.17,0.017,0.344,0.02,0.518,0.026c-0.26,0.698-0.554,1.378-0.88,2.041  C83.623,59.825,83.474,59.857,83.329,59.896z M85.178,57.739c0.153-0.005,0.307-0.009,0.458-0.023  c-0.251,0.571-0.528,1.127-0.831,1.668c-0.122,0.054-0.247,0.102-0.372,0.151C84.705,58.948,84.956,58.351,85.178,57.739z   M85.351,57.23c0.381-1.133,0.676-2.304,0.875-3.508c0.185,0.145,0.378,0.274,0.583,0.391c-0.232,1.059-0.552,2.084-0.951,3.071  C85.69,57.205,85.521,57.22,85.351,57.23z M86.312,53.147c0.143-1.03,0.223-2.079,0.223-3.147c0-1.068-0.08-2.118-0.223-3.148  c0.187-0.168,0.385-0.321,0.599-0.454c0.222,1.168,0.35,2.37,0.35,3.602c0,1.232-0.128,2.433-0.35,3.602  C86.697,53.468,86.499,53.316,86.312,53.147z M87.378,46.144c0.184-0.085,0.379-0.147,0.576-0.205  c0.336,1.301,0.534,2.657,0.534,4.061c0,1.404-0.198,2.76-0.534,4.061c-0.197-0.058-0.392-0.12-0.576-0.205  c0.248-1.248,0.384-2.536,0.384-3.855C87.761,48.68,87.626,47.392,87.378,46.144z M86.225,42.367  c-0.199-0.474-0.428-0.931-0.663-1.385c0.1,0.054,0.194,0.119,0.292,0.177c0.271,0.415,0.524,0.842,0.757,1.282  C86.484,42.412,86.354,42.389,86.225,42.367z M85.154,40.23c-0.055-0.096-0.115-0.187-0.171-0.282  c0.08,0.102,0.155,0.208,0.233,0.311C85.195,40.25,85.175,40.24,85.154,40.23z M84.121,39.818c-0.164-0.326-0.335-0.647-0.513-0.963  c0.043,0.028,0.089,0.052,0.132,0.08c0.224,0.318,0.432,0.645,0.637,0.977C84.292,39.881,84.207,39.848,84.121,39.818z   M82.021,37.431c-0.125-0.223-0.25-0.445-0.382-0.663c0.016,0.011,0.031,0.024,0.047,0.035c0.173,0.234,0.342,0.47,0.506,0.711  C82.135,37.487,82.079,37.456,82.021,37.431z M79.933,35.135c-0.05-0.082-0.103-0.161-0.153-0.243  c0.063,0.084,0.121,0.172,0.184,0.257C79.954,35.144,79.943,35.14,79.933,35.135z M55.323,21.241  c-15.858,0-28.759,12.901-28.759,28.759c0,15.857,12.901,28.759,28.759,28.759c5.768,0,11.14-1.713,15.648-4.648  c-5.406,4.464-12.333,7.149-19.875,7.149c-17.237,0-31.26-14.023-31.26-31.26c0-17.237,14.023-31.26,31.26-31.26  c7.542,0,14.469,2.685,19.875,7.149C66.463,22.954,61.091,21.241,55.323,21.241z M79.933,64.864c0.01-0.005,0.02-0.009,0.03-0.015  c-0.062,0.085-0.12,0.173-0.183,0.257C79.831,65.026,79.884,64.946,79.933,64.864z M81.64,63.232  c0.131-0.218,0.257-0.441,0.382-0.663c0.058-0.026,0.113-0.056,0.171-0.082c-0.164,0.24-0.333,0.477-0.506,0.71  C81.671,63.208,81.656,63.221,81.64,63.232z M83.608,61.144c0.179-0.317,0.35-0.638,0.513-0.963c0.086-0.029,0.17-0.062,0.256-0.094  c-0.205,0.331-0.413,0.659-0.637,0.977C83.697,61.092,83.651,61.116,83.608,61.144z M85.562,59.018  c0.234-0.454,0.463-0.911,0.663-1.385c0.13-0.022,0.259-0.045,0.386-0.073c-0.232,0.44-0.486,0.867-0.757,1.282  C85.756,58.899,85.663,58.964,85.562,59.018z M85.216,59.739c-0.078,0.103-0.152,0.209-0.232,0.31  c0.056-0.094,0.116-0.185,0.171-0.281C85.175,59.759,85.196,59.749,85.216,59.739z M86.423,57.092  c0.341-0.884,0.625-1.794,0.838-2.734c0.182,0.079,0.376,0.129,0.569,0.185c-0.245,0.841-0.562,1.649-0.934,2.427  C86.739,57.015,86.583,57.058,86.423,57.092z M88.313,54.667c0.169,0.03,0.343,0.041,0.518,0.052  c-0.247,0.645-0.539,1.266-0.879,1.858c-0.13,0.06-0.26,0.117-0.394,0.169C87.855,56.075,88.106,55.381,88.313,54.667z   M89.008,54.237c-0.193-0.006-0.383-0.026-0.569-0.057c0.346-1.339,0.549-2.734,0.549-4.18c0-1.445-0.203-2.841-0.549-4.18  c0.186-0.031,0.375-0.051,0.569-0.058c0.451,1.333,0.707,2.755,0.707,4.238C89.715,51.483,89.459,52.905,89.008,54.237z   M87.516,42.706c-0.09-0.032-0.178-0.07-0.27-0.099c-0.132-0.266-0.262-0.533-0.407-0.791c0.02,0.015,0.041,0.03,0.061,0.046  C87.114,42.136,87.323,42.415,87.516,42.706z M51.095,18.24c-17.513,0-31.76,14.248-31.76,31.76s14.248,31.76,31.76,31.76  c6.415,0,12.388-1.918,17.387-5.201c-5.9,4.811-13.425,7.702-21.614,7.702c-18.892,0-34.261-15.369-34.261-34.261  s15.37-34.261,34.261-34.261c8.189,0,15.713,2.891,21.614,7.702C63.483,20.157,57.51,18.24,51.095,18.24z M86.839,58.184  c0.145-0.258,0.276-0.525,0.407-0.791c0.092-0.029,0.18-0.067,0.27-0.099c-0.193,0.291-0.401,0.57-0.616,0.844  C86.88,58.153,86.859,58.168,86.839,58.184z M89.55,54.21c0.428-1.328,0.665-2.741,0.665-4.21c0-1.469-0.237-2.882-0.665-4.21  c0.171,0.017,0.343,0.027,0.508,0.063c0.564,1.269,0.884,2.671,0.884,4.147c0,1.476-0.32,2.877-0.884,4.146  C89.893,54.183,89.721,54.193,89.55,54.21z M91.441,50c0-1.397-0.276-2.728-0.763-3.954c0.152,0.059,0.294,0.134,0.437,0.21  c0.473,0.78,0.801,1.654,0.952,2.588c-0.274,0.309-0.446,0.711-0.446,1.156c0,0.444,0.172,0.846,0.446,1.155  c-0.151,0.935-0.479,1.808-0.951,2.588c-0.143,0.076-0.285,0.151-0.437,0.21C91.165,52.728,91.441,51.397,91.441,50z M92.168,50  c0,0.062-0.008,0.123-0.009,0.185c-0.01-0.063-0.037-0.12-0.037-0.185s0.028-0.122,0.037-0.185  C92.16,49.877,92.168,49.937,92.168,50z M93.027,48.284c-0.183,0.037-0.352,0.108-0.51,0.197c-0.112-0.559-0.286-1.096-0.511-1.605  C92.435,47.271,92.787,47.745,93.027,48.284z M90.591,45.498c-0.059-0.019-0.117-0.038-0.177-0.055  c-0.054-0.114-0.106-0.228-0.164-0.339C90.368,45.232,90.483,45.362,90.591,45.498z M42.64,87.262  C22.094,87.262,5.378,70.546,5.378,50c0-20.546,16.716-37.262,37.262-37.262c8.835,0,16.957,3.097,23.351,8.255  c-5.49-3.632-12.062-5.754-19.124-5.754C27.7,15.239,12.107,30.833,12.107,50c0,19.167,15.594,34.761,34.761,34.761  c7.061,0,13.633-2.122,19.124-5.754C59.597,84.165,51.476,87.262,42.64,87.262z M90.25,54.896c0.057-0.112,0.11-0.226,0.164-0.34  c0.06-0.017,0.119-0.036,0.178-0.055C90.483,54.638,90.368,54.768,90.25,54.896z M92.005,53.122  c0.225-0.509,0.399-1.045,0.511-1.605c0.158,0.089,0.327,0.161,0.51,0.198C92.787,52.255,92.435,52.729,92.005,53.122z   M93.73,51.177c0.097-0.379,0.165-0.769,0.165-1.177c0-0.409-0.068-0.799-0.166-1.178c0.512,0.157,0.892,0.616,0.892,1.178  C94.622,50.562,94.242,51.021,93.73,51.177z"/><text x="0" y="115" fill="#000000" font-size="5px" font-weight="bold" font-family="'Helvetica Neue', Helvetica, Arial-Unicode, Arial, Sans-serif"></text><text x="0" y="120" fill="#000000" font-size="5px" font-weight="bold" font-family="'Helvetica Neue', Helvetica, Arial-Unicode, Arial, Sans-serif"></text></svg>