<svg xmlns="http://www.w3.org/2000/svg" xmlns:xlink="http://www.w3.org/1999/xlink" version="1.1" x="0px" y="0px" viewBox="0 0 100 125" style="enable-background:new 0 0 100 100;" xml:space="preserve"><path d="M91.347435,13.5990629l0.9521179-0.5508013l-0.9521179-0.5662727v-0.0002375L78.7680359,5l-46.998497,27.1890678  l-11.693924-6.7232704l-12.332798,7.3379822L7.7004476,47.4635544l46.6199722,26.9710312l0.0438576,13.482605L66.9132004,95  l12.617485-7.285614l0.0399857-53.7177811l11.2892761-6.5180283l-0.0001755-0.0002975l0.4876633-0.2805767V13.5990629z   M65.9337692,92.2085037l-9.6233635-5.4319534l-0.0399284-12.295723l9.6810837-5.6580276L65.9337692,92.2085037z   M66.9408188,38.9001961l-9.8067093-5.4936066l9.7838516-5.6485653l9.7198868,5.543417L66.9408188,38.9001961z   M65.973465,55.2535553v11.2971268l-9.6611557,5.6458893V60.9998322L65.973465,55.2535553z M32.8597145,34.9631844  l9.660675,5.7465134v11.1965637l-9.660675-5.64571V34.9631844z M54.1909904,46.2919731l-9.7206612,5.6228561v-11.197155  l9.7929039-5.6652298L54.1909904,46.2919731z M43.5020256,39.0249252l-9.6906662-5.7641296L78.7547073,7.2603307  l9.6906662,5.7641282L43.5020256,39.0249252z M45.4738045,53.5879402l9.7715378-5.6530266l9.7725487,5.6183929l-9.6866188,5.7619286  L45.4738045,53.5879402z M56.1787758,46.2229424l-0.0126152-3.8773232l0.046772-7.2202759l9.7601128,5.4673653l-0.0085678,11.256424  L56.1787758,46.2229424z M30.9097767,33.9440613v11.1821022L10.6402931,33.3494034l9.4524593-5.6242275L30.9097767,33.9440613z   M9.6865673,35.0507202l21.6679077,12.588501l12.1385059,7.0947151l0.0367165-0.021244l10.8326721,6.2935066v11.1994209  L9.653244,46.3410072L9.6865673,35.0507202z M67.8837738,92.1879196l0.0186234-24.5052261l0.0210037-0.0123138V52.9753723  l-0.009819-0.0056534l0.009407-12.3846283l9.6978073-5.5991745l-0.0400543,51.6030655L67.8837738,92.1879196z   M89.3974915,26.0703926l-10.7044907,6.1589012l-9.8442612-5.6147041l9.9298325-5.7444324l10.6189194-6.1430712V26.0703926z"/><text x="0" y="115" fill="#000000" font-size="5px" font-weight="bold" font-family="'Helvetica Neue', Helvetica, Arial-Unicode, Arial, Sans-serif"></text><text x="0" y="120" fill="#000000" font-size="5px" font-weight="bold" font-family="'Helvetica Neue', Helvetica, Arial-Unicode, Arial, Sans-serif"></text></svg>