<?xml version="1.0" encoding="UTF-8" standalone="no"?>
<!-- Created with Inkscape (http://www.inkscape.org/) -->

<svg
   xmlns:dc="http://purl.org/dc/elements/1.1/"
   xmlns:cc="http://creativecommons.org/ns#"
   xmlns:rdf="http://www.w3.org/1999/02/22-rdf-syntax-ns#"
   xmlns:svg="http://www.w3.org/2000/svg"
   xmlns="http://www.w3.org/2000/svg"
   xmlns:sodipodi="http://sodipodi.sourceforge.net/DTD/sodipodi-0.dtd"
   xmlns:inkscape="http://www.inkscape.org/namespaces/inkscape"
   width="64mm"
   height="64mm"
   viewBox="0 0 64 64"
   version="1.1"
   id="svg8"
   inkscape:version="0.92.4 (5da689c313, 2019-01-14)"
   sodipodi:docname="search.svg">
  <defs
     id="defs2">
    <inkscape:perspective
       sodipodi:type="inkscape:persp3d"
       inkscape:vp_x="66.249205 : 55.210183 : 1"
       inkscape:vp_y="81.884987 : -4563.3647 : 0"
       inkscape:vp_z="-8.2642775 : 67.069501 : 1"
       inkscape:persp3d-origin="28.119024 : 109.81574 : 1"
       id="perspective71" />
  </defs>
  <sodipodi:namedview
     id="base"
     pagecolor="#00001a"
     bordercolor="#666666"
     borderopacity="1.0"
     inkscape:pageopacity="0"
     inkscape:pageshadow="2"
     inkscape:zoom="2"
     inkscape:cx="35.6113"
     inkscape:cy="120.08161"
     inkscape:document-units="mm"
     inkscape:current-layer="layer3"
     showgrid="true"
     inkscape:window-width="1920"
     inkscape:window-height="1001"
     inkscape:window-x="-9"
     inkscape:window-y="-9"
     inkscape:window-maximized="1">
    <inkscape:grid
       type="xygrid"
       id="grid22" />
  </sodipodi:namedview>
  <metadata
     id="metadata5">
    <rdf:RDF>
      <cc:Work
         rdf:about="">
        <dc:format>image/svg+xml</dc:format>
        <dc:type
           rdf:resource="http://purl.org/dc/dcmitype/StillImage" />
        <dc:title />
      </cc:Work>
    </rdf:RDF>
  </metadata>
  <g
     inkscape:label="frame"
     inkscape:groupmode="layer"
     id="layer1"
     transform="translate(0,-233)"
     style="display:none;opacity:1">
    <path
       style="fill:#ffffff;stroke:#000000;stroke-width:0.26458332px;stroke-linecap:butt;stroke-linejoin:miter;stroke-opacity:1"
       d="M 31.75,234.82292 V 289.0625"
       id="path95"
       inkscape:connector-curvature="0" />
    <path
       style="fill:#ffffff;stroke:#000000;stroke-width:0.26458332px;stroke-linecap:butt;stroke-linejoin:miter;stroke-opacity:1"
       d="M 62.177083,234.82292 1.3229166,295.67708"
       id="path99"
       inkscape:connector-curvature="0" />
    <path
       style="display:inline;opacity:1;fill:#ffffff;stroke:#000000;stroke-width:0.26458332px;stroke-linecap:butt;stroke-linejoin:miter;stroke-opacity:1"
       d="M 62.177083,295.67708 1.3229166,234.82292"
       id="path97"
       inkscape:connector-curvature="0" />
    <path
       transform="translate(0,233)"
       style="display:inline;fill:none;stroke:#000000;stroke-width:0.26458332px;stroke-linecap:butt;stroke-linejoin:miter;stroke-opacity:1"
       d="M 7.9374999,19.020833 H 55.562499"
       id="path54"
       inkscape:connector-curvature="0" />
    <path
       transform="translate(0,233)"
       style="display:inline;fill:none;stroke:#000000;stroke-width:0.26458332px;stroke-linecap:butt;stroke-linejoin:miter;stroke-opacity:1"
       d="M 18.520833,56.062498 V 8.4375"
       id="path60"
       inkscape:connector-curvature="0" />
    <path
       transform="translate(0,233)"
       style="display:inline;fill:none;stroke:#000000;stroke-width:0.26458332px;stroke-linecap:butt;stroke-linejoin:miter;stroke-opacity:1"
       d="M 7.9374999,42.833332 H 55.562499"
       id="path62"
       inkscape:connector-curvature="0" />
    <path
       transform="translate(0,233)"
       style="display:inline;fill:none;stroke:#000000;stroke-width:0.26458332px;stroke-linecap:butt;stroke-linejoin:miter;stroke-opacity:1"
       d="M 44.979166,8.4375 V 56.062498"
       id="path56"
       inkscape:connector-curvature="0" />
    <path
       transform="translate(0,233)"
       style="display:inline;fill:none;stroke:#000000;stroke-width:0.26458332px;stroke-linecap:butt;stroke-linejoin:miter;stroke-opacity:1"
       d="m 31.75,8.4375 c 0,47.624998 0,47.624998 0,47.624998"
       id="path44"
       inkscape:connector-curvature="0" />
    <path
       transform="translate(0,233)"
       style="display:inline;fill:none;stroke:#000000;stroke-width:0.26458332px;stroke-linecap:butt;stroke-linejoin:miter;stroke-opacity:1"
       d="m 55.562499,30.927082 c -47.6249991,0 -47.6249991,0 -47.6249991,0"
       id="path46"
       inkscape:connector-curvature="0" />
    <path
       transform="translate(0,233)"
       style="display:inline;fill:none;stroke:#000000;stroke-width:0.26458332px;stroke-linecap:butt;stroke-linejoin:miter;stroke-opacity:1"
       d="m 30.427083,13.729167 h 2.645833"
       id="path84"
       inkscape:connector-curvature="0" />
    <path
       transform="translate(0,233)"
       style="display:inline;fill:none;stroke:#000000;stroke-width:0.26458332px;stroke-linecap:butt;stroke-linejoin:miter;stroke-opacity:1"
       d="m 30.427083,36.218749 h 2.645833"
       id="path80"
       inkscape:connector-curvature="0" />
    <path
       transform="translate(0,233)"
       style="display:inline;fill:none;stroke:#000000;stroke-width:0.26458332px;stroke-linecap:butt;stroke-linejoin:miter;stroke-opacity:1"
       d="m 30.427083,48.124998 h 2.645833"
       id="path82"
       inkscape:connector-curvature="0" />
    <path
       style="display:inline;fill:none;stroke:#000000;stroke-width:0.26458332px;stroke-linecap:butt;stroke-linejoin:miter;stroke-opacity:1"
       d="M 7.9374999,53.416665 H 55.562499"
       id="path86"
       inkscape:connector-curvature="0"
       transform="translate(0,233)" />
    <path
       style="opacity:1;fill:#cccccc;fill-opacity:1;stroke:none;stroke-width:0.25;stroke-opacity:0.94117647"
       d="m 97.493786,158.24147 c -0.929602,-0.39387 -12.829252,-12.58642 -13.013514,-13.33384 -1.0154,-4.11876 4.509691,-9.93307 11.175732,-11.76075 2.918061,-0.80007 2.763018,-0.83942 4.32892,1.09867 2.278876,2.82052 7.253426,7.55767 9.347206,8.90113 0.19115,0.12265 -0.77611,4.24392 -1.36296,5.80725 -1.90334,5.07042 -6.19732,9.56677 -9.08697,9.51523 -0.488627,-0.009 -1.113414,-0.11118 -1.388414,-0.22769 z"
       id="path913"
       inkscape:connector-curvature="0"
       transform="matrix(0.26458333,0,0,0.26458333,0,233)" />
  </g>
  <g
     inkscape:groupmode="layer"
     id="layer2"
     inkscape:label="LOGO"
     style="display:none">
    <path
       style="display:inline;opacity:1;fill:#f1ffff;fill-opacity:1;stroke:#000000;stroke-width:0.26458332px;stroke-linecap:butt;stroke-linejoin:miter;stroke-opacity:1"
       d="M 3.96875,1.8229167 H 64.822916 V 62.677077 H 3.96875 Z"
       id="path93"
       inkscape:connector-curvature="0" />
    <path
       transform="translate(0,-233)"
       style="display:inline;opacity:1;fill:none;stroke:#000000;stroke-width:0.26458332px;stroke-linecap:butt;stroke-linejoin:miter;stroke-opacity:1"
       d="m 25.135417,269.21875 c -2.645833,0 -3.968751,1.32292 -2.645834,2.64583"
       id="path877"
       inkscape:connector-curvature="0"
       sodipodi:nodetypes="cc" />
    <path
       transform="translate(0,-233)"
       style="display:inline;opacity:1;fill:none;stroke:#000000;stroke-width:0.26458332px;stroke-linecap:butt;stroke-linejoin:miter;stroke-opacity:1"
       d="m 29.104167,271.86458 c 0,2.64584 -2.381251,4.23333 -3.704168,2.91042 l -2.910416,-2.91042"
       id="path879"
       inkscape:connector-curvature="0"
       sodipodi:nodetypes="ccc" />
    <path
       style="display:inline;opacity:1;fill:#000000;fill-opacity:1;stroke:none;stroke-width:0.05148733;stroke-opacity:0.94117647"
       d="m 35.14662,273.27415 c -1.996789,-0.2254 -4.068295,-0.98535 -5.747433,-2.1085 -3.523706,-2.35695 -5.642498,-6.13542 -5.843161,-10.42019 -0.120561,-2.57433 0.689696,-5.47012 2.139543,-7.64654 0.55077,-0.82678 0.970165,-1.33436 1.72419,-2.08674 3.353269,-3.34594 8.130885,-4.60169 12.721132,-3.34362 4.609584,1.26337 8.215718,5.06222 9.261034,9.75597 0.38793,1.7419 0.399501,3.75089 0.0319,5.53747 -0.393724,1.91354 -1.304146,3.851 -2.562257,5.45273 -0.478292,0.60893 -1.742664,1.83221 -2.379995,2.30265 -1.920349,1.4175 -3.996654,2.25652 -6.279918,2.53768 -0.70493,0.0868 -2.373147,0.0972 -3.065034,0.0191 z m 3.217958,-1.40957 c 1.645815,-0.25167 3.314936,-0.8825 4.659604,-1.76105 5.038476,-3.29195 6.778469,-9.89287 4.007197,-15.20188 -1.690681,-3.23888 -4.765369,-5.4877 -8.383621,-6.13173 -0.773252,-0.13764 -2.435238,-0.19055 -3.223187,-0.10262 -5.493882,0.6131 -9.797599,4.9052 -10.392239,10.36418 -0.07513,0.68967 -0.06549,1.95654 0.02029,2.6665 0.639893,5.29651 4.858337,9.54469 10.119747,10.19107 0.240702,0.0296 0.518734,0.0636 0.617847,0.0756 0.371073,0.045 2.05354,-0.0204 2.574367,-0.10007 z"
       id="path859"
       inkscape:connector-curvature="0"
       transform="translate(0,-233)" />
    <path
       style="fill:none;stroke:#000000;stroke-width:0.26458332px;stroke-linecap:butt;stroke-linejoin:miter;stroke-opacity:1"
       d="m 22.489583,38.864583 c -9.260416,5.291667 -7.9375,10.583334 -7.9375,10.583334"
       id="path899"
       inkscape:connector-curvature="0"
       sodipodi:nodetypes="cc" />
    <path
       style="fill:none;stroke:#000000;stroke-width:0.26458332px;stroke-linecap:butt;stroke-linejoin:miter;stroke-opacity:1"
       d="m 25.135417,41.510417 c -5.291667,9.260416 -10.583334,7.9375 -10.583334,7.9375"
       id="path901"
       inkscape:connector-curvature="0"
       sodipodi:nodetypes="cc" />
  </g>
  <g
     inkscape:groupmode="layer"
     id="layer3"
     inkscape:label="output"
     style="display:inline">
    <path
       style="display:inline;opacity:1;fill:#ffffff;fill-opacity:1;stroke:none;stroke-width:0.05546434;stroke-opacity:0.94117647"
       d="m 8.9369684,56.055053 0.4575814,-4.24536 4.0627622,-0.305054 c 2.47921,-0.186153 4.520344,0.01275 4.520344,0.02844 0,0.04587 -0.980098,1.447744 -1.434233,2.051453 -2.336842,3.106508 -4.815664,5.425769 -7.342998,6.870326 l -0.2634566,0.150591 z"
       id="path909"
       inkscape:connector-curvature="0"
       sodipodi:nodetypes="ccsssccc" />
    <path
       style="display:inline;opacity:1;fill:#ffffff;fill-opacity:1;stroke:none;stroke-width:0.05546434;stroke-opacity:0.94117647"
       d="m 1.3798835,62.677083 c -0.2355743,-0.02942 -0.2521316,-0.09824 -0.2494432,-1.0369 0.00469,-1.642466 0.4028883,-3.221558 1.2599205,-4.996524 0.6924279,-1.434063 1.8250148,-3.087819 2.9343547,-4.28462 l 0.3213192,-0.346652 h 0.8814547 l 1.1854033,0.04901 -0.3039486,4.613498 v 4.662521 l -0.5130443,0.24072 c -1.5732924,0.738172 -3.3087923,1.151462 -4.7450427,1.129978 -0.3263704,-0.0049 -0.673308,-0.01886 -0.7709736,-0.03106 z"
       id="path911"
       inkscape:connector-curvature="0"
       sodipodi:nodetypes="ccssccccccccc" />
    <path
       style="display:inline;opacity:1;fill:#ffffff;fill-opacity:1;stroke:none;stroke-width:0.05546434;stroke-opacity:0.94117647"
       d="M 9.4075988,49.165649 V 48.345532 L 9.951985,47.894828 c 1.353262,-1.12038 3.354868,-2.519069 5.056326,-3.533287 l 0.803044,-0.478683 2.067233,2.066685 c 1.136981,1.136672 2.067234,2.086913 2.067234,2.111643 0,0.02472 -0.254789,0.467878 -0.566201,0.984772 l -0.566199,0.939803 h -4.702913 c 0,0 -4.6890445,0.549887 -4.6890445,0.298124 z"
       id="path905"
       inkscape:connector-curvature="0"
       sodipodi:nodetypes="ccscccsscccc" />
    <path
       style="display:inline;opacity:1;fill:#ffffff;fill-opacity:1;stroke:none;stroke-width:0.05546434;stroke-opacity:0.94117647"
       d="m 6.9891008,50.164649 c 0.1513857,-0.154991 0.4437109,-0.432115 0.6496218,-0.615817 l 0.374384,-0.334005 v 0.615817 c 0,0 -0.1465726,0.497015 -0.1119082,0.524745 -0.062402,0.0416 -0.5377031,0.09109 -0.5377031,0.09109 H 6.7138646 Z"
       id="path907"
       inkscape:connector-curvature="0"
       sodipodi:nodetypes="cccccccc" />
    <path
       style="display:inline;opacity:1;fill:#ffffff;fill-opacity:1;stroke:none;stroke-width:0.09531751;stroke-opacity:0.94117647"
       d="m 19.114373,45.323708 c -1.300258,-1.293565 -2.434749,-2.500807 -2.521093,-2.682765 -0.405894,-0.855357 0.295966,-2.243557 1.668166,-3.299443 0.928753,-0.714656 2.277143,-1.31601 3.236066,-1.443216 l 0.446361,-0.05923 0.471871,0.605167 c 0.623364,0.799459 2.249467,2.4028 2.982184,2.940445 0.676465,0.496365 0.682669,0.522661 0.400816,1.698353 -0.345281,1.440279 -1.17639,2.928089 -2.12316,3.80079 -0.606733,0.55927 -1.106241,0.79181 -1.700846,0.79181 h -0.496259 z"
       id="path897"
       inkscape:connector-curvature="0" />
    <path
       style="display:inline;opacity:1;fill:#ffffff;fill-opacity:1;stroke:none;stroke-width:0.08292086;stroke-opacity:0.94117647"
       d="m 39.057643,42.42888 c -4.751223,-1.181326 -8.446697,-7.11771 -9.456754,-15.191258 -0.131765,-1.053204 -0.146974,-1.455367 -0.14508,-3.834017 0.0024,-2.916272 0.05063,-3.509303 0.472288,-5.802883 0.263715,-1.434367 0.976315,-3.870851 1.506839,-5.15209 0.50814,-1.227175 1.760174,-3.4229644 2.424523,-4.2520672 1.409846,-1.7594798 2.901456,-2.8805924 4.691042,-3.5258354 0.433838,-0.1564166 0.829117,-0.193075 2.028558,-0.1880875 1.296366,0.00536 1.576118,0.037851 2.155343,0.2501845 4.039921,1.480863 7.248229,6.3873826 8.46381,12.9438466 1.463529,7.893793 -0.221004,16.509877 -4.184815,21.404603 -1.078074,1.331261 -2.859287,2.648039 -4.247298,3.13986 -1.062947,0.376634 -2.667642,0.46653 -3.708461,0.207744 z"
       id="path4628"
       inkscape:connector-curvature="0" />
    <path
       style="display:inline;opacity:1;fill:#ffffff;fill-opacity:1;stroke:none;stroke-width:0.07843841;stroke-opacity:0.94117647"
       d="m 37.765131,45.184954 c -2.343,-0.29902 -4.651257,-1.004805 -6.941802,-2.122572 C 24.501438,39.977358 20.095877,34.046091 18.905392,27.01709 17.988262,21.602072 19.19001,15.959421 22.232927,11.39308 23.153111,10.01221 23.738671,9.2997496 24.950472,8.0865974 30.142263,2.889022 37.070085,0.65536407 44.209442,1.8771501 c 2.198367,0.3762152 3.913928,0.9389813 5.988178,1.9643371 5.300438,2.6201489 9.315365,7.2756028 11.138694,12.9157288 1.321375,4.087409 1.377033,8.739917 0.153983,12.870555 -0.780122,2.634719 -2.207911,5.376943 -3.893121,7.477165 -0.593775,0.74 -2.289782,2.441479 -3.225412,3.235815 -1.405325,1.1931 -3.881304,2.674481 -5.667004,3.39057 -1.548835,0.621099 -3.048008,1.040781 -4.782213,1.338746 -1.222892,0.210112 -4.877052,0.278292 -6.157416,0.114887 z m 4.505818,-2.164735 c 3.70135,-0.266862 7.520353,-1.795974 10.553857,-4.225716 3.981949,-3.18942 6.613305,-8.001191 7.225814,-13.213321 0.134024,-1.140475 0.11286,-3.428567 -0.04256,-4.600305 C 59.230294,15.116596 55.95248,9.9893382 50.977601,6.8551396 50.050512,6.2710717 48.302489,5.4154599 47.228188,5.0199033 46.247438,4.6587901 44.632102,4.2439529 43.569567,4.0803228 42.275228,3.880996 39.360542,3.8337643 38.157312,3.9926186 33.60425,4.5937295 29.611487,6.5820491 26.466872,9.8142382 23.456557,12.908382 21.715412,16.483145 21.047111,20.9416 c -0.133547,0.890937 -0.133189,4.145719 5.33e-4,5.020058 0.290236,1.897426 0.696798,3.424572 1.31558,4.941619 1.781054,4.366556 5.210309,8.057717 9.439774,10.160733 3.300975,1.641342 6.512064,2.241417 10.467921,1.956209 z"
       id="path4640"
       inkscape:connector-curvature="0" />
  </g>
</svg>
